<svg width="354" height="72" viewBox="0 0 354 72" fill="none" xmlns="http://www.w3.org/2000/svg">
<path d="M312.829 47.4566C312.583 47.2874 312.323 46.8345 312.313 45.7917C312.303 44.785 312.532 43.4337 313.012 41.8127C313.967 38.5813 315.858 34.4566 318.47 30.2234C321.085 25.9901 323.894 22.4997 326.308 20.2751C327.518 19.1589 328.595 18.3927 329.47 17.9975C330.377 17.5883 330.874 17.6573 331.119 17.8265C331.364 17.9957 331.623 18.4485 331.633 19.4912C331.643 20.498 331.414 21.8492 330.935 23.4703C329.979 26.7017 328.088 30.8264 325.476 35.0596C322.861 39.2928 320.051 42.7832 317.64 45.008C316.428 46.1242 315.351 46.8903 314.476 47.2854C313.569 47.6947 313.074 47.6258 312.829 47.4566Z" fill="white" stroke="#252A38" stroke-width="2"/>
<path d="M319.351 35.8471C319.153 35.9922 319.085 36.0002 319.072 36.0004C319.067 35.9894 319.05 35.9317 319.115 35.7088C319.194 35.4486 319.36 35.0656 319.62 34.5729C320.135 33.5938 320.965 32.2785 321.991 30.8669C323.018 29.4553 324.022 28.2433 324.812 27.4252C325.21 27.0138 325.535 26.7226 325.767 26.5536C325.968 26.4086 326.033 26.4006 326.046 26.4004C326.053 26.4114 326.07 26.4691 326.005 26.692C325.926 26.9522 325.758 27.3352 325.5 27.8279C324.985 28.807 324.153 30.1223 323.129 31.5339C322.103 32.9455 321.096 34.1577 320.306 34.9755C319.908 35.387 319.585 35.6782 319.351 35.8471Z" fill="#252A38" stroke="#252A38" stroke-width="1.5"/>
<path d="M321.743 53.6128C321.497 53.4436 321.237 52.9907 321.227 51.9481C321.217 50.9412 321.446 49.5901 321.926 47.9689C322.881 44.7375 324.772 40.6128 327.386 36.3796C329.999 32.1463 332.808 28.6559 335.222 26.4313C336.432 25.3151 337.509 24.549 338.386 24.1538C339.291 23.7444 339.788 23.8136 340.033 23.9828C340.278 24.152 340.537 24.6049 340.549 25.6474C340.559 26.6542 340.328 28.0054 339.849 29.6265C338.895 32.858 337.002 36.9826 334.39 41.2158C331.777 45.449 328.967 48.9396 326.554 51.1642C325.344 52.2804 324.267 53.0465 323.39 53.4418C322.483 53.8509 321.988 53.782 321.743 53.6128Z" fill="white" stroke="#252A38" stroke-width="2"/>
<path d="M331.171 38.4951C331.059 38.5826 331.021 38.5855 331.013 38.5853C331.01 38.5779 330.998 38.5398 331.028 38.397C331.064 38.2304 331.147 37.9868 331.28 37.6749C331.546 37.0553 331.98 36.2279 332.526 35.3442C333.071 34.4606 333.612 33.7062 334.042 33.201C334.259 32.9466 334.436 32.7683 334.567 32.6662C334.677 32.5789 334.715 32.5758 334.723 32.5762C334.727 32.5834 334.738 32.6216 334.708 32.7645C334.672 32.931 334.589 33.1747 334.456 33.4865C334.192 34.106 333.756 34.9337 333.21 35.8171C332.666 36.7007 332.124 37.4553 331.694 37.9605C331.478 38.2147 331.301 38.3931 331.171 38.4951Z" fill="#252A38" stroke="#252A38" stroke-width="1.5"/>
<path d="M334.194 56.7227C329.866 63.7335 320.497 65.7209 311.991 59.847C303.485 53.9732 300.944 44.8976 305.272 37.8868C311.851 30.4245 318.969 28.8886 327.475 34.7625C335.983 40.6363 337.591 47.0621 334.194 56.7227Z" fill="white" stroke="#252A38" stroke-width="2"/>
<path d="M324.689 52.5232C326.358 53.6764 328.596 53.1793 329.687 51.4128C330.778 49.6462 330.308 47.2791 328.637 46.1256C326.968 44.9724 324.73 45.4695 323.639 47.236C322.548 49.0026 323.019 51.3697 324.689 52.5232Z" stroke="#252A38" stroke-width="0.5"/>
<path d="M325.516 51.175C326.483 51.8428 327.778 51.555 328.409 50.5323C329.041 49.5095 328.768 48.139 327.802 47.4714C326.835 46.8036 325.538 47.0914 324.907 48.1141C324.275 49.1369 324.548 50.5072 325.516 51.175Z" fill="#252A38" stroke="#252A38" stroke-width="0.5"/>
<path d="M312.59 44.1695C314.259 45.323 316.497 44.8258 317.588 43.0593C318.679 41.2926 318.208 38.9256 316.538 37.7722C314.868 36.6189 312.629 37.1159 311.539 38.8826C310.449 40.6491 310.918 43.0163 312.59 44.1695Z" stroke="#252A38" stroke-width="0.5"/>
<path d="M313.419 42.8216C314.385 43.4894 315.682 43.2016 316.314 42.1788C316.945 41.156 316.673 39.7855 315.706 39.1177C314.738 38.4501 313.442 38.7379 312.811 39.7607C312.18 40.7834 312.452 42.1538 313.419 42.8216Z" fill="#252A38" stroke="#252A38" stroke-width="0.5"/>
<path d="M317.274 51.3142L318.959 50.6911C319.407 50.5258 319.48 49.8903 319.083 49.6167L317.259 48.3572C316.862 48.0836 316.341 48.4099 316.379 48.9091L316.517 50.7917C316.546 51.1863 316.92 51.4449 317.274 51.3142Z" fill="#252A38" stroke="#252A38" stroke-width="0.5"/>
<path d="M307.52 42.5118C305.489 40.1939 303.44 38.1077 300.348 38.139" stroke="#252A38" stroke-width="0.5" stroke-linecap="round"/>
<path d="M305.707 43.9681C304.271 43.0137 302.787 42.2448 301.057 42.304C300.418 42.3259 299.349 42.6265 298.773 42.4669" stroke="#252A38" stroke-width="0.5" stroke-linecap="round"/>
<path d="M328.883 57.0684C329.998 57.8807 331.757 59.0575 332.416 60.3778C332.797 61.1432 333.245 61.9491 333.646 62.6779" stroke="#252A38" stroke-width="0.5" stroke-linecap="round"/>
<path d="M328.096 59.2305C329.918 60.7419 330.012 63.3132 330.446 65.4932" stroke="#252A38" stroke-width="0.5" stroke-linecap="round"/>
<path d="M316.914 50.6133C317.089 51.7673 315.718 53.0442 314.659 52.6716C314.034 52.452 313.546 51.872 313.156 51.3518" stroke="#252A38" stroke-width="0.5" stroke-linecap="round"/>
<path d="M316.99 50.9805C316.313 52.0763 315.864 53.0465 316.67 54.1719C317.285 55.0265 317.576 54.768 318.484 54.3931" stroke="#252A38" stroke-width="0.5" stroke-linecap="round"/>
<path d="M311.187 29.4449L311.196 29.4546L311.206 29.464C312.241 30.4834 312.759 31.7353 312.759 33.2712C312.759 34.8616 312.253 36.1346 311.262 37.1475C310.267 38.123 309.051 38.6124 307.565 38.6124C306.031 38.6124 304.821 38.1181 303.873 37.1522C302.929 36.1908 302.434 34.9215 302.434 33.2712C302.434 31.7188 302.922 30.4608 303.883 29.4449C304.884 28.3862 306.096 27.8652 307.565 27.8652C308.989 27.8652 310.182 28.3819 311.187 29.4449ZM308.928 61.3944V59.9479L307.746 60.7815C307.55 60.9194 307.212 61.0332 306.646 61.0332C305.475 61.0332 304.489 60.608 303.649 59.7241C302.855 58.8057 302.434 57.612 302.434 56.0808C302.434 54.4794 302.926 53.2296 303.873 52.2647C304.821 51.2988 306.031 50.8044 307.565 50.8044C309.213 50.8044 310.442 51.3552 311.343 52.4186L311.352 52.4289L311.361 52.4389C312.334 53.506 312.82 54.7713 312.82 56.2752C312.82 59.0435 312.364 61.5151 311.467 63.7017L311.464 63.7093L311.461 63.7168C310.602 65.9451 309.341 67.7866 307.681 69.2569L307.681 69.2569L307.674 69.2628C307.512 69.4104 307.232 69.5614 306.775 69.673L306.739 69.6819L306.703 69.6943C306.295 69.8382 305.869 69.9108 305.421 69.9108C305.149 69.9108 304.924 69.8926 304.738 69.8627C305.973 68.565 306.939 67.1924 307.626 65.7431C308.462 64.1047 308.928 62.6443 308.928 61.3944Z" fill="white" stroke="#252A38" stroke-width="1.5"/>
<path d="M292.758 61.7825C289.286 61.7825 286.733 60.7241 285.1 58.6073C283.466 56.4905 282.649 53.7689 282.649 50.4425V35.3441H276.154C276.154 33.1409 276.542 31.4993 277.318 30.4193C278.094 29.3393 279.116 28.7993 280.382 28.7993H282.771V23.6801C282.771 21.8225 283.445 20.5049 284.793 19.7273C286.141 18.9065 288.184 18.4961 290.92 18.4961V28.7993H299.069C299.069 31.1321 298.661 32.8169 297.844 33.8537C297.027 34.8473 295.679 35.3441 293.8 35.3441H291.043V50.1185C291.043 51.5441 291.308 52.5809 291.839 53.2289C292.37 53.8337 293.289 54.1361 294.596 54.1361C296.026 54.1361 297.496 53.7041 299.008 52.8401C299.457 53.2721 299.804 53.8121 300.049 54.4601C300.335 55.1081 300.478 55.7561 300.478 56.4041C300.478 57.2681 300.192 58.1105 299.62 58.9313C299.049 59.7521 298.17 60.4433 296.986 61.0049C295.842 61.5233 294.433 61.7825 292.758 61.7825Z" fill="white"/>
<path d="M236.533 21.0879C236.533 19.2735 237.228 17.8479 238.616 16.8111C240.046 15.7743 242.19 15.2559 245.05 15.2559V30.0303C244.355 30.5487 243.906 30.9807 243.702 31.3263L243.947 31.6503C245.009 30.5703 246.418 29.7279 248.174 29.1231C249.972 28.5183 251.585 28.2159 253.015 28.2159C256.65 28.2159 259.55 29.3175 261.715 31.5207C263.88 33.6807 264.962 36.4887 264.962 39.9447V49.9887C264.962 52.2351 264.411 54.2655 263.308 56.0799C262.246 57.8511 260.816 59.2551 259.019 60.2919C257.263 61.2855 255.384 61.7823 253.382 61.7823C251.136 61.7823 249.216 61.3287 247.623 60.4215C246.071 59.4711 244.662 58.0887 243.395 56.2743L243.089 56.5335C243.293 56.9223 243.681 57.4839 244.253 58.2183C244.253 59.3415 243.661 60.2271 242.476 60.8751C241.292 61.4799 239.311 61.7823 236.533 61.7823V21.0879ZM250.748 54.1359C252.627 54.1359 254.056 53.7255 255.037 52.9047C256.058 52.0839 256.568 50.8959 256.568 49.3407V40.5927C256.568 39.0807 256.058 37.9143 255.037 37.0935C254.056 36.2727 252.627 35.8623 250.748 35.8623C249.032 35.8623 247.623 36.2943 246.52 37.1583C245.458 38.0223 244.927 39.0807 244.927 40.3335V49.6647C244.927 50.9607 245.458 52.0407 246.52 52.9047C247.623 53.7255 249.032 54.1359 250.748 54.1359Z" fill="white"/>
<path d="M205.898 21.0879C205.898 19.2735 206.593 17.8479 207.982 16.8111C209.411 15.7743 211.556 15.2559 214.415 15.2559V30.0303C213.72 30.5487 213.271 30.9807 213.067 31.3263L213.312 31.6503C214.374 30.5703 215.783 29.7279 217.54 29.1231C219.337 28.5183 220.95 28.2159 222.38 28.2159C226.015 28.2159 228.915 29.3175 231.08 31.5207C233.245 33.6807 234.327 36.4887 234.327 39.9447V49.9887C234.327 52.2351 233.776 54.2655 232.673 56.0799C231.611 57.8511 230.181 59.2551 228.384 60.2919C226.628 61.2855 224.749 61.7823 222.747 61.7823C220.501 61.7823 218.581 61.3287 216.988 60.4215C215.436 59.4711 214.027 58.0887 212.761 56.2743L212.454 56.5335C212.658 56.9223 213.047 57.4839 213.618 58.2183C213.618 59.3415 213.026 60.2271 211.842 60.8751C210.657 61.4799 208.676 61.7823 205.898 61.7823V21.0879ZM220.113 54.1359C221.992 54.1359 223.421 53.7255 224.402 52.9047C225.423 52.0839 225.933 50.8959 225.933 49.3407V40.5927C225.933 39.0807 225.423 37.9143 224.402 37.0935C223.421 36.2727 221.992 35.8623 220.113 35.8623C218.397 35.8623 216.988 36.2943 215.885 37.1583C214.823 38.0223 214.292 39.0807 214.292 40.3335V49.6647C214.292 50.9607 214.823 52.0407 215.885 52.9047C216.988 53.7255 218.397 54.1359 220.113 54.1359Z" fill="white"/>
<path d="M187.136 61.7832C185.135 61.7832 183.256 61.3728 181.5 60.552C179.784 59.688 178.395 58.4568 177.333 56.8584C176.271 55.2168 175.74 53.2512 175.74 50.9616C175.74 48.672 176.312 46.7064 177.456 45.0648C178.599 43.38 180.111 42.1056 181.99 41.2416C183.909 40.3776 185.993 39.9456 188.239 39.9456C190.118 39.9456 191.772 40.248 193.202 40.8528C194.672 41.4576 196.041 42.3432 197.307 43.5096L197.613 43.1208C196.756 42.3 196.082 41.7168 195.591 41.3712V40.5288C195.591 38.8872 195.02 37.5912 193.876 36.6408C192.773 35.6472 191.2 35.1504 189.158 35.1504C187.361 35.1504 185.768 35.496 184.379 36.1872C182.99 36.8784 181.867 37.8936 181.009 39.2328C180.029 38.9736 179.192 38.4984 178.497 37.8072C177.844 37.0728 177.517 36.2736 177.517 35.4096C177.517 34.0704 178.068 32.8608 179.171 31.7808C180.274 30.6576 181.765 29.7936 183.644 29.1888C185.564 28.5408 187.667 28.2168 189.955 28.2168C194.407 28.2168 197.838 29.2968 200.248 31.4568C202.658 33.6168 203.863 36.5544 203.863 40.2696V56.016C203.863 58.0464 203.23 59.5152 201.963 60.4224C200.738 61.3296 198.777 61.7832 196.082 61.7832V59.256C196.694 58.6512 197.184 58.1112 197.552 57.636L197.246 57.312C195.898 58.7808 194.489 59.904 193.018 60.6816C191.548 61.416 189.587 61.7832 187.136 61.7832ZM189.465 55.4328C191.425 55.4328 192.957 55.044 194.06 54.2664C195.163 53.4888 195.714 52.3656 195.714 50.8968C195.714 49.4712 195.142 48.348 193.998 47.5272C192.896 46.7064 191.384 46.296 189.465 46.296C187.749 46.296 186.381 46.7064 185.36 47.5272C184.379 48.348 183.889 49.4712 183.889 50.8968C183.889 52.3656 184.379 53.4888 185.36 54.2664C186.381 55.044 187.749 55.4328 189.465 55.4328Z" fill="white"/>
<path d="M139.523 20.1814C139.523 18.9286 139.952 17.8918 140.81 17.071C141.709 16.2502 142.791 15.8398 144.057 15.8398H160.171C164.746 15.8398 168.259 17.0926 170.709 19.5982C173.201 22.0606 174.447 25.5814 174.447 30.1606C174.447 32.7094 173.957 34.8478 172.976 36.5758C172.037 38.3038 170.567 39.6646 168.565 40.6582V40.9174C172.119 42.6022 173.895 45.7774 173.895 50.443V54.9142C173.895 57.1606 173.119 58.867 171.567 60.0334C170.056 61.1998 167.83 61.783 164.889 61.783V50.767C164.889 48.607 164.48 47.0302 163.664 46.0366C162.887 44.9998 161.682 44.4814 160.049 44.4814H148.407V54.9142C148.407 57.1606 147.652 58.867 146.141 60.0334C144.629 61.1998 142.424 61.783 139.523 61.783V20.1814ZM159.681 36.3814C161.56 36.3814 162.99 35.8414 163.97 34.7614C164.95 33.6814 165.44 32.1262 165.44 30.0958C165.44 27.979 164.971 26.4238 164.031 25.4302C163.133 24.4366 161.682 23.9398 159.681 23.9398H148.407V36.3814H159.681Z" fill="white"/>
<path d="M119.21 61.7832C116.678 61.7832 114.329 61.2432 112.164 60.1632C110.04 59.0832 108.345 57.6144 107.079 55.7568C105.813 53.8992 105.18 51.8256 105.18 49.536V41.2416C105.18 38.8224 105.813 36.6192 107.079 34.632C108.386 32.6016 110.122 31.0248 112.287 29.9016C114.452 28.7784 116.78 28.2168 119.272 28.2168C121.722 28.2168 123.969 28.7568 126.011 29.8368C128.094 30.8736 129.728 32.364 130.913 34.308C132.097 36.2088 132.69 38.3688 132.69 40.788V44.2872C132.69 45.324 132.322 46.2096 131.587 46.944C130.851 47.6352 129.912 47.9808 128.768 47.9808H113.328V48.888C113.328 50.616 113.819 52.0416 114.799 53.1648C115.82 54.2448 117.311 54.7848 119.272 54.7848C121.191 54.7848 122.601 54.3528 123.499 53.4888C124.398 52.5816 124.847 51.4584 124.847 50.1192C125.664 50.0328 126.277 49.9896 126.685 49.9896C128.36 49.9896 129.647 50.3568 130.545 51.0912C131.444 51.8256 131.893 52.9056 131.893 54.3312C131.893 55.4976 131.342 56.664 130.239 57.8304C129.136 58.9968 127.604 59.9472 125.644 60.6816C123.724 61.416 121.579 61.7832 119.21 61.7832ZM125.092 41.6952V40.788C125.092 39.06 124.541 37.6992 123.438 36.7056C122.376 35.6688 120.967 35.1504 119.21 35.1504C117.454 35.1504 116.024 35.6688 114.921 36.7056C113.859 37.6992 113.328 39.06 113.328 40.788V41.6952H125.092Z" fill="white"/>
<path d="M86.1248 61.7823C83.96 61.7823 81.9993 61.2855 80.243 60.2919C78.4866 59.2551 77.0978 57.8511 76.0767 56.0799C75.0555 54.2655 74.5449 52.2351 74.5449 49.9887V40.0095C74.5449 37.7631 75.0759 35.7543 76.1379 33.9831C77.2408 32.1687 78.7521 30.7647 80.6718 29.7711C82.5916 28.7343 84.7156 28.2159 87.0438 28.2159C88.4326 28.2159 89.9235 28.5183 91.5165 29.1231C93.1503 29.7279 94.4983 30.5703 95.5603 31.6503L95.8053 31.3263C95.6011 30.9807 95.1518 30.5487 94.4574 30.0303V21.0879C94.4574 19.2735 95.1518 17.8479 96.5406 16.8111C97.9702 15.7743 100.115 15.2559 102.974 15.2559V55.8855C102.974 57.5703 102.341 58.9743 101.075 60.0975C99.8083 61.2207 97.8681 61.7823 95.2539 61.7823V58.2831C95.7441 57.6351 96.1321 57.0519 96.418 56.5335L96.1117 56.2743C94.8046 58.1319 93.3954 59.5143 91.8841 60.4215C90.4137 61.3287 88.4939 61.7823 86.1248 61.7823ZM88.7594 54.1359C90.4749 54.1359 91.8637 53.7255 92.9257 52.9047C94.0285 52.0407 94.58 50.9607 94.58 49.6647V40.3335C94.58 39.0807 94.0285 38.0223 92.9257 37.1583C91.8637 36.2943 90.4749 35.8623 88.7594 35.8623C86.8805 35.8623 85.4304 36.2727 84.4093 37.0935C83.429 37.9143 82.9388 39.0807 82.9388 40.5927V49.3407C82.9388 50.8959 83.429 52.0839 84.4093 52.9047C85.4304 53.7255 86.8805 54.1359 88.7594 54.1359Z" fill="white"/>
<path d="M57.4498 61.7832C54.7539 61.7832 52.3032 61.2648 50.0975 60.228C47.8918 59.1912 46.1558 57.7656 44.8896 55.9512C43.6233 54.0936 42.9902 51.9984 42.9902 49.6656V41.0472C42.9902 38.6712 43.6029 36.5112 44.8283 34.5672C46.0537 32.58 47.7692 31.0248 49.9749 29.9016C52.1806 28.7784 54.6722 28.2168 57.4498 28.2168C60.2273 28.2168 62.7189 28.7784 64.9246 29.9016C67.1303 31.0248 68.8458 32.58 70.0712 34.5672C71.2966 36.5112 71.9093 38.6712 71.9093 41.0472V49.6656C71.9093 51.9984 71.2762 54.0936 70.01 55.9512C68.7437 57.7656 67.0078 59.1912 64.8021 60.228C62.5964 61.2648 60.1456 61.7832 57.4498 61.7832ZM57.4498 54.1368C59.3695 54.1368 60.8604 53.6832 61.9224 52.776C62.9844 51.8688 63.5154 50.616 63.5154 49.0176V41.5008C63.5154 39.816 62.964 38.4552 61.8612 37.4184C60.7992 36.3816 59.3287 35.8632 57.4498 35.8632C55.5708 35.8632 54.08 36.3816 52.9771 37.4184C51.9151 38.4552 51.3841 39.816 51.3841 41.5008V49.0176C51.3841 50.616 51.9151 51.8688 52.9771 52.776C54.0391 53.6832 55.53 54.1368 57.4498 54.1368Z" fill="white"/>
<path d="M21.1993 61.7823C17.5231 61.7823 14.235 61.0263 11.3349 59.5143C8.43484 58.0023 6.16788 55.9071 4.53403 53.2287C2.94103 50.5071 2.14453 47.4183 2.14453 43.9623V32.9463C2.14453 29.4903 2.92061 26.4231 4.47276 23.7447C6.06576 21.0663 8.27145 18.9927 11.0898 17.5239C13.9491 16.0119 17.1963 15.2559 20.8316 15.2559C24.467 15.2559 27.7142 15.8391 30.5735 17.0055C33.4327 18.1287 35.6384 19.7271 37.1905 21.8007C38.7835 23.8743 39.58 26.2287 39.58 28.8639C39.58 30.5919 39.049 31.9527 37.987 32.9463C36.925 33.8967 35.475 34.3719 33.6369 34.3719C32.5749 34.3719 31.5333 34.2207 30.5122 33.9183C30.6347 33.0111 30.696 31.9095 30.696 30.6135C30.696 28.5399 29.777 26.8551 27.9389 25.5591C26.1008 24.2199 23.7317 23.5503 20.8316 23.5503C17.9724 23.5503 15.6442 24.4359 13.847 26.2071C12.0497 27.9351 11.1511 30.1815 11.1511 32.9463V43.9623C11.1511 46.7703 12.0701 49.0599 13.9082 50.8311C15.7871 52.6023 18.2175 53.4879 21.1993 53.4879C24.0993 53.4879 26.448 52.8399 28.2452 51.5439C30.0833 50.2479 31.0023 48.5631 31.0023 46.4895C31.0023 45.0639 30.9411 44.0271 30.8185 43.3791C31.9214 43.1199 32.9221 42.9903 33.8207 42.9903C35.6588 42.9903 37.1293 43.4871 38.2321 44.4807C39.335 45.4743 39.8864 46.8351 39.8864 48.5631C39.8864 51.1119 39.0899 53.4015 37.4969 55.4319C35.9447 57.4191 33.739 58.9743 30.8798 60.0975C28.0614 61.2207 24.8346 61.7823 21.1993 61.7823Z" fill="white"/>
<path d="M270.91 13.0653L270.937 13.5758C270.94 13.7984 270.938 14.0624 270.932 14.3709C270.926 14.6795 270.894 15.0187 270.859 15.3918C270.687 17.2252 270.381 19.0419 269.944 20.8257C269.694 21.7938 269.355 22.7342 268.932 23.6342C268.557 24.4509 268.05 25.1918 267.433 25.8232C267.177 26.0824 266.896 26.3119 266.593 26.5079C266.356 26.6624 266.106 26.7936 265.847 26.8992L265.554 27.002L265.334 27.0641L265.145 27.1132L264.943 26.0418L265.089 26.0049L265.262 25.9628C265.327 25.9351 265.402 25.909 265.489 25.8807C265.691 25.8005 265.889 25.7032 266.077 25.5907C266.325 25.4407 266.558 25.2612 266.769 25.0564C267.319 24.5151 267.785 23.883 268.144 23.1852C268.577 22.3548 268.931 21.4839 269.206 20.5825C269.733 18.8613 270.137 17.0994 270.415 15.3126C270.536 14.582 270.656 13.9764 270.744 13.5489L270.893 12.875L270.91 13.0653Z" fill="#32AF8F"/>
<path d="M267.417 5.89461C267.473 5.29249 267.718 4.72644 268.107 4.2845C268.498 3.84189 269.015 3.5464 269.579 3.44356C270.145 3.34003 270.726 3.43498 271.236 3.71315C271.746 3.99132 272.155 4.43787 272.403 4.98439C273.264 6.83083 271.621 9.7072 271.164 11.5146C271.079 11.8645 270.938 12.5367 271.304 12.6718C271.673 12.8061 271.953 12.1867 272.091 11.8552C272.792 10.1377 273.187 6.81705 274.945 5.92604C275.459 5.6643 276.039 5.58651 276.6 5.70416C277.161 5.82179 277.671 6.12894 278.053 6.57899C278.435 7.02904 278.669 7.59777 278.716 8.19993C278.767 8.80142 278.631 9.40315 278.326 9.91511C278.897 9.98003 279.43 10.2397 279.849 10.6536C280.265 11.0683 280.544 11.6149 280.642 12.2112C280.742 12.8069 280.652 13.4206 280.392 13.958C280.13 14.496 279.711 14.9286 279.195 15.1912C277.449 16.0984 274.724 14.3554 273.015 13.8683C272.684 13.7738 272.041 13.6249 271.915 14.0125C271.788 14.4001 272.38 14.7016 272.693 14.8474C274.32 15.5927 277.463 16.0148 278.311 17.8712C278.565 18.4167 278.644 19.0342 278.535 19.6303C278.425 20.2263 278.134 20.7684 277.707 21.1726C277.279 21.5774 276.738 21.8224 276.166 21.8712C275.593 21.92 275.019 21.77 274.535 21.4428C274.476 22.0442 274.23 22.6085 273.839 23.05C273.45 23.4908 272.932 23.7858 272.369 23.8891C271.805 23.9927 271.225 23.899 270.715 23.6225C270.206 23.346 269.795 22.9021 269.544 22.3575C268.683 20.5112 270.327 17.6347 270.783 15.8275C270.872 15.473 271.014 14.8007 270.645 14.6663C270.279 14.5313 269.997 15.1514 269.857 15.4867C269.156 17.2042 268.757 20.522 267.008 21.4184C266.491 21.6859 265.906 21.7671 265.34 21.6503C264.777 21.5326 264.262 21.2237 263.878 20.7692C263.495 20.3149 263.263 19.7409 263.217 19.1346C263.173 18.5278 263.316 17.9227 263.625 17.4114C263.057 17.3459 262.522 17.0869 262.105 16.6723C261.686 16.2584 261.407 15.7117 261.31 15.1154C261.212 14.519 261.299 13.906 261.562 13.368C261.821 12.8307 262.243 12.3974 262.756 12.1354C264.499 11.2329 267.224 12.9757 268.935 13.4622C269.267 13.5528 269.909 13.7056 270.035 13.318C270.162 12.9305 269.574 12.6243 269.257 12.483C267.63 11.7379 264.491 11.3112 263.64 9.4555C263.392 8.91034 263.316 8.2955 263.428 7.7021C263.539 7.10938 263.829 6.5713 264.255 6.16904C264.682 5.76677 265.22 5.52271 265.793 5.47266C266.362 5.42331 266.931 5.57176 267.417 5.89461Z" fill="#32AF8F"/>
<path d="M268.004 9.1032L268.185 9.13923C268.405 9.19378 268.624 9.25989 268.84 9.3371L269.078 9.43085L268.733 8.64279L269.106 9.42008C269.12 9.3657 269.146 9.27553 269.186 9.16189C269.261 8.93225 269.35 8.70725 269.45 8.48852L269.537 8.31654C269.56 8.25881 269.59 8.20295 269.622 8.1501C269.688 8.0491 269.749 7.95462 269.802 7.87186C269.904 7.7122 269.993 7.61735 269.993 7.61735C269.993 7.61735 269.923 7.72649 269.821 7.88613C269.768 7.96889 269.709 8.06043 269.656 8.17409C269.623 8.2246 269.605 8.28485 269.576 8.34216C269.55 8.39881 269.526 8.45515 269.498 8.51736C269.405 8.73499 269.326 8.95709 269.258 9.18352C269.203 9.36975 269.177 9.49604 269.177 9.49604L269.505 10.2077C269.521 10.1504 269.545 10.0736 269.578 9.97166C269.641 9.78641 269.735 9.54351 269.844 9.29762L269.928 9.12631C269.963 9.07288 269.983 9.00973 270.016 8.95922C270.08 8.85887 270.14 8.76439 270.193 8.68163C270.296 8.522 270.387 8.42644 270.387 8.42644C270.387 8.42644 270.317 8.53559 270.215 8.69525C270.162 8.77798 270.101 8.87023 270.035 8.97349C270.005 9.0271 269.978 9.08231 269.954 9.13894C269.919 9.19239 269.903 9.25746 269.874 9.31481C269.778 9.55284 269.69 9.79736 269.637 9.98291C269.582 10.1691 269.561 10.2557 269.555 10.2827L269.888 10.9856C269.903 10.9312 269.927 10.8567 269.957 10.7711C270.034 10.5407 270.122 10.3157 270.223 10.097L270.309 9.92503C270.333 9.86846 270.363 9.81267 270.395 9.75861C270.459 9.65827 270.519 9.56378 270.572 9.48102C270.69 9.33109 270.765 9.22583 270.765 9.22583C270.765 9.22583 270.696 9.33498 270.594 9.49461C270.54 9.57737 270.48 9.67186 270.429 9.78258C270.396 9.83309 270.378 9.89333 270.349 9.95065C270.32 10.008 270.294 10.0672 270.268 10.1265C270.178 10.3435 270.099 10.5656 270.029 10.7927C269.99 10.9239 269.967 11.0238 269.953 11.0704L270.29 11.7752C270.305 11.7208 270.327 11.657 270.354 11.5821C270.428 11.3526 270.517 11.1268 270.617 10.9061L270.701 10.7348C270.736 10.6814 270.756 10.6182 270.789 10.5677C270.853 10.4674 270.913 10.3729 270.966 10.2901C271.069 10.1305 271.159 10.0349 271.159 10.0349C271.159 10.0349 271.088 10.1448 270.985 10.3044C270.932 10.3871 270.872 10.4816 270.821 10.5924C270.791 10.6457 270.764 10.7019 270.743 10.7598C270.708 10.8132 270.688 10.8764 270.659 10.9337C270.564 11.1717 270.478 11.4156 270.423 11.6018C270.385 11.7174 270.365 11.8065 270.352 11.858L270.828 12.8513C270.84 12.9691 270.884 13.0805 270.956 13.1723C271.025 13.2648 271.117 13.3348 271.224 13.3735C271.331 13.4121 271.442 13.4195 271.553 13.3927C271.661 13.3667 271.761 13.3083 271.84 13.225L272.797 12.7599C272.827 12.7152 272.853 12.625 272.893 12.5114C272.971 12.2881 273.039 12.0606 273.098 11.829C273.108 11.7679 273.123 11.7057 273.135 11.6416C273.15 11.5808 273.162 11.5188 273.167 11.4574C273.185 11.3353 273.202 11.2237 273.21 11.1241L273.22 10.7978L273.221 11.127C273.215 11.2237 273.2 11.3373 273.191 11.4603C273.181 11.5833 273.168 11.5833 273.161 11.6464L273.125 11.8365C273.078 12.0717 273.014 12.3039 272.936 12.5312C272.915 12.6099 272.892 12.6711 272.875 12.7235L273.55 12.3924C273.577 12.3507 273.606 12.2524 273.653 12.1244C273.732 11.9012 273.799 11.6737 273.858 11.4421L273.899 11.251C273.909 11.1898 273.927 11.1296 273.932 11.0694C273.94 11.0086 273.967 10.8331 273.97 10.7372L273.98 10.4109L273.983 10.7372C273.975 10.8367 273.962 10.9474 273.951 11.0733C273.947 11.1305 273.93 11.1934 273.921 11.2594L273.885 11.4495C273.837 11.684 273.776 11.9147 273.698 12.1413C273.671 12.2288 273.646 12.3008 273.629 12.3532L274.302 12.025C274.314 12.0044 274.356 11.8957 274.415 11.7345C274.493 11.5113 274.563 11.2831 274.62 11.0522L274.659 10.8641C274.674 10.8028 274.686 10.7401 274.693 10.6769C274.707 10.5585 274.727 10.4462 274.732 10.3473L274.741 10.021L274.743 10.3502C274.737 10.4468 274.722 10.5604 274.713 10.6834C274.707 10.7436 274.69 10.8064 274.683 10.8695L274.647 11.0596C274.599 11.2949 274.536 11.5271 274.46 11.7536C274.429 11.8526 274.401 11.933 274.379 11.9864L275.067 11.6497C275.067 11.6497 275.111 11.5302 275.175 11.3476C275.253 11.1243 275.323 10.8961 275.38 10.6652L275.421 10.4742C275.434 10.414 275.446 10.3521 275.453 10.29C275.468 10.1686 275.489 10.0563 275.492 9.96032C275.501 9.76282 275.502 9.63401 275.502 9.63401L275.505 9.96027C275.501 10.0563 275.484 10.1705 275.475 10.2935C275.465 10.4165 275.454 10.4158 275.443 10.4826L275.407 10.6726C275.359 10.907 275.298 11.1386 275.225 11.3657C275.186 11.4819 275.153 11.5656 275.136 11.618L275.801 11.2475L275.067 11.637C275.108 11.6675 275.201 11.6822 275.309 11.7249C275.526 11.8052 275.741 11.8985 275.947 12.0061L276.112 12.0939C276.162 12.1302 276.212 12.1665 276.259 12.2009C276.356 12.269 276.446 12.3332 276.521 12.3877L276.765 12.5937L276.506 12.4089C276.431 12.3544 276.343 12.2895 276.246 12.2214C276.195 12.1892 276.142 12.1611 276.087 12.1376L275.922 12.0498C275.697 11.9482 275.467 11.8553 275.291 11.7978C275.113 11.741 274.995 11.7055 274.995 11.7055L274.323 12.0568L274.544 12.1334C274.722 12.2007 274.948 12.2993 275.182 12.4146L275.343 12.506C275.398 12.5332 275.45 12.5643 275.502 12.5976C275.596 12.6664 275.686 12.7306 275.761 12.7851L276.007 12.9904L275.757 12.7909L275.487 12.6211C275.436 12.5894 275.382 12.5606 275.33 12.5343L275.163 12.4494C274.938 12.3478 274.707 12.255 274.529 12.1982C274.354 12.1407 274.268 12.1142 274.244 12.1087L273.583 12.4629C273.624 12.4934 273.702 12.5007 273.782 12.5337C273.999 12.6144 274.214 12.7077 274.42 12.8149L274.585 12.9027C274.635 12.939 274.695 12.9607 274.744 12.9944C274.838 13.0631 274.928 13.1273 275.003 13.1818L275.247 13.3878L274.991 13.2023C274.916 13.1478 274.825 13.0836 274.729 13.0155C274.68 12.9826 274.627 12.9545 274.57 12.9317L274.407 12.8432C274.182 12.7416 273.949 12.6494 273.774 12.5919L273.508 12.509L272.845 12.8661L273.026 12.9275C273.204 12.9947 273.431 13.0934 273.664 13.2087L273.828 13.2994C273.877 13.3326 273.927 13.3681 273.975 13.4064C274.071 13.4745 274.159 13.5394 274.237 13.5932L274.481 13.7992L274.222 13.6143C274.147 13.5599 274.056 13.4957 273.962 13.4269C273.911 13.3952 273.858 13.3664 273.805 13.3401L273.638 13.2553C273.413 13.1536 273.183 13.0608 273.005 13.004C272.925 12.9734 272.842 12.948 272.76 12.9268L271.823 13.4294C271.625 13.5166 271.452 13.661 271.328 13.8453C271.319 14.0731 271.371 14.298 271.473 14.4985L271.915 15.5066C271.989 15.5462 272.069 15.5792 272.15 15.6062C272.36 15.6924 272.576 15.7659 272.793 15.8272L272.973 15.8711C273.032 15.8824 273.092 15.8986 273.147 15.9055L273.463 15.9502L273.768 15.9583L273.462 15.9582C273.37 15.956 273.261 15.9394 273.147 15.9261C273.087 15.9197 273.028 15.9091 272.971 15.8945L272.785 15.8572C272.565 15.8028 272.346 15.7367 272.132 15.6587L271.951 15.5895L272.263 16.3071L272.518 16.4153C272.691 16.4838 272.924 16.5658 273.163 16.6336L273.342 16.6747C273.402 16.6885 273.462 16.7047 273.518 16.7117C273.575 16.718 273.736 16.7475 273.83 16.7545L274.139 16.7647L273.827 16.7654C273.737 16.7603 273.628 16.7436 273.515 16.7303C273.454 16.7247 273.396 16.7141 273.338 16.6988L273.155 16.6636C272.935 16.6089 272.716 16.5428 272.502 16.4648L272.3 16.39L272.613 17.102C272.632 17.1161 272.735 17.1599 272.888 17.2217C273.099 17.306 273.314 17.378 273.53 17.4378L273.712 17.4811C273.769 17.4928 273.829 17.509 273.887 17.5153C274.002 17.5336 274.106 17.5539 274.2 17.5609L274.506 17.569L274.199 17.5686C274.107 17.5664 274 17.5493 273.885 17.5365C273.827 17.5296 273.768 17.5191 273.708 17.5049L273.528 17.469C273.285 17.4072 273.045 17.3346 272.87 17.2691C272.777 17.2362 272.701 17.2078 272.649 17.1849L272.968 17.9112C273.066 17.9435 273.163 17.9816 273.256 18.026C273.466 18.1108 273.683 18.1829 273.901 18.244L274.08 18.2853C274.138 18.3022 274.197 18.3143 274.257 18.3217C274.369 18.3379 274.476 18.3575 274.57 18.3645L274.879 18.3744L274.57 18.375C274.474 18.371 274.368 18.3536 274.252 18.3407C274.192 18.3359 274.133 18.3253 274.076 18.3095L273.895 18.2733C273.675 18.2186 273.456 18.1525 273.24 18.0755L273 17.9847L273.346 18.6873L272.972 17.9131C272.944 17.957 272.933 18.0546 272.893 18.1684C272.819 18.398 272.73 18.623 272.63 18.8416L272.541 19.0166C272.518 19.0746 272.488 19.1304 272.456 19.1831C272.389 19.2841 272.329 19.3784 272.278 19.4583C272.16 19.6106 272.087 19.7128 272.087 19.7128C272.087 19.7128 272.154 19.6067 272.259 19.444C272.31 19.3643 272.37 19.2697 272.421 19.1591C272.455 19.1086 272.487 19.0559 272.501 18.9911C272.513 18.927 272.569 18.8847 272.58 18.8158C272.676 18.5931 272.761 18.3642 272.83 18.1321C272.885 17.9459 272.914 17.8188 272.914 17.8188L272.582 17.1108C272.582 17.1108 272.542 17.2448 272.511 17.3438C272.45 17.5284 272.354 17.7722 272.245 18.018L272.16 18.1894C272.125 18.2428 272.107 18.303 272.074 18.3534C272.008 18.4566 271.948 18.5512 271.897 18.6311C271.793 18.7936 271.704 18.8863 271.704 18.8863C271.704 18.8863 271.774 18.7792 271.878 18.6168C271.929 18.5369 271.99 18.4425 272.041 18.3316C272.071 18.2781 272.097 18.2229 272.121 18.1661C272.156 18.1127 272.173 18.0478 272.202 17.9904C272.299 17.7495 272.384 17.5086 272.45 17.3047C272.515 17.101 272.526 17.0318 272.532 17.0048L272.196 16.305C272.18 16.3599 272.159 16.4308 272.13 16.5166C272.053 16.7467 271.964 16.972 271.864 17.1906L271.775 17.3655C271.751 17.4213 271.722 17.4763 271.692 17.5289C271.626 17.6323 271.566 17.7267 271.514 17.8066C271.41 17.9691 271.321 18.0618 271.321 18.0618C271.321 18.0618 271.389 17.9557 271.493 17.7929C271.544 17.713 271.605 17.6187 271.656 17.508C271.689 17.4573 271.709 17.3942 271.736 17.3398C271.763 17.2854 271.791 17.2233 271.816 17.1641C271.911 16.9418 271.996 16.7132 272.067 16.4802C272.105 16.3491 272.129 16.2491 272.142 16.2025L271.805 15.4977C271.776 15.5425 271.771 15.6154 271.742 15.691C271.667 15.9204 271.579 16.1461 271.481 16.366L271.393 16.541C271.358 16.5944 271.327 16.6442 271.294 16.6949C271.228 16.7981 271.168 16.8925 271.117 16.9724C271.012 17.1351 270.923 17.2275 270.923 17.2275C270.923 17.2275 270.991 17.1214 271.095 16.9589C271.147 16.879 271.209 16.7838 271.258 16.6738C271.288 16.6202 271.317 16.5644 271.341 16.5076C271.374 16.4549 271.393 16.389 271.422 16.3319C271.519 16.0907 271.605 15.8469 271.669 15.6462C271.705 15.5335 271.725 15.4442 271.74 15.3899L271.263 14.3965C271.18 14.1872 271.042 14.0067 270.868 13.8734C270.653 13.8616 270.439 13.9135 270.252 14.0229L269.292 14.4887C269.265 14.5327 269.239 14.6229 269.199 14.7365C269.12 14.9598 269.051 15.1879 268.994 15.4188L268.953 15.61C268.94 15.6701 268.928 15.7319 268.921 15.7942C268.907 15.9125 268.885 16.0278 268.882 16.1237L268.872 16.4502L268.869 16.1238C268.877 16.0243 268.89 15.9135 268.901 15.7876C268.904 15.7304 268.922 15.6675 268.931 15.6015L268.967 15.4114C269.015 15.1769 269.076 14.9462 269.152 14.7204L269.215 14.5273L268.541 14.8584C268.515 14.8972 268.484 14.9962 268.437 15.1264C268.359 15.3496 268.289 15.5778 268.232 15.8088C268.222 15.87 268.207 15.9321 268.193 15.9969C268.178 16.0581 268.166 16.1208 268.159 16.184C268.145 16.3024 268.125 16.4147 268.12 16.5136L268.11 16.84L268.109 16.5107C268.113 16.4148 268.13 16.3006 268.139 16.1774C268.149 16.0545 268.159 16.0551 268.169 15.9914L268.205 15.8013C268.255 15.5654 268.316 15.3331 268.389 15.1054L268.463 14.8947L267.788 15.2259C267.776 15.2464 267.734 15.3551 267.677 15.5134C267.598 15.7364 267.529 15.9645 267.472 16.1958L267.431 16.3867C267.416 16.4475 267.406 16.5089 267.399 16.5709C267.383 16.6922 267.363 16.8046 267.36 16.9007L267.35 17.2269L267.347 16.9006C267.352 16.8018 267.368 16.6905 267.377 16.5675C267.383 16.5072 267.397 16.4452 267.409 16.3783L267.445 16.1884C267.493 15.9538 267.554 15.723 267.63 15.4972C267.661 15.3982 267.689 15.3178 267.709 15.2651L267.023 15.6011C267.023 15.6011 266.979 15.7206 266.915 15.9032C266.837 16.1265 266.767 16.3546 266.71 16.5856C266.698 16.6497 266.681 16.7124 266.671 16.7736C266.656 16.8349 266.644 16.8978 266.637 16.9608C266.621 17.0801 266.603 17.1915 266.598 17.2906L266.588 17.6168L266.587 17.2875C266.591 17.1916 266.608 17.0774 266.617 16.9544C266.627 16.8315 266.637 16.8321 266.647 16.7684L266.683 16.5782C266.731 16.343 266.794 16.11 266.867 15.8822C266.902 15.7696 266.937 15.6852 266.956 15.6299L266.21 15.9934L266.944 15.6039L266.698 15.5196C266.481 15.4379 266.268 15.344 266.062 15.2377L265.899 15.147C265.847 15.1145 265.797 15.079 265.749 15.0407C265.655 14.9719 265.565 14.9077 265.49 14.8532L265.246 14.6472L265.503 14.8327L265.775 15.0019C265.827 15.0336 265.878 15.0631 265.933 15.0887L266.097 15.1742C266.305 15.2699 266.516 15.3541 266.73 15.4255C266.907 15.4879 267.027 15.5178 267.027 15.5178L267.699 15.1665C267.699 15.1665 267.571 15.1252 267.475 15.088C267.258 15.0077 267.045 14.9137 266.837 14.8068L266.674 14.7184C266.621 14.6827 266.565 14.663 266.515 14.6267C266.419 14.5586 266.331 14.4937 266.254 14.4399L266.01 14.2339L266.269 14.4187C266.344 14.4732 266.434 14.5374 266.537 14.5915C266.589 14.6237 266.642 14.6518 266.696 14.6754L266.862 14.7631C267.086 14.8648 267.319 14.9569 267.495 15.0144L267.78 15.1039L268.441 14.7497L268.242 14.6789C268.025 14.5968 267.812 14.5029 267.604 14.3977L267.441 14.307C267.389 14.2745 267.339 14.239 267.293 14.2C267.197 14.1319 267.107 14.0677 267.032 14.0132L266.788 13.8072L267.044 13.9927L267.317 14.1619C267.368 14.1936 267.422 14.2224 267.474 14.2487L267.641 14.3335C267.866 14.4351 268.097 14.528 268.275 14.5848C268.396 14.6301 268.491 14.6546 268.538 14.6684L269.202 14.3136L269.022 14.2493C268.803 14.1695 268.59 14.0755 268.384 13.968L268.219 13.8803C268.167 13.8478 268.117 13.8123 268.069 13.7739L267.81 13.5865L267.569 13.3825L267.822 13.566C267.897 13.6205 267.988 13.6847 268.084 13.7527C268.131 13.7871 268.187 13.8069 268.243 13.8366L268.408 13.9221C268.614 14.0191 268.824 14.104 269.039 14.1763L269.284 14.2535L270.221 13.751C270.333 13.7382 270.439 13.6922 270.527 13.6181C270.616 13.544 270.68 13.4457 270.718 13.3332C270.756 13.2207 270.761 13.0999 270.737 12.9837C270.71 12.8682 270.655 12.762 270.575 12.6782L270.13 11.6682L269.899 11.5705C269.686 11.486 269.471 11.4131 269.251 11.3531L269.072 11.3093C269.012 11.298 268.956 11.2783 268.899 11.2719L268.583 11.2271L268.276 11.222L268.584 11.2193C268.677 11.2236 268.783 11.241 268.901 11.2508C268.958 11.2549 269.017 11.2739 269.077 11.2823L269.261 11.3202C269.481 11.3747 269.7 11.4409 269.916 11.5181L270.097 11.5873L269.781 10.8733L269.528 10.7642C269.316 10.6801 269.1 10.6073 268.881 10.5469L268.704 10.505C268.642 10.4918 268.586 10.4721 268.528 10.4657L268.216 10.4228L267.905 10.4158L268.217 10.415C268.307 10.42 268.416 10.4367 268.531 10.4472C268.649 10.4569 268.646 10.4677 268.708 10.4786L268.89 10.5139C269.111 10.5685 269.33 10.6346 269.546 10.7118L269.744 10.7904L269.431 10.0784C269.343 10.0338 269.252 9.99473 269.161 9.95994C268.948 9.87503 268.733 9.80215 268.514 9.74254L268.334 9.69873C268.275 9.68748 268.219 9.66777 268.161 9.66141L267.846 9.61659L267.538 9.61148L267.846 9.60878C267.937 9.61377 268.046 9.63044 268.161 9.6409C268.278 9.65071 268.279 9.66338 268.338 9.67236L268.52 9.70772C268.741 9.76313 268.962 9.82941 269.176 9.90821L269.397 9.99258L269.077 9.26627C268.98 9.23575 268.884 9.1983 268.789 9.15438C268.578 9.0696 268.363 8.99673 268.143 8.93631L267.964 8.89509C267.905 8.88125 267.849 8.86154 267.791 8.85518L267.479 8.81231L267.168 8.80523L267.476 8.80255L267.794 8.83662C267.873 8.91698 267.944 9.00626 268.004 9.1032Z" fill="white"/>
<path d="M266.689 33.2079C266.689 31.6494 267.412 30.4337 268.858 29.561C270.342 28.657 272.416 28.2051 275.08 28.2051V56.7723C275.08 58.362 274.338 59.5931 272.854 60.4659C271.408 61.3387 269.353 61.7751 266.689 61.7751V33.2079Z" fill="white"/>
</svg>
