<svg width="208" height="40" viewBox="0 0 208 40" fill="none" xmlns="http://www.w3.org/2000/svg">
<path d="M183.809 26.3652C183.665 26.2712 183.512 26.0196 183.506 25.4403C183.5 24.881 183.635 24.1303 183.917 23.2297C184.478 21.4345 185.589 19.143 187.124 16.7912C188.66 14.4394 190.311 12.5003 191.729 11.2644C192.44 10.6443 193.073 10.2186 193.587 9.99907C194.12 9.77169 194.412 9.81004 194.556 9.90403C194.7 9.99805 194.852 10.2496 194.858 10.8289C194.864 11.3882 194.729 12.1389 194.448 13.0395C193.886 14.8347 192.775 17.1262 191.24 19.478C189.704 21.8298 188.053 23.7689 186.636 25.0049C185.924 25.625 185.291 26.0506 184.777 26.2701C184.244 26.4975 183.953 26.4592 183.809 26.3652Z" fill="white" stroke="#252A38" stroke-width="2"/>
<path d="M188.226 19.7324C188.135 19.8063 188.104 19.8104 188.098 19.8105C188.096 19.8049 188.088 19.7755 188.118 19.6619C188.154 19.5293 188.23 19.3341 188.349 19.083C188.585 18.584 188.965 17.9137 189.435 17.1943C189.905 16.4749 190.365 15.8572 190.727 15.4403C190.909 15.2306 191.058 15.0822 191.164 14.9961C191.256 14.9222 191.286 14.9181 191.292 14.918C191.295 14.9236 191.303 14.953 191.273 15.0666C191.237 15.1992 191.16 15.3944 191.042 15.6455C190.806 16.1445 190.425 16.8148 189.956 17.5342C189.486 18.2536 189.025 18.8714 188.663 19.2882C188.481 19.4979 188.333 19.6463 188.226 19.7324Z" fill="#252A38" stroke="#252A38" stroke-width="1.5"/>
<path d="M189.047 29.7851C188.903 29.6911 188.75 29.4395 188.744 28.8603C188.738 28.3009 188.873 27.5503 189.155 26.6496C189.716 24.8544 190.827 22.5629 192.363 20.2111C193.898 17.8593 195.549 15.9202 196.967 14.6843C197.678 14.0642 198.311 13.6386 198.826 13.419C199.358 13.1916 199.65 13.23 199.794 13.324C199.938 13.418 200.09 13.6696 200.097 14.2488C200.103 14.8081 199.967 15.5588 199.686 16.4594C199.125 18.2547 198.013 20.5461 196.478 22.8979C194.943 25.2497 193.292 27.1889 191.874 28.4248C191.163 29.0449 190.53 29.4705 190.015 29.6901C189.482 29.9174 189.191 29.8791 189.047 29.7851Z" fill="white" stroke="#252A38" stroke-width="2"/>
<path d="M194.586 21.386C194.52 21.4346 194.498 21.4362 194.493 21.4361C194.491 21.432 194.484 21.4108 194.502 21.3315C194.523 21.2389 194.572 21.1036 194.65 20.9303C194.806 20.5861 195.061 20.1264 195.382 19.6355C195.702 19.1446 196.02 18.7255 196.273 18.4448C196.4 18.3035 196.504 18.2044 196.581 18.1477C196.646 18.0992 196.668 18.0975 196.673 18.0977C196.675 18.1017 196.682 18.1229 196.664 18.2023C196.643 18.2948 196.594 18.4302 196.516 18.6034C196.361 18.9476 196.105 19.4074 195.784 19.8982C195.464 20.3891 195.146 20.8083 194.893 21.089C194.766 21.2302 194.662 21.3293 194.586 21.386Z" fill="#252A38" stroke="#252A38" stroke-width="1.5"/>
<path d="M196.363 31.5133C193.82 35.4082 188.315 36.5123 183.317 33.249C178.319 29.9858 176.826 24.9438 179.369 21.0489C183.235 16.9032 187.417 16.0499 192.415 19.3132C197.414 22.5764 198.359 26.1463 196.363 31.5133Z" fill="white" stroke="#252A38" stroke-width="2"/>
<path d="M190.777 29.1789C191.758 29.8196 193.073 29.5434 193.714 28.562C194.355 27.5806 194.079 26.2655 193.097 25.6247C192.116 24.984 190.801 25.2602 190.16 26.2416C189.519 27.223 189.796 28.5381 190.777 29.1789Z" stroke="#252A38" stroke-width="0.5"/>
<path d="M191.265 28.4314C191.833 28.8024 192.594 28.6425 192.965 28.0743C193.336 27.5061 193.176 26.7447 192.608 26.3738C192.04 26.0028 191.278 26.1627 190.907 26.7309C190.536 27.2991 190.696 28.0604 191.265 28.4314Z" fill="#252A38" stroke="#252A38" stroke-width="0.5"/>
<path d="M183.668 24.5382C184.649 25.179 185.964 24.9028 186.605 23.9214C187.246 22.9399 186.969 21.6249 185.988 20.9841C185.007 20.3434 183.691 20.6195 183.051 21.601C182.41 22.5824 182.686 23.8975 183.668 24.5382Z" stroke="#252A38" stroke-width="0.5"/>
<path d="M184.157 23.7908C184.725 24.1618 185.487 24.0019 185.858 23.4337C186.229 22.8655 186.069 22.1041 185.501 21.7331C184.932 21.3622 184.171 21.5221 183.8 22.0903C183.429 22.6585 183.589 23.4198 184.157 23.7908Z" fill="#252A38" stroke="#252A38" stroke-width="0.5"/>
<path d="M186.422 28.5086L187.412 28.1624C187.675 28.0706 187.718 27.7175 187.485 27.5655L186.413 26.8658C186.18 26.7138 185.874 26.8951 185.896 27.1724L185.977 28.2183C185.994 28.4375 186.214 28.5812 186.422 28.5086Z" fill="#252A38" stroke="#252A38" stroke-width="0.5"/>
<path d="M180.691 23.617C179.498 22.3293 178.294 21.1703 176.477 21.1877" stroke="#252A38" stroke-width="0.5" stroke-linecap="round"/>
<path d="M179.625 24.4263C178.781 23.8961 177.909 23.4689 176.893 23.5018C176.517 23.514 175.889 23.681 175.551 23.5923" stroke="#252A38" stroke-width="0.5" stroke-linecap="round"/>
<path d="M193.242 31.7051C193.897 32.1564 194.931 32.8102 195.318 33.5437C195.542 33.9689 195.805 34.4166 196.041 34.8215" stroke="#252A38" stroke-width="0.5" stroke-linecap="round"/>
<path d="M192.779 32.9062C193.85 33.7459 193.905 35.1745 194.16 36.3856" stroke="#252A38" stroke-width="0.5" stroke-linecap="round"/>
<path d="M186.21 28.1191C186.313 28.7602 185.507 29.4696 184.885 29.2626C184.518 29.1406 184.231 28.8184 184.002 28.5294" stroke="#252A38" stroke-width="0.5" stroke-linecap="round"/>
<path d="M186.254 28.3223C185.856 28.9311 185.592 29.4701 186.066 30.0953C186.427 30.5701 186.598 30.4265 187.132 30.2182" stroke="#252A38" stroke-width="0.5" stroke-linecap="round"/>
<path d="M180.716 21.8685C179.708 21.8685 178.88 21.5565 178.232 20.9325C177.584 20.3085 177.26 19.4925 177.26 18.4845C177.26 17.5245 177.584 16.7205 178.232 16.0725C178.904 15.4005 179.732 15.0645 180.716 15.0645C181.676 15.0645 182.492 15.4005 183.164 16.0725C183.86 16.7205 184.208 17.5245 184.208 18.4845C184.208 19.4685 183.872 20.2845 183.2 20.9325C182.528 21.5565 181.7 21.8685 180.716 21.8685ZM178.304 38.9325C179.216 38.1165 179.9 37.2525 180.356 36.3405C180.836 35.4525 181.076 34.7085 181.076 34.1085C180.86 34.2525 180.56 34.3245 180.176 34.3245C179.36 34.3245 178.664 34.0365 178.088 33.4605C177.536 32.8605 177.26 32.0925 177.26 31.1565C177.26 30.1725 177.584 29.3685 178.232 28.7445C178.88 28.1205 179.708 27.8085 180.716 27.8085C181.796 27.8085 182.648 28.1565 183.272 28.8525C183.92 29.5245 184.244 30.3285 184.244 31.2645C184.244 32.8485 183.968 34.2765 183.416 35.5485C182.888 36.8445 182.108 37.9245 181.076 38.7885C180.908 38.9325 180.668 39.0405 180.356 39.1125C180.068 39.2085 179.768 39.2565 179.456 39.2565C178.904 39.2565 178.52 39.1485 178.304 38.9325Z" fill="#252A38"/>
<path d="M172.016 34.3234C169.976 34.3234 168.476 33.7354 167.516 32.5594C166.556 31.3834 166.076 29.8714 166.076 28.0234V19.6354H162.26C162.26 18.4114 162.488 17.4994 162.944 16.8994C163.4 16.2994 164 15.9994 164.744 15.9994H166.148V13.1554C166.148 12.1234 166.544 11.3914 167.336 10.9594C168.128 10.5034 169.328 10.2754 170.936 10.2754V15.9994H175.724C175.724 17.2954 175.484 18.2314 175.004 18.8074C174.524 19.3594 173.732 19.6354 172.628 19.6354H171.008V27.8434C171.008 28.6354 171.164 29.2114 171.476 29.5714C171.788 29.9074 172.328 30.0754 173.096 30.0754C173.936 30.0754 174.8 29.8354 175.688 29.3554C175.952 29.5954 176.156 29.8954 176.3 30.2554C176.468 30.6154 176.552 30.9754 176.552 31.3354C176.552 31.8154 176.384 32.2834 176.048 32.7394C175.712 33.1954 175.196 33.5794 174.5 33.8914C173.828 34.1794 173 34.3234 172.016 34.3234Z" fill="#252A38"/>
<path d="M138.98 11.7166C138.98 10.7086 139.388 9.91656 140.204 9.34056C141.044 8.76456 142.304 8.47656 143.984 8.47656V16.6846C143.576 16.9726 143.312 17.2126 143.192 17.4046L143.336 17.5846C143.96 16.9846 144.788 16.5166 145.82 16.1806C146.876 15.8446 147.824 15.6766 148.664 15.6766C150.8 15.6766 152.504 16.2886 153.776 17.5126C155.048 18.7126 155.684 20.2726 155.684 22.1926V27.7726C155.684 29.0206 155.36 30.1486 154.712 31.1566C154.088 32.1406 153.248 32.9206 152.192 33.4966C151.16 34.0486 150.056 34.3246 148.88 34.3246C147.56 34.3246 146.432 34.0726 145.496 33.5686C144.584 33.0406 143.756 32.2726 143.012 31.2646L142.832 31.4086C142.952 31.6246 143.18 31.9366 143.516 32.3446C143.516 32.9686 143.168 33.4606 142.472 33.8206C141.776 34.1566 140.612 34.3246 138.98 34.3246V11.7166ZM147.332 30.0766C148.436 30.0766 149.276 29.8486 149.852 29.3926C150.452 28.9366 150.752 28.2766 150.752 27.4126V22.5526C150.752 21.7126 150.452 21.0646 149.852 20.6086C149.276 20.1526 148.436 19.9246 147.332 19.9246C146.324 19.9246 145.496 20.1646 144.848 20.6446C144.224 21.1246 143.912 21.7126 143.912 22.4086V27.5926C143.912 28.3126 144.224 28.9126 144.848 29.3926C145.496 29.8486 146.324 30.0766 147.332 30.0766Z" fill="#252A38"/>
<path d="M120.98 11.7166C120.98 10.7086 121.388 9.91656 122.204 9.34056C123.044 8.76456 124.304 8.47656 125.984 8.47656V16.6846C125.576 16.9726 125.312 17.2126 125.192 17.4046L125.336 17.5846C125.96 16.9846 126.788 16.5166 127.82 16.1806C128.876 15.8446 129.824 15.6766 130.664 15.6766C132.8 15.6766 134.504 16.2886 135.776 17.5126C137.048 18.7126 137.684 20.2726 137.684 22.1926V27.7726C137.684 29.0206 137.36 30.1486 136.712 31.1566C136.088 32.1406 135.248 32.9206 134.192 33.4966C133.16 34.0486 132.056 34.3246 130.88 34.3246C129.56 34.3246 128.432 34.0726 127.496 33.5686C126.584 33.0406 125.756 32.2726 125.012 31.2646L124.832 31.4086C124.952 31.6246 125.18 31.9366 125.516 32.3446C125.516 32.9686 125.168 33.4606 124.472 33.8206C123.776 34.1566 122.612 34.3246 120.98 34.3246V11.7166ZM129.332 30.0766C130.436 30.0766 131.276 29.8486 131.852 29.3926C132.452 28.9366 132.752 28.2766 132.752 27.4126V22.5526C132.752 21.7126 132.452 21.0646 131.852 20.6086C131.276 20.1526 130.436 19.9246 129.332 19.9246C128.324 19.9246 127.496 20.1646 126.848 20.6446C126.224 21.1246 125.912 21.7126 125.912 22.4086V27.5926C125.912 28.3126 126.224 28.9126 126.848 29.3926C127.496 29.8486 128.324 30.0766 129.332 30.0766Z" fill="#252A38"/>
<path d="M109.956 34.3238C108.78 34.3238 107.676 34.0958 106.644 33.6398C105.636 33.1598 104.82 32.4758 104.196 31.5878C103.572 30.6758 103.26 29.5838 103.26 28.3118C103.26 27.0398 103.596 25.9478 104.268 25.0358C104.94 24.0998 105.828 23.3918 106.932 22.9118C108.06 22.4318 109.284 22.1918 110.604 22.1918C111.708 22.1918 112.68 22.3598 113.52 22.6958C114.384 23.0318 115.188 23.5238 115.932 24.1718L116.112 23.9558C115.608 23.4998 115.212 23.1758 114.924 22.9838V22.5158C114.924 21.6038 114.588 20.8838 113.916 20.3558C113.268 19.8038 112.344 19.5278 111.144 19.5278C110.088 19.5278 109.152 19.7198 108.336 20.1038C107.52 20.4878 106.86 21.0518 106.356 21.7958C105.78 21.6518 105.288 21.3878 104.88 21.0038C104.496 20.5958 104.304 20.1518 104.304 19.6718C104.304 18.9278 104.628 18.2558 105.276 17.6558C105.924 17.0318 106.8 16.5518 107.904 16.2158C109.032 15.8558 110.268 15.6758 111.612 15.6758C114.228 15.6758 116.244 16.2758 117.66 17.4758C119.076 18.6758 119.784 20.3078 119.784 22.3718V31.1198C119.784 32.2478 119.412 33.0638 118.668 33.5678C117.948 34.0718 116.796 34.3238 115.212 34.3238V32.9198C115.572 32.5838 115.86 32.2838 116.076 32.0198L115.896 31.8398C115.104 32.6558 114.276 33.2798 113.412 33.7118C112.548 34.1198 111.396 34.3238 109.956 34.3238ZM111.324 30.7958C112.476 30.7958 113.376 30.5798 114.024 30.1478C114.672 29.7158 114.996 29.0918 114.996 28.2758C114.996 27.4838 114.66 26.8598 113.988 26.4038C113.34 25.9478 112.452 25.7198 111.324 25.7198C110.316 25.7198 109.512 25.9478 108.912 26.4038C108.336 26.8598 108.048 27.4838 108.048 28.2758C108.048 29.0918 108.336 29.7158 108.912 30.1478C109.512 30.5798 110.316 30.7958 111.324 30.7958Z" fill="#252A38"/>
<path d="M81.9805 11.2128C81.9805 10.5168 82.2325 9.94078 82.7365 9.48478C83.2645 9.02878 83.9005 8.80078 84.6445 8.80078H94.1125C96.8005 8.80078 98.8645 9.49678 100.304 10.8888C101.768 12.2568 102.5 14.2128 102.5 16.7568C102.5 18.1728 102.212 19.3608 101.636 20.3208C101.084 21.2808 100.22 22.0368 99.0445 22.5888V22.7328C101.132 23.6688 102.176 25.4328 102.176 28.0248V30.5088C102.176 31.7568 101.72 32.7048 100.808 33.3528C99.9205 34.0008 98.6125 34.3248 96.8845 34.3248V28.2048C96.8845 27.0048 96.6445 26.1288 96.1645 25.5768C95.7085 25.0008 95.0005 24.7128 94.0405 24.7128H87.2005V30.5088C87.2005 31.7568 86.7565 32.7048 85.8685 33.3528C84.9805 34.0008 83.6845 34.3248 81.9805 34.3248V11.2128ZM93.8245 20.2128C94.9285 20.2128 95.7685 19.9128 96.3445 19.3128C96.9205 18.7128 97.2085 17.8488 97.2085 16.7208C97.2085 15.5448 96.9325 14.6808 96.3805 14.1288C95.8525 13.5768 95.0005 13.3008 93.8245 13.3008H87.2005V20.2128H93.8245Z" fill="#252A38"/>
<path d="M70.0448 34.3238C68.5568 34.3238 67.1768 34.0238 65.9048 33.4238C64.6568 32.8238 63.6608 32.0078 62.9168 30.9758C62.1728 29.9438 61.8008 28.7918 61.8008 27.5198V22.9118C61.8008 21.5678 62.1728 20.3438 62.9168 19.2398C63.6848 18.1118 64.7048 17.2358 65.9768 16.6118C67.2488 15.9878 68.6168 15.6758 70.0808 15.6758C71.5208 15.6758 72.8408 15.9758 74.0408 16.5758C75.2648 17.1518 76.2248 17.9798 76.9208 19.0598C77.6168 20.1158 77.9648 21.3158 77.9648 22.6598V24.6038C77.9648 25.1798 77.7488 25.6718 77.3168 26.0798C76.8848 26.4638 76.3328 26.6558 75.6608 26.6558H66.5888V27.1598C66.5888 28.1198 66.8768 28.9118 67.4528 29.5358C68.0528 30.1358 68.9288 30.4358 70.0808 30.4358C71.2088 30.4358 72.0368 30.1958 72.5648 29.7158C73.0928 29.2118 73.3568 28.5878 73.3568 27.8438C73.8368 27.7958 74.1968 27.7718 74.4368 27.7718C75.4208 27.7718 76.1768 27.9758 76.7048 28.3838C77.2328 28.7918 77.4968 29.3918 77.4968 30.1838C77.4968 30.8318 77.1728 31.4798 76.5248 32.1278C75.8768 32.7758 74.9768 33.3038 73.8248 33.7118C72.6968 34.1198 71.4368 34.3238 70.0448 34.3238ZM73.5008 23.1638V22.6598C73.5008 21.6998 73.1768 20.9438 72.5288 20.3918C71.9048 19.8158 71.0768 19.5278 70.0448 19.5278C69.0128 19.5278 68.1728 19.8158 67.5248 20.3918C66.9008 20.9438 66.5888 21.6998 66.5888 22.6598V23.1638H73.5008Z" fill="#252A38"/>
<path d="M50.6048 34.3246C49.3328 34.3246 48.1808 34.0486 47.1488 33.4966C46.1168 32.9206 45.3008 32.1406 44.7008 31.1566C44.1008 30.1486 43.8008 29.0206 43.8008 27.7726V22.2286C43.8008 20.9806 44.1128 19.8646 44.7368 18.8806C45.3848 17.8726 46.2728 17.0926 47.4008 16.5406C48.5288 15.9646 49.7768 15.6766 51.1448 15.6766C51.9608 15.6766 52.8368 15.8446 53.7728 16.1806C54.7328 16.5166 55.5248 16.9846 56.1488 17.5846L56.2928 17.4046C56.1728 17.2126 55.9088 16.9726 55.5008 16.6846V11.7166C55.5008 10.7086 55.9088 9.91656 56.7248 9.34056C57.5648 8.76456 58.8248 8.47656 60.5048 8.47656V31.0486C60.5048 31.9846 60.1328 32.7646 59.3888 33.3886C58.6448 34.0126 57.5048 34.3246 55.9688 34.3246V32.3806C56.2568 32.0206 56.4848 31.6966 56.6528 31.4086L56.4728 31.2646C55.7048 32.2966 54.8768 33.0646 53.9888 33.5686C53.1248 34.0726 51.9968 34.3246 50.6048 34.3246ZM52.1528 30.0766C53.1608 30.0766 53.9768 29.8486 54.6008 29.3926C55.2488 28.9126 55.5728 28.3126 55.5728 27.5926V22.4086C55.5728 21.7126 55.2488 21.1246 54.6008 20.6446C53.9768 20.1646 53.1608 19.9246 52.1528 19.9246C51.0488 19.9246 50.1968 20.1526 49.5968 20.6086C49.0208 21.0646 48.7328 21.7126 48.7328 22.5526V27.4126C48.7328 28.2766 49.0208 28.9366 49.5968 29.3926C50.1968 29.8486 51.0488 30.0766 52.1528 30.0766Z" fill="#252A38"/>
<path d="M33.7558 34.3238C32.1718 34.3238 30.7318 34.0358 29.4358 33.4598C28.1398 32.8838 27.1198 32.0918 26.3758 31.0838C25.6318 30.0518 25.2598 28.8878 25.2598 27.5918V22.8038C25.2598 21.4838 25.6198 20.2838 26.3398 19.2038C27.0598 18.0998 28.0678 17.2358 29.3638 16.6118C30.6598 15.9878 32.1238 15.6758 33.7558 15.6758C35.3878 15.6758 36.8518 15.9878 38.1478 16.6118C39.4438 17.2358 40.4518 18.0998 41.1718 19.2038C41.8918 20.2838 42.2518 21.4838 42.2518 22.8038V27.5918C42.2518 28.8878 41.8798 30.0518 41.1358 31.0838C40.3918 32.0918 39.3718 32.8838 38.0758 33.4598C36.7798 34.0358 35.3398 34.3238 33.7558 34.3238ZM33.7558 30.0758C34.8838 30.0758 35.7598 29.8238 36.3838 29.3198C37.0078 28.8158 37.3198 28.1198 37.3198 27.2318V23.0558C37.3198 22.1198 36.9958 21.3638 36.3478 20.7878C35.7238 20.2118 34.8598 19.9238 33.7558 19.9238C32.6518 19.9238 31.7758 20.2118 31.1278 20.7878C30.5038 21.3638 30.1918 22.1198 30.1918 23.0558V27.2318C30.1918 28.1198 30.5038 28.8158 31.1278 29.3198C31.7518 29.8238 32.6278 30.0758 33.7558 30.0758Z" fill="#252A38"/>
<path d="M12.4558 34.3246C10.2958 34.3246 8.36377 33.9046 6.65977 33.0646C4.95577 32.2246 3.62377 31.0606 2.66377 29.5726C1.72777 28.0606 1.25977 26.3446 1.25977 24.4246V18.3046C1.25977 16.3846 1.71577 14.6806 2.62777 13.1926C3.56377 11.7046 4.85977 10.5526 6.51577 9.73656C8.19577 8.89656 10.1038 8.47656 12.2398 8.47656C14.3758 8.47656 16.2838 8.80056 17.9638 9.44856C19.6438 10.0726 20.9398 10.9606 21.8518 12.1126C22.7878 13.2646 23.2558 14.5726 23.2558 16.0366C23.2558 16.9966 22.9438 17.7526 22.3198 18.3046C21.6958 18.8326 20.8438 19.0966 19.7638 19.0966C19.1398 19.0966 18.5278 19.0126 17.9278 18.8446C17.9998 18.3406 18.0358 17.7286 18.0358 17.0086C18.0358 15.8566 17.4958 14.9206 16.4158 14.2006C15.3358 13.4566 13.9438 13.0846 12.2398 13.0846C10.5598 13.0846 9.19176 13.5766 8.13577 14.5606C7.07977 15.5206 6.55177 16.7686 6.55177 18.3046V24.4246C6.55177 25.9846 7.09177 27.2566 8.17177 28.2406C9.27577 29.2246 10.7038 29.7166 12.4558 29.7166C14.1598 29.7166 15.5398 29.3566 16.5958 28.6366C17.6758 27.9166 18.2158 26.9806 18.2158 25.8286C18.2158 25.0366 18.1798 24.4606 18.1078 24.1006C18.7558 23.9566 19.3438 23.8846 19.8718 23.8846C20.9518 23.8846 21.8158 24.1606 22.4638 24.7126C23.1118 25.2646 23.4358 26.0206 23.4358 26.9806C23.4358 28.3966 22.9678 29.6686 22.0318 30.7966C21.1198 31.9006 19.8238 32.7646 18.1438 33.3886C16.4878 34.0126 14.5918 34.3246 12.4558 34.3246Z" fill="#252A38"/>
<path d="M159.223 12.3565L159.197 12.4784C159.184 12.531 159.167 12.593 159.146 12.6652C159.125 12.7374 159.096 12.8151 159.063 12.9005C158.905 13.3205 158.714 13.7276 158.493 14.1182C158.37 14.3294 158.226 14.5281 158.064 14.7116C157.919 14.8788 157.746 15.0193 157.553 15.1268C157.473 15.1707 157.389 15.2059 157.301 15.2318C157.232 15.2524 157.162 15.2666 157.09 15.2742L157.011 15.2788H156.953L156.902 15.2777L156.919 15.0121L156.958 15.0132L157.004 15.0149C157.022 15.0126 157.042 15.0115 157.066 15.0107C157.121 15.0053 157.176 14.9955 157.23 14.9816C157.301 14.9629 157.371 14.9362 157.436 14.902C157.607 14.8113 157.763 14.6936 157.896 14.5534C158.057 14.3869 158.2 14.2056 158.325 14.0118C158.564 13.6419 158.776 13.2542 158.958 12.8523C159.034 12.6885 159.102 12.5539 159.151 12.4592L159.23 12.3105L159.223 12.3565Z" fill="#252A38"/>
<path d="M158.805 10.4353C158.857 10.2974 158.954 10.1806 159.078 10.1025C159.204 10.0244 159.351 9.98939 159.498 10.0028C159.645 10.0162 159.784 10.0773 159.893 10.1767C160.003 10.2762 160.076 10.4085 160.104 10.5537C160.202 11.0456 159.611 11.6129 159.384 12.0077C159.34 12.0844 159.263 12.2332 159.345 12.2894C159.429 12.3456 159.537 12.2185 159.593 12.1497C159.876 11.7923 160.183 11.0372 160.677 10.9448C160.821 10.9175 160.971 10.9379 161.103 11.003C161.235 11.0681 161.342 11.1743 161.409 11.3057C161.476 11.4371 161.498 11.5865 161.472 11.7314C161.447 11.8763 161.375 12.0088 161.267 12.1089C161.405 12.1623 161.521 12.2589 161.599 12.3843C161.677 12.5096 161.712 12.6569 161.698 12.8037C161.686 12.9505 161.625 13.089 161.526 13.1981C161.427 13.3072 161.295 13.3811 161.151 13.4085C160.659 13.5055 160.09 12.9136 159.696 12.685C159.619 12.6407 159.469 12.5628 159.413 12.6456C159.357 12.7283 159.485 12.8388 159.554 12.894C159.912 13.1778 160.667 13.4868 160.762 13.9802C160.79 14.1254 160.771 14.276 160.706 14.409C160.641 14.542 160.535 14.6501 160.403 14.7168C160.271 14.7834 160.121 14.805 159.975 14.7783C159.83 14.7516 159.696 14.678 159.597 14.5688C159.544 14.7063 159.447 14.8228 159.322 14.9006C159.197 14.9784 159.05 15.0133 158.903 15C158.756 14.9867 158.618 14.926 158.508 14.827C158.399 14.7279 158.325 14.5961 158.297 14.4512C158.199 13.9593 158.789 13.3921 159.017 12.9972C159.061 12.9198 159.139 12.771 159.056 12.7148C158.973 12.6586 158.864 12.7857 158.808 12.8552C158.525 13.2126 158.217 13.9668 157.725 14.0611C157.579 14.0896 157.429 14.0697 157.295 14.0044C157.162 13.9392 157.054 13.8321 156.987 13.6996C156.92 13.5672 156.898 13.4166 156.925 13.2709C156.952 13.1251 157.026 12.9923 157.136 12.8926C156.998 12.8393 156.881 12.7427 156.804 12.6173C156.726 12.492 156.691 12.3447 156.704 12.1979C156.717 12.0511 156.778 11.9126 156.877 11.8035C156.975 11.6944 157.108 11.6205 157.252 11.5931C157.742 11.497 158.311 12.0888 158.706 12.3174C158.783 12.3609 158.933 12.4396 158.989 12.3568C159.045 12.2741 158.918 12.1628 158.848 12.1084C158.49 11.8246 157.736 11.5148 157.641 11.0214C157.613 10.8766 157.633 10.7268 157.699 10.5947C157.763 10.4626 157.87 10.3553 158.001 10.2891C158.133 10.2229 158.282 10.2014 158.428 10.2278C158.573 10.2541 158.705 10.327 158.805 10.4353Z" fill="#252A38"/>
<path d="M158.749 11.2307L158.791 11.2512C158.843 11.2788 158.893 11.3089 158.942 11.3415L158.995 11.3794L158.959 11.171L159.003 11.3788C159.01 11.3669 159.022 11.3474 159.039 11.3233C159.072 11.2743 159.109 11.2272 159.147 11.1825L159.18 11.1478C159.189 11.1358 159.2 11.1246 159.212 11.1143C159.234 11.095 159.255 11.0768 159.274 11.0608C159.309 11.0301 159.337 11.0137 159.337 11.0137C159.337 11.0137 159.313 11.0347 159.278 11.0655C159.259 11.0814 159.239 11.099 159.219 11.1222C159.207 11.1319 159.199 11.1449 159.188 11.1565C159.178 11.168 159.168 11.1797 159.158 11.1925C159.121 11.2375 159.087 11.2845 159.056 11.3332C159.03 11.3734 159.016 11.4013 159.016 11.4013L159.053 11.5907C159.06 11.5783 159.071 11.5618 159.086 11.54C159.113 11.5006 159.152 11.4497 159.194 11.3991L159.226 11.3644C159.238 11.3542 159.247 11.3407 159.259 11.331C159.281 11.3116 159.302 11.2934 159.32 11.2775C159.356 11.2468 159.384 11.2303 159.384 11.2303C159.384 11.2303 159.36 11.2514 159.325 11.2821C159.306 11.2981 159.285 11.3157 159.262 11.3356C159.252 11.3462 159.241 11.3574 159.232 11.3692C159.22 11.3794 159.212 11.3936 159.201 11.4052C159.162 11.4548 159.124 11.5064 159.1 11.5466C159.074 11.5868 159.063 11.6057 159.06 11.6117L159.099 11.7993C159.106 11.7875 159.117 11.7716 159.13 11.7534C159.163 11.7043 159.199 11.6573 159.238 11.6125L159.271 11.5778C159.28 11.5661 159.291 11.5549 159.302 11.5444C159.325 11.525 159.346 11.5068 159.364 11.4909C159.403 11.4634 159.428 11.4437 159.428 11.4437C159.428 11.4437 159.404 11.4648 159.369 11.4955C159.35 11.5114 159.329 11.5296 159.309 11.5523C159.298 11.5619 159.29 11.5749 159.279 11.5865C159.268 11.598 159.258 11.6103 159.248 11.6225C159.212 11.6675 159.178 11.7145 159.146 11.7633C159.128 11.7916 159.116 11.8136 159.11 11.8236L159.149 12.0119C159.156 12.0001 159.166 11.9865 159.177 11.9707C159.21 11.9217 159.246 11.8744 159.285 11.8292L159.317 11.7945C159.329 11.7842 159.338 11.7707 159.349 11.761C159.372 11.7417 159.393 11.7235 159.411 11.7075C159.447 11.6768 159.475 11.6604 159.475 11.6604C159.475 11.6604 159.451 11.6814 159.415 11.7121C159.397 11.7281 159.376 11.7463 159.356 11.7689C159.345 11.7795 159.335 11.7909 159.326 11.8032C159.314 11.8134 159.305 11.8269 159.294 11.8385C159.255 11.8881 159.219 11.9398 159.193 11.9799C159.177 12.0047 159.166 12.0242 159.159 12.0355L159.215 12.301C159.211 12.3295 159.215 12.3587 159.227 12.3851C159.238 12.4115 159.257 12.4341 159.281 12.4503C159.305 12.4665 159.332 12.4757 159.362 12.4768C159.39 12.4778 159.419 12.4708 159.444 12.4564L159.711 12.4108C159.721 12.4023 159.733 12.3828 159.751 12.3587C159.784 12.3114 159.815 12.2624 159.845 12.2118C159.851 12.1981 159.859 12.1844 159.866 12.1702C159.873 12.1569 159.88 12.1431 159.885 12.129C159.897 12.1014 159.909 12.0763 159.917 12.0534L159.94 11.9773L159.92 12.0549C159.912 12.0772 159.901 12.1029 159.891 12.1312C159.881 12.1595 159.878 12.1587 159.872 12.1731L159.851 12.2154C159.824 12.2676 159.794 12.318 159.76 12.3662C159.75 12.3834 159.74 12.3963 159.733 12.4074L159.921 12.3745C159.931 12.3665 159.944 12.3453 159.964 12.3183C159.998 12.271 160.029 12.222 160.058 12.1714L160.08 12.1292C160.087 12.1155 160.095 12.1025 160.1 12.0887C160.106 12.0749 160.124 12.0354 160.131 12.0131L160.153 11.9369L160.134 12.0139C160.126 12.0368 160.115 12.062 160.105 12.0909C160.1 12.1041 160.092 12.1177 160.085 12.1327L160.064 12.175C160.038 12.227 160.008 12.2772 159.974 12.3253C159.962 12.3441 159.951 12.3594 159.944 12.3706L160.132 12.3382C160.136 12.3342 160.153 12.3114 160.178 12.2774C160.212 12.2301 160.244 12.1811 160.272 12.1305L160.294 12.0888C160.302 12.0754 160.309 12.0615 160.314 12.0471C160.325 12.0201 160.337 11.995 160.345 11.9721L160.368 11.896L160.347 11.9735C160.34 11.9959 160.329 12.0216 160.319 12.0499C160.314 12.0637 160.305 12.0774 160.3 12.0917L160.279 12.1341C160.252 12.1862 160.221 12.2366 160.188 12.2849C160.174 12.3061 160.162 12.3232 160.153 12.3343L160.346 12.301C160.346 12.301 160.365 12.2757 160.392 12.237C160.426 12.1897 160.457 12.1407 160.486 12.0901L160.508 12.0479C160.515 12.0346 160.522 12.0208 160.528 12.0067C160.539 11.9792 160.551 11.9541 160.558 11.9318C160.573 11.8859 160.581 11.8556 160.581 11.8556L160.562 11.9326C160.555 11.9549 160.543 11.9807 160.533 12.009C160.523 12.0373 160.52 12.0364 160.513 12.0514L160.492 12.0937C160.466 12.1457 160.436 12.1961 160.403 12.2446C160.386 12.2694 160.373 12.2869 160.365 12.2981L160.554 12.2552L160.347 12.2979C160.355 12.3078 160.377 12.3175 160.401 12.3347C160.45 12.3681 160.498 12.4044 160.542 12.4435L160.578 12.4751C160.588 12.487 160.598 12.4989 160.608 12.5101C160.628 12.5326 160.646 12.5537 160.661 12.5715L160.709 12.6363L160.656 12.5755C160.641 12.5577 160.623 12.5366 160.603 12.5141C160.593 12.5031 160.581 12.4929 160.569 12.4838L160.534 12.4521C160.484 12.4132 160.433 12.376 160.392 12.3507C160.352 12.3255 160.324 12.3092 160.324 12.3092L160.135 12.3471L160.185 12.3799C160.225 12.4075 160.276 12.4459 160.326 12.4886L160.361 12.5208C160.373 12.5309 160.384 12.5417 160.394 12.553C160.413 12.5754 160.432 12.5965 160.447 12.6144L160.495 12.6791L160.446 12.6155L160.389 12.5575C160.378 12.5466 160.367 12.5363 160.356 12.5266L160.319 12.4955C160.27 12.4566 160.218 12.4194 160.178 12.3941C160.138 12.3689 160.118 12.357 160.112 12.354L159.925 12.3933C159.934 12.4032 159.953 12.4102 159.97 12.4233C160.019 12.4567 160.067 12.493 160.112 12.532L160.147 12.5637C160.157 12.5755 160.171 12.5846 160.181 12.5958C160.2 12.6183 160.218 12.6394 160.234 12.6572L160.281 12.7219L160.229 12.6612C160.214 12.6434 160.195 12.6222 160.176 12.5998C160.166 12.5888 160.154 12.5786 160.141 12.5694L160.106 12.5378C160.057 12.4988 160.005 12.4616 159.965 12.4364L159.904 12.3991L159.716 12.439L159.758 12.4655C159.798 12.4932 159.848 12.5316 159.899 12.5742L159.934 12.6065C159.944 12.6176 159.954 12.6293 159.963 12.6415C159.983 12.6639 160.001 12.6851 160.017 12.7029L160.064 12.7676L160.012 12.7069C159.996 12.689 159.978 12.6679 159.959 12.6455C159.948 12.6346 159.937 12.6242 159.925 12.6145L159.889 12.5834C159.84 12.5445 159.788 12.5073 159.747 12.4821C159.73 12.4696 159.71 12.4581 159.691 12.4476L159.426 12.5034C159.372 12.5107 159.32 12.5332 159.277 12.5682C159.26 12.6213 159.259 12.6777 159.272 12.7316L159.318 12.9983C159.334 13.0126 159.352 13.0257 159.37 13.0374C159.417 13.0717 159.466 13.1034 159.517 13.1323L159.559 13.1546C159.573 13.1612 159.587 13.169 159.6 13.1744L159.676 13.2059L159.751 13.2282L159.675 13.2077C159.652 13.2011 159.626 13.1899 159.599 13.1792C159.584 13.1737 159.57 13.1673 159.557 13.16L159.513 13.1389C159.461 13.1113 159.411 13.0812 159.363 13.0486L159.322 13.0203L159.355 13.2099L159.411 13.2524C159.45 13.28 159.503 13.3148 159.558 13.3468L159.6 13.3684C159.614 13.3756 159.628 13.3834 159.641 13.3888C159.655 13.3941 159.693 13.4118 159.716 13.4197L159.792 13.4427L159.715 13.4221C159.693 13.4148 159.667 13.4036 159.639 13.393C159.625 13.3876 159.611 13.3812 159.597 13.3738L159.554 13.3533C159.503 13.3257 159.452 13.2956 159.404 13.263L159.358 13.2318L159.391 13.4203C159.395 13.4249 159.418 13.442 159.452 13.4668C159.499 13.5007 159.548 13.532 159.599 13.5605L159.641 13.5828C159.655 13.5894 159.669 13.5972 159.683 13.6025C159.71 13.6145 159.735 13.6262 159.758 13.6341L159.833 13.6564L159.757 13.6359C159.734 13.6292 159.709 13.6181 159.681 13.6073C159.667 13.6019 159.653 13.5955 159.639 13.5881L159.596 13.5677C159.54 13.5369 159.484 13.5038 159.445 13.4767C159.424 13.4628 159.407 13.4511 159.395 13.4422L159.429 13.6344C159.451 13.6485 159.473 13.6639 159.493 13.6806C159.54 13.7146 159.59 13.746 159.64 13.7749L159.682 13.7966C159.695 13.8044 159.709 13.8112 159.724 13.817C159.751 13.8282 159.776 13.84 159.799 13.8478L159.875 13.8708L159.798 13.8503C159.775 13.843 159.749 13.8318 159.721 13.8211C159.707 13.8159 159.693 13.8095 159.679 13.802L159.637 13.7814C159.585 13.7538 159.535 13.7237 159.486 13.6912L159.432 13.6538L159.474 13.8423L159.43 13.6351C159.42 13.6436 159.411 13.6658 159.394 13.6899C159.361 13.739 159.325 13.786 159.286 13.8307L159.253 13.866C159.243 13.8781 159.233 13.8893 159.221 13.8995C159.198 13.9188 159.177 13.937 159.159 13.9524C159.121 13.9804 159.096 13.9996 159.096 13.9996C159.096 13.9996 159.119 13.9791 159.156 13.9478C159.173 13.9324 159.194 13.9142 159.214 13.8916C159.226 13.8819 159.237 13.8717 159.245 13.8574C159.252 13.8431 159.268 13.8369 159.275 13.8213C159.313 13.7754 159.349 13.7272 159.381 13.6772C159.406 13.637 159.421 13.6091 159.421 13.6091L159.383 13.4203C159.383 13.4203 159.365 13.4491 159.351 13.4704C159.324 13.5098 159.285 13.5607 159.242 13.6113L159.21 13.646C159.198 13.6562 159.19 13.6692 159.178 13.6788C159.156 13.6987 159.135 13.717 159.117 13.7324C159.081 13.7636 159.053 13.7795 159.053 13.7795C159.053 13.7795 159.077 13.759 159.113 13.7277C159.131 13.7123 159.152 13.6942 159.171 13.6715C159.182 13.6609 159.192 13.6497 159.202 13.6379C159.214 13.6277 159.222 13.6135 159.233 13.6019C159.273 13.5517 159.309 13.5007 159.338 13.4571C159.367 13.4136 159.374 13.398 159.377 13.392L159.338 13.205C159.33 13.2168 159.321 13.2321 159.308 13.2503C159.274 13.2993 159.238 13.3464 159.199 13.3912L159.166 13.4265C159.157 13.438 159.146 13.449 159.135 13.4593C159.112 13.4793 159.091 13.4974 159.074 13.5128C159.037 13.5441 159.009 13.56 159.009 13.56C159.009 13.56 159.033 13.5395 159.069 13.5082C159.087 13.4928 159.108 13.4746 159.128 13.452C159.139 13.4423 159.148 13.4287 159.158 13.4177C159.168 13.4067 159.179 13.394 159.189 13.3818C159.227 13.3358 159.262 13.2876 159.295 13.2376C159.313 13.2093 159.325 13.1873 159.331 13.1772L159.292 12.9889C159.281 12.9975 159.276 13.0143 159.264 13.0302C159.231 13.0792 159.194 13.1264 159.156 13.1716L159.123 13.2069C159.111 13.2172 159.1 13.2268 159.089 13.2365C159.066 13.2564 159.045 13.2746 159.027 13.29C158.991 13.3213 158.963 13.3372 158.963 13.3372C158.963 13.3372 158.987 13.3167 159.023 13.2854C159.041 13.27 159.062 13.2518 159.081 13.2292C159.092 13.2186 159.103 13.2074 159.112 13.1956C159.124 13.1854 159.133 13.1711 159.144 13.1596C159.183 13.1094 159.22 13.0577 159.248 13.0148C159.264 12.9906 159.275 12.971 159.282 12.9592L159.226 12.6937C159.219 12.6388 159.196 12.5871 159.161 12.5442C159.108 12.527 159.051 12.525 158.998 12.5383L158.73 12.5839C158.72 12.5924 158.708 12.6119 158.691 12.636C158.657 12.6833 158.626 12.7323 158.597 12.7829L158.575 12.8251C158.568 12.8384 158.561 12.8521 158.555 12.8663C158.544 12.8933 158.531 12.9189 158.524 12.9412L158.502 13.0175L158.521 12.9404C158.53 12.9175 158.54 12.8923 158.551 12.8635C158.555 12.8502 158.563 12.8366 158.57 12.8216L158.591 12.7793C158.617 12.7273 158.647 12.6771 158.68 12.629L158.708 12.5878L158.519 12.6208C158.51 12.6282 158.497 12.6494 158.477 12.6769C158.443 12.7242 158.411 12.7733 158.383 12.8239C158.376 12.8376 158.369 12.8512 158.361 12.8655C158.354 12.8789 158.347 12.8928 158.341 12.9072C158.33 12.9342 158.318 12.9593 158.31 12.9822L158.287 13.0584L158.308 12.9808C158.315 12.9585 158.326 12.9327 158.336 12.9044C158.347 12.8761 158.349 12.8769 158.355 12.8626L158.376 12.8202C158.404 12.7681 158.434 12.7175 158.466 12.6687L158.498 12.6241L158.309 12.6571C158.305 12.661 158.287 12.6839 158.263 12.7173C158.23 12.7645 158.198 12.8136 158.169 12.8642L158.147 12.9064C158.139 12.9197 158.133 12.9335 158.127 12.9476C158.116 12.9751 158.104 13.0002 158.097 13.0226L158.074 13.0987L158.094 13.0217C158.101 12.9988 158.112 12.9737 158.122 12.9454C158.127 12.9315 158.135 12.9179 158.142 12.9029L158.163 12.8607C158.19 12.8086 158.219 12.7584 158.252 12.7103C158.266 12.6891 158.278 12.6721 158.287 12.661L158.095 12.6943C158.095 12.6943 158.076 12.7195 158.049 12.7583C158.015 12.8055 157.984 12.8546 157.955 12.9051C157.948 12.9194 157.94 12.933 157.933 12.9468C157.926 12.9602 157.919 12.9742 157.913 12.9885C157.902 13.0155 157.89 13.0406 157.883 13.0635L157.86 13.1397L157.88 13.0621C157.887 13.0398 157.898 13.014 157.909 12.9857C157.919 12.9575 157.921 12.9583 157.928 12.9439L157.949 12.9016C157.975 12.8494 158.006 12.7988 158.038 12.7501C158.054 12.7259 158.068 12.7084 158.076 12.6966L157.868 12.7325L158.075 12.6897L158.019 12.6535C157.97 12.6198 157.923 12.5835 157.879 12.5448L157.844 12.5125C157.833 12.5014 157.823 12.4897 157.813 12.4775C157.794 12.4551 157.776 12.4339 157.76 12.4161L157.713 12.3514L157.765 12.4121L157.822 12.4701C157.833 12.481 157.844 12.4913 157.856 12.501L157.891 12.5321C157.937 12.5685 157.984 12.6024 158.033 12.6335C158.073 12.66 158.101 12.675 158.101 12.675L158.291 12.6372C158.291 12.6372 158.261 12.6189 158.24 12.6037C158.191 12.5704 158.144 12.5341 158.099 12.495L158.064 12.4633C158.053 12.4514 158.04 12.4431 158.03 12.4312C158.01 12.4087 157.992 12.3876 157.977 12.3698L157.929 12.305L157.982 12.3658C157.997 12.3836 158.015 12.4047 158.038 12.4244C158.048 12.4354 158.06 12.4455 158.072 12.4547L158.108 12.4864C158.157 12.5253 158.209 12.5625 158.249 12.5877L158.315 12.6278L158.502 12.5886L158.456 12.5586C158.408 12.5248 158.36 12.4885 158.315 12.4499L158.28 12.4177C158.27 12.4066 158.259 12.3949 158.251 12.3827C158.231 12.3602 158.212 12.3391 158.197 12.3213L158.149 12.2565L158.202 12.3173L158.259 12.3753C158.27 12.3862 158.281 12.3965 158.292 12.4062L158.329 12.4373C158.378 12.4762 158.43 12.5134 158.47 12.5386C158.498 12.5574 158.52 12.5695 158.531 12.5759L158.718 12.5367L158.678 12.5095C158.628 12.4761 158.581 12.4398 158.537 12.4008L158.501 12.3691C158.49 12.358 158.48 12.3464 158.47 12.3341L158.418 12.2727L158.371 12.2087L158.422 12.2687C158.437 12.2866 158.456 12.3077 158.476 12.3301C158.485 12.3414 158.498 12.3498 158.51 12.3605L158.545 12.3916C158.591 12.4281 158.638 12.4622 158.687 12.4935L158.742 12.528L159.008 12.4722C159.036 12.4767 159.065 12.4729 159.092 12.4614C159.119 12.4499 159.141 12.431 159.158 12.4071C159.174 12.3831 159.183 12.3551 159.184 12.3261C159.185 12.2971 159.178 12.2685 159.163 12.2434L159.116 11.9761L159.065 11.9376C159.017 11.9035 158.968 11.8721 158.917 11.8433L158.875 11.821C158.861 11.8144 158.849 11.806 158.835 11.8007L158.759 11.7691L158.683 11.7474L158.76 11.7673C158.783 11.7745 158.808 11.7857 158.837 11.7959C158.851 11.8006 158.864 11.809 158.878 11.815L158.922 11.8362C158.973 11.8637 159.023 11.8939 159.072 11.9265L159.113 11.9548L159.079 11.7657L159.023 11.7232C158.976 11.6892 158.927 11.6577 158.876 11.6289L158.835 11.6072C158.82 11.6 158.807 11.5916 158.793 11.5863L158.718 11.5554L158.641 11.533L158.719 11.5536C158.741 11.5608 158.767 11.572 158.795 11.5821C158.824 11.5922 158.823 11.5946 158.837 11.6013L158.88 11.6218C158.932 11.6493 158.982 11.6795 159.031 11.712L159.076 11.7438L159.042 11.5554C159.023 11.539 159.003 11.5237 158.983 11.5095C158.935 11.4753 158.886 11.4438 158.835 11.4151L158.793 11.3928C158.779 11.3863 158.767 11.3779 158.753 11.3725L158.677 11.341L158.601 11.3192L158.678 11.3392C158.7 11.3464 158.726 11.3576 158.754 11.3677C158.783 11.3778 158.782 11.3809 158.796 11.3869L158.839 11.4074C158.891 11.4351 158.941 11.4655 158.99 11.4983L159.039 11.5329L159.006 11.3406C158.983 11.327 158.962 11.3118 158.941 11.2951C158.894 11.2611 158.845 11.2296 158.794 11.2007L158.752 11.1791C158.738 11.1718 158.725 11.1635 158.711 11.1581L158.636 11.1272L158.559 11.1048L158.636 11.1247L158.713 11.1539C158.728 11.1781 158.74 11.2039 158.749 11.2307Z" fill="white"/>
<path d="M156.699 18.4492C156.699 17.5834 157.124 16.9081 157.974 16.4232C158.846 15.921 160.064 15.6699 161.629 15.6699V31.5406C161.629 32.4238 161.193 33.1077 160.321 33.5926C159.472 34.0775 158.264 34.3199 156.699 34.3199V18.4492Z" fill="#252A38"/>
</svg>
