<svg width="40" height="40" viewBox="0 0 40 40" fill="none" xmlns="http://www.w3.org/2000/svg">
<circle cx="20" cy="20" r="20" fill="#FEE500"/>
<path d="M20.0569 9.65234C13.8345 9.65234 8.81641 13.6668 8.81641 18.5403C8.81641 21.7037 10.9039 24.4737 14.0352 26.0554L12.9754 30.0137C12.9554 30.073 12.9523 30.1367 12.9665 30.1977C12.9807 30.2586 13.0116 30.3145 13.0557 30.3589C13.12 30.4156 13.2028 30.447 13.2885 30.4472C13.3596 30.4415 13.4271 30.4134 13.4812 30.3669L18.0416 27.2919C18.7148 27.3848 19.3934 27.433 20.073 27.4363C26.2873 27.4363 31.3135 23.4219 31.3135 18.5403C31.3135 13.6587 26.2713 9.65234 20.0569 9.65234Z" fill="#392020"/>
<path d="M12.7491 17.1347H11.5207C11.3684 17.1392 11.218 17.1002 11.0871 17.0223C11.029 16.9859 10.979 16.9378 10.9403 16.8812C10.9016 16.8245 10.8751 16.7605 10.8623 16.6931C10.8584 16.6504 10.8584 16.6075 10.8623 16.5647C10.8585 16.4848 10.874 16.405 10.9076 16.3323C10.9411 16.2597 10.9917 16.1962 11.055 16.1472C11.195 16.0458 11.3639 15.9923 11.5367 15.9946H15.2381C15.3915 15.9892 15.5429 16.0313 15.6716 16.1151C15.7311 16.1499 15.7822 16.1975 15.821 16.2544C15.8599 16.3114 15.8857 16.3762 15.8964 16.4443C15.9004 16.4843 15.9004 16.5247 15.8964 16.5647C15.9002 16.6458 15.8847 16.7267 15.8512 16.8006C15.8177 16.8746 15.7672 16.9395 15.7037 16.9902C15.5672 17.0914 15.3999 17.1425 15.23 17.1347H14.0418V21.358C14.0466 21.4479 14.0327 21.5379 14.0009 21.6222C13.9691 21.7065 13.9201 21.7833 13.8571 21.8477C13.7966 21.9093 13.724 21.9575 13.6438 21.9893C13.5636 22.0211 13.4776 22.0358 13.3914 22.0324C13.2406 22.0367 13.093 21.9885 12.9739 21.8959C12.8605 21.8055 12.7835 21.6772 12.7571 21.5346C12.7492 21.476 12.7492 21.4166 12.7571 21.358L12.7491 17.1347Z" fill="#FEE500"/>
<path d="M16.2539 16.3089C16.2892 16.1768 16.3722 16.0624 16.4868 15.9877C16.6089 15.9185 16.748 15.8851 16.8882 15.8914H17.1933C17.3421 15.886 17.4894 15.9222 17.6188 15.9957C17.756 16.088 17.8534 16.2284 17.8918 16.3892L19.4976 20.9255C19.5392 21.0439 19.5741 21.1646 19.602 21.2869C19.6047 21.3377 19.6047 21.3886 19.602 21.4394C19.6047 21.5176 19.5903 21.5955 19.5598 21.6676C19.5293 21.7398 19.4834 21.8044 19.4253 21.8569C19.3691 21.9146 19.3016 21.96 19.227 21.9904C19.1524 22.0208 19.0723 22.0354 18.9918 22.0335C18.8679 22.0458 18.7436 22.0161 18.6387 21.9491C18.5338 21.8821 18.4546 21.7818 18.4137 21.6642L18.0765 20.6767H15.9649L15.6277 21.6642C15.5878 21.7841 15.5076 21.8864 15.4007 21.9537C15.2938 22.0211 15.1669 22.0493 15.0415 22.0335C14.9058 22.0371 14.7728 21.9946 14.6642 21.9131C14.5584 21.8289 14.487 21.709 14.4635 21.5759C14.4592 21.5305 14.4592 21.4848 14.4635 21.4394C14.4497 21.3597 14.4497 21.2783 14.4635 21.1986C14.4635 21.1103 14.5197 21.0138 14.5518 20.9255L16.2539 16.3089ZM17.0568 17.3607L16.2941 19.7694H17.8115L17.0568 17.3607Z" fill="#FEE500"/>
<path d="M19.7819 16.5658C19.7738 16.3856 19.8373 16.2095 19.9586 16.076C20.0202 16.0139 20.0943 15.9652 20.1759 15.9334C20.2574 15.9016 20.3448 15.8872 20.4323 15.8913C20.5827 15.8895 20.7295 15.9376 20.8498 16.0278C20.9613 16.122 21.0354 16.253 21.0585 16.3971C21.0665 16.453 21.0665 16.5099 21.0585 16.5658V20.789H23.2665C23.4195 20.787 23.57 20.8287 23.7001 20.9094C23.7585 20.9454 23.8087 20.9934 23.8475 21.0501C23.8862 21.1068 23.9126 21.171 23.9249 21.2386C23.9249 21.2386 23.9249 21.3189 23.9249 21.359C23.9287 21.439 23.9132 21.5186 23.8796 21.5913C23.8461 21.664 23.7955 21.7276 23.7322 21.7766C23.5922 21.8779 23.4233 21.9314 23.2504 21.9291H20.5367C20.3638 21.9402 20.192 21.8952 20.0469 21.8007C19.9171 21.7036 19.8306 21.5594 19.806 21.3992C19.8002 21.311 19.8002 21.2224 19.806 21.1342L19.7819 16.5658Z" fill="#FEE500"/>
<path d="M24.0697 16.5652C24.0649 16.3856 24.128 16.2107 24.2464 16.0755C24.3667 15.9661 24.5211 15.9016 24.6834 15.8928C24.8458 15.884 25.0062 15.9315 25.1376 16.0273C25.2516 16.1206 25.3284 16.2515 25.3544 16.3965C25.3583 16.4527 25.3583 16.5091 25.3544 16.5652V18.5323L27.3857 16.1878C27.464 16.1078 27.5471 16.0328 27.6346 15.9631C27.7171 15.9139 27.8116 15.8888 27.9076 15.8907C28.0479 15.89 28.1851 15.932 28.301 16.0112C28.3556 16.0479 28.4022 16.0954 28.4381 16.1505C28.4739 16.2057 28.4983 16.2675 28.5097 16.3324C28.513 16.3482 28.513 16.3647 28.5097 16.3806C28.5058 16.3991 28.5058 16.4182 28.5097 16.4367C28.5095 16.5212 28.4873 16.6042 28.4455 16.6776C28.4029 16.7554 28.3517 16.828 28.293 16.8943L26.9602 18.3557L28.5659 20.8446V20.9249C28.6493 21.0399 28.7143 21.1673 28.7586 21.3023V21.3424C28.7679 21.4354 28.7545 21.5293 28.7196 21.616C28.6846 21.7027 28.6291 21.7796 28.5579 21.8402C28.424 21.9414 28.2601 21.9951 28.0922 21.9928C27.9807 21.9974 27.8699 21.9724 27.7711 21.9205C27.6641 21.8487 27.576 21.7524 27.5142 21.6395L26.0208 19.2308L25.3062 19.9775V21.3183C25.311 21.4979 25.2479 21.6728 25.1296 21.808C25.0661 21.8701 24.9906 21.9185 24.9078 21.9503C24.8249 21.982 24.7365 21.9965 24.6478 21.9928C24.4997 21.9959 24.355 21.9476 24.2384 21.8563C24.1249 21.7659 24.048 21.6376 24.0216 21.495C24.0136 21.4364 24.0136 21.3769 24.0216 21.3183L24.0697 16.5652Z" fill="#FEE500"/>
</svg>
