<svg width="678" height="582" viewBox="0 0 678 582" fill="none" xmlns="http://www.w3.org/2000/svg">
<path d="M475.943 343.696C475.943 474.904 369.575 581.294 238.367 581.294C107.16 581.294 0.792969 474.904 0.792969 343.696C0.792969 212.489 101.048 112.326 226.989 106.373C230.767 106.213 234.567 106.121 238.367 106.121C242.168 106.121 245.969 106.19 249.746 106.373C375.665 112.326 475.943 216.289 475.943 343.696Z" fill="url(#paint0_linear_3215_7034)"/>
<path d="M238.369 577.607C367.554 577.607 472.281 472.881 472.281 343.695C472.281 214.51 367.554 109.784 238.369 109.784C109.183 109.784 4.45703 214.51 4.45703 343.695C4.45703 472.881 109.183 577.607 238.369 577.607Z" fill="white"/>
<path d="M238.372 545.371C349.755 545.371 440.048 455.078 440.048 343.694C440.048 232.312 349.755 142.018 238.372 142.018C126.989 142.018 36.6953 232.312 36.6953 343.694C36.6953 455.078 126.989 545.371 238.372 545.371Z" fill="url(#paint1_linear_3215_7034)"/>
<path d="M378.275 483.605C396.727 465.151 410.762 443.951 420.4 421.332L238.367 343.697L316.002 525.73C338.622 516.092 359.822 502.057 378.275 483.605Z" fill="url(#paint2_linear_3215_7034)"/>
<path d="M98.4612 483.605C116.915 502.057 138.115 516.092 160.734 525.73L238.369 343.697L56.3359 421.332C65.9745 443.951 80.0087 465.151 98.4612 483.605Z" fill="url(#paint3_linear_3215_7034)"/>
<path d="M378.275 203.789C359.822 185.336 338.622 171.302 316.002 161.664L238.367 343.697L420.4 266.062C410.762 243.442 396.727 222.242 378.275 203.789Z" fill="url(#paint4_linear_3215_7034)"/>
<path d="M98.4612 203.789C80.0087 222.242 65.9745 243.442 56.3359 266.062L238.369 343.697L160.734 161.664C138.115 171.302 116.915 185.336 98.4612 203.789Z" fill="url(#paint5_linear_3215_7034)"/>
<path d="M378.275 203.789C359.822 185.336 338.622 171.302 316.002 161.664L238.367 343.697L420.4 266.062C410.762 243.442 396.727 222.242 378.275 203.789Z" fill="url(#paint6_linear_3215_7034)"/>
<path d="M416.6 429.732C429.192 403.724 436.243 374.534 436.243 343.695C436.243 312.856 429.192 283.666 416.6 257.658C417.951 260.428 419.21 263.244 420.424 266.06L238.391 343.695L420.424 421.33C419.21 424.145 417.951 426.962 416.6 429.732Z" fill="url(#paint7_linear_3215_7034)"/>
<path d="M60.1395 257.658C47.5476 283.666 40.4961 312.856 40.4961 343.695C40.4961 374.534 47.5476 403.724 60.1395 429.732C58.7887 426.962 57.5295 424.145 56.3161 421.33L238.349 343.695L56.339 266.06C57.5524 263.244 58.8116 260.428 60.1624 257.658H60.1395Z" fill="url(#paint8_linear_3215_7034)"/>
<path d="M324.406 165.464C298.398 152.872 269.208 145.82 238.369 145.82C207.531 145.82 178.34 152.872 152.332 165.464C155.102 164.136 157.918 162.854 160.734 161.64L238.369 343.674L316.004 161.663C318.82 162.877 321.636 164.136 324.406 165.486V165.464Z" fill="url(#paint9_linear_3215_7034)"/>
<path d="M316.004 525.73L238.369 343.697L160.734 525.73C157.918 524.517 155.102 523.258 152.332 521.906C178.34 534.498 207.531 541.55 238.369 541.55C269.208 541.55 298.398 534.498 324.406 521.906C321.636 523.258 318.82 524.517 316.004 525.73Z" fill="url(#paint10_linear_3215_7034)"/>
<g clip-path="url(#clip0_3215_7034)">
<path d="M419.722 186.343C418.927 186.3 417.731 185.646 416.358 183.34C415.033 181.112 413.827 177.791 412.858 173.528C410.927 165.032 410.044 153.27 410.718 140.28C411.392 127.291 413.489 115.687 416.289 107.442C417.694 103.305 419.238 100.13 420.786 98.0555C422.39 95.9071 423.647 95.3834 424.442 95.4257C425.237 95.4679 426.433 96.1219 427.806 98.4286C429.131 100.656 430.337 103.977 431.306 108.24C433.237 116.736 434.12 128.499 433.446 141.488C432.771 154.477 430.675 166.081 427.875 174.326C426.47 178.463 424.927 181.638 423.378 183.713C421.774 185.861 420.517 186.385 419.722 186.343Z" fill="white" stroke="#252A38" stroke-width="2"/>
<path d="M421.979 149.505C421.784 150.014 421.672 150.101 421.648 150.115C421.626 150.098 421.523 150 421.382 149.474C421.217 148.859 421.068 147.9 420.959 146.618C420.743 144.07 420.706 140.501 420.912 136.528C421.118 132.555 421.525 129.01 422.004 126.499C422.245 125.235 422.492 124.297 422.72 123.704C422.915 123.195 423.027 123.108 423.051 123.093C423.073 123.11 423.175 123.209 423.317 123.735C423.482 124.35 423.631 125.309 423.74 126.591C423.956 129.139 423.993 132.708 423.787 136.681C423.581 140.654 423.174 144.199 422.695 146.71C422.454 147.973 422.206 148.912 421.979 149.505Z" fill="#252A38" stroke="#252A38" stroke-width="1.5"/>
<path d="M448.652 187.879C447.856 187.837 446.661 187.183 445.288 184.876C443.963 182.649 442.757 179.327 441.788 175.065C439.857 166.568 438.973 154.806 439.648 141.817C440.322 128.827 442.419 117.224 445.219 108.979C446.624 104.842 448.167 101.667 449.716 99.592C451.32 97.4436 452.577 96.9199 453.372 96.9622C454.167 97.0044 455.363 97.6584 456.735 99.9651C458.061 102.192 459.267 105.514 460.235 109.776C462.166 118.273 463.05 130.035 462.376 143.025C461.701 156.014 459.604 167.618 456.804 175.863C455.4 179.999 453.856 183.175 452.308 185.249C450.704 187.398 449.447 187.921 448.652 187.879Z" fill="white" stroke="#252A38" stroke-width="2"/>
<path d="M451.286 141.361C451.137 141.708 451.051 141.767 451.033 141.776C451.015 141.765 450.936 141.697 450.824 141.337C450.694 140.917 450.574 140.261 450.484 139.386C450.305 137.645 450.26 135.209 450.4 132.498C450.541 129.787 450.839 127.369 451.197 125.657C451.377 124.796 451.564 124.157 451.737 123.753C451.886 123.407 451.972 123.348 451.99 123.338C452.008 123.35 452.087 123.417 452.199 123.777C452.329 124.197 452.449 124.853 452.539 125.729C452.718 127.469 452.763 129.905 452.623 132.616C452.482 135.327 452.184 137.745 451.826 139.457C451.646 140.318 451.459 140.957 451.286 141.361Z" fill="#252A38" stroke="#252A38" stroke-width="1.5"/>
<path d="M481.964 177.805C480.847 199.317 461.376 216.528 433.772 215.061C406.167 213.594 388.458 196.858 389.575 175.346C395.406 149.756 410.163 136.624 437.767 138.091C465.372 139.558 477.464 151.666 481.964 177.805Z" fill="white" stroke="#252A38" stroke-width="2"/>
<path d="M454.166 181.439C459.587 181.727 464.209 177.566 464.49 172.146C464.772 166.725 460.606 162.097 455.185 161.809C449.765 161.521 445.143 165.682 444.862 171.103C444.58 176.523 448.746 181.151 454.166 181.439Z" stroke="#252A38" stroke-width="0.5"/>
<path d="M454.377 177.305C457.515 177.472 460.191 175.063 460.354 171.925C460.517 168.787 458.105 166.107 454.967 165.941C451.829 165.774 449.153 168.183 448.99 171.321C448.827 174.459 451.239 177.138 454.377 177.305Z" fill="#252A38" stroke="#252A38" stroke-width="0.5"/>
<path d="M414.905 179.352C420.325 179.64 424.947 175.48 425.228 170.059C425.51 164.638 421.344 160.011 415.924 159.723C410.503 159.435 405.881 163.595 405.6 169.016C405.318 174.437 409.484 179.064 414.905 179.352Z" stroke="#252A38" stroke-width="0.5"/>
<path d="M415.119 175.22C418.257 175.387 420.933 172.978 421.096 169.84C421.259 166.701 418.847 164.022 415.709 163.855C412.571 163.689 409.895 166.097 409.732 169.236C409.569 172.374 411.981 175.053 415.119 175.22Z" fill="#252A38" stroke="#252A38" stroke-width="0.5"/>
<path d="M435.168 188.857L438.327 185.17C439.165 184.192 438.515 182.678 437.229 182.61L431.31 182.295C430.024 182.227 429.221 183.664 429.953 184.725L432.713 188.727C433.291 189.565 434.506 189.63 435.168 188.857Z" fill="#252A38" stroke="#252A38" stroke-width="0.5"/>
<path d="M400.844 182.574C393.069 180.186 385.552 178.339 378.319 182.628" stroke="#252A38" stroke-width="0.5" stroke-linecap="round"/>
<path d="M398.459 188.29C393.846 188.126 389.36 188.441 385.369 190.931C383.891 191.854 381.767 193.981 380.207 194.411" stroke="#252A38" stroke-width="0.5" stroke-linecap="round"/>
<path d="M469.91 185.827C473.582 186.115 479.244 186.333 482.499 188.373C484.386 189.557 486.479 190.741 488.368 191.814" stroke="#252A38" stroke-width="0.5" stroke-linecap="round"/>
<path d="M470.859 191.718C477.099 192.596 480.646 198.191 484.483 202.452" stroke="#252A38" stroke-width="0.5" stroke-linecap="round"/>
<path d="M433.417 187.79C435.322 190.119 433.749 194.832 430.775 195.448C429.023 195.811 427.124 195.187 425.534 194.561" stroke="#252A38" stroke-width="0.5" stroke-linecap="round"/>
<path d="M434.066 188.507C433.892 191.87 434.086 194.645 437.441 196.047C439.989 197.113 440.342 196.138 441.994 194.064" stroke="#252A38" stroke-width="0.5" stroke-linecap="round"/>
<path d="M398.545 179.496C394.321 183.298 389.674 185.112 384.602 184.938C379.531 184.765 375.092 182.564 371.285 178.335C367.66 174.308 365.981 169.713 366.249 164.55C366.527 159.196 368.727 154.664 372.85 150.952C376.873 147.331 381.561 145.663 386.914 145.948C392.277 146.041 396.772 148.101 400.397 152.129C404.113 156.257 405.787 160.947 405.418 166.2C404.959 171.353 402.668 175.784 398.545 179.496ZM457.107 256.981C453.623 251.088 453.222 247.112 451.689 241.566C450.346 236.03 448.543 232.004 446.277 229.487C445.916 230.906 444.93 232.339 443.321 233.787C439.902 236.865 435.898 238.282 431.31 238.038C426.731 237.603 422.674 235.422 419.139 231.496C415.423 227.368 413.745 222.773 414.103 217.711C414.462 212.649 416.753 208.217 420.977 204.415C425.502 200.342 430.386 198.588 435.629 199.154C440.882 199.529 445.276 201.68 448.81 205.607C454.792 212.252 459.029 219.283 461.519 226.702C464.201 234.13 465.012 241.603 463.95 249.12C463.79 250.358 463.192 251.716 462.157 253.195C461.313 254.684 460.237 256.017 458.93 257.194C458.234 257.82 457.38 257.441 457.107 256.981Z" fill="#252A38"/>
</g>
<g filter="url(#filter0_d_3215_7034)">
<path d="M660.654 104.63C652.685 139.422 605.783 158.365 555.894 146.939C543.366 144.07 526.016 136.217 516.939 131.601C467.909 149.721 473.402 155.233 496.747 114.408C482.669 99.1522 475.958 80.8604 479.99 63.2536C487.958 28.461 534.861 9.51847 584.75 20.9442C634.639 32.3699 668.622 69.8372 660.654 104.63Z" fill="white"/>
<path d="M517.166 131.156L516.971 131.057L516.766 131.132C507.013 134.736 499.414 137.843 493.689 140.183C492.212 140.787 490.861 141.339 489.629 141.836C486.619 143.051 484.342 143.926 482.707 144.409C481.888 144.65 481.256 144.785 480.787 144.82C480.298 144.857 480.09 144.778 480.014 144.717C479.974 144.685 479.891 144.597 479.926 144.259C479.962 143.918 480.112 143.431 480.406 142.769C480.991 141.452 482.066 139.601 483.585 137.127C484.293 135.972 485.095 134.686 485.983 133.263C488.886 128.607 492.708 122.479 497.181 114.656L497.363 114.338L497.115 114.068C483.112 98.8957 476.492 80.7659 480.477 63.3652C484.415 46.1724 497.983 32.8451 516.837 25.2306C535.689 17.6169 559.781 15.7387 584.638 21.4316C609.495 27.1244 630.369 39.3008 644.028 54.3603C657.688 69.4213 664.104 87.3254 660.166 104.518C656.229 121.711 642.661 135.038 623.807 142.653C604.955 150.266 580.863 152.145 556.006 146.452C543.54 143.597 526.237 135.768 517.166 131.156Z" stroke="black"/>
</g>
<path d="M533.605 51.1271V78H528.75V55.8377H528.593L522.308 59.8529V55.4309L528.973 51.1271H533.605ZM550.05 78.5117C546.804 78.503 544.267 77.2783 542.439 74.8377C540.62 72.3971 539.714 68.9811 539.723 64.5898C539.723 60.2159 540.633 56.8174 542.452 54.3943C544.28 51.9712 546.813 50.7597 550.05 50.7597C553.277 50.7597 555.806 51.9756 557.634 54.4075C559.462 56.8306 560.376 60.2247 560.376 64.5898C560.367 68.9899 559.453 72.4102 557.634 74.8508C555.823 77.2914 553.295 78.5117 550.05 78.5117ZM544.591 64.5898C544.591 67.7739 545.072 70.2102 546.034 71.8985C546.997 73.578 548.335 74.4178 550.05 74.4178C551.755 74.4178 553.089 73.578 554.052 71.8985C555.014 70.2102 555.495 67.7739 555.495 64.5898C555.486 61.4231 555.001 59 554.038 57.3204C553.076 55.6321 551.747 54.788 550.05 54.788C548.344 54.788 547.01 55.6321 546.047 57.3204C545.085 59 544.6 61.4231 544.591 64.5898ZM574.319 78.5117C571.074 78.503 568.537 77.2783 566.709 74.8377C564.889 72.3971 563.984 68.9811 563.992 64.5898C563.992 60.2159 564.902 56.8174 566.722 54.3943C568.55 51.9712 571.082 50.7597 574.319 50.7597C577.547 50.7597 580.075 51.9756 581.903 54.4075C583.732 56.8306 584.646 60.2247 584.646 64.5898C584.637 68.9899 583.723 72.4102 581.903 74.8508C580.093 77.2914 577.564 78.5117 574.319 78.5117ZM568.861 64.5898C568.861 67.7739 569.342 70.2102 570.304 71.8985C571.266 73.578 572.605 74.4178 574.319 74.4178C576.025 74.4178 577.359 73.578 578.321 71.8985C579.283 70.2102 579.765 67.7739 579.765 64.5898C579.756 61.4231 579.27 59 578.308 57.3204C577.346 55.6321 576.016 54.788 574.319 54.788C572.613 54.788 571.279 55.6321 570.317 57.3204C569.355 59 568.869 61.4231 568.861 64.5898ZM603.024 71.5442C603.024 70.7569 603.151 70.0177 603.404 69.3267C603.658 68.6268 604.017 68.0145 604.48 67.4896C604.953 66.956 605.552 66.5361 606.278 66.23C607.013 65.9238 607.822 65.7707 608.705 65.7707C610.481 65.7707 611.868 66.3218 612.865 67.424C613.871 68.5262 614.374 69.8996 614.374 71.5442V72.9613C614.374 74.0198 614.16 74.982 613.731 75.8481C613.302 76.7053 612.651 77.4008 611.776 77.9344C610.901 78.468 609.878 78.7348 608.705 78.7348C607.516 78.7348 606.483 78.468 605.609 77.9344C604.734 77.4008 604.082 76.7053 603.654 75.8481C603.234 74.982 603.024 74.0198 603.024 72.9613V71.5442ZM589.364 57.5829V56.1657C589.364 54.5299 589.876 53.1609 590.899 52.0587C591.923 50.9477 593.305 50.3923 595.046 50.3923C596.244 50.3923 597.276 50.6591 598.142 51.1927C599.017 51.7263 599.665 52.4217 600.084 53.279C600.504 54.1363 600.714 55.0985 600.714 56.1657V57.5829C600.714 58.6413 600.5 59.6036 600.071 60.4696C599.643 61.3269 598.991 62.0223 598.116 62.5559C597.25 63.0808 596.227 63.3432 595.046 63.3432C594.145 63.3432 593.331 63.1901 592.605 62.884C591.879 62.5778 591.28 62.1623 590.808 61.6374C590.344 61.1038 589.985 60.4915 589.732 59.8004C589.487 59.1093 589.364 58.3702 589.364 57.5829ZM590.86 78L609.335 51.1271H612.602L594.127 78H590.86ZM592.815 57.5829C592.815 58.3702 592.994 59.0306 593.353 59.5642C593.712 60.0978 594.276 60.3646 595.046 60.3646C595.824 60.3646 596.389 60.1022 596.738 59.5773C597.097 59.0437 597.276 58.3789 597.276 57.5829V56.1657C597.276 55.7896 597.241 55.4484 597.171 55.1423C597.101 54.8273 596.983 54.5343 596.817 54.2631C596.66 53.9832 596.428 53.7645 596.122 53.607C595.824 53.4496 595.466 53.3709 595.046 53.3709C594.285 53.3709 593.721 53.642 593.353 54.1844C592.994 54.7267 592.815 55.3872 592.815 56.1657V57.5829ZM606.448 72.9613C606.448 73.7486 606.628 74.4091 606.986 74.9427C607.345 75.4763 607.918 75.7431 608.705 75.7431C609.484 75.7431 610.048 75.4763 610.398 74.9427C610.757 74.4091 610.936 73.7486 610.936 72.9613V71.5442C610.936 71.168 610.897 70.8269 610.818 70.5207C610.748 70.2058 610.63 69.9128 610.464 69.6416C610.306 69.3616 610.074 69.143 609.768 68.9855C609.471 68.828 609.116 68.7493 608.705 68.7493C607.936 68.7493 607.367 69.0205 607 69.5628C606.632 70.0965 606.448 70.7569 606.448 71.5442V72.9613Z" fill="#F1511E"/>
<path d="M537.182 92.0331V94.5967C537.174 95.6206 537.163 96.4125 537.149 96.9724C537.141 97.5322 537.108 98.3131 537.049 99.3149C536.998 100.309 536.902 101.308 536.762 102.309C536.622 103.311 536.438 104.357 536.209 105.448H540.077V108.663H529.104V118.818H525.093V108.663H514.132V105.448H532.298C532.622 104.048 532.869 102.648 533.038 101.249L516.707 102.066L516.254 98.674L533.292 98.1989C533.329 97.4917 533.355 96.4862 533.37 95.1823H517.16V92.0331H537.182ZM565.402 91.4807V94.674H561.7V99.5912H565.214V102.685H556.717V105.337H567.733V108.475H541.788V105.337H552.717V102.685H544.252V99.5912H547.755V94.674H544.065V91.4807H565.402ZM544.915 118.387V110.32H548.915V115.171H564.772V118.387H544.915ZM551.733 99.5912H557.689V94.674H551.733V99.5912ZM592.052 90.4199V97.1934H595.831V100.431H592.052V106.895H588.008V90.4199H592.052ZM570.439 105.359V92.3425H583.235V95.547H574.395V102.144C577.12 102.129 579.305 102.063 580.947 101.945C582.597 101.827 584.196 101.606 585.743 101.282L586.097 104.475C584.424 104.836 582.649 105.076 580.771 105.193C578.899 105.304 576.244 105.359 572.804 105.359H570.439ZM572.936 113.105C572.936 111.926 573.334 110.906 574.13 110.044C574.925 109.182 576.052 108.527 577.511 108.077C578.977 107.621 580.697 107.392 582.671 107.392C585.625 107.4 587.964 107.912 589.688 108.928C591.411 109.937 592.273 111.33 592.273 113.105C592.273 114.306 591.879 115.341 591.091 116.21C590.31 117.087 589.198 117.75 587.754 118.199C586.318 118.648 584.623 118.873 582.671 118.873C579.68 118.88 577.308 118.372 575.555 117.348C573.802 116.324 572.929 114.91 572.936 113.105ZM576.87 113.105C576.863 113.959 577.36 114.608 578.362 115.05C579.364 115.492 580.8 115.713 582.671 115.713C584.498 115.713 585.909 115.492 586.903 115.05C587.898 114.6 588.399 113.952 588.406 113.105C588.399 112.273 587.898 111.639 586.903 111.204C585.909 110.77 584.498 110.556 582.671 110.564C580.8 110.556 579.364 110.77 578.362 111.204C577.36 111.639 576.863 112.273 576.87 113.105ZM607.576 96.4972C607.576 98.0589 608.147 99.4843 609.289 100.773C610.43 102.055 612.099 102.983 614.294 103.558L612.493 106.652C610.887 106.239 609.506 105.606 608.349 104.751C607.2 103.897 606.291 102.873 605.62 101.68C604.979 102.983 604.081 104.107 602.924 105.05C601.775 105.985 600.386 106.689 598.758 107.16L596.869 104.055C597.767 103.812 598.589 103.495 599.333 103.105C600.077 102.707 600.71 102.265 601.233 101.779C601.756 101.293 602.195 100.762 602.548 100.188C602.909 99.6059 603.174 99.0092 603.344 98.3978C603.513 97.779 603.598 97.1455 603.598 96.4972V96.4199H597.874V93.2818H603.598V90.3204H607.62V93.2818H613.3V96.4199H607.576V96.4972ZM601.952 118.564V108.32H621.068V118.564H601.952ZM605.941 115.37H617.167V111.514H605.941V115.37ZM612.581 101.127V97.9116H617.09V90.4199H621.068V107.105H617.09V101.127H612.581ZM631.232 93.3702L630.812 109.227H626.812L626.392 93.3702H631.232ZM626.194 113.657C626.186 112.943 626.44 112.331 626.956 111.823C627.472 111.308 628.094 111.05 628.823 111.05C629.523 111.05 630.131 111.308 630.647 111.823C631.17 112.331 631.435 112.943 631.442 113.657C631.435 114.379 631.17 114.998 630.647 115.514C630.131 116.022 629.523 116.276 628.823 116.276C628.094 116.276 627.472 116.022 626.956 115.514C626.44 114.998 626.186 114.379 626.194 113.657Z" fill="#252A38"/>
<defs>
<filter id="filter0_d_3215_7034" x="468.832" y="10.6163" width="208.98" height="158.651" filterUnits="userSpaceOnUse" color-interpolation-filters="sRGB">
<feFlood flood-opacity="0" result="BackgroundImageFix"/>
<feColorMatrix in="SourceAlpha" type="matrix" values="0 0 0 0 0 0 0 0 0 0 0 0 0 0 0 0 0 0 127 0" result="hardAlpha"/>
<feOffset dx="3" dy="6"/>
<feGaussianBlur stdDeviation="6.5"/>
<feComposite in2="hardAlpha" operator="out"/>
<feColorMatrix type="matrix" values="0 0 0 0 0 0 0 0 0 0 0 0 0 0 0 0 0 0 0.15 0"/>
<feBlend mode="normal" in2="BackgroundImageFix" result="effect1_dropShadow_3215_7034"/>
<feBlend mode="normal" in="SourceGraphic" in2="effect1_dropShadow_3215_7034" result="shape"/>
</filter>
<linearGradient id="paint0_linear_3215_7034" x1="399.933" y1="182.131" x2="58.6242" y2="523.44" gradientUnits="userSpaceOnUse">
<stop stop-color="#FEDC31"/>
<stop offset="0.09" stop-color="#FDC347"/>
<stop offset="0.27" stop-color="#FC8682"/>
<stop offset="0.52" stop-color="#FA2CD7"/>
<stop offset="0.76" stop-color="#987CDB"/>
<stop offset="1" stop-color="#33D0E0"/>
</linearGradient>
<linearGradient id="paint1_linear_3215_7034" x1="104.532" y1="209.854" x2="368.457" y2="473.78" gradientUnits="userSpaceOnUse">
<stop stop-color="#FEDC31"/>
<stop offset="0.09" stop-color="#FDC347"/>
<stop offset="0.27" stop-color="#FC8682"/>
<stop offset="0.52" stop-color="#FA2CD7"/>
<stop offset="0.76" stop-color="#987CDB"/>
<stop offset="1" stop-color="#33D0E0"/>
</linearGradient>
<linearGradient id="paint2_linear_3215_7034" x1="379.145" y1="384.952" x2="254.21" y2="509.887" gradientUnits="userSpaceOnUse">
<stop stop-color="#FEFAEE"/>
<stop offset="0.68" stop-color="#FFF8E4"/>
<stop offset="1" stop-color="#F9FCF3"/>
</linearGradient>
<linearGradient id="paint3_linear_3215_7034" x1="197.114" y1="384.952" x2="72.1788" y2="509.887" gradientUnits="userSpaceOnUse">
<stop stop-color="#FEFAEE"/>
<stop offset="0.68" stop-color="#FFF8E4"/>
<stop offset="1" stop-color="#F9FCF3"/>
</linearGradient>
<linearGradient id="paint4_linear_3215_7034" x1="379.145" y1="202.919" x2="254.21" y2="327.854" gradientUnits="userSpaceOnUse">
<stop stop-color="#FEFAEE"/>
<stop offset="0.68" stop-color="#FFF8E4"/>
<stop offset="1" stop-color="#F9FCF3"/>
</linearGradient>
<linearGradient id="paint5_linear_3215_7034" x1="197.114" y1="202.919" x2="72.1789" y2="327.854" gradientUnits="userSpaceOnUse">
<stop stop-color="#FEFAEE"/>
<stop offset="0.68" stop-color="#FFF8E4"/>
<stop offset="1" stop-color="#F9FCF3"/>
</linearGradient>
<linearGradient id="paint6_linear_3215_7034" x1="379.145" y1="202.919" x2="254.21" y2="327.854" gradientUnits="userSpaceOnUse">
<stop stop-color="#FEFAEE"/>
<stop offset="0.68" stop-color="#FFF8E4"/>
<stop offset="1" stop-color="#F9FCF3"/>
</linearGradient>
<linearGradient id="paint7_linear_3215_7034" x1="238.367" y1="343.695" x2="436.243" y2="343.695" gradientUnits="userSpaceOnUse">
<stop stop-color="#91AEE5"/>
<stop offset="0.27" stop-color="#91AFE5"/>
<stop offset="0.82" stop-color="#91AFE5"/>
<stop offset="1" stop-color="#90AEE5"/>
</linearGradient>
<linearGradient id="paint8_linear_3215_7034" x1="90.0154" y1="299.275" x2="193.95" y2="446.573" gradientUnits="userSpaceOnUse">
<stop stop-color="#C18CE6"/>
<stop offset="0.25" stop-color="#B67DFF"/>
<stop offset="0.79" stop-color="#C69AFF"/>
<stop offset="1" stop-color="#C297F9"/>
</linearGradient>
<linearGradient id="paint9_linear_3215_7034" x1="285.538" y1="298.981" x2="153.398" y2="184.06" gradientUnits="userSpaceOnUse">
<stop stop-color="#FE85B8"/>
<stop offset="0.403872" stop-color="#FE85B8"/>
<stop offset="1" stop-color="#FF9AC5"/>
</linearGradient>
<linearGradient id="paint10_linear_3215_7034" x1="238.369" y1="351.206" x2="238.369" y2="533.812" gradientUnits="userSpaceOnUse">
<stop stop-color="#FFE051"/>
<stop offset="0.0001" stop-color="#FFE051"/>
<stop offset="0.5" stop-color="#FCE681"/>
<stop offset="1" stop-color="#FFE56C"/>
</linearGradient>
<clipPath id="clip0_3215_7034">
<rect width="154.225" height="138.239" fill="white" transform="translate(444.656 65.0291) rotate(48.0069)"/>
</clipPath>
</defs>
</svg>
