<svg width="724" height="653" viewBox="0 0 724 653" fill="none" xmlns="http://www.w3.org/2000/svg">
<path d="M475.15 414.696C475.15 545.904 368.782 652.294 237.574 652.294C106.367 652.294 0 545.904 0 414.696C0 283.489 100.255 183.326 226.196 177.373C229.974 177.213 233.774 177.122 237.574 177.122C241.375 177.122 245.176 177.19 248.953 177.373C374.872 183.326 475.15 287.289 475.15 414.696Z" fill="url(#paint0_linear_3215_7034)"/>
<path d="M237.576 648.607C366.761 648.607 471.488 543.882 471.488 414.695C471.488 285.51 366.761 180.784 237.576 180.784C108.39 180.784 3.66406 285.51 3.66406 414.695C3.66406 543.882 108.39 648.607 237.576 648.607Z" fill="white"/>
<path d="M237.579 616.371C348.962 616.371 439.255 526.078 439.255 414.694C439.255 303.312 348.962 213.018 237.579 213.018C126.196 213.018 35.9023 303.312 35.9023 414.694C35.9023 526.078 126.196 616.371 237.579 616.371Z" fill="url(#paint1_linear_3215_7034)"/>
<path d="M377.482 554.605C395.934 536.152 409.969 514.951 419.607 492.332L237.574 414.697L315.209 596.73C337.829 587.092 359.029 573.058 377.482 554.605Z" fill="url(#paint2_linear_3215_7034)"/>
<path d="M97.6682 554.605C116.122 573.058 137.322 587.092 159.941 596.73L237.576 414.697L55.543 492.332C65.1815 514.951 79.2157 536.152 97.6682 554.605Z" fill="url(#paint3_linear_3215_7034)"/>
<path d="M377.482 274.789C359.029 256.337 337.829 242.302 315.209 232.664L237.574 414.697L419.607 337.062C409.969 314.442 395.934 293.242 377.482 274.789Z" fill="url(#paint4_linear_3215_7034)"/>
<path d="M97.6682 274.789C79.2157 293.242 65.1815 314.442 55.543 337.062L237.576 414.697L159.941 232.664C137.322 242.302 116.122 256.337 97.6682 274.789Z" fill="url(#paint5_linear_3215_7034)"/>
<path d="M377.482 274.789C359.029 256.337 337.829 242.302 315.209 232.664L237.574 414.697L419.607 337.062C409.969 314.442 395.934 293.242 377.482 274.789Z" fill="url(#paint6_linear_3215_7034)"/>
<path d="M415.807 500.732C428.399 474.724 435.45 445.534 435.45 414.695C435.45 383.856 428.399 354.666 415.807 328.658C417.158 331.428 418.417 334.244 419.631 337.06L237.598 414.695L419.631 492.33C418.417 495.145 417.158 497.962 415.807 500.732Z" fill="url(#paint7_linear_3215_7034)"/>
<path d="M59.3465 328.658C46.7546 354.666 39.7031 383.856 39.7031 414.695C39.7031 445.534 46.7546 474.724 59.3465 500.732C57.9958 497.962 56.7366 495.145 55.5232 492.33L237.556 414.695L55.546 337.06C56.7594 334.244 58.0186 331.428 59.3694 328.658H59.3465Z" fill="url(#paint8_linear_3215_7034)"/>
<path d="M323.613 236.464C297.605 223.872 268.415 216.82 237.576 216.82C206.738 216.82 177.547 223.872 151.539 236.464C154.309 235.136 157.125 233.854 159.942 232.64L237.576 414.674L315.211 232.663C318.027 233.877 320.843 235.136 323.613 236.487V236.464Z" fill="url(#paint9_linear_3215_7034)"/>
<path d="M315.211 596.73L237.576 414.697L159.942 596.73C157.125 595.517 154.309 594.258 151.539 592.906C177.547 605.498 206.738 612.55 237.576 612.55C268.415 612.55 297.605 605.498 323.613 592.906C320.843 594.258 318.027 595.517 315.211 596.73Z" fill="url(#paint10_linear_3215_7034)"/>
<g clip-path="url(#clip0_3215_7034)">
<path d="M412.432 236.873C411.447 236.821 409.966 236.011 408.266 233.154C406.625 230.395 405.131 226.281 403.931 221.002C401.539 210.478 400.445 195.909 401.28 179.821C402.115 163.733 404.712 149.36 408.181 139.148C409.92 134.025 411.832 130.092 413.75 127.522C415.737 124.861 417.293 124.213 418.278 124.265C419.263 124.317 420.744 125.127 422.444 127.984C424.086 130.743 425.58 134.857 426.779 140.137C429.171 150.66 430.265 165.229 429.43 181.317C428.595 197.405 425.998 211.778 422.53 221.99C420.79 227.113 418.878 231.046 416.96 233.616C414.974 236.277 413.417 236.925 412.432 236.873Z" fill="white" stroke="#252A38" stroke-width="6"/>
<path d="M414.716 191.303C414.371 191.928 414.168 192.032 414.124 192.049C414.082 192.027 413.89 191.902 413.612 191.245C413.288 190.477 412.983 189.283 412.741 187.689C412.261 184.522 412.079 180.095 412.334 175.174C412.59 170.252 413.229 165.869 414.035 162.77C414.44 161.211 414.868 160.055 415.269 159.326C415.614 158.702 415.817 158.598 415.861 158.58C415.903 158.602 416.095 158.727 416.373 159.385C416.697 160.152 417.002 161.347 417.244 162.941C417.724 166.107 417.906 170.535 417.651 175.456C417.395 180.377 416.756 184.761 415.95 187.86C415.545 189.419 415.117 190.575 414.716 191.303Z" fill="#252A38" stroke="#252A38" stroke-width="1.5"/>
<path d="M448.701 238.776C447.717 238.724 446.236 237.914 444.536 235.057C442.894 232.298 441.4 228.184 440.201 222.905C437.809 212.381 436.714 197.812 437.55 181.724C438.385 165.636 440.982 151.263 444.45 141.051C446.19 135.928 448.102 131.995 450.02 129.425C452.006 126.764 453.563 126.116 454.548 126.168C455.533 126.22 457.014 127.03 458.714 129.887C460.355 132.646 461.849 136.76 463.049 142.04C465.441 152.563 466.535 167.132 465.7 183.22C464.864 199.308 462.268 213.681 458.799 223.893C457.06 229.016 455.148 232.949 453.23 235.519C451.243 238.18 449.686 238.828 448.701 238.776Z" fill="white" stroke="#252A38" stroke-width="6"/>
<path d="M451.965 181.16C451.781 181.589 451.675 181.662 451.652 181.674C451.63 181.659 451.532 181.576 451.393 181.13C451.232 180.609 451.084 179.797 450.972 178.713C450.75 176.558 450.694 173.54 450.868 170.182C451.042 166.824 451.411 163.829 451.855 161.709C452.078 160.643 452.31 159.851 452.524 159.35C452.708 158.921 452.814 158.849 452.837 158.836C452.859 158.851 452.957 158.935 453.095 159.381C453.257 159.901 453.405 160.713 453.517 161.798C453.739 163.953 453.795 166.97 453.621 170.328C453.446 173.686 453.078 176.681 452.634 178.801C452.411 179.868 452.179 180.66 451.965 181.16Z" fill="#252A38" stroke="#252A38" stroke-width="1.5"/>
<path d="M451.458 191.864C451.113 192.489 450.91 192.593 450.866 192.61C450.824 192.588 450.632 192.463 450.355 191.806C450.03 191.038 449.725 189.844 449.483 188.25C449.003 185.083 448.821 180.656 449.077 175.735C449.332 170.813 449.971 166.429 450.777 163.331C451.182 161.772 451.61 160.616 452.012 159.887C452.356 159.263 452.56 159.159 452.603 159.141C452.645 159.163 452.837 159.288 453.115 159.946C453.439 160.713 453.745 161.908 453.986 163.502C454.467 166.668 454.648 171.096 454.393 176.017C454.137 180.938 453.498 185.322 452.693 188.421C452.287 189.98 451.86 191.135 451.458 191.864Z" fill="#252A38" stroke="#252A38" stroke-width="1.5"/>
<path d="M489.963 226.299C488.58 252.943 464.463 274.26 430.273 272.443C396.083 270.626 374.149 249.898 375.533 223.253C382.754 191.558 401.033 175.293 435.223 177.11C469.413 178.927 484.389 193.924 489.963 226.299Z" fill="white" stroke="#252A38" stroke-width="6"/>
<path d="M455.534 230.799C462.248 231.156 467.972 226.003 468.321 219.289C468.67 212.575 463.51 206.843 456.796 206.486C450.083 206.129 444.358 211.283 444.009 217.997C443.661 224.711 448.821 230.443 455.534 230.799Z" stroke="#252A38" stroke-width="1.2"/>
<path d="M455.795 225.679C459.682 225.886 462.996 222.902 463.198 219.015C463.4 215.128 460.413 211.81 456.526 211.603C452.639 211.397 449.325 214.38 449.123 218.267C448.921 222.154 451.908 225.473 455.795 225.679Z" fill="#252A38" stroke="#252A38" stroke-width="0.5"/>
<path d="M406.905 228.215C413.619 228.572 419.344 223.418 419.692 216.704C420.041 209.991 414.881 204.259 408.167 203.902C401.454 203.545 395.729 208.699 395.381 215.413C395.032 222.126 400.192 227.858 406.905 228.215Z" stroke="#252A38" stroke-width="1.2"/>
<path d="M407.174 223.097C411.061 223.303 414.375 220.32 414.577 216.433C414.779 212.546 411.791 209.227 407.905 209.021C404.018 208.814 400.704 211.798 400.502 215.685C400.3 219.572 403.287 222.89 407.174 223.097Z" fill="#252A38" stroke="#252A38" stroke-width="0.5"/>
<path d="M432.002 239.987L435.915 235.42C436.952 234.21 436.147 232.334 434.555 232.249L427.224 231.86C425.631 231.775 424.636 233.555 425.542 234.869L428.961 239.826C429.677 240.865 431.182 240.945 432.002 239.987Z" fill="#252A38" stroke="#252A38" stroke-width="0.5"/>
<path d="M389.488 232.205C379.859 229.248 370.548 226.96 361.589 232.273" stroke="#252A38" stroke-width="2" stroke-linecap="round"/>
<path d="M386.534 239.285C380.821 239.082 375.264 239.471 370.322 242.556C368.491 243.699 365.86 246.334 363.928 246.866" stroke="#252A38" stroke-width="2" stroke-linecap="round"/>
<path d="M475.031 236.235C479.579 236.591 486.591 236.861 490.623 239.388C492.961 240.854 495.553 242.32 497.892 243.649" stroke="#252A38" stroke-width="2" stroke-linecap="round"/>
<path d="M476.207 243.531C483.936 244.618 488.329 251.548 493.08 256.826" stroke="#252A38" stroke-width="2" stroke-linecap="round"/>
<path d="M429.834 238.666C432.193 241.551 430.245 247.388 426.562 248.151C424.392 248.601 422.04 247.827 420.07 247.052" stroke="#252A38" stroke-width="0.5" stroke-linecap="round"/>
<path d="M430.637 239.554C430.42 243.719 430.661 247.156 434.816 248.893C437.972 250.212 438.41 249.006 440.456 246.436" stroke="#252A38" stroke-width="0.5" stroke-linecap="round"/>
<path d="M386.644 228.393C381.413 233.102 375.657 235.349 369.375 235.134C363.094 234.919 357.596 232.193 352.881 226.955C348.391 221.967 346.311 216.275 346.643 209.881C346.988 203.25 349.713 197.636 354.82 193.039C359.802 188.554 365.608 186.488 372.239 186.84C378.882 186.956 384.449 189.508 388.939 194.496C393.541 199.609 395.614 205.418 395.158 211.925C394.589 218.307 391.751 223.796 386.644 228.393ZM459.178 324.364C454.862 317.065 454.367 312.14 452.467 305.271C450.805 298.415 448.571 293.428 445.764 290.311C445.317 292.068 444.096 293.843 442.104 295.637C437.869 299.449 432.91 301.204 427.226 300.902C421.555 300.363 416.53 297.662 412.152 292.799C407.55 287.686 405.471 281.995 405.915 275.725C406.359 269.455 409.197 263.966 414.428 259.257C420.033 254.212 426.083 252.04 432.576 252.741C439.082 253.206 444.524 255.869 448.902 260.733C456.311 268.963 461.558 277.673 464.643 286.861C467.965 296.062 468.969 305.317 467.654 314.628C467.456 316.161 466.715 317.843 465.433 319.675C464.387 321.519 463.055 323.17 461.436 324.628C460.574 325.404 459.516 324.935 459.178 324.364Z" fill="#252A38"/>
</g>
<g filter="url(#filter0_d_3215_7034)">
<path d="M706.04 127.678C696.293 170.239 638.918 193.411 577.89 179.435C562.564 175.925 541.341 166.318 530.237 160.672C470.259 182.837 476.98 189.58 505.537 139.639C488.315 120.978 480.105 98.6016 485.038 77.0636C494.786 34.5025 552.161 11.3305 613.189 25.3073C674.217 39.2842 715.788 85.1171 706.04 127.678Z" fill="white"/>
<path d="M505.971 139.887L506.153 139.569L505.904 139.3C488.758 120.721 480.64 98.5071 485.526 77.1752C490.353 56.0982 506.984 39.7714 530.07 30.4473C553.155 21.1241 582.65 18.8263 613.077 25.7947C643.504 32.7631 669.059 47.6687 685.785 66.1096C702.512 84.552 710.38 106.49 705.553 127.567C700.726 148.644 684.095 164.97 661.008 174.294C637.923 183.618 608.428 185.916 578.002 178.947C562.739 175.452 541.561 165.869 530.464 160.226L530.269 160.127L530.064 160.203C518.136 164.611 508.842 168.41 501.838 171.273C500.032 172.012 498.379 172.688 496.871 173.296C493.189 174.781 490.399 175.854 488.393 176.446C487.389 176.742 486.606 176.91 486.021 176.954C485.416 177 485.125 176.905 484.997 176.804C484.906 176.731 484.803 176.576 484.849 176.145C484.894 175.709 485.084 175.101 485.445 174.288C486.163 172.669 487.484 170.399 489.34 167.373C490.208 165.959 491.189 164.386 492.275 162.644C495.827 156.949 500.5 149.455 505.971 139.887Z" stroke="black"/>
</g>
<path d="M526.055 59.8453V105.095H516.617V68.7828H516.367L505.992 75.2828V66.9703L517.18 59.8453H526.055ZM554.117 105.72C542.773 105.72 535.93 97.2828 535.93 82.4703C535.93 67.689 542.836 59.2203 554.117 59.2203C565.398 59.2203 572.305 67.689 572.305 82.4703C572.305 97.3453 565.43 105.72 554.117 105.72ZM545.555 82.4703C545.492 92.9078 548.867 97.9703 554.117 97.9703C559.367 97.9703 562.711 92.9078 562.68 82.4703C562.711 72.1265 559.336 66.939 554.117 66.9078C548.898 66.939 545.555 72.1265 545.555 82.4703ZM596.367 105.72C585.023 105.72 578.18 97.2828 578.18 82.4703C578.18 67.689 585.086 59.2203 596.367 59.2203C607.648 59.2203 614.555 67.689 614.555 82.4703C614.555 97.3453 607.68 105.72 596.367 105.72ZM587.805 82.4703C587.742 92.9078 591.117 97.9703 596.367 97.9703C601.617 97.9703 604.961 92.9078 604.93 82.4703C604.961 72.1265 601.586 66.939 596.367 66.9078C591.148 66.939 587.805 72.1265 587.805 82.4703ZM632.93 82.4703C626.148 82.4703 622.492 77.5328 622.492 70.4078C622.492 63.2515 626.336 58.2828 632.93 58.2828C639.711 58.2828 643.336 63.2515 643.367 70.4078C643.336 77.5953 639.617 82.4703 632.93 82.4703ZM628.867 70.4078C628.898 74.314 630.305 76.8765 632.93 76.9078C635.617 76.8765 636.961 74.314 636.992 70.4078C636.961 66.5015 635.742 63.8453 632.93 63.8453C630.273 63.8765 628.898 66.564 628.867 70.4078ZM628.992 105.095L660.117 59.8453H667.117L635.992 105.095H628.992ZM653.055 94.5328C653.055 87.3765 656.898 82.439 663.43 82.4078C670.273 82.439 673.898 87.3765 673.93 94.5328C673.898 101.72 670.18 106.595 663.43 106.595C656.711 106.595 653.055 101.658 653.055 94.5328ZM659.43 94.5328C659.461 98.439 660.867 101.033 663.43 101.033C666.18 101.033 667.523 98.439 667.555 94.5328C667.523 90.6265 666.273 87.9703 663.43 88.0328C660.805 88.0015 659.461 90.689 659.43 94.5328Z" fill="#F1511E"/>
<path d="M550.676 115.636V119C550.655 122.876 550.655 127.203 549.404 133.232H554.449V137.457H540.053V150.787H534.803V137.457H520.406V133.232H544.277C544.729 131.243 545.036 129.418 545.241 127.736L523.811 128.802L523.195 124.332L545.59 123.716C545.651 122.322 545.651 121.03 545.672 119.779H524.385V115.636H550.676ZM587.713 114.898V119.123H582.832V125.562H587.467V129.623H576.311V133.109H590.748V137.211H556.705V133.109H571.061V129.623H559.945V125.562H564.539V119.123H559.699V114.898H587.713ZM560.807 150.212V139.63H566.057V146.029H586.893V150.212H560.807ZM569.789 125.562H577.582V119.123H569.789V125.562ZM622.699 113.544V122.404H627.662V126.669H622.699V135.16H617.367V113.544H622.699ZM594.316 133.15V116.046H611.092V120.23H599.525V128.925C606.457 128.884 610.251 128.659 614.414 127.777L614.865 131.961C610.251 132.965 605.862 133.129 597.434 133.15H594.316ZM597.598 143.281C597.577 138.585 602.581 135.816 610.395 135.816C618.064 135.816 622.966 138.585 622.986 143.281C622.966 148.08 618.064 150.889 610.395 150.869C602.581 150.889 597.577 148.08 597.598 143.281ZM602.766 143.281C602.745 145.537 605.493 146.726 610.395 146.726C615.132 146.726 617.88 145.537 617.9 143.281C617.88 141.086 615.132 139.938 610.395 139.959C605.493 139.938 602.745 141.086 602.766 143.281ZM643.043 121.502C643.063 125.378 645.853 129.192 651.861 130.771L649.523 134.832C645.196 133.704 642.202 131.345 640.5 128.31C638.859 131.612 635.886 134.237 631.477 135.488L629.016 131.427C635.065 129.787 637.834 125.685 637.834 121.502V121.378H630.328V117.277H637.834V113.38H643.125V117.277H650.59V121.378H643.043V121.502ZM635.66 150.459V137.005H660.762V150.459H635.66ZM640.91 146.275H655.635V141.189H640.91V146.275ZM649.646 127.572V123.347H655.553V113.544H660.762V135.406H655.553V127.572H649.646ZM674.092 117.4L673.559 138.195H668.309L667.775 117.4H674.092ZM667.529 144.019C667.488 142.132 669.047 140.594 670.975 140.615C672.8 140.594 674.379 142.132 674.379 144.019C674.379 145.926 672.8 147.464 670.975 147.464C669.047 147.464 667.488 145.926 667.529 144.019Z" fill="#252A38"/>
<defs>
<filter id="filter0_d_3215_7034" x="473.621" y="14.2363" width="249.836" height="188.269" filterUnits="userSpaceOnUse" color-interpolation-filters="sRGB">
<feFlood flood-opacity="0" result="BackgroundImageFix"/>
<feColorMatrix in="SourceAlpha" type="matrix" values="0 0 0 0 0 0 0 0 0 0 0 0 0 0 0 0 0 0 127 0" result="hardAlpha"/>
<feOffset dx="3" dy="6"/>
<feGaussianBlur stdDeviation="6.5"/>
<feComposite in2="hardAlpha" operator="out"/>
<feColorMatrix type="matrix" values="0 0 0 0 0 0 0 0 0 0 0 0 0 0 0 0 0 0 0.15 0"/>
<feBlend mode="normal" in2="BackgroundImageFix" result="effect1_dropShadow_3215_7034"/>
<feBlend mode="normal" in="SourceGraphic" in2="effect1_dropShadow_3215_7034" result="shape"/>
</filter>
<linearGradient id="paint0_linear_3215_7034" x1="399.14" y1="253.131" x2="57.8312" y2="594.44" gradientUnits="userSpaceOnUse">
<stop stop-color="#AF9E48"/>
<stop offset="0.09" stop-color="#C8962D"/>
<stop offset="0.27" stop-color="#FC8682"/>
<stop offset="0.52" stop-color="#FA2CD7"/>
<stop offset="0.76" stop-color="#987CDB"/>
<stop offset="1" stop-color="#33D0E0"/>
</linearGradient>
<linearGradient id="paint1_linear_3215_7034" x1="103.739" y1="280.854" x2="367.664" y2="544.781" gradientUnits="userSpaceOnUse">
<stop stop-color="#D2B41D"/>
<stop offset="0.09" stop-color="#D79F29"/>
<stop offset="0.27" stop-color="#FC8682"/>
<stop offset="0.52" stop-color="#FA2CD7"/>
<stop offset="0.76" stop-color="#987CDB"/>
<stop offset="1" stop-color="#33D0E0"/>
</linearGradient>
<linearGradient id="paint2_linear_3215_7034" x1="378.352" y1="455.953" x2="253.417" y2="580.887" gradientUnits="userSpaceOnUse">
<stop stop-color="#FEFAEE"/>
<stop offset="0.68" stop-color="#FFF8E4"/>
<stop offset="1" stop-color="#F9FCF3"/>
</linearGradient>
<linearGradient id="paint3_linear_3215_7034" x1="196.321" y1="455.953" x2="71.3859" y2="580.887" gradientUnits="userSpaceOnUse">
<stop stop-color="#FEFAEE"/>
<stop offset="0.68" stop-color="#FFF8E4"/>
<stop offset="1" stop-color="#F9FCF3"/>
</linearGradient>
<linearGradient id="paint4_linear_3215_7034" x1="378.352" y1="273.92" x2="253.417" y2="398.854" gradientUnits="userSpaceOnUse">
<stop stop-color="#FEFAEE"/>
<stop offset="0.68" stop-color="#FFF8E4"/>
<stop offset="1" stop-color="#F9FCF3"/>
</linearGradient>
<linearGradient id="paint5_linear_3215_7034" x1="196.321" y1="273.92" x2="71.3859" y2="398.854" gradientUnits="userSpaceOnUse">
<stop stop-color="#FEFAEE"/>
<stop offset="0.68" stop-color="#FFF8E4"/>
<stop offset="1" stop-color="#F9FCF3"/>
</linearGradient>
<linearGradient id="paint6_linear_3215_7034" x1="378.352" y1="273.92" x2="253.417" y2="398.854" gradientUnits="userSpaceOnUse">
<stop stop-color="#FEFAEE"/>
<stop offset="0.68" stop-color="#FFF8E4"/>
<stop offset="1" stop-color="#F9FCF3"/>
</linearGradient>
<linearGradient id="paint7_linear_3215_7034" x1="237.574" y1="414.695" x2="435.45" y2="414.695" gradientUnits="userSpaceOnUse">
<stop stop-color="#91AEE5"/>
<stop offset="0.27" stop-color="#91AFE5"/>
<stop offset="0.82" stop-color="#91AFE5"/>
<stop offset="1" stop-color="#90AEE5"/>
</linearGradient>
<linearGradient id="paint8_linear_3215_7034" x1="89.2224" y1="370.275" x2="193.157" y2="517.573" gradientUnits="userSpaceOnUse">
<stop stop-color="#C18CE6"/>
<stop offset="0.25" stop-color="#B67DFF"/>
<stop offset="0.79" stop-color="#C69AFF"/>
<stop offset="1" stop-color="#C297F9"/>
</linearGradient>
<linearGradient id="paint9_linear_3215_7034" x1="284.745" y1="369.981" x2="152.605" y2="255.06" gradientUnits="userSpaceOnUse">
<stop stop-color="#FE85B8"/>
<stop offset="0.403872" stop-color="#FE85B8"/>
<stop offset="1" stop-color="#FF9AC5"/>
</linearGradient>
<linearGradient id="paint10_linear_3215_7034" x1="237.576" y1="422.206" x2="237.576" y2="604.812" gradientUnits="userSpaceOnUse">
<stop stop-color="#FFE051"/>
<stop offset="0.0001" stop-color="#FFE051"/>
<stop offset="0.5" stop-color="#FCE681"/>
<stop offset="1" stop-color="#FFE56C"/>
</linearGradient>
<clipPath id="clip0_3215_7034">
<rect width="191.02" height="171.22" fill="white" transform="translate(443.758 86.6164) rotate(48.0069)"/>
</clipPath>
</defs>
</svg>
