<svg width="208" height="40" viewBox="0 0 208 40" fill="none" xmlns="http://www.w3.org/2000/svg">
<path d="M183.809 26.3652C183.665 26.2712 183.512 26.0196 183.506 25.4403C183.5 24.881 183.635 24.1303 183.917 23.2297C184.478 21.4345 185.589 19.143 187.124 16.7912C188.66 14.4394 190.311 12.5003 191.729 11.2644C192.44 10.6443 193.073 10.2186 193.587 9.99907C194.12 9.77169 194.412 9.81004 194.556 9.90403C194.7 9.99805 194.852 10.2496 194.858 10.8289C194.864 11.3882 194.729 12.1389 194.448 13.0395C193.886 14.8347 192.775 17.1262 191.24 19.478C189.704 21.8298 188.053 23.7689 186.636 25.0049C185.924 25.625 185.291 26.0506 184.777 26.2701C184.244 26.4975 183.953 26.4592 183.809 26.3652Z" fill="white" stroke="#252A38" stroke-width="2"/>
<path d="M188.226 19.7324C188.135 19.8063 188.104 19.8104 188.098 19.8105C188.096 19.8049 188.088 19.7755 188.118 19.6619C188.154 19.5293 188.23 19.3341 188.349 19.083C188.585 18.584 188.965 17.9137 189.435 17.1943C189.905 16.4749 190.365 15.8572 190.727 15.4403C190.909 15.2306 191.058 15.0822 191.164 14.9961C191.256 14.9222 191.286 14.9181 191.292 14.918C191.295 14.9236 191.303 14.953 191.273 15.0666C191.237 15.1992 191.16 15.3944 191.042 15.6455C190.806 16.1445 190.425 16.8148 189.956 17.5342C189.486 18.2536 189.025 18.8714 188.663 19.2882C188.481 19.4979 188.333 19.6463 188.226 19.7324Z" fill="#252A38" stroke="#252A38" stroke-width="1.5"/>
<path d="M189.047 29.7851C188.903 29.6911 188.75 29.4395 188.744 28.8603C188.738 28.3009 188.873 27.5503 189.155 26.6496C189.716 24.8544 190.827 22.5629 192.363 20.2111C193.898 17.8593 195.549 15.9202 196.967 14.6843C197.678 14.0642 198.311 13.6386 198.826 13.419C199.358 13.1916 199.65 13.23 199.794 13.324C199.938 13.418 200.09 13.6696 200.097 14.2488C200.103 14.8081 199.967 15.5588 199.686 16.4594C199.125 18.2547 198.013 20.5461 196.478 22.8979C194.943 25.2497 193.292 27.1889 191.874 28.4248C191.163 29.0449 190.53 29.4705 190.015 29.6901C189.482 29.9174 189.191 29.8791 189.047 29.7851Z" fill="white" stroke="#252A38" stroke-width="2"/>
<path d="M194.586 21.386C194.52 21.4346 194.498 21.4362 194.493 21.4361C194.491 21.432 194.484 21.4108 194.502 21.3315C194.523 21.2389 194.572 21.1036 194.65 20.9303C194.806 20.5861 195.061 20.1264 195.382 19.6355C195.702 19.1446 196.02 18.7255 196.273 18.4448C196.4 18.3035 196.504 18.2044 196.581 18.1477C196.646 18.0992 196.668 18.0975 196.673 18.0977C196.675 18.1017 196.682 18.1229 196.664 18.2023C196.643 18.2948 196.594 18.4302 196.516 18.6034C196.361 18.9476 196.105 19.4074 195.784 19.8982C195.464 20.3891 195.146 20.8083 194.893 21.089C194.766 21.2302 194.662 21.3293 194.586 21.386Z" fill="#252A38" stroke="#252A38" stroke-width="1.5"/>
<path d="M196.363 31.5133C193.82 35.4082 188.315 36.5123 183.317 33.249C178.319 29.9858 176.826 24.9438 179.369 21.0489C183.235 16.9032 187.417 16.0499 192.415 19.3132C197.414 22.5764 198.359 26.1463 196.363 31.5133Z" fill="white" stroke="#252A38" stroke-width="2"/>
<path d="M190.777 29.1789C191.758 29.8196 193.073 29.5434 193.714 28.562C194.355 27.5806 194.079 26.2655 193.097 25.6247C192.116 24.984 190.801 25.2602 190.16 26.2416C189.519 27.223 189.796 28.5381 190.777 29.1789Z" stroke="#252A38" stroke-width="0.5"/>
<path d="M191.265 28.4314C191.833 28.8024 192.594 28.6425 192.965 28.0743C193.336 27.5061 193.176 26.7447 192.608 26.3738C192.04 26.0028 191.278 26.1627 190.907 26.7309C190.536 27.2991 190.696 28.0604 191.265 28.4314Z" fill="#252A38" stroke="#252A38" stroke-width="0.5"/>
<path d="M183.668 24.5382C184.649 25.179 185.964 24.9028 186.605 23.9214C187.246 22.9399 186.969 21.6249 185.988 20.9841C185.007 20.3434 183.691 20.6195 183.051 21.601C182.41 22.5824 182.686 23.8975 183.668 24.5382Z" stroke="#252A38" stroke-width="0.5"/>
<path d="M184.157 23.7908C184.725 24.1618 185.487 24.0019 185.858 23.4337C186.229 22.8655 186.069 22.1041 185.501 21.7331C184.932 21.3622 184.171 21.5221 183.8 22.0903C183.429 22.6585 183.589 23.4198 184.157 23.7908Z" fill="#252A38" stroke="#252A38" stroke-width="0.5"/>
<path d="M186.422 28.5086L187.412 28.1624C187.675 28.0706 187.718 27.7175 187.485 27.5655L186.413 26.8658C186.18 26.7138 185.874 26.8951 185.896 27.1724L185.977 28.2183C185.994 28.4375 186.214 28.5812 186.422 28.5086Z" fill="#252A38" stroke="#252A38" stroke-width="0.5"/>
<path d="M180.691 23.617C179.498 22.3293 178.294 21.1703 176.477 21.1877" stroke="#252A38" stroke-width="0.5" stroke-linecap="round"/>
<path d="M179.625 24.4263C178.781 23.8961 177.909 23.4689 176.893 23.5018C176.517 23.514 175.889 23.681 175.551 23.5923" stroke="#252A38" stroke-width="0.5" stroke-linecap="round"/>
<path d="M193.242 31.7051C193.897 32.1564 194.931 32.8102 195.318 33.5437C195.542 33.9689 195.805 34.4166 196.041 34.8215" stroke="#252A38" stroke-width="0.5" stroke-linecap="round"/>
<path d="M192.779 32.9062C193.85 33.7459 193.905 35.1745 194.16 36.3856" stroke="#252A38" stroke-width="0.5" stroke-linecap="round"/>
<path d="M186.21 28.1191C186.313 28.7602 185.507 29.4696 184.885 29.2626C184.518 29.1406 184.231 28.8184 184.002 28.5294" stroke="#252A38" stroke-width="0.5" stroke-linecap="round"/>
<path d="M186.254 28.3223C185.856 28.9311 185.592 29.4701 186.066 30.0953C186.427 30.5701 186.598 30.4265 187.132 30.2182" stroke="#252A38" stroke-width="0.5" stroke-linecap="round"/>
<path d="M180.716 21.8685C179.708 21.8685 178.88 21.5565 178.232 20.9325C177.584 20.3085 177.26 19.4925 177.26 18.4845C177.26 17.5245 177.584 16.7205 178.232 16.0725C178.904 15.4005 179.732 15.0645 180.716 15.0645C181.676 15.0645 182.492 15.4005 183.164 16.0725C183.86 16.7205 184.208 17.5245 184.208 18.4845C184.208 19.4685 183.872 20.2845 183.2 20.9325C182.528 21.5565 181.7 21.8685 180.716 21.8685ZM178.304 38.9325C179.216 38.1165 179.9 37.2525 180.356 36.3405C180.836 35.4525 181.076 34.7085 181.076 34.1085C180.86 34.2525 180.56 34.3245 180.176 34.3245C179.36 34.3245 178.664 34.0365 178.088 33.4605C177.536 32.8605 177.26 32.0925 177.26 31.1565C177.26 30.1725 177.584 29.3685 178.232 28.7445C178.88 28.1205 179.708 27.8085 180.716 27.8085C181.796 27.8085 182.648 28.1565 183.272 28.8525C183.92 29.5245 184.244 30.3285 184.244 31.2645C184.244 32.8485 183.968 34.2765 183.416 35.5485C182.888 36.8445 182.108 37.9245 181.076 38.7885C180.908 38.9325 180.668 39.0405 180.356 39.1125C180.068 39.2085 179.768 39.2565 179.456 39.2565C178.904 39.2565 178.52 39.1485 178.304 38.9325Z" fill="#252A38"/>
<path d="M172.016 34.3234C169.976 34.3234 168.476 33.7354 167.516 32.5594C166.556 31.3834 166.076 29.8714 166.076 28.0234V19.6354H162.26C162.26 18.4114 162.488 17.4994 162.944 16.8994C163.4 16.2994 164 15.9994 164.744 15.9994H166.148V13.1554C166.148 12.1234 166.544 11.3914 167.336 10.9594C168.128 10.5034 169.328 10.2754 170.936 10.2754V15.9994H175.724C175.724 17.2954 175.484 18.2314 175.004 18.8074C174.524 19.3594 173.732 19.6354 172.628 19.6354H171.008V27.8434C171.008 28.6354 171.164 29.2114 171.476 29.5714C171.788 29.9074 172.328 30.0754 173.096 30.0754C173.936 30.0754 174.8 29.8354 175.688 29.3554C175.952 29.5954 176.156 29.8954 176.3 30.2554C176.468 30.6154 176.552 30.9754 176.552 31.3354C176.552 31.8154 176.384 32.2834 176.048 32.7394C175.712 33.1954 175.196 33.5794 174.5 33.8914C173.828 34.1794 173 34.3234 172.016 34.3234Z" fill="#252A38"/>
<path d="M138.98 11.7166C138.98 10.7086 139.388 9.91656 140.204 9.34056C141.044 8.76456 142.304 8.47656 143.984 8.47656V16.6846C143.576 16.9726 143.312 17.2126 143.192 17.4046L143.336 17.5846C143.96 16.9846 144.788 16.5166 145.82 16.1806C146.876 15.8446 147.824 15.6766 148.664 15.6766C150.8 15.6766 152.504 16.2886 153.776 17.5126C155.048 18.7126 155.684 20.2726 155.684 22.1926V27.7726C155.684 29.0206 155.36 30.1486 154.712 31.1566C154.088 32.1406 153.248 32.9206 152.192 33.4966C151.16 34.0486 150.056 34.3246 148.88 34.3246C147.56 34.3246 146.432 34.0726 145.496 33.5686C144.584 33.0406 143.756 32.2726 143.012 31.2646L142.832 31.4086C142.952 31.6246 143.18 31.9366 143.516 32.3446C143.516 32.9686 143.168 33.4606 142.472 33.8206C141.776 34.1566 140.612 34.3246 138.98 34.3246V11.7166ZM147.332 30.0766C148.436 30.0766 149.276 29.8486 149.852 29.3926C150.452 28.9366 150.752 28.2766 150.752 27.4126V22.5526C150.752 21.7126 150.452 21.0646 149.852 20.6086C149.276 20.1526 148.436 19.9246 147.332 19.9246C146.324 19.9246 145.496 20.1646 144.848 20.6446C144.224 21.1246 143.912 21.7126 143.912 22.4086V27.5926C143.912 28.3126 144.224 28.9126 144.848 29.3926C145.496 29.8486 146.324 30.0766 147.332 30.0766Z" fill="#252A38"/>
<path d="M120.98 11.7166C120.98 10.7086 121.388 9.91656 122.204 9.34056C123.044 8.76456 124.304 8.47656 125.984 8.47656V16.6846C125.576 16.9726 125.312 17.2126 125.192 17.4046L125.336 17.5846C125.96 16.9846 126.788 16.5166 127.82 16.1806C128.876 15.8446 129.824 15.6766 130.664 15.6766C132.8 15.6766 134.504 16.2886 135.776 17.5126C137.048 18.7126 137.684 20.2726 137.684 22.1926V27.7726C137.684 29.0206 137.36 30.1486 136.712 31.1566C136.088 32.1406 135.248 32.9206 134.192 33.4966C133.16 34.0486 132.056 34.3246 130.88 34.3246C129.56 34.3246 128.432 34.0726 127.496 33.5686C126.584 33.0406 125.756 32.2726 125.012 31.2646L124.832 31.4086C124.952 31.6246 125.18 31.9366 125.516 32.3446C125.516 32.9686 125.168 33.4606 124.472 33.8206C123.776 34.1566 122.612 34.3246 120.98 34.3246V11.7166ZM129.332 30.0766C130.436 30.0766 131.276 29.8486 131.852 29.3926C132.452 28.9366 132.752 28.2766 132.752 27.4126V22.5526C132.752 21.7126 132.452 21.0646 131.852 20.6086C131.276 20.1526 130.436 19.9246 129.332 19.9246C128.324 19.9246 127.496 20.1646 126.848 20.6446C126.224 21.1246 125.912 21.7126 125.912 22.4086V27.5926C125.912 28.3126 126.224 28.9126 126.848 29.3926C127.496 29.8486 128.324 30.0766 129.332 30.0766Z" fill="#252A38"/>
<path d="M109.956 34.3238C108.78 34.3238 107.676 34.0958 106.644 33.6398C105.636 33.1598 104.82 32.4758 104.196 31.5878C103.572 30.6758 103.26 29.5838 103.26 28.3118C103.26 27.0398 103.596 25.9478 104.268 25.0358C104.94 24.0998 105.828 23.3918 106.932 22.9118C108.06 22.4318 109.284 22.1918 110.604 22.1918C111.708 22.1918 112.68 22.3598 113.52 22.6958C114.384 23.0318 115.188 23.5238 115.932 24.1718L116.112 23.9558C115.608 23.4998 115.212 23.1758 114.924 22.9838V22.5158C114.924 21.6038 114.588 20.8838 113.916 20.3558C113.268 19.8038 112.344 19.5278 111.144 19.5278C110.088 19.5278 109.152 19.7198 108.336 20.1038C107.52 20.4878 106.86 21.0518 106.356 21.7958C105.78 21.6518 105.288 21.3878 104.88 21.0038C104.496 20.5958 104.304 20.1518 104.304 19.6718C104.304 18.9278 104.628 18.2558 105.276 17.6558C105.924 17.0318 106.8 16.5518 107.904 16.2158C109.032 15.8558 110.268 15.6758 111.612 15.6758C114.228 15.6758 116.244 16.2758 117.66 17.4758C119.076 18.6758 119.784 20.3078 119.784 22.3718V31.1198C119.784 32.2478 119.412 33.0638 118.668 33.5678C117.948 34.0718 116.796 34.3238 115.212 34.3238V32.9198C115.572 32.5838 115.86 32.2838 116.076 32.0198L115.896 31.8398C115.104 32.6558 114.276 33.2798 113.412 33.7118C112.548 34.1198 111.396 34.3238 109.956 34.3238ZM111.324 30.7958C112.476 30.7958 113.376 30.5798 114.024 30.1478C114.672 29.7158 114.996 29.0918 114.996 28.2758C114.996 27.4838 114.66 26.8598 113.988 26.4038C113.34 25.9478 112.452 25.7198 111.324 25.7198C110.316 25.7198 109.512 25.9478 108.912 26.4038C108.336 26.8598 108.048 27.4838 108.048 28.2758C108.048 29.0918 108.336 29.7158 108.912 30.1478C109.512 30.5798 110.316 30.7958 111.324 30.7958Z" fill="#252A38"/>
<path d="M81.9805 11.2128C81.9805 10.5168 82.2325 9.94078 82.7365 9.48478C83.2645 9.02878 83.9005 8.80078 84.6445 8.80078H94.1125C96.8005 8.80078 98.8645 9.49678 100.304 10.8888C101.768 12.2568 102.5 14.2128 102.5 16.7568C102.5 18.1728 102.212 19.3608 101.636 20.3208C101.084 21.2808 100.22 22.0368 99.0445 22.5888V22.7328C101.132 23.6688 102.176 25.4328 102.176 28.0248V30.5088C102.176 31.7568 101.72 32.7048 100.808 33.3528C99.9205 34.0008 98.6125 34.3248 96.8845 34.3248V28.2048C96.8845 27.0048 96.6445 26.1288 96.1645 25.5768C95.7085 25.0008 95.0005 24.7128 94.0405 24.7128H87.2005V30.5088C87.2005 31.7568 86.7565 32.7048 85.8685 33.3528C84.9805 34.0008 83.6845 34.3248 81.9805 34.3248V11.2128ZM93.8245 20.2128C94.9285 20.2128 95.7685 19.9128 96.3445 19.3128C96.9205 18.7128 97.2085 17.8488 97.2085 16.7208C97.2085 15.5448 96.9325 14.6808 96.3805 14.1288C95.8525 13.5768 95.0005 13.3008 93.8245 13.3008H87.2005V20.2128H93.8245Z" fill="#252A38"/>
<path d="M70.0448 34.3238C68.5568 34.3238 67.1768 34.0238 65.9048 33.4238C64.6568 32.8238 63.6608 32.0078 62.9168 30.9758C62.1728 29.9438 61.8008 28.7918 61.8008 27.5198V22.9118C61.8008 21.5678 62.1728 20.3438 62.9168 19.2398C63.6848 18.1118 64.7048 17.2358 65.9768 16.6118C67.2488 15.9878 68.6168 15.6758 70.0808 15.6758C71.5208 15.6758 72.8408 15.9758 74.0408 16.5758C75.2648 17.1518 76.2248 17.9798 76.9208 19.0598C77.6168 20.1158 77.9648 21.3158 77.9648 22.6598V24.6038C77.9648 25.1798 77.7488 25.6718 77.3168 26.0798C76.8848 26.4638 76.3328 26.6558 75.6608 26.6558H66.5888V27.1598C66.5888 28.1198 66.8768 28.9118 67.4528 29.5358C68.0528 30.1358 68.9288 30.4358 70.0808 30.4358C71.2088 30.4358 72.0368 30.1958 72.5648 29.7158C73.0928 29.2118 73.3568 28.5878 73.3568 27.8438C73.8368 27.7958 74.1968 27.7718 74.4368 27.7718C75.4208 27.7718 76.1768 27.9758 76.7048 28.3838C77.2328 28.7918 77.4968 29.3918 77.4968 30.1838C77.4968 30.8318 77.1728 31.4798 76.5248 32.1278C75.8768 32.7758 74.9768 33.3038 73.8248 33.7118C72.6968 34.1198 71.4368 34.3238 70.0448 34.3238ZM73.5008 23.1638V22.6598C73.5008 21.6998 73.1768 20.9438 72.5288 20.3918C71.9048 19.8158 71.0768 19.5278 70.0448 19.5278C69.0128 19.5278 68.1728 19.8158 67.5248 20.3918C66.9008 20.9438 66.5888 21.6998 66.5888 22.6598V23.1638H73.5008Z" fill="#252A38"/>
<path d="M50.6048 34.3246C49.3328 34.3246 48.1808 34.0486 47.1488 33.4966C46.1168 32.9206 45.3008 32.1406 44.7008 31.1566C44.1008 30.1486 43.8008 29.0206 43.8008 27.7726V22.2286C43.8008 20.9806 44.1128 19.8646 44.7368 18.8806C45.3848 17.8726 46.2728 17.0926 47.4008 16.5406C48.5288 15.9646 49.7768 15.6766 51.1448 15.6766C51.9608 15.6766 52.8368 15.8446 53.7728 16.1806C54.7328 16.5166 55.5248 16.9846 56.1488 17.5846L56.2928 17.4046C56.1728 17.2126 55.9088 16.9726 55.5008 16.6846V11.7166C55.5008 10.7086 55.9088 9.91656 56.7248 9.34056C57.5648 8.76456 58.8248 8.47656 60.5048 8.47656V31.0486C60.5048 31.9846 60.1328 32.7646 59.3888 33.3886C58.6448 34.0126 57.5048 34.3246 55.9688 34.3246V32.3806C56.2568 32.0206 56.4848 31.6966 56.6528 31.4086L56.4728 31.2646C55.7048 32.2966 54.8768 33.0646 53.9888 33.5686C53.1248 34.0726 51.9968 34.3246 50.6048 34.3246ZM52.1528 30.0766C53.1608 30.0766 53.9768 29.8486 54.6008 29.3926C55.2488 28.9126 55.5728 28.3126 55.5728 27.5926V22.4086C55.5728 21.7126 55.2488 21.1246 54.6008 20.6446C53.9768 20.1646 53.1608 19.9246 52.1528 19.9246C51.0488 19.9246 50.1968 20.1526 49.5968 20.6086C49.0208 21.0646 48.7328 21.7126 48.7328 22.5526V27.4126C48.7328 28.2766 49.0208 28.9366 49.5968 29.3926C50.1968 29.8486 51.0488 30.0766 52.1528 30.0766Z" fill="#252A38"/>
<path d="M33.7558 34.3238C32.1718 34.3238 30.7318 34.0358 29.4358 33.4598C28.1398 32.8838 27.1198 32.0918 26.3758 31.0838C25.6318 30.0518 25.2598 28.8878 25.2598 27.5918V22.8038C25.2598 21.4838 25.6198 20.2838 26.3398 19.2038C27.0598 18.0998 28.0678 17.2358 29.3638 16.6118C30.6598 15.9878 32.1238 15.6758 33.7558 15.6758C35.3878 15.6758 36.8518 15.9878 38.1478 16.6118C39.4438 17.2358 40.4518 18.0998 41.1718 19.2038C41.8918 20.2838 42.2518 21.4838 42.2518 22.8038V27.5918C42.2518 28.8878 41.8798 30.0518 41.1358 31.0838C40.3918 32.0918 39.3718 32.8838 38.0758 33.4598C36.7798 34.0358 35.3398 34.3238 33.7558 34.3238ZM33.7558 30.0758C34.8838 30.0758 35.7598 29.8238 36.3838 29.3198C37.0078 28.8158 37.3198 28.1198 37.3198 27.2318V23.0558C37.3198 22.1198 36.9958 21.3638 36.3478 20.7878C35.7238 20.2118 34.8598 19.9238 33.7558 19.9238C32.6518 19.9238 31.7758 20.2118 31.1278 20.7878C30.5038 21.3638 30.1918 22.1198 30.1918 23.0558V27.2318C30.1918 28.1198 30.5038 28.8158 31.1278 29.3198C31.7518 29.8238 32.6278 30.0758 33.7558 30.0758Z" fill="#252A38"/>
<path d="M12.4558 34.3246C10.2958 34.3246 8.36377 33.9046 6.65977 33.0646C4.95577 32.2246 3.62377 31.0606 2.66377 29.5726C1.72777 28.0606 1.25977 26.3446 1.25977 24.4246V18.3046C1.25977 16.3846 1.71577 14.6806 2.62777 13.1926C3.56377 11.7046 4.85977 10.5526 6.51577 9.73656C8.19577 8.89656 10.1038 8.47656 12.2398 8.47656C14.3758 8.47656 16.2838 8.80056 17.9638 9.44856C19.6438 10.0726 20.9398 10.9606 21.8518 12.1126C22.7878 13.2646 23.2558 14.5726 23.2558 16.0366C23.2558 16.9966 22.9438 17.7526 22.3198 18.3046C21.6958 18.8326 20.8438 19.0966 19.7638 19.0966C19.1398 19.0966 18.5278 19.0126 17.9278 18.8446C17.9998 18.3406 18.0358 17.7286 18.0358 17.0086C18.0358 15.8566 17.4958 14.9206 16.4158 14.2006C15.3358 13.4566 13.9438 13.0846 12.2398 13.0846C10.5598 13.0846 9.19176 13.5766 8.13577 14.5606C7.07977 15.5206 6.55177 16.7686 6.55177 18.3046V24.4246C6.55177 25.9846 7.09177 27.2566 8.17177 28.2406C9.27577 29.2246 10.7038 29.7166 12.4558 29.7166C14.1598 29.7166 15.5398 29.3566 16.5958 28.6366C17.6758 27.9166 18.2158 26.9806 18.2158 25.8286C18.2158 25.0366 18.1798 24.4606 18.1078 24.1006C18.7558 23.9566 19.3438 23.8846 19.8718 23.8846C20.9518 23.8846 21.8158 24.1606 22.4638 24.7126C23.1118 25.2646 23.4358 26.0206 23.4358 26.9806C23.4358 28.3966 22.9678 29.6686 22.0318 30.7966C21.1198 31.9006 19.8238 32.7646 18.1438 33.3886C16.4878 34.0126 14.5918 34.3246 12.4558 34.3246Z" fill="#252A38"/>
<path d="M159.178 7.26005L159.194 7.54363C159.196 7.6673 159.195 7.81394 159.191 7.98535C159.187 8.15678 159.169 8.34526 159.148 8.55251C159.047 9.57107 158.868 10.5803 158.611 11.5713C158.464 12.1092 158.265 12.6316 158.016 13.1316C157.796 13.5854 157.498 13.997 157.135 14.3477C156.985 14.4918 156.82 14.6192 156.642 14.7281C156.503 14.814 156.356 14.8868 156.203 14.9455L156.031 15.0026L155.902 15.0371L155.791 15.0644L155.672 14.4692L155.758 14.4487L155.86 14.4253C155.898 14.4099 155.942 14.3954 155.993 14.3797C156.112 14.3352 156.228 14.2811 156.339 14.2186C156.484 14.1352 156.621 14.0355 156.745 13.9217C157.068 13.621 157.342 13.2698 157.553 12.8822C157.808 12.4209 158.016 11.937 158.177 11.4362C158.487 10.48 158.724 9.5012 158.887 8.50852C158.958 8.10265 159.029 7.76618 159.081 7.52867L159.168 7.1543L159.178 7.26005Z" fill="#32AF8F"/>
<path d="M157.126 3.27565C157.159 2.94114 157.303 2.62667 157.531 2.38115C157.761 2.13525 158.065 1.97109 158.397 1.91396C158.729 1.85644 159.071 1.90919 159.37 2.06373C159.67 2.21827 159.91 2.46635 160.056 2.76997C160.562 3.79577 159.596 5.39376 159.328 6.39784C159.278 6.59225 159.195 6.96573 159.41 7.04075C159.627 7.11538 159.791 6.77128 159.872 6.58712C160.284 5.63293 160.516 3.78812 161.55 3.29311C161.851 3.1477 162.192 3.10448 162.522 3.16985C162.852 3.23519 163.151 3.40584 163.376 3.65586C163.6 3.90589 163.737 4.22185 163.765 4.55639C163.795 4.89054 163.715 5.22484 163.536 5.50926C163.871 5.54533 164.185 5.68959 164.431 5.91956C164.676 6.14991 164.839 6.45358 164.897 6.78488C164.955 7.11582 164.903 7.45676 164.75 7.7553C164.596 8.0542 164.35 8.29454 164.047 8.44041C163.02 8.94441 161.42 7.97607 160.415 7.70546C160.221 7.65297 159.843 7.57027 159.769 7.78559C159.695 8.0009 160.043 8.16842 160.226 8.24943C161.182 8.66348 163.029 8.89801 163.527 9.92933C163.676 10.2324 163.723 10.5754 163.659 10.9066C163.594 11.2377 163.423 11.5389 163.173 11.7634C162.921 11.9883 162.603 12.1244 162.267 12.1515C161.93 12.1786 161.593 12.0953 161.309 11.9135C161.274 12.2476 161.129 12.5611 160.9 12.8064C160.671 13.0513 160.367 13.2152 160.036 13.2726C159.704 13.3301 159.363 13.2781 159.064 13.1245C158.765 12.9709 158.523 12.7242 158.376 12.4217C157.87 11.396 158.836 9.79793 159.104 8.79393C159.156 8.59701 159.239 8.22347 159.023 8.14883C158.808 8.0738 158.642 8.41829 158.56 8.60458C158.148 9.55876 157.914 11.402 156.886 11.9C156.582 12.0486 156.238 12.0937 155.906 12.0288C155.575 11.9634 155.272 11.7918 155.047 11.5393C154.822 11.2869 154.685 10.968 154.658 10.6312C154.632 10.2941 154.716 9.95794 154.898 9.67389C154.564 9.63746 154.25 9.49361 154.005 9.26326C153.759 9.03329 153.595 8.72962 153.538 8.3983C153.48 8.06699 153.532 7.7264 153.686 7.42752C153.838 7.12901 154.086 6.8883 154.388 6.74274C155.412 6.24135 157.013 7.20958 158.018 7.47989C158.213 7.53021 158.59 7.61508 158.665 7.39977C158.739 7.18446 158.393 7.01434 158.207 6.93589C157.251 6.52191 155.407 6.28487 154.907 5.25392C154.761 4.95105 154.716 4.60948 154.783 4.27981C154.847 3.95052 155.018 3.65159 155.269 3.42811C155.519 3.20463 155.836 3.06904 156.172 3.04124C156.507 3.01382 156.841 3.09629 157.126 3.27565Z" fill="#32AF8F"/>
<path d="M157.471 5.05885L157.576 5.07887C157.706 5.10918 157.835 5.1459 157.962 5.1888L158.102 5.24088L157.899 4.80307L158.118 5.2349C158.126 5.20469 158.141 5.15459 158.165 5.09146C158.209 4.96388 158.261 4.83888 158.32 4.71737L158.371 4.62182C158.385 4.58975 158.402 4.55871 158.421 4.52935C158.46 4.47324 158.496 4.42075 158.527 4.37477C158.587 4.28607 158.639 4.23338 158.639 4.23338C158.639 4.23338 158.598 4.29402 158.538 4.3827C158.507 4.42868 158.472 4.47954 158.441 4.54268C158.422 4.57074 158.411 4.60421 158.394 4.63606C158.379 4.66752 158.364 4.69882 158.348 4.73338C158.294 4.85429 158.247 4.97768 158.207 5.10347C158.175 5.20693 158.159 5.27709 158.159 5.27709L158.352 5.67246C158.362 5.64063 158.376 5.59795 158.395 5.54133C158.432 5.43841 158.487 5.30347 158.551 5.16686L158.601 5.07169C158.621 5.04201 158.633 5.00692 158.653 4.97886C158.69 4.92311 158.726 4.87062 158.757 4.82465C158.817 4.73596 158.87 4.68288 158.87 4.68288C158.87 4.68288 158.83 4.74351 158.769 4.83221C158.738 4.87818 158.702 4.92942 158.664 4.98679C158.646 5.01658 158.63 5.04725 158.616 5.07871C158.596 5.1084 158.586 5.14455 158.569 5.17641C158.513 5.30865 158.461 5.4445 158.43 5.54758C158.398 5.65104 158.385 5.69912 158.381 5.71415L158.578 6.10463C158.586 6.07443 158.6 6.033 158.618 5.98544C158.663 5.85749 158.715 5.73249 158.774 5.61097L158.825 5.51542C158.839 5.484 158.856 5.453 158.875 5.42297C158.913 5.36722 158.948 5.31473 158.979 5.26875C159.049 5.18546 159.093 5.12698 159.093 5.12698C159.093 5.12698 159.052 5.18762 158.992 5.2763C158.961 5.32228 158.925 5.37477 158.895 5.43629C158.876 5.46435 158.865 5.49781 158.848 5.52966C158.831 5.5615 158.816 5.59443 158.801 5.62735C158.748 5.74788 158.701 5.87129 158.66 5.99745C158.637 6.07033 158.624 6.12586 158.616 6.15172L158.814 6.54329C158.822 6.51308 158.835 6.47762 158.851 6.43602C158.895 6.30851 158.947 6.18305 159.005 6.06047L159.055 5.9653C159.075 5.93562 159.087 5.90053 159.107 5.87247C159.144 5.81672 159.18 5.76423 159.211 5.71826C159.271 5.62957 159.324 5.57648 159.324 5.57648C159.324 5.57648 159.282 5.63749 159.222 5.72618C159.191 5.77216 159.155 5.82465 159.125 5.88617C159.108 5.91582 159.092 5.94702 159.08 5.97917C159.059 6.00885 159.047 6.04394 159.031 6.07578C158.974 6.20802 158.924 6.34351 158.891 6.44695C158.87 6.51117 158.857 6.56071 158.85 6.58928L159.13 7.14115C159.137 7.20657 159.163 7.26847 159.205 7.31948C159.245 7.37086 159.299 7.40976 159.362 7.43124C159.425 7.4527 159.491 7.45678 159.556 7.44192C159.619 7.42745 159.678 7.39504 159.724 7.34875L160.287 7.09033C160.304 7.06553 160.319 7.01543 160.343 6.95229C160.389 6.82826 160.429 6.70187 160.463 6.57321C160.469 6.53923 160.478 6.50468 160.485 6.46907C160.494 6.43529 160.501 6.40086 160.504 6.36674C160.514 6.29893 160.525 6.23692 160.529 6.1816L160.535 6.00032L160.536 6.18321C160.532 6.23691 160.524 6.3 160.518 6.36833C160.512 6.43666 160.505 6.43668 160.501 6.47173L160.479 6.57733C160.451 6.70803 160.414 6.83703 160.368 6.96327C160.356 7.00702 160.343 7.04104 160.332 7.07015L160.729 6.8862C160.745 6.86302 160.762 6.80841 160.789 6.73732C160.836 6.61327 160.875 6.48689 160.91 6.35823L160.934 6.25209C160.94 6.21809 160.95 6.18464 160.953 6.1512C160.958 6.11739 160.974 6.01993 160.976 5.96662L160.981 5.78533L160.983 5.96661C160.979 6.02193 160.971 6.08339 160.964 6.15334C160.963 6.18516 160.952 6.22006 160.947 6.25676L160.926 6.36235C160.898 6.49262 160.862 6.62082 160.816 6.74666C160.8 6.7953 160.786 6.83527 160.775 6.86439L161.171 6.68206C161.178 6.67066 161.202 6.61025 161.237 6.52071C161.283 6.39666 161.324 6.2699 161.358 6.14162L161.381 6.03711C161.389 6.0031 161.397 5.96824 161.401 5.93314C161.409 5.86734 161.42 5.80495 161.424 5.75001L161.429 5.56872L161.43 5.75162C161.426 5.80532 161.418 5.86841 161.412 5.93673C161.409 5.97016 161.399 6.00508 161.395 6.04014L161.374 6.14574C161.346 6.27644 161.308 6.40544 161.264 6.53131C161.246 6.58629 161.229 6.63097 161.216 6.66064L161.621 6.47358C161.621 6.47358 161.646 6.40719 161.684 6.30573C161.73 6.18168 161.771 6.05493 161.804 5.92663L161.828 5.82049C161.836 5.78709 161.843 5.75266 161.847 5.71816C161.856 5.65073 161.868 5.58836 161.87 5.53503C161.875 5.42531 161.876 5.35375 161.876 5.35375L161.878 5.535C161.876 5.58833 161.866 5.65179 161.86 5.72012C161.854 5.78846 161.848 5.7881 161.841 5.82517L161.82 5.93076C161.792 6.06099 161.756 6.18963 161.713 6.31578C161.69 6.38035 161.671 6.42684 161.661 6.45596L162.051 6.25014L161.62 6.46653C161.644 6.48348 161.699 6.49165 161.762 6.51537C161.89 6.55996 162.016 6.61181 162.137 6.67159L162.234 6.72035C162.264 6.74053 162.293 6.76071 162.321 6.7798C162.377 6.81764 162.431 6.8533 162.475 6.88356L162.618 6.99801L162.466 6.89534C162.422 6.86507 162.37 6.82903 162.313 6.79121C162.283 6.7733 162.252 6.7577 162.22 6.74461L162.123 6.69586C161.991 6.6394 161.855 6.58782 161.752 6.55588C161.648 6.52432 161.578 6.50458 161.578 6.50458L161.183 6.69976L161.313 6.74229C161.417 6.77966 161.551 6.83447 161.688 6.8985L161.782 6.94927C161.815 6.96442 161.845 6.98168 161.876 7.0002C161.931 7.03841 161.984 7.07407 162.028 7.10434L162.173 7.2184L162.026 7.10759L161.867 7.01324C161.837 6.99561 161.806 6.97962 161.775 6.96501L161.677 6.91788C161.544 6.86143 161.409 6.80984 161.305 6.77828C161.201 6.74633 161.151 6.73163 161.137 6.72859L160.748 6.92536C160.772 6.9423 160.818 6.94636 160.865 6.9647C160.993 7.00952 161.119 7.06136 161.24 7.12091L161.337 7.16966C161.367 7.18984 161.402 7.20188 161.431 7.22061C161.486 7.2588 161.539 7.29446 161.583 7.32473L161.726 7.43918L161.576 7.33614C161.531 7.30587 161.478 7.27021 161.422 7.23238C161.393 7.2141 161.362 7.19848 161.328 7.18578L161.232 7.13665C161.1 7.08018 160.964 7.02899 160.86 6.99704L160.704 6.95096L160.315 7.14935L160.421 7.18346C160.526 7.22081 160.659 7.27565 160.796 7.33968L160.892 7.39007C160.921 7.4085 160.95 7.42823 160.979 7.44953C161.035 7.48735 161.087 7.52338 161.133 7.55327L161.276 7.66772L161.124 7.56504C161.08 7.53477 161.026 7.49911 160.971 7.46091C160.941 7.44328 160.91 7.4273 160.879 7.41269L160.781 7.36555C160.648 7.3091 160.513 7.25753 160.409 7.22596C160.362 7.20897 160.313 7.19488 160.265 7.18309L159.714 7.46228C159.598 7.51074 159.497 7.59098 159.423 7.69335C159.418 7.81991 159.449 7.94487 159.509 8.05624L159.768 8.61632C159.812 8.6383 159.859 8.65663 159.906 8.67166C160.03 8.7195 160.156 8.76034 160.284 8.7944L160.39 8.81878C160.424 8.82509 160.46 8.83405 160.492 8.83794L160.678 8.86274L160.857 8.86724L160.677 8.86717C160.623 8.86598 160.559 8.85672 160.492 8.84933C160.457 8.84578 160.422 8.83989 160.389 8.83181L160.28 8.81107C160.15 8.78084 160.022 8.74411 159.896 8.7008L159.79 8.66237L159.973 9.061L160.123 9.12114C160.224 9.15916 160.361 9.20474 160.502 9.24239L160.607 9.26523C160.642 9.27294 160.677 9.2819 160.71 9.28578C160.744 9.28929 160.838 9.30571 160.893 9.30956L161.075 9.31523L160.892 9.31563C160.839 9.3128 160.775 9.30354 160.708 9.29615C160.673 9.29302 160.638 9.28713 160.604 9.27863L160.497 9.25906C160.368 9.22868 160.239 9.19196 160.113 9.14864L159.994 9.10705L160.178 9.50266C160.189 9.51049 160.25 9.53479 160.34 9.56913C160.464 9.61599 160.59 9.65598 160.718 9.68921L160.824 9.71321C160.858 9.71976 160.893 9.72873 160.927 9.73224C160.994 9.74243 161.056 9.75369 161.111 9.75755L161.291 9.76205L161.111 9.76185C161.056 9.76065 160.994 9.75115 160.926 9.744C160.892 9.74021 160.857 9.73433 160.822 9.72648L160.716 9.70653C160.573 9.67216 160.432 9.63185 160.329 9.59547C160.275 9.57719 160.23 9.56142 160.2 9.54871L160.387 9.9522C160.445 9.97015 160.501 9.99127 160.556 10.0159C160.68 10.0631 160.807 10.1031 160.935 10.1371L161.04 10.16C161.074 10.1694 161.109 10.1761 161.145 10.1802C161.21 10.1892 161.273 10.2001 161.328 10.204L161.51 10.2095L161.328 10.2098C161.272 10.2076 161.209 10.198 161.142 10.1908C161.106 10.1881 161.072 10.1822 161.038 10.1734L160.932 10.1534C160.802 10.123 160.674 10.0863 160.547 10.0435L160.406 9.99302L160.609 10.3834L160.389 9.95322C160.373 9.97761 160.367 10.0319 160.343 10.0951C160.299 10.2226 160.247 10.3476 160.188 10.4691L160.136 10.5663C160.122 10.5985 160.105 10.6295 160.086 10.6588C160.047 10.7149 160.011 10.7673 159.981 10.8117C159.913 10.8963 159.869 10.9531 159.869 10.9531C159.869 10.9531 159.909 10.8941 159.97 10.8037C160 10.7595 160.036 10.7069 160.066 10.6455C160.085 10.6174 160.105 10.5881 160.113 10.5521C160.12 10.5165 160.153 10.493 160.159 10.4547C160.216 10.331 160.266 10.2039 160.306 10.0749C160.338 9.97144 160.356 9.90084 160.356 9.90084L160.16 9.50753C160.16 9.50753 160.137 9.58197 160.118 9.63699C160.083 9.73955 160.026 9.87495 159.962 10.0115L159.913 10.1067C159.892 10.1364 159.881 10.1698 159.862 10.1979C159.823 10.2552 159.788 10.3078 159.758 10.3521C159.696 10.4424 159.644 10.4939 159.644 10.4939C159.644 10.4939 159.685 10.4344 159.747 10.3442C159.777 10.2998 159.812 10.2474 159.842 10.1858C159.86 10.156 159.875 10.1254 159.89 10.0938C159.91 10.0642 159.92 10.0281 159.937 9.9962C159.994 9.86234 160.044 9.72853 160.082 9.61523C160.121 9.50207 160.127 9.46365 160.131 9.44861L159.934 9.05984C159.924 9.09038 159.912 9.12975 159.895 9.17743C159.849 9.30525 159.797 9.43038 159.738 9.55183L159.686 9.64904C159.672 9.68001 159.655 9.7106 159.637 9.7398C159.599 9.79727 159.563 9.84969 159.533 9.89407C159.472 9.98434 159.419 10.0358 159.419 10.0358C159.419 10.0358 159.459 9.97688 159.52 9.88648C159.551 9.8421 159.586 9.78968 159.616 9.7282C159.635 9.70003 159.647 9.66496 159.663 9.63473C159.679 9.60451 159.695 9.57 159.71 9.53711C159.766 9.41362 159.816 9.28663 159.858 9.15717C159.88 9.08437 159.894 9.02879 159.902 9.00292L159.704 8.61135C159.687 8.63625 159.684 8.67673 159.667 8.71872C159.623 8.84617 159.571 8.97157 159.514 9.09376L159.462 9.19097C159.441 9.22064 159.423 9.2483 159.403 9.27647C159.365 9.3338 159.329 9.38622 159.299 9.4306C159.238 9.52101 159.186 9.57238 159.186 9.57238C159.186 9.57238 159.225 9.51342 159.287 9.42315C159.317 9.37877 159.354 9.32583 159.382 9.26474C159.4 9.23498 159.417 9.20396 159.431 9.17243C159.45 9.14314 159.461 9.10652 159.478 9.07481C159.536 8.9408 159.586 8.80537 159.624 8.69384C159.645 8.63126 159.657 8.58162 159.665 8.55145L159.385 7.9996C159.336 7.88329 159.255 7.78299 159.153 7.70897C159.027 7.70239 158.901 7.73127 158.791 7.792L158.227 8.05081C158.211 8.07524 158.196 8.12534 158.173 8.18846C158.126 8.3125 158.085 8.43926 158.052 8.56754L158.028 8.67372C158.02 8.70711 158.013 8.74148 158.009 8.77607C158.001 8.84181 157.988 8.90587 157.986 8.95914L157.981 9.14051L157.978 8.9592C157.983 8.90392 157.991 8.84233 157.997 8.77239C157.999 8.74065 158.01 8.70567 158.015 8.66902L158.036 8.56342C158.064 8.43316 158.1 8.30495 158.145 8.17949L158.182 8.07222L157.786 8.25619C157.77 8.27774 157.752 8.33272 157.725 8.40507C157.679 8.5291 157.638 8.65587 157.604 8.78421C157.599 8.8182 157.59 8.85266 157.581 8.88867C157.573 8.92271 157.565 8.9575 157.561 8.99265C157.553 9.05839 157.542 9.12082 157.538 9.17572L157.533 9.35709L157.532 9.17414C157.534 9.12088 157.544 9.05742 157.55 8.98898C157.555 8.92068 157.562 8.921 157.567 8.8856L157.588 8.78002C157.618 8.64899 157.654 8.51993 157.696 8.39339L157.74 8.27636L157.344 8.46033C157.336 8.47172 157.312 8.53214 157.278 8.62005C157.232 8.74394 157.191 8.87071 157.158 8.99916L157.134 9.10525C157.125 9.13902 157.119 9.17314 157.115 9.2076C157.106 9.27497 157.094 9.3374 157.092 9.39081L157.086 9.57204L157.084 9.39073C157.087 9.33583 157.096 9.27401 157.102 9.20571C157.105 9.17218 157.114 9.13772 157.12 9.10055L157.142 8.99507C157.17 8.86475 157.206 8.73654 157.25 8.61108C157.269 8.5561 157.285 8.51141 157.297 8.48211L156.894 8.66881C156.894 8.66881 156.868 8.73519 156.831 8.83666C156.784 8.9607 156.743 9.08742 156.71 9.21574C156.703 9.25137 156.693 9.28621 156.687 9.3202C156.678 9.35424 156.671 9.38917 156.667 9.42419C156.658 9.49044 156.647 9.55236 156.644 9.6074L156.639 9.78863L156.638 9.60568C156.64 9.55241 156.65 9.48896 156.656 9.42065C156.661 9.35235 156.667 9.35267 156.673 9.31728L156.694 9.21165C156.722 9.08096 156.759 8.95152 156.802 8.82498C156.823 8.76241 156.843 8.71554 156.855 8.68479L156.416 8.88675L156.848 8.67034L156.703 8.62351C156.575 8.57813 156.45 8.52594 156.329 8.46691L156.233 8.41652C156.203 8.39846 156.174 8.37874 156.146 8.35744C156.09 8.31924 156.037 8.28359 155.993 8.25332L155.85 8.13888L156.001 8.24192L156.161 8.33591C156.191 8.35353 156.221 8.36988 156.253 8.38412L156.35 8.43163C156.472 8.48477 156.596 8.53155 156.722 8.57123C156.826 8.60589 156.896 8.62252 156.896 8.62252L157.291 8.42735C157.291 8.42735 157.216 8.40439 157.16 8.38374C157.032 8.33915 156.907 8.28693 156.785 8.22753L156.689 8.17839C156.658 8.15858 156.625 8.14763 156.596 8.12745C156.539 8.08963 156.487 8.0536 156.442 8.02371L156.299 7.90925L156.451 8.01193C156.495 8.0422 156.548 8.07786 156.608 8.10792C156.639 8.12582 156.67 8.14142 156.702 8.15451L156.799 8.20327C156.931 8.25973 157.068 8.31093 157.171 8.34287L157.339 8.39256L157.727 8.19578L157.61 8.15646C157.483 8.11085 157.357 8.05867 157.235 8.00024L157.139 7.94984C157.109 7.93179 157.08 7.91206 157.053 7.89039C156.996 7.85257 156.943 7.81691 156.899 7.78664L156.756 7.6722L156.906 7.77524L157.067 7.86923C157.097 7.88685 157.128 7.90283 157.159 7.91745L157.257 7.96458C157.389 8.02104 157.525 8.07262 157.629 8.10417C157.701 8.12933 157.757 8.14294 157.784 8.15065L158.174 7.9535L158.069 7.91777C157.94 7.87349 157.815 7.82126 157.694 7.76155L157.596 7.71279C157.566 7.69474 157.537 7.67501 157.509 7.65371L157.356 7.54959L157.215 7.43621L157.364 7.53819C157.408 7.56846 157.461 7.60412 157.517 7.64194C157.545 7.66103 157.578 7.672 157.611 7.68854L157.708 7.73604C157.829 7.78989 157.952 7.83708 158.079 7.87727L158.222 7.92015L158.773 7.64095C158.839 7.63385 158.901 7.6083 158.953 7.56713C159.005 7.52598 159.043 7.47136 159.065 7.40887C159.087 7.34636 159.09 7.27926 159.076 7.21469C159.06 7.15052 159.028 7.09151 158.981 7.04497L158.72 6.48385L158.584 6.42958C158.458 6.38261 158.332 6.34212 158.203 6.30878L158.098 6.28444C158.063 6.2782 158.03 6.26724 157.996 6.26371L157.811 6.23882L157.63 6.23597L157.811 6.23447C157.866 6.23687 157.928 6.24651 157.997 6.25194C158.031 6.25423 158.065 6.26482 158.101 6.26944L158.209 6.29052C158.338 6.32082 158.467 6.35755 158.594 6.40044L158.7 6.43889L158.514 6.04223L158.366 5.98165C158.241 5.93493 158.115 5.89445 157.986 5.86088L157.882 5.83761C157.845 5.83029 157.812 5.81933 157.778 5.81579L157.595 5.79199L157.412 5.78806L157.595 5.78765C157.649 5.79042 157.713 5.79967 157.78 5.80549C157.849 5.81093 157.848 5.8169 157.884 5.82298L157.991 5.8426C158.121 5.87292 158.249 5.90965 158.376 5.95253L158.493 5.9962L158.309 5.60062C158.257 5.57588 158.203 5.55415 158.15 5.53482C158.025 5.48765 157.899 5.44716 157.77 5.41404L157.664 5.3897C157.63 5.38345 157.597 5.3725 157.563 5.36897L157.377 5.34407L157.197 5.34123L157.378 5.33973C157.431 5.3425 157.495 5.35177 157.563 5.35758C157.632 5.36303 157.632 5.37006 157.666 5.37505L157.774 5.3947C157.903 5.42548 158.033 5.46231 158.159 5.50608L158.289 5.55295L158.101 5.14945C158.044 5.13249 157.987 5.11169 157.931 5.08729C157.808 5.04019 157.681 4.9997 157.552 4.96614L157.447 4.94324C157.412 4.93554 157.379 4.9246 157.345 4.92106L157.162 4.89724L156.979 4.89331L157.16 4.89183L157.347 4.91075C157.393 4.95539 157.435 5.005 157.471 5.05885Z" fill="white"/>
<path d="M156.699 18.4492C156.699 17.5834 157.124 16.9081 157.974 16.4232C158.846 15.921 160.064 15.6699 161.629 15.6699V31.5406C161.629 32.4238 161.193 33.1077 160.321 33.5926C159.472 34.0775 158.264 34.3199 156.699 34.3199V18.4492Z" fill="#252A38"/>
</svg>
