<svg width="46" height="46" viewBox="0 0 46 46" fill="none" xmlns="http://www.w3.org/2000/svg">
<path d="M34.6098 0H12.389C6.09714 0 0.998047 5.0991 0.998047 11.391V33.6117C0.998047 39.9036 6.09714 45.0027 12.389 45.0027H20.0282V28.9274H14.3815V22.5H20.0255V17.6042C20.0255 12.0334 23.3435 8.95663 28.4209 8.95663C30.8526 8.95663 33.3953 9.39036 33.3953 9.39036V14.8608H30.5923C27.83 14.8608 26.9706 16.5741 26.9706 18.3307V22.5H33.1351L32.1483 28.9247H26.9706V45L26.9788 45.0027H34.6071C40.8962 45.0027 45.998 39.9036 45.998 33.6117V11.391C46.0008 5.0991 40.899 0 34.6098 0Z" fill="url(#paint0_linear_2521_8439)"/>
<defs>
<linearGradient id="paint0_linear_2521_8439" x1="23.4992" y1="-0.0627289" x2="23.4992" y2="45.3168" gradientUnits="userSpaceOnUse">
<stop stop-color="#17ACFE"/>
<stop offset="1" stop-color="#0067E0"/>
</linearGradient>
</defs>
</svg>
