<svg width="70" height="70" viewBox="0 0 70 70" fill="none" xmlns="http://www.w3.org/2000/svg">
<g clip-path="url(#clip0_2824_5079)">
<path d="M33.6465 61.9246L41.7227 70.0008H63.2769L44.4265 51.1504L33.6465 61.9246Z" fill="#0D47A1"/>
<path d="M22.8926 51.1531L33.6551 40.3906L44.4176 51.1531L33.6551 61.9185L22.8926 51.1531Z" fill="#42A5F5"/>
<path d="M44.8348 51.5586L49.6415 56.4003L38.2373 60.3407L35.1573 63.4207L33.6582 61.9215L33.6465 61.9244L41.7227 70.0007H63.2769L44.8348 51.5586Z" fill="#0B3E8C"/>
<path d="M44.4117 51.1465H22.9013L22.8926 51.1523L33.6551 61.9177L44.4176 51.1523L44.4117 51.1465Z" fill="#3990D5"/>
<path d="M63.2768 32.2963H41.7197L33.6464 40.3696L44.4206 51.1438H44.4264L63.2768 32.2963ZM63.2768 0H41.7197L6.71973 34.9971L17.4997 45.7771L63.2768 0Z" fill="#68B7F7"/>
<path d="M60.7947 32.2963H41.7227L33.6493 40.3696L44.4235 51.1438H44.4293L60.7947 34.7783V32.2963ZM45.7768 17.5H24.2197L6.72266 34.9971L17.4997 45.7771L45.7768 17.5Z" fill="#5B9FD7"/>
</g>
<defs>
<clipPath id="clip0_2824_5079">
<rect width="70" height="70" fill="white"/>
</clipPath>
</defs>
</svg>
