<svg width="34" height="34" viewBox="0 0 34 34" fill="none" xmlns="http://www.w3.org/2000/svg">
<g clip-path="url(#clip0_2709_2702)">
<path d="M34 27.0172C34 30.8733 30.8719 34.0012 27.0157 34.0012H6.98426C3.12682 34.0012 0 30.8733 0 27.0172V6.98525C0 3.12795 3.12682 0 6.98426 0H27.017C30.8732 0 34.0012 3.12795 34.0012 6.98525V27.0172H34Z" fill="#DEDEDE"/>
<path d="M21.9215 4.17969H12.0803C7.7164 4.17969 4.17969 7.71627 4.17969 12.0813V21.922C4.17969 26.2846 7.7164 29.8212 12.0803 29.8212H21.9215C26.2854 29.8212 29.8221 26.2846 29.8221 21.922V12.0813C29.8221 7.71751 26.2854 4.17969 21.9215 4.17969ZM27.3603 20.9772C27.3603 24.5039 24.5009 27.3607 20.9766 27.3607H13.0239C9.49714 27.3607 6.63904 24.5039 6.63904 20.9772V13.0249C6.63904 9.50066 9.49714 6.64143 13.0239 6.64143H20.9766C24.5009 6.64143 27.3603 9.50066 27.3603 13.0249V20.9772Z" fill="#252A38"/>
<path d="M17.345 10.291C13.6139 10.291 10.5898 13.3137 10.5898 17.0447C10.5898 20.7732 13.6139 23.7984 17.345 23.7984C21.0749 23.7984 24.0989 20.7732 24.0989 17.0447C24.0989 13.3137 21.0749 10.291 17.345 10.291ZM17.345 21.1076C15.0987 21.1076 13.2808 19.2873 13.2808 17.0447C13.2808 14.7984 15.0987 12.9806 17.345 12.9806C19.5889 12.9806 21.408 14.7984 21.408 17.0447C21.408 19.2873 19.5889 21.1076 17.345 21.1076Z" fill="#252A38"/>
<path d="M25.3492 10.1875C25.3492 11.136 24.579 11.905 23.6304 11.905C22.6818 11.905 21.9141 11.136 21.9141 10.1875C21.9141 9.23897 22.6831 8.46875 23.6304 8.46875C24.5777 8.46875 25.3492 9.23897 25.3492 10.1875Z" fill="#252A38"/>
</g>
<defs>
<clipPath id="clip0_2709_2702">
<rect width="34" height="34" fill="white"/>
</clipPath>
</defs>
</svg>
