<svg width="177" height="36" viewBox="0 0 177 36" fill="none" xmlns="http://www.w3.org/2000/svg">
<path d="M156.414 23.7293C156.292 23.6447 156.162 23.4182 156.156 22.8968C156.151 22.3935 156.266 21.7178 156.506 20.9073C156.984 19.2916 157.929 17.2293 159.235 15.1127C160.542 12.996 161.947 11.2508 163.154 10.1385C163.759 9.58045 164.298 9.19732 164.735 8.99975C165.189 8.79511 165.437 8.82962 165.56 8.91421C165.682 8.99883 165.811 9.22522 165.817 9.74659C165.822 10.25 165.707 10.9256 165.468 11.7361C164.989 13.3518 164.044 15.4142 162.738 17.5308C161.431 19.6474 160.026 21.3926 158.82 22.505C158.214 23.0631 157.675 23.4461 157.238 23.6437C156.784 23.8483 156.537 23.8139 156.414 23.7293Z" fill="white" stroke="#252A38"/>
<path d="M159.676 17.9226C159.576 17.9951 159.542 17.9991 159.536 17.9992C159.534 17.9937 159.525 17.9649 159.558 17.8534C159.597 17.7233 159.68 17.5318 159.81 17.2855C160.068 16.7959 160.482 16.1383 160.996 15.4325C161.509 14.7267 162.011 14.1207 162.406 13.7116C162.605 13.5059 162.768 13.3603 162.883 13.2758C162.984 13.2033 163.017 13.1993 163.023 13.1992C163.026 13.2047 163.035 13.2336 163.002 13.345C162.963 13.4751 162.879 13.6666 162.75 13.913C162.492 14.4025 162.076 15.0602 161.564 15.766C161.051 16.4718 160.548 17.0779 160.153 17.4868C159.954 17.6925 159.792 17.8381 159.676 17.9226Z" fill="#252A38" stroke="#252A38"/>
<path d="M160.871 26.8074C160.749 26.7228 160.619 26.4963 160.613 25.975C160.608 25.4716 160.723 24.796 160.963 23.9854C161.441 22.3697 162.386 20.3074 163.693 18.1908C164.999 16.0741 166.404 14.3289 167.611 13.2166C168.216 12.6585 168.755 12.2755 169.193 12.0779C169.646 11.8732 169.894 11.9078 170.017 11.9924C170.139 12.077 170.268 12.3034 170.274 12.8247C170.28 13.3281 170.164 14.0037 169.925 14.8142C169.447 16.43 168.501 18.4923 167.195 20.6089C165.889 22.7255 164.484 24.4708 163.277 25.5831C162.672 26.1412 162.133 26.5242 161.695 26.7219C161.241 26.9264 160.994 26.892 160.871 26.8074Z" fill="white" stroke="#252A38"/>
<path d="M165.586 19.2485C165.529 19.2923 165.511 19.2937 165.506 19.2936C165.505 19.2899 165.499 19.2709 165.514 19.1995C165.532 19.1162 165.574 18.9944 165.64 18.8384C165.773 18.5286 165.99 18.1149 166.263 17.6731C166.535 17.2313 166.806 16.8541 167.021 16.6015C167.129 16.4743 167.218 16.3851 167.283 16.3341C167.339 16.2904 167.357 16.2889 167.362 16.2891C167.363 16.2927 167.369 16.3118 167.354 16.3832C167.336 16.4665 167.294 16.5883 167.228 16.7442C167.096 17.054 166.878 17.4678 166.605 17.9095C166.333 18.3513 166.062 18.7286 165.847 18.9812C165.739 19.1083 165.65 19.1975 165.586 19.2485Z" fill="#252A38" stroke="#252A38"/>
<path d="M167.098 28.3613C164.934 31.8668 160.25 32.8604 155.996 29.9235C151.743 26.9866 150.473 22.4488 152.637 18.9434C155.927 15.2123 159.485 14.4443 163.738 17.3813C167.992 20.3181 168.797 23.531 167.098 28.3613Z" fill="white" stroke="#252A38" stroke-width="0.5"/>
<path d="M162.344 26.2616C163.179 26.8382 164.298 26.5896 164.844 25.7064C165.389 24.8231 165.154 23.6395 164.319 23.0628C163.484 22.4862 162.365 22.7348 161.819 23.618C161.274 24.5013 161.51 25.6849 162.344 26.2616Z" stroke="#252A38" stroke-width="0.5"/>
<path d="M162.758 25.5865C163.241 25.9204 163.889 25.7765 164.205 25.2652C164.52 24.7538 164.384 24.0685 163.901 23.7347C163.417 23.4008 162.769 23.5447 162.453 24.0561C162.138 24.5675 162.274 25.2526 162.758 25.5865Z" fill="#252A38" stroke="#252A38" stroke-width="0.5"/>
<path d="M156.294 22.0838C157.129 22.6605 158.248 22.4119 158.793 21.5287C159.339 20.6453 159.103 19.4618 158.268 18.8851C157.433 18.3085 156.313 18.557 155.769 19.4403C155.223 20.3236 155.458 21.5072 156.294 22.0838Z" stroke="#252A38" stroke-width="0.5"/>
<path d="M156.71 21.4108C157.194 21.7447 157.842 21.6008 158.158 21.0894C158.474 20.578 158.337 19.8928 157.854 19.5589C157.37 19.225 156.722 19.369 156.407 19.8803C156.091 20.3917 156.227 21.0769 156.71 21.4108Z" fill="#252A38" stroke="#252A38" stroke-width="0.5"/>
<path d="M158.638 25.6571L159.48 25.3455C159.704 25.2629 159.741 24.9451 159.543 24.8083L158.63 24.1786C158.432 24.0418 158.172 24.205 158.19 24.4545L158.259 25.3958C158.274 25.5931 158.461 25.7225 158.638 25.6571Z" fill="#252A38" stroke="#252A38" stroke-width="0.5"/>
<path d="M153.76 21.2549C152.745 20.096 151.72 19.0529 150.174 19.0685" stroke="#252A38" stroke-width="0.5" stroke-linecap="round"/>
<path d="M152.854 21.984C152.135 21.5069 151.393 21.1224 150.529 21.152C150.209 21.163 149.674 21.3133 149.387 21.2334" stroke="#252A38" stroke-width="0.5" stroke-linecap="round"/>
<path d="M164.441 28.5352C164.999 28.9413 165.879 29.5297 166.208 30.1899C166.399 30.5726 166.622 30.9755 166.823 31.3399" stroke="#252A38" stroke-width="0.5" stroke-linecap="round"/>
<path d="M164.047 29.6152C164.958 30.371 165.005 31.6566 165.222 32.7466" stroke="#252A38" stroke-width="0.5" stroke-linecap="round"/>
<path d="M158.457 25.3066C158.545 25.8836 157.859 26.5221 157.33 26.3358C157.017 26.226 156.773 25.936 156.578 25.6759" stroke="#252A38" stroke-width="0.5" stroke-linecap="round"/>
<path d="M158.495 25.4902C158.156 26.0382 157.932 26.5233 158.335 27.0859C158.642 27.5133 158.788 27.384 159.242 27.1965" stroke="#252A38" stroke-width="0.5" stroke-linecap="round"/>
<path d="M155.684 14.6356L155.684 14.6357L155.69 14.642C156.233 15.1762 156.504 15.8347 156.504 16.6346C156.504 17.46 156.241 18.1291 155.72 18.6611C155.197 19.1735 154.557 19.4302 153.783 19.4302C152.985 19.4302 152.347 19.1719 151.847 18.6627C151.349 18.155 151.092 17.4871 151.092 16.6346C151.092 15.8292 151.347 15.1686 151.851 14.6356C152.375 14.0811 153.014 13.8066 153.783 13.8066C154.529 13.8066 155.159 14.0797 155.684 14.6356ZM154.339 30.6962V30.2141L153.945 30.4919C153.819 30.5811 153.621 30.6406 153.323 30.6406C152.701 30.6406 152.175 30.4125 151.732 29.9451C151.311 29.4589 151.092 28.8307 151.092 28.0394C151.092 27.2104 151.348 26.5526 151.847 26.0438C152.347 25.5346 152.985 25.2762 153.783 25.2762C154.638 25.2762 155.29 25.5642 155.767 26.1275L155.767 26.1276L155.773 26.1343C156.281 26.6916 156.535 27.3545 156.535 28.1366C156.535 29.5346 156.305 30.7869 155.849 31.8973L155.849 31.8973L155.847 31.9024C155.411 33.0339 154.77 33.9718 153.923 34.7211L153.923 34.7211L153.921 34.723C153.819 34.8154 153.658 34.8982 153.417 34.957L153.405 34.9599L153.393 34.9641C153.175 35.0408 152.948 35.0794 152.711 35.0794C152.452 35.0794 152.263 35.0478 152.129 34.9984C152.811 34.3118 153.337 33.5844 153.701 32.8154C154.116 32.0029 154.339 31.2929 154.339 30.6962Z" fill="white" stroke="#252A38" stroke-width="0.5"/>
<path d="M146.378 30.8912C144.642 30.8912 143.366 30.362 142.549 29.3036C141.732 28.2452 141.323 26.8844 141.323 25.2212V17.672H138.076C138.076 16.5704 138.27 15.7496 138.658 15.2096C139.046 14.6696 139.557 14.3996 140.19 14.3996H141.385V11.84C141.385 10.9112 141.722 10.2524 142.396 9.86365C143.07 9.45325 144.091 9.24805 145.459 9.24805V14.3996H149.534C149.534 15.566 149.329 16.4084 148.921 16.9268C148.512 17.4236 147.838 17.672 146.899 17.672H145.52V25.0592C145.52 25.772 145.653 26.2904 145.919 26.6144C146.184 26.9168 146.644 27.068 147.297 27.068C148.012 27.068 148.747 26.852 149.503 26.42C149.728 26.636 149.901 26.906 150.024 27.23C150.167 27.554 150.238 27.878 150.238 28.202C150.238 28.634 150.095 29.0552 149.809 29.4656C149.523 29.876 149.084 30.2216 148.492 30.5024C147.92 30.7616 147.216 30.8912 146.378 30.8912Z" fill="white"/>
<path d="M118.268 10.5449C118.268 9.63771 118.615 8.92491 119.309 8.40651C120.024 7.88811 121.096 7.62891 122.526 7.62891V15.0161C122.179 15.2753 121.954 15.4913 121.852 15.6641L121.974 15.8261C122.505 15.2861 123.21 14.8649 124.088 14.5625C124.987 14.2601 125.793 14.1089 126.508 14.1089C128.326 14.1089 129.776 14.6597 130.858 15.7613C131.941 16.8413 132.482 18.2453 132.482 19.9733V24.9953C132.482 26.1185 132.206 27.1337 131.655 28.0409C131.124 28.9265 130.409 29.6285 129.51 30.1469C128.632 30.6437 127.693 30.8921 126.692 30.8921C125.569 30.8921 124.609 30.6653 123.812 30.2117C123.036 29.7365 122.332 29.0453 121.699 28.1381L121.545 28.2677C121.648 28.4621 121.842 28.7429 122.128 29.1101C122.128 29.6717 121.831 30.1145 121.239 30.4385C120.647 30.7409 119.656 30.8921 118.268 30.8921V10.5449ZM125.375 27.0689C126.314 27.0689 127.029 26.8637 127.519 26.4533C128.03 26.0429 128.285 25.4489 128.285 24.6713V20.2973C128.285 19.5413 128.03 18.9581 127.519 18.5477C127.029 18.1373 126.314 17.9321 125.375 17.9321C124.517 17.9321 123.812 18.1481 123.261 18.5801C122.73 19.0121 122.465 19.5413 122.465 20.1677V24.8333C122.465 25.4813 122.73 26.0213 123.261 26.4533C123.812 26.8637 124.517 27.0689 125.375 27.0689Z" fill="white"/>
<path d="M102.949 10.5449C102.949 9.63771 103.296 8.92491 103.991 8.40651C104.706 7.88811 105.778 7.62891 107.207 7.62891V15.0161C106.86 15.2753 106.636 15.4913 106.533 15.6641L106.656 15.8261C107.187 15.2861 107.892 14.8649 108.77 14.5625C109.668 14.2601 110.475 14.1089 111.19 14.1089C113.008 14.1089 114.458 14.6597 115.54 15.7613C116.622 16.8413 117.164 18.2453 117.164 19.9733V24.9953C117.164 26.1185 116.888 27.1337 116.337 28.0409C115.806 28.9265 115.091 29.6285 114.192 30.1469C113.314 30.6437 112.374 30.8921 111.374 30.8921C110.25 30.8921 109.291 30.6653 108.494 30.2117C107.718 29.7365 107.013 29.0453 106.38 28.1381L106.227 28.2677C106.329 28.4621 106.523 28.7429 106.809 29.1101C106.809 29.6717 106.513 30.1145 105.921 30.4385C105.329 30.7409 104.338 30.8921 102.949 30.8921V10.5449ZM110.056 27.0689C110.996 27.0689 111.711 26.8637 112.201 26.4533C112.711 26.0429 112.967 25.4489 112.967 24.6713V20.2973C112.967 19.5413 112.711 18.9581 112.201 18.5477C111.711 18.1373 110.996 17.9321 110.056 17.9321C109.199 17.9321 108.494 18.1481 107.943 18.5801C107.412 19.0121 107.146 19.5413 107.146 20.1677V24.8333C107.146 25.4813 107.412 26.0213 107.943 26.4533C108.494 26.8637 109.199 27.0689 110.056 27.0689Z" fill="white"/>
<path d="M93.5691 30.8926C92.5684 30.8926 91.6289 30.6874 90.7507 30.277C89.893 29.845 89.1986 29.2294 88.6676 28.4302C88.1366 27.6094 87.8711 26.6266 87.8711 25.4818C87.8711 24.337 88.157 23.3542 88.7289 22.5334C89.3007 21.691 90.0564 21.0538 90.9958 20.6218C91.9557 20.1898 92.9973 19.9738 94.1206 19.9738C95.06 19.9738 95.8871 20.125 96.602 20.4274C97.3372 20.7298 98.0214 21.1726 98.6545 21.7558L98.8076 21.5614C98.3788 21.151 98.0418 20.8594 97.7967 20.6866V20.2654C97.7967 19.4446 97.5108 18.7966 96.9389 18.3214C96.3875 17.8246 95.6012 17.5762 94.5801 17.5762C93.6815 17.5762 92.885 17.749 92.1906 18.0946C91.4962 18.4402 90.9346 18.9478 90.5057 19.6174C90.0155 19.4878 89.5968 19.2502 89.2496 18.9046C88.9229 18.5374 88.7595 18.1378 88.7595 17.7058C88.7595 17.0362 89.0352 16.4314 89.5866 15.8914C90.1381 15.3298 90.8835 14.8978 91.823 14.5954C92.7828 14.2714 93.8346 14.1094 94.9783 14.1094C97.2044 14.1094 98.92 14.6494 100.125 15.7294C101.33 16.8094 101.932 18.2782 101.932 20.1358V28.009C101.932 29.0242 101.616 29.7586 100.983 30.2122C100.37 30.6658 99.3897 30.8926 98.0418 30.8926V29.629C98.3481 29.3266 98.5932 29.0566 98.777 28.819L98.6238 28.657C97.9499 29.3914 97.2453 29.953 96.5101 30.3418C95.7748 30.709 94.7945 30.8926 93.5691 30.8926ZM94.7332 27.7174C95.7136 27.7174 96.4794 27.523 97.0308 27.1342C97.5823 26.7454 97.858 26.1838 97.858 25.4494C97.858 24.7366 97.5721 24.175 97.0002 23.7646C96.4488 23.3542 95.6931 23.149 94.7332 23.149C93.8755 23.149 93.1913 23.3542 92.6807 23.7646C92.1906 24.175 91.9455 24.7366 91.9455 25.4494C91.9455 26.1838 92.1906 26.7454 92.6807 27.1342C93.1913 27.523 93.8755 27.7174 94.7332 27.7174Z" fill="white"/>
<path d="M69.7617 10.0907C69.7617 9.46432 69.9762 8.94592 70.405 8.53552C70.8544 8.12512 71.3956 7.91992 72.0287 7.91992H80.0856C82.373 7.91992 84.1294 8.54632 85.3547 9.79912C86.6005 11.0303 87.2234 12.7907 87.2234 15.0803C87.2234 16.3547 86.9784 17.4239 86.4882 18.2879C86.0185 19.1519 85.2833 19.8323 84.2825 20.3291V20.4587C86.0593 21.3011 86.9477 22.8887 86.9477 25.2215V27.4571C86.9477 28.5803 86.5597 29.4335 85.7836 30.0167C85.028 30.5999 83.9149 30.8915 82.4444 30.8915V25.3835C82.4444 24.3035 82.2402 23.5151 81.8318 23.0183C81.4437 22.4999 80.8412 22.2407 80.0243 22.2407H74.2037V27.4571C74.2037 28.5803 73.8259 29.4335 73.0703 30.0167C72.3146 30.5999 71.2118 30.8915 69.7617 30.8915V10.0907ZM79.8405 18.1907C80.78 18.1907 81.4948 17.9207 81.9849 17.3807C82.4751 16.8407 82.7202 16.0631 82.7202 15.0479C82.7202 13.9895 82.4853 13.2119 82.0156 12.7151C81.5663 12.2183 80.8412 11.9699 79.8405 11.9699H74.2037V18.1907H79.8405Z" fill="white"/>
<path d="M59.6052 30.8926C58.3389 30.8926 57.1646 30.6226 56.0822 30.0826C55.0202 29.5426 54.1726 28.8082 53.5395 27.8794C52.9064 26.9506 52.5898 25.9138 52.5898 24.769V20.6218C52.5898 19.4122 52.9064 18.3106 53.5395 17.317C54.1931 16.3018 55.061 15.5134 56.1435 14.9518C57.2259 14.3902 58.39 14.1094 59.6358 14.1094C60.8612 14.1094 61.9845 14.3794 63.0056 14.9194C64.0472 15.4378 64.8641 16.183 65.4564 17.155C66.0486 18.1054 66.3448 19.1854 66.3448 20.395V22.1446C66.3448 22.663 66.161 23.1058 65.7934 23.473C65.4257 23.8186 64.956 23.9914 64.3842 23.9914H56.6642V24.445C56.6642 25.309 56.9093 26.0218 57.3995 26.5834C57.9101 27.1234 58.6555 27.3934 59.6358 27.3934C60.5957 27.3934 61.3003 27.1774 61.7496 26.7454C62.1989 26.2918 62.4236 25.7302 62.4236 25.0606C62.832 25.0174 63.1384 24.9958 63.3426 24.9958C64.1799 24.9958 64.8233 25.1794 65.2726 25.5466C65.7219 25.9138 65.9465 26.4538 65.9465 27.1666C65.9465 27.7498 65.6708 28.333 65.1194 28.9162C64.568 29.4994 63.8021 29.9746 62.8218 30.3418C61.8619 30.709 60.7897 30.8926 59.6052 30.8926ZM62.5461 20.8486V20.395C62.5461 19.531 62.2704 18.8506 61.719 18.3538C61.188 17.8354 60.4834 17.5762 59.6052 17.5762C58.727 17.5762 58.0122 17.8354 57.4607 18.3538C56.9297 18.8506 56.6642 19.531 56.6642 20.395V20.8486H62.5461Z" fill="white"/>
<path d="M43.0614 30.8921C41.979 30.8921 40.9987 30.6437 40.1205 30.1469C39.2423 29.6285 38.5479 28.9265 38.0374 28.0409C37.5268 27.1337 37.2715 26.1185 37.2715 24.9953V20.0057C37.2715 18.8825 37.537 17.8781 38.068 16.9925C38.6194 16.0853 39.3751 15.3833 40.3349 14.8865C41.2948 14.3681 42.3568 14.1089 43.5209 14.1089C44.2153 14.1089 44.9608 14.2601 45.7573 14.5625C46.5742 14.8649 47.2482 15.2861 47.7792 15.8261L47.9017 15.6641C47.7996 15.4913 47.5749 15.2753 47.2277 15.0161V10.5449C47.2277 9.63771 47.5749 8.92491 48.2693 8.40651C48.9841 7.88811 50.0563 7.62891 51.4859 7.62891V27.9437C51.4859 28.7861 51.1694 29.4881 50.5363 30.0497C49.9032 30.6113 48.9331 30.8921 47.626 30.8921V29.1425C47.8711 28.8185 48.0651 28.5269 48.208 28.2677L48.0549 28.1381C47.4013 29.0669 46.6967 29.7581 45.9411 30.2117C45.2058 30.6653 44.246 30.8921 43.0614 30.8921ZM44.3787 27.0689C45.2365 27.0689 45.9309 26.8637 46.4619 26.4533C47.0133 26.0213 47.289 25.4813 47.289 24.8333V20.1677C47.289 19.5413 47.0133 19.0121 46.4619 18.5801C45.9309 18.1481 45.2365 17.9321 44.3787 17.9321C43.4393 17.9321 42.7142 18.1373 42.2037 18.5477C41.7135 18.9581 41.4684 19.5413 41.4684 20.2973V24.6713C41.4684 25.4489 41.7135 26.0429 42.2037 26.4533C42.7142 26.8637 43.4393 27.0689 44.3787 27.0689Z" fill="white"/>
<path d="M28.7259 30.8926C27.3779 30.8926 26.1526 30.6334 25.0497 30.115C23.9469 29.5966 23.0789 28.8838 22.4458 27.9766C21.8127 27.0478 21.4961 26.0002 21.4961 24.8338V20.5246C21.4961 19.3366 21.8024 18.2566 22.4151 17.2846C23.0278 16.291 23.8856 15.5134 24.9884 14.9518C26.0913 14.3902 27.3371 14.1094 28.7259 14.1094C30.1146 14.1094 31.3604 14.3902 32.4633 14.9518C33.5661 15.5134 34.4239 16.291 35.0366 17.2846C35.6493 18.2566 35.9556 19.3366 35.9556 20.5246V24.8338C35.9556 26.0002 35.6391 27.0478 35.006 27.9766C34.3728 28.8838 33.5049 29.5966 32.402 30.115C31.2992 30.6334 30.0738 30.8926 28.7259 30.8926ZM28.7259 27.0694C29.6857 27.0694 30.4312 26.8426 30.9622 26.389C31.4932 25.9354 31.7587 25.309 31.7587 24.5098V20.7514C31.7587 19.909 31.483 19.2286 30.9316 18.7102C30.4006 18.1918 29.6653 17.9326 28.7259 17.9326C27.7864 17.9326 27.041 18.1918 26.4895 18.7102C25.9585 19.2286 25.693 19.909 25.693 20.7514V24.5098C25.693 25.309 25.9585 25.9354 26.4895 26.389C27.0205 26.8426 27.766 27.0694 28.7259 27.0694Z" fill="white"/>
<path d="M10.5996 30.8921C8.76155 30.8921 7.1175 30.5141 5.66746 29.7581C4.21742 29.0021 3.08394 27.9545 2.26702 26.6153C1.47052 25.2545 1.07227 23.7101 1.07227 21.9821V16.4741C1.07227 14.7461 1.4603 13.2125 2.23638 11.8733C3.03288 10.5341 4.13573 9.49731 5.54492 8.76291C6.97453 8.00691 8.59817 7.62891 10.4158 7.62891C12.2335 7.62891 13.8571 7.92051 15.2867 8.50371C16.7163 9.06531 17.8192 9.86451 18.5953 10.9013C19.3918 11.9381 19.79 13.1153 19.79 14.4329C19.79 15.2969 19.5245 15.9773 18.9935 16.4741C18.4625 16.9493 17.7375 17.1869 16.8185 17.1869C16.2875 17.1869 15.7667 17.1113 15.2561 16.9601C15.3174 16.5065 15.348 15.9557 15.348 15.3077C15.348 14.2709 14.8885 13.4285 13.9694 12.7805C13.0504 12.1109 11.8659 11.7761 10.4158 11.7761C8.98621 11.7761 7.82209 12.2189 6.92348 13.1045C6.02486 13.9685 5.57555 15.0917 5.57555 16.4741V21.9821C5.57555 23.3861 6.03507 24.5309 6.95411 25.4165C7.89357 26.3021 9.10875 26.7449 10.5996 26.7449C12.0497 26.7449 13.224 26.4209 14.1226 25.7729C15.0417 25.1249 15.5012 24.2825 15.5012 23.2457C15.5012 22.5329 15.4705 22.0145 15.4093 21.6905C15.9607 21.5609 16.4611 21.4961 16.9104 21.4961C17.8294 21.4961 18.5646 21.7445 19.1161 22.2413C19.6675 22.7381 19.9432 23.4185 19.9432 24.2825C19.9432 25.5569 19.5449 26.7017 18.7484 27.7169C17.9724 28.7105 16.8695 29.4881 15.4399 30.0497C14.0307 30.6113 12.4173 30.8921 10.5996 30.8921Z" fill="white"/>
<path d="M135.456 6.53267L135.47 6.7879C135.471 6.8992 135.47 7.03118 135.467 7.18545C135.464 7.33973 135.448 7.50937 135.43 7.6959C135.345 8.61259 135.192 9.52093 134.973 10.4128C134.848 10.8969 134.679 11.3671 134.467 11.8171C134.279 12.2255 134.026 12.5959 133.718 12.9116C133.59 13.0412 133.449 13.1559 133.297 13.2539C133.179 13.3312 133.054 13.3968 132.924 13.4496L132.778 13.501L132.668 13.5321L132.574 13.5566L132.472 13.0209L132.546 13.0025L132.632 12.9814C132.664 12.9676 132.702 12.9545 132.746 12.9404C132.847 12.9003 132.945 12.8516 133.04 12.7953C133.164 12.7203 133.28 12.6306 133.386 12.5282C133.661 12.2576 133.893 11.9415 134.073 11.5926C134.29 11.1774 134.467 10.742 134.604 10.2913C134.867 9.43063 135.069 8.54971 135.208 7.65631C135.269 7.29102 135.329 6.98819 135.373 6.77444L135.447 6.4375L135.456 6.53267Z" fill="#32AF8F"/>
<path d="M133.708 2.94633C133.737 2.64527 133.859 2.36224 134.053 2.14127C134.249 1.91997 134.508 1.77222 134.79 1.7208C135.073 1.66904 135.363 1.71651 135.618 1.8556C135.873 1.99468 136.078 2.21796 136.202 2.49122C136.632 3.41444 135.81 4.85262 135.582 5.7563C135.54 5.93127 135.469 6.2674 135.652 6.33492C135.836 6.40209 135.976 6.09239 136.045 5.92665C136.396 5.06788 136.593 3.40755 137.473 2.96204C137.729 2.83117 138.02 2.79228 138.3 2.8511C138.581 2.90992 138.835 3.0635 139.026 3.28852C139.218 3.51354 139.334 3.79791 139.358 4.09899C139.383 4.39973 139.315 4.7006 139.163 4.95658C139.448 4.98904 139.715 5.11887 139.924 5.32585C140.133 5.53316 140.272 5.80646 140.321 6.10463C140.371 6.40248 140.326 6.70933 140.196 6.97801C140.065 7.24702 139.856 7.46333 139.598 7.59461C138.724 8.04821 137.362 7.17671 136.507 6.93315C136.342 6.88592 136.021 6.81148 135.957 7.00527C135.894 7.19906 136.19 7.34982 136.347 7.42273C137.16 7.79538 138.732 8.00645 139.156 8.93464C139.282 9.20737 139.322 9.51612 139.267 9.81416C139.213 10.1122 139.067 10.3832 138.854 10.5853C138.639 10.7877 138.369 10.9102 138.083 10.9346C137.797 10.959 137.509 10.884 137.268 10.7204C137.238 11.0211 137.115 11.3033 136.92 11.524C136.725 11.7444 136.466 11.8919 136.184 11.9436C135.902 11.9954 135.612 11.9485 135.358 11.8103C135.103 11.672 134.897 11.4501 134.772 11.1778C134.342 10.2546 135.164 8.81638 135.392 7.91278C135.436 7.73555 135.507 7.39937 135.323 7.33219C135.139 7.26467 134.998 7.57471 134.928 7.74237C134.578 8.60112 134.379 10.26 133.504 10.7082C133.245 10.842 132.953 10.8826 132.67 10.8242C132.388 10.7653 132.131 10.6109 131.939 10.3836C131.748 10.1565 131.631 9.86945 131.608 9.56635C131.586 9.2629 131.658 8.96039 131.813 8.70474C131.529 8.67195 131.261 8.54249 131.053 8.33518C130.843 8.1282 130.704 7.8549 130.655 7.55671C130.606 7.25853 130.65 6.952 130.781 6.68301C130.911 6.41435 131.121 6.19771 131.378 6.06671C132.249 5.61546 133.612 6.48686 134.468 6.73015C134.634 6.77543 134.954 6.85182 135.018 6.65804C135.081 6.46426 134.787 6.31115 134.628 6.24054C133.815 5.86796 132.245 5.65463 131.82 4.72677C131.696 4.45419 131.658 4.14677 131.714 3.85007C131.769 3.55371 131.914 3.28468 132.128 3.08354C132.341 2.88241 132.61 2.76038 132.896 2.73536C133.181 2.71068 133.466 2.7849 133.708 2.94633Z" fill="#32AF8F"/>
<path d="M134.001 4.5516L134.091 4.56962C134.202 4.59689 134.311 4.62994 134.419 4.66855L134.538 4.71543L134.366 4.32139L134.552 4.71004C134.559 4.68285 134.572 4.63776 134.592 4.58094C134.63 4.46613 134.674 4.35363 134.724 4.24426L134.767 4.15827C134.779 4.12941 134.794 4.10148 134.81 4.07505C134.843 4.02455 134.873 3.97731 134.9 3.93593C134.951 3.8561 134.995 3.80867 134.995 3.80867C134.995 3.80867 134.961 3.86325 134.909 3.94306C134.883 3.98444 134.854 4.03021 134.827 4.08705C134.811 4.1123 134.802 4.14242 134.787 4.17108C134.774 4.1994 134.762 4.22757 134.748 4.25868C134.702 4.3675 134.662 4.47855 134.628 4.59176C134.601 4.68487 134.587 4.74802 134.587 4.74802L134.751 5.10385C134.76 5.0752 134.772 5.03679 134.788 4.98583C134.819 4.8932 134.867 4.77175 134.921 4.64881L134.963 4.56315C134.981 4.53644 134.99 4.50486 135.007 4.47961C135.039 4.42944 135.069 4.38219 135.096 4.34081C135.147 4.261 135.192 4.21322 135.192 4.21322C135.192 4.21322 135.158 4.26779 135.106 4.34762C135.08 4.38899 135.049 4.43511 135.017 4.48674C135.002 4.51355 134.988 4.54116 134.976 4.56947C134.959 4.5962 134.95 4.62873 134.936 4.6574C134.888 4.77642 134.844 4.89868 134.818 4.99146C134.79 5.08457 134.779 5.12784 134.776 5.14136L134.943 5.4928C134.95 5.46562 134.963 5.42833 134.977 5.38553C135.016 5.27037 135.06 5.15787 135.11 5.04851L135.154 4.96252C135.166 4.93423 135.18 4.90634 135.196 4.87931C135.228 4.82913 135.259 4.78189 135.285 4.74051C135.344 4.66555 135.382 4.61292 135.382 4.61292C135.382 4.61292 135.347 4.66749 135.296 4.74731C135.269 4.78869 135.239 4.83593 135.214 4.89129C135.197 4.91655 135.188 4.94667 135.174 4.97533C135.159 5.00398 135.146 5.03362 135.133 5.06325C135.088 5.17173 135.048 5.28279 135.013 5.39634C134.994 5.46193 134.983 5.51191 134.976 5.53518L135.144 5.88759C135.151 5.8604 135.162 5.82849 135.176 5.79105C135.213 5.67629 135.257 5.56338 135.307 5.45306L135.349 5.3674C135.367 5.34069 135.377 5.30911 135.393 5.28386C135.425 5.23368 135.456 5.18644 135.482 5.14506C135.533 5.06525 135.579 5.01746 135.579 5.01746C135.579 5.01746 135.543 5.07238 135.492 5.15219C135.465 5.19357 135.435 5.24082 135.409 5.29619C135.394 5.32287 135.381 5.35095 135.371 5.37988C135.353 5.4066 135.343 5.43818 135.329 5.46684C135.281 5.58585 135.238 5.70779 135.21 5.80089C135.192 5.85868 135.181 5.90327 135.175 5.92899L135.413 6.42567C135.419 6.48455 135.441 6.54025 135.477 6.58617C135.512 6.63241 135.558 6.66742 135.611 6.68675C135.664 6.70606 135.72 6.70974 135.776 6.69636C135.83 6.68333 135.88 6.65417 135.919 6.61251L136.398 6.37993C136.412 6.35761 136.425 6.31252 136.445 6.2557C136.485 6.14407 136.519 6.03031 136.548 5.91452C136.553 5.88394 136.56 5.85285 136.566 5.8208C136.574 5.7904 136.58 5.75941 136.583 5.7287C136.591 5.66767 136.6 5.61186 136.604 5.56207L136.609 5.39892L136.61 5.56352C136.607 5.61185 136.599 5.66863 136.594 5.73013C136.59 5.79163 136.583 5.79164 136.58 5.82319L136.562 5.91823C136.538 6.03586 136.506 6.15196 136.467 6.26558C136.457 6.30495 136.445 6.33557 136.436 6.36177L136.774 6.19621C136.788 6.17535 136.802 6.1262 136.825 6.06222C136.865 5.95058 136.899 5.83683 136.928 5.72104L136.948 5.62551C136.953 5.59492 136.962 5.56481 136.965 5.53471C136.969 5.50428 136.982 5.41657 136.984 5.36859L136.989 5.20543L136.991 5.36858C136.987 5.41837 136.98 5.47368 136.974 5.53664C136.973 5.56527 136.964 5.59669 136.96 5.62971L136.942 5.72475C136.918 5.84199 136.887 5.95737 136.848 6.07063C136.835 6.1144 136.822 6.15038 136.814 6.17658L137.15 6.01249C137.156 6.00222 137.177 5.94786 137.206 5.86727C137.246 5.75563 137.281 5.64154 137.309 5.52609L137.328 5.43203C137.336 5.40142 137.342 5.37005 137.346 5.33846C137.352 5.27924 137.362 5.22309 137.365 5.17364L137.37 5.01048L137.371 5.17509C137.368 5.22342 137.36 5.2802 137.355 5.34169C137.353 5.37178 137.344 5.40321 137.341 5.43476L137.323 5.5298C137.299 5.64743 137.267 5.76353 137.229 5.87681C137.214 5.9263 137.2 5.9665 137.188 5.9932L137.533 5.82486C137.533 5.82486 137.555 5.7651 137.586 5.67379C137.626 5.56214 137.661 5.44807 137.689 5.3326L137.709 5.23708C137.716 5.20702 137.722 5.17603 137.726 5.14498C137.733 5.08429 137.743 5.02815 137.745 4.98016C137.75 4.88141 137.75 4.81701 137.75 4.81701L137.752 4.98013C137.75 5.02813 137.741 5.08525 137.736 5.14675C137.731 5.20824 137.726 5.20792 137.721 5.24128L137.703 5.33632C137.679 5.45352 137.648 5.5693 137.612 5.68283C137.592 5.74095 137.576 5.78279 137.567 5.80899L137.899 5.62376L137.532 5.81851C137.553 5.83377 137.599 5.84112 137.653 5.86246C137.762 5.90259 137.869 5.94926 137.972 6.00306L138.055 6.04695C138.08 6.06511 138.105 6.08327 138.129 6.10046C138.177 6.13451 138.222 6.1666 138.26 6.19384L138.381 6.29684L138.252 6.20444C138.214 6.1772 138.17 6.14476 138.122 6.11072C138.096 6.0946 138.07 6.08057 138.043 6.06879L137.96 6.02491C137.848 5.97409 137.732 5.92767 137.645 5.89892C137.556 5.87052 137.496 5.85275 137.496 5.85275L137.16 6.02841L137.271 6.0667C137.36 6.10033 137.473 6.14966 137.59 6.20729L137.671 6.25298C137.698 6.26661 137.724 6.28215 137.75 6.29881C137.797 6.3332 137.842 6.36529 137.88 6.39253L138.003 6.4952L137.878 6.39546L137.743 6.31055C137.717 6.29468 137.69 6.28029 137.664 6.26714L137.58 6.22472C137.468 6.17392 137.353 6.12749 137.264 6.09908C137.176 6.07033 137.133 6.0571 137.121 6.05436L136.79 6.23146C136.811 6.2467 136.85 6.25036 136.89 6.26686C136.999 6.3072 137.106 6.35386 137.209 6.40745L137.292 6.45133C137.317 6.46949 137.346 6.48033 137.371 6.49718C137.418 6.53155 137.463 6.56365 137.501 6.59089L137.623 6.69389L137.494 6.60115C137.457 6.57391 137.412 6.54182 137.363 6.50777C137.339 6.49132 137.312 6.47727 137.284 6.46584L137.202 6.42162C137.09 6.3708 136.974 6.32472 136.886 6.29597L136.753 6.25449L136.421 6.43305L136.512 6.46374C136.601 6.49736 136.714 6.54672 136.831 6.60434L136.913 6.6497C136.938 6.66628 136.962 6.68404 136.986 6.70321C137.035 6.73725 137.079 6.76968 137.117 6.79658L137.239 6.89958L137.11 6.80717C137.072 6.77993 137.027 6.74783 136.98 6.71346C136.954 6.69759 136.928 6.6832 136.901 6.67005L136.818 6.62763C136.705 6.57682 136.59 6.53041 136.501 6.50199C136.462 6.4867 136.42 6.47402 136.379 6.46341L135.91 6.71468C135.812 6.7583 135.725 6.83051 135.663 6.92265C135.659 7.03655 135.685 7.14902 135.736 7.24925L135.956 7.75332C135.993 7.7731 136.033 7.7896 136.074 7.80312C136.179 7.84618 136.287 7.88294 136.395 7.91359L136.485 7.93554C136.515 7.94121 136.545 7.94928 136.573 7.95277L136.73 7.9751L136.883 7.97915L136.73 7.97909C136.684 7.97801 136.629 7.96968 136.573 7.96303C136.543 7.95983 136.513 7.95453 136.484 7.94726L136.392 7.9286C136.281 7.90139 136.172 7.86833 136.065 7.82935L135.975 7.79476L136.131 8.15353L136.258 8.20766C136.345 8.24188 136.461 8.2829 136.581 8.31678L136.67 8.33734C136.7 8.34427 136.73 8.35234 136.758 8.35584C136.787 8.35899 136.867 8.37377 136.914 8.37724L137.068 8.38234L136.913 8.3827C136.867 8.38015 136.813 8.37182 136.756 8.36517C136.726 8.36235 136.697 8.35705 136.668 8.3494L136.577 8.33179C136.466 8.30445 136.357 8.27139 136.25 8.23241L136.149 8.19498L136.305 8.55102C136.315 8.55807 136.366 8.57994 136.443 8.61085C136.548 8.65302 136.656 8.68902 136.764 8.71892L136.855 8.74053C136.884 8.74641 136.914 8.75449 136.943 8.75765C137 8.76682 137.052 8.77695 137.099 8.78042L137.252 8.78448L137.099 8.78429C137.053 8.78322 136.999 8.77467 136.941 8.76823C136.912 8.76482 136.883 8.75953 136.853 8.75246L136.763 8.73451C136.642 8.70358 136.521 8.6673 136.434 8.63455C136.388 8.6181 136.349 8.60391 136.324 8.59247L136.483 8.95561C136.532 8.97177 136.58 8.99078 136.627 9.01299C136.732 9.05541 136.841 9.09145 136.949 9.12199L137.039 9.14267C137.068 9.15108 137.097 9.15713 137.128 9.16083C137.183 9.16896 137.237 9.17876 137.284 9.18223L137.438 9.1872L137.284 9.18748C137.236 9.18548 137.183 9.17681 137.125 9.17037C137.095 9.16793 137.066 9.16263 137.037 9.15473L136.947 9.13665C136.836 9.10931 136.727 9.07626 136.619 9.03774L136.499 8.99235L136.672 9.34367L136.485 8.95653C136.471 8.97848 136.466 9.02731 136.446 9.08418C136.408 9.19901 136.364 9.3115 136.314 9.4208L136.27 9.50829C136.258 9.53729 136.243 9.56521 136.227 9.59157C136.194 9.64203 136.163 9.68921 136.138 9.72916C136.079 9.80532 136.042 9.85641 136.042 9.85641C136.042 9.85641 136.076 9.80335 136.128 9.72199C136.154 9.68216 136.184 9.63486 136.21 9.57954C136.226 9.55431 136.243 9.52794 136.25 9.49554C136.256 9.46348 136.284 9.44235 136.289 9.40789C136.337 9.29653 136.38 9.18211 136.414 9.06607C136.442 8.97293 136.456 8.90939 136.456 8.90939L136.29 8.55541C136.29 8.55541 136.27 8.62241 136.254 8.67192C136.224 8.76422 136.176 8.88609 136.121 9.00901L136.079 9.09469C136.062 9.12139 136.053 9.15148 136.036 9.17671C136.003 9.22831 135.973 9.27561 135.947 9.31556C135.895 9.39679 135.851 9.44315 135.851 9.44315C135.851 9.44315 135.886 9.38962 135.938 9.30838C135.964 9.26844 135.994 9.22126 136.019 9.16581C136.034 9.13903 136.048 9.11145 136.06 9.08307C136.077 9.05637 136.086 9.02388 136.1 8.99521C136.149 8.87474 136.191 8.75431 136.224 8.65234C136.257 8.5505 136.262 8.51591 136.265 8.50238L136.097 8.15249C136.089 8.17997 136.079 8.2154 136.064 8.25832C136.025 8.37336 135.981 8.48598 135.931 8.59528L135.887 8.68277C135.875 8.71064 135.86 8.73817 135.845 8.76445C135.812 8.81617 135.782 8.86335 135.756 8.9033C135.704 8.98453 135.66 9.03089 135.66 9.03089C135.66 9.03089 135.693 8.97783 135.746 8.89646C135.771 8.85652 135.801 8.80934 135.827 8.75402C135.843 8.72866 135.853 8.69709 135.867 8.66989C135.88 8.64269 135.894 8.61163 135.907 8.58203C135.954 8.47089 135.997 8.3566 136.033 8.24009C136.052 8.17456 136.063 8.12455 136.07 8.10126L135.902 7.74885C135.887 7.77126 135.885 7.80769 135.87 7.84548C135.833 7.96019 135.788 8.07305 135.74 8.18302L135.696 8.27051C135.678 8.29721 135.663 8.3221 135.646 8.34746C135.613 8.39905 135.583 8.44623 135.557 8.48618C135.505 8.56754 135.461 8.61377 135.461 8.61377C135.461 8.61377 135.494 8.56071 135.547 8.47947C135.572 8.43952 135.604 8.39188 135.628 8.3369C135.643 8.31011 135.658 8.28219 135.67 8.25382C135.686 8.22745 135.695 8.1945 135.71 8.16596C135.758 8.04536 135.802 7.92346 135.834 7.82309C135.851 7.76677 135.862 7.72209 135.869 7.69494L135.631 7.19827C135.589 7.0936 135.52 7.00333 135.433 6.9367C135.325 6.93078 135.218 6.95677 135.125 7.01143L134.645 7.24436C134.632 7.26635 134.619 7.31144 134.599 7.36825C134.559 7.47989 134.524 7.59397 134.496 7.70942L134.476 7.80498C134.469 7.83503 134.463 7.86596 134.459 7.8971C134.453 7.95626 134.442 8.01392 134.44 8.06186L134.435 8.22509L134.433 8.06191C134.437 8.01216 134.444 7.95673 134.45 7.89379C134.451 7.86521 134.46 7.83374 134.464 7.80075L134.482 7.70571C134.506 7.58847 134.537 7.47309 134.575 7.36018L134.607 7.26363L134.269 7.4292C134.256 7.4486 134.241 7.49808 134.218 7.56319C134.178 7.67482 134.143 7.78892 134.115 7.90442C134.11 7.93502 134.103 7.96603 134.096 7.99843C134.088 8.02907 134.082 8.06038 134.078 8.09202C134.072 8.15118 134.062 8.20737 134.059 8.25678L134.054 8.42002L134.053 8.25536C134.055 8.20742 134.064 8.15031 134.069 8.08871C134.073 8.02724 134.079 8.02753 134.083 7.99568L134.101 7.90065C134.126 7.78272 134.157 7.66657 134.193 7.55268L134.23 7.44736L133.893 7.61293C133.887 7.62318 133.866 7.67756 133.838 7.75668C133.798 7.86818 133.763 7.98227 133.735 8.09788L133.715 8.19336C133.707 8.22375 133.702 8.25446 133.698 8.28547C133.691 8.34611 133.681 8.4023 133.679 8.45036L133.674 8.61347L133.672 8.45029C133.675 8.40088 133.683 8.34524 133.688 8.28377C133.69 8.2536 133.698 8.22258 133.703 8.18913L133.721 8.09419C133.745 7.9769 133.776 7.86152 133.814 7.74861C133.829 7.69912 133.844 7.6589 133.853 7.63253L133.51 7.80056C133.51 7.80056 133.488 7.86031 133.457 7.95162C133.417 8.06327 133.382 8.17731 133.354 8.2928C133.348 8.32486 133.34 8.35622 133.335 8.38681C133.327 8.41745 133.321 8.44889 133.317 8.4804C133.31 8.54003 133.301 8.59575 133.298 8.64529L133.293 8.8084L133.292 8.64374C133.294 8.5958 133.303 8.53869 133.308 8.47722C133.313 8.41575 133.318 8.41604 133.322 8.38418L133.34 8.28912C133.364 8.17149 133.396 8.055 133.432 7.94111C133.45 7.8848 133.467 7.84262 133.477 7.81495L133.104 7.99671L133.471 7.80194L133.348 7.75979C133.239 7.71895 133.133 7.67198 133.03 7.61885L132.948 7.5735C132.923 7.55725 132.898 7.53949 132.874 7.52033C132.827 7.48595 132.782 7.45386 132.744 7.42662L132.622 7.32362L132.75 7.41636L132.887 7.50095C132.912 7.51681 132.938 7.53153 132.965 7.54434L133.048 7.5871C133.152 7.63493 133.257 7.67703 133.364 7.71274C133.453 7.74393 133.513 7.7589 133.513 7.7589L133.849 7.58325C133.849 7.58325 133.785 7.56258 133.737 7.544C133.628 7.50387 133.522 7.45687 133.417 7.40341L133.336 7.35918C133.31 7.34136 133.282 7.3315 133.257 7.31334C133.209 7.2793 133.165 7.24687 133.126 7.21997L133.004 7.11696L133.133 7.20937C133.171 7.23661 133.216 7.2687 133.268 7.29576C133.293 7.31187 133.32 7.32591 133.347 7.33769L133.43 7.38157C133.542 7.43239 133.659 7.47847 133.746 7.50722L133.889 7.55194L134.22 7.37484L134.12 7.33945C134.011 7.2984 133.905 7.25143 133.801 7.19885L133.719 7.15349C133.693 7.13724 133.669 7.11948 133.646 7.09998C133.598 7.06594 133.552 7.03385 133.515 7.00661L133.393 6.90361L133.521 6.99635L133.658 7.08094C133.683 7.09679 133.71 7.11118 133.736 7.12433L133.82 7.16675C133.932 7.21757 134.047 7.26399 134.136 7.29239C134.197 7.31503 134.245 7.32728 134.268 7.33422L134.6 7.15679L134.51 7.12463C134.4 7.08477 134.294 7.03777 134.191 6.98402L134.108 6.94014C134.083 6.9239 134.058 6.90614 134.034 6.88697L133.904 6.79326L133.784 6.69123L133.91 6.783C133.948 6.81024 133.993 6.84234 134.041 6.87637C134.065 6.89356 134.093 6.90343 134.121 6.91832L134.203 6.96107C134.306 7.00954 134.411 7.052 134.519 7.08817L134.641 7.12677L135.11 6.87549C135.166 6.8691 135.218 6.8461 135.263 6.80905C135.307 6.77201 135.339 6.72286 135.358 6.66661C135.377 6.61036 135.38 6.54996 135.367 6.49186C135.354 6.4341 135.327 6.38099 135.287 6.33911L135.064 5.83409L134.948 5.78525C134.842 5.74298 134.734 5.70654 134.625 5.67654L134.535 5.65463C134.505 5.64902 134.477 5.63915 134.448 5.63597L134.291 5.61357L134.137 5.61101L134.291 5.60966C134.337 5.61182 134.391 5.62049 134.449 5.62538C134.478 5.62744 134.507 5.63697 134.538 5.64113L134.629 5.6601C134.74 5.68737 134.849 5.72043 134.957 5.75903L135.048 5.79363L134.889 5.43664L134.763 5.38212C134.657 5.34007 134.549 5.30363 134.439 5.27343L134.351 5.25248C134.32 5.24589 134.292 5.23603 134.263 5.23285L134.107 5.21142L133.952 5.20788L134.107 5.20752C134.153 5.21001 134.207 5.21834 134.265 5.22358C134.323 5.22847 134.322 5.23385 134.353 5.23931L134.444 5.25697C134.555 5.28426 134.664 5.31731 134.772 5.35591L134.871 5.39521L134.715 5.03919C134.671 5.01692 134.625 4.99736 134.58 4.97997C134.473 4.93751 134.366 4.90107 134.256 4.87127L134.166 4.84937C134.137 4.84374 134.108 4.83388 134.08 4.8307L133.922 4.8083L133.768 4.80574L133.922 4.80439C133.968 4.80689 134.022 4.81522 134.08 4.82045C134.138 4.82536 134.139 4.83169 134.168 4.83618L134.259 4.85386C134.37 4.88156 134.48 4.91471 134.587 4.9541L134.697 4.99629L134.538 4.63313C134.489 4.61787 134.441 4.59915 134.393 4.57719C134.288 4.5348 134.181 4.49837 134.071 4.46816L133.981 4.44755C133.951 4.44062 133.923 4.43077 133.894 4.42759L133.738 4.40615L133.583 4.40262L133.737 4.40128L133.896 4.41831C133.935 4.45849 133.971 4.50313 134.001 4.5516Z" fill="white"/>
<path d="M133.346 16.6049C133.346 15.8257 133.707 15.2178 134.43 14.7815C135.172 14.3295 136.209 14.1035 137.541 14.1035V28.3871C137.541 29.182 137.17 29.7975 136.428 30.2339C135.705 30.6703 134.678 30.8885 133.346 30.8885V16.6049Z" fill="white"/>
</svg>
