<svg width="33" height="34" viewBox="0 0 33 34" fill="none" xmlns="http://www.w3.org/2000/svg">
<g clip-path="url(#clip0_2709_2677)">
<path d="M33 26.4345C33 30.6133 29.7121 34 25.6577 34H7.3423C3.2879 34 0 30.6133 0 26.4345V7.56551C0 3.38668 3.2879 0 7.3423 0H25.6577C29.7121 0 33 3.38668 33 7.56551V26.4345Z" fill="#DEDEDE"/>
<path d="M16.3969 6.40234C9.84132 6.40234 4.52734 10.7052 4.52734 16.0159C4.52734 19.4715 6.77755 22.5 10.1573 24.1945C9.90856 25.1428 9.2586 27.634 9.12861 28.1667C8.96724 28.8279 9.36394 28.8187 9.62616 28.6419C9.83011 28.5019 12.8782 26.378 14.1938 25.4619C14.9088 25.5698 15.6439 25.6272 16.3969 25.6272C22.9526 25.6272 28.2665 21.3244 28.2665 16.0136C28.2643 10.7052 22.9503 6.40234 16.3969 6.40234Z" fill="#252A38"/>
<mask id="mask0_2709_2677" style="mask-type:luminance" maskUnits="userSpaceOnUse" x="20" y="13" width="5" height="6">
<path d="M20.5391 13.4718C20.5526 13.9494 20.5234 18.2659 20.5234 18.5851C20.5234 19.0902 21.7785 19.0879 21.7785 18.5851C21.7785 17.9996 21.7785 16.886 21.7785 16.886L22.1461 16.5829L23.7575 18.8331C24.0825 19.2739 25.1068 18.4772 24.7818 18.0386L23.0717 15.7311C23.0717 15.7311 24.2327 14.4453 24.6899 13.9792C24.9566 13.7083 24.1296 12.8541 23.8629 13.1274C23.6051 13.3891 21.7853 15.2558 21.7853 15.2558C21.7853 15.2558 21.8009 14.0848 21.7853 13.4373C21.7785 13.1917 21.4849 13.0723 21.1824 13.0723C20.8619 13.0723 20.5324 13.2077 20.5391 13.4718Z" fill="white"/>
</mask>
<g mask="url(#mask0_2709_2677)">
<path d="M25.1068 12.8555H20.5234V19.2752H25.1068V12.8555Z" fill="#929292"/>
</g>
<mask id="mask1_2709_2677" style="mask-type:luminance" maskUnits="userSpaceOnUse" x="16" y="13" width="5" height="6">
<path d="M16.8672 13.6427C16.8694 14.731 16.8739 18.2394 16.8739 18.2394C16.8739 18.2394 16.7753 18.9374 17.3603 18.9374C17.943 18.9374 19.2384 18.9305 19.8122 18.9305C20.3859 18.9305 20.3837 17.6792 19.8099 17.6792C19.2362 17.6792 18.1873 17.6723 18.1873 17.6723C18.1873 17.6723 18.1918 14.428 18.1895 13.6381C18.1895 13.257 17.8578 13.0664 17.5284 13.0664C17.1967 13.0687 16.865 13.2616 16.8672 13.6427Z" fill="white"/>
</mask>
<g mask="url(#mask1_2709_2677)">
<path d="M20.386 13.0684H16.7754V18.9371H20.386V13.0684Z" fill="#929292"/>
</g>
<mask id="mask2_2709_2677" style="mask-type:luminance" maskUnits="userSpaceOnUse" x="11" y="13" width="6" height="6">
<path d="M13.9627 14.4647L14.6418 16.646H13.2254L13.9627 14.4647ZM13.2007 13.443C12.9004 14.1203 11.8134 17.3233 11.4548 18.1728C11.1948 18.7859 12.3177 19.2887 12.5777 18.6734L12.8219 17.7986H15.0565C15.0565 17.7986 14.9803 17.8353 15.2761 18.6366C15.5159 19.2864 16.6769 18.8364 16.4371 18.1866C16.0942 17.259 14.9063 13.9159 14.6889 13.443C14.5903 13.2248 14.2317 13.0664 13.8843 13.0664C13.5997 13.0687 13.3195 13.1743 13.2007 13.443Z" fill="white"/>
</mask>
<g mask="url(#mask2_2709_2677)">
<path d="M16.6799 13.0684H11.1934V19.2907H16.6799V13.0684Z" fill="#929292"/>
</g>
<mask id="mask3_2709_2677" style="mask-type:luminance" maskUnits="userSpaceOnUse" x="7" y="13" width="6" height="6">
<path d="M8.11547 14.2438H9.33695C9.33695 14.2438 9.34367 17.681 9.33919 18.4823C9.34143 19.0678 10.61 19.0747 10.6077 18.4915L10.6122 14.2897C10.6122 14.2897 11.0224 14.292 11.827 14.292C12.5867 14.292 12.5867 13.0682 11.827 13.0682C10.9708 13.0682 8.11099 13.043 8.11099 13.043C7.39604 13.0453 7.39828 14.2438 8.11547 14.2438Z" fill="white"/>
</mask>
<g mask="url(#mask3_2709_2677)">
<path d="M12.5872 13.0449H7.39648V19.0767H12.5872V13.0449Z" fill="#929292"/>
</g>
</g>
<defs>
<clipPath id="clip0_2709_2677">
<rect width="33" height="34" fill="white"/>
</clipPath>
</defs>
</svg>
