<svg width="34" height="34" viewBox="0 0 34 34" fill="none" xmlns="http://www.w3.org/2000/svg">
<rect x="0.833984" width="32.5086" height="34" rx="11" fill="#252A38"/>
<path d="M25.3955 0H8.60651C3.85265 0 0 3.85242 0 8.60599V25.394C0 30.1476 3.85265 34 8.60651 34H14.3783V21.8549H10.1119V16.999H14.3763V13.3002C14.3763 9.09138 16.8833 6.76682 20.7195 6.76682C22.5567 6.76682 24.478 7.09451 24.478 7.09451V11.2275H22.3601C20.273 11.2275 19.6237 12.5219 19.6237 13.849V16.999H24.2813L23.5358 21.8529H19.6237V33.998L19.6299 34H25.3935C30.1453 34 34 30.1476 34 25.394V8.60599C34.002 3.85242 30.1474 0 25.3955 0Z" fill="#DEDEDE"/>
</svg>
