<svg width="34" height="34" viewBox="0 0 34 34" fill="none" xmlns="http://www.w3.org/2000/svg">
<g clip-path="url(#clip0_2709_2696)">
<mask id="mask0_2709_2696" style="mask-type:luminance" maskUnits="userSpaceOnUse" x="0" y="0" width="34" height="34">
<path d="M17 0H7.62724C3.0634 0 0 3.09341 0 7.30215V17V26.6979C0 30.9066 3.0634 34 7.62724 34H17H26.3728C30.9366 34 34 30.9066 34 26.6979V17V7.30215C34 3.09341 30.9366 0 26.3728 0H17Z" fill="white"/>
</mask>
<g mask="url(#mask0_2709_2696)">
<path d="M34 0H0V34H34V0Z" fill="#DEDEDE"/>
</g>
<path d="M17.0311 9.84724C16.1996 9.84724 15.3931 9.95102 14.6229 10.1473V8.49309V8.29428C14.6229 8.25302 14.6179 8.21051 14.6091 8.16799C14.4553 6.13239 12.8711 4.62695 10.938 4.62695C9.00372 4.62695 7.4195 6.13239 7.26571 8.16799C7.25695 8.21051 7.25195 15.1275 7.25195 15.1275V19.6276C7.25195 19.6601 7.2532 19.6901 7.2532 19.7226C7.30447 25.0805 11.662 29.408 17.0311 29.408C22.4314 29.408 26.8102 25.0292 26.8102 19.6289C26.8102 14.2285 22.4302 9.84724 17.0311 9.84724ZM17.0311 27.9038C12.4597 27.9038 8.75364 24.1977 8.75364 19.6264V8.3643C8.75364 7.14769 9.73143 6.16115 10.9368 6.16115C12.1421 6.16115 13.1199 7.14769 13.1199 8.3643L13.1162 19.5276C13.1162 21.692 14.8654 23.5463 17.0311 23.5463C19.1955 23.5463 20.9497 21.7908 20.9497 19.6264C20.9497 17.462 19.1955 15.7065 17.0311 15.7065C16.1221 15.7065 15.2868 16.0166 14.6229 16.5355V14.8587C15.3468 14.4924 16.1646 14.2848 17.0311 14.2848C19.9819 14.2848 22.3739 16.6767 22.3739 19.6276C22.3739 22.5785 19.9819 24.9704 17.0311 24.9704C14.0802 24.9704 11.6883 22.5785 11.6883 19.6276V8.29428C11.6883 7.92667 11.3519 7.57782 10.9368 7.57782C10.5217 7.57782 10.1853 7.92667 10.1853 8.29428V19.6276C10.1853 19.8002 10.1941 19.969 10.2066 20.1378C10.4679 23.6788 13.4225 26.4721 17.0311 26.4721C20.8109 26.4721 23.8756 23.4075 23.8756 19.6276C23.8756 15.8478 20.8109 12.7831 17.0311 12.7831C16.1833 12.7831 15.3718 12.9381 14.6229 13.2195V11.7065C15.3856 11.4752 16.1933 11.3502 17.0311 11.3502C21.6012 11.3502 25.3073 15.0563 25.3073 19.6276C25.3073 24.1977 21.6012 27.9038 17.0311 27.9038ZM14.6216 19.6276C14.6216 18.2972 15.7007 17.2194 17.0298 17.2194C18.359 17.2194 19.438 18.2972 19.438 19.6276C19.438 20.958 18.359 22.0358 17.0298 22.0358C15.7007 22.0346 14.6216 20.9568 14.6216 19.6276Z" fill="#252A38"/>
</g>
<defs>
<clipPath id="clip0_2709_2696">
<rect width="34" height="34" fill="white"/>
</clipPath>
</defs>
</svg>
