<svg width="70" height="79" viewBox="0 0 70 79" fill="none" xmlns="http://www.w3.org/2000/svg">
<g clip-path="url(#clip0_2633_1289)">
<path d="M6.32595 71.2337L0 0.28125H69.5108L63.1785 71.2227L34.7129 79.1138L6.32595 71.2337Z" fill="#E44D26"/>
<path d="M34.7559 73.0846L57.7568 66.7075L63.1688 6.08594H34.7559V73.0846Z" fill="#F16529"/>
<path d="M34.7559 32.3992H23.2405L22.4461 23.4872H34.7559V14.7852H12.9355L13.1432 17.1203L15.2825 41.1004H34.7559V32.3992ZM34.7559 54.9982L34.7173 55.0084L25.0267 52.3909L24.4069 45.4514H15.6711L16.8902 59.1148L34.7158 64.0636L34.7559 64.0518V54.9982Z" fill="#EBEBEB"/>
<path d="M34.7266 32.3992V41.1004H45.4421L44.4322 52.3862L34.7266 55.0061V64.0589L52.5663 59.1148L52.6969 57.644L54.7418 34.7352L54.9542 32.3992H52.6088H34.7266ZM34.7266 14.7852V23.4872H55.7462L55.92 21.5311L56.3172 17.1203L56.5257 14.7852H34.7266Z" fill="white"/>
</g>
<defs>
<clipPath id="clip0_2633_1289">
<rect width="70" height="79" fill="white"/>
</clipPath>
</defs>
</svg>
