<svg width="70" height="70" viewBox="0 0 70 70" fill="none" xmlns="http://www.w3.org/2000/svg">
<g clip-path="url(#clip0_2824_5046)">
<path d="M6.32595 63.1193L0 0.25H69.5108L63.1785 63.1095L34.7129 70.1017L6.32595 63.1193Z" fill="#E44D26"/>
<path d="M34.7559 64.7565L57.7568 59.1059L63.1688 5.39062H34.7559V64.7565Z" fill="#F16529"/>
<path d="M34.7559 28.7089H23.2405L22.4461 20.8122H34.7559V13.1016H12.9355L13.1432 15.1707L15.2825 36.4189H34.7559V28.7089ZM34.7559 48.7334L34.7173 48.7424L25.0267 46.4231L24.4069 40.2742H15.6711L16.8902 52.381L34.7158 56.766L34.7559 56.7555V48.7334Z" fill="#EBEBEB"/>
<path d="M34.7266 28.7089V36.4189H45.4421L44.4322 46.4189L34.7266 48.7403V56.7618L52.5663 52.381L52.6969 51.0778L54.7418 30.7788L54.9542 28.7089H52.6088H34.7266ZM34.7266 13.1016V20.8122H55.7462L55.92 19.079L56.3172 15.1707L56.5257 13.1016H34.7266Z" fill="white"/>
</g>
<defs>
<clipPath id="clip0_2824_5046">
<rect width="70" height="70" fill="white"/>
</clipPath>
</defs>
</svg>
