<svg width="40" height="40" viewBox="0 0 40 40" fill="none" xmlns="http://www.w3.org/2000/svg">
<path d="M35 35L35 30L30 30L30 35L35 35Z" fill="white"/>
<path d="M40 25L25 25L25 40L40 40L40 25ZM37.5 27.5L37.5 37.5L27.5 37.5L27.5 27.5L37.5 27.5Z" fill="white"/>
<path d="M10 30L10 35L5 35L5 30L10 30Z" fill="white"/>
<path d="M15 25L1.78873e-07 25L0 40L15 40L15 25ZM12.5 37.5L2.5 37.5L2.5 27.5L12.5 27.5L12.5 37.5Z" fill="white"/>
<path d="M35 10L35 5L30 5L30 10L35 10Z" fill="white"/>
<path d="M40 15L25 15L25 -1.78873e-07L40 0L40 15ZM37.5 2.5L27.5 2.5L27.5 12.5L37.5 12.5L37.5 2.5Z" fill="white"/>
<path d="M37.5 20L40 20L40 17.5L35 17.5L35 20L30 20L30 22.5L37.5 22.5L37.5 20Z" fill="white"/>
<path d="M25 20L30 20L30 17.5L25 17.5L25 20Z" fill="white"/>
<path d="M20 25L22.5 25L22.5 22.5L25 22.5L25 20L20 20L20 17.5L22.5 17.5L22.5 5L20 5L20 15L17.5 15L17.5 22.5L20 22.5L20 25Z" fill="white"/>
<path d="M20 25L17.5 25L17.5 35L20 35L20 37.5L17.5 37.5L17.5 40L22.5 40L22.5 32.5L20 32.5L20 25Z" fill="white"/>
<path d="M17.5 -2.6831e-07L17.5 2.5L22.5 2.5L22.5 -2.08685e-07L17.5 -2.6831e-07Z" fill="white"/>
<path d="M17.5 2.5L17.5 5L12.5 5L12.5 -3.27934e-07L15 -2.98122e-07L15 2.5L17.5 2.5Z" fill="white"/>
<path d="M17.5 12.5L17.5 7.5L15 7.5L15 10L12.5 10L12.5 12.5L17.5 12.5Z" fill="white"/>
<path d="M10 7.5L12.5 7.5L12.5 10L10 10L10 12.5L7.5 12.5L7.5 17.5L5 17.5L5 10L10 10L10 7.5Z" fill="white"/>
<path d="M10 7.5L10 -3.57746e-07L7.5 -3.87559e-07L7.5 5L5 5L5 7.5L10 7.5Z" fill="white"/>
<path d="M12.5 17.5L10 17.5L10 15L15 15L15 22.5L12.5 22.5L12.5 17.5Z" fill="white"/>
<path d="M10 22.5L10 20L2.5 20L2.5 10L3.57746e-07 10L2.08685e-07 22.5L10 22.5Z" fill="white"/>
<path d="M5 -4.17371e-07L4.76995e-07 -4.76995e-07L3.87559e-07 7.5L2.5 7.5L2.5 2.5L5 2.5L5 -4.17371e-07Z" fill="white"/>
</svg>
