<svg width="70" height="70" viewBox="0 0 70 70" fill="none" xmlns="http://www.w3.org/2000/svg">
<g clip-path="url(#clip0_2824_5062)">
<path d="M70 0.269531H0L6.56233 62.537L34.9964 69.5935L63.4305 62.537L70 0.269531Z" fill="#E6A329"/>
<path d="M34.9961 5.34375V64.318L58.0342 58.6071L63.6387 5.34375H34.9961Z" fill="#F1BF22"/>
<path d="M53.3251 12.9824H17.9028L15.4355 36.2936L15.4863 36.1486H45.5795L44.5994 46.0118L34.9978 48.4287L25.2545 45.9728L24.6709 40.0032H15.8267L17.0884 51.9316L34.9978 56.3802L52.9152 51.9316L55.3825 28.5175H23.4449L23.8548 20.7164H46.0134L46.3449 25.1861H55.264L53.3251 12.9824Z" fill="white"/>
<path d="M35.0049 12.9824H17.9028L15.4355 36.2936L15.4863 36.1486H35.004V28.544H24.6905L25.1004 20.7429H35.0049V12.9824ZM24.6905 40.007H15.8258L17.0875 51.9293L34.9969 56.3732V48.4396L25.2537 45.9775L24.6905 40.007Z" fill="#EBEBEB"/>
</g>
<defs>
<clipPath id="clip0_2824_5062">
<rect width="70" height="70" fill="white"/>
</clipPath>
</defs>
</svg>
