<svg width="70" height="80" viewBox="0 0 70 80" fill="none" xmlns="http://www.w3.org/2000/svg">
<g clip-path="url(#clip0_2633_1305)">
<path d="M70 0.308594H0L6.56233 71.4714L34.9964 79.536L63.4305 71.4714L70 0.308594Z" fill="#E6A329"/>
<path d="M34.9961 6.10938V73.5085L58.0342 66.9818L63.6387 6.10938H34.9961Z" fill="#F1BF22"/>
<path d="M53.3251 14.8359H17.9028L15.4355 41.4773L15.4863 41.3116H45.5795L44.5994 52.5838L34.9978 55.346L25.2545 52.5393L24.6709 45.7168H15.8267L17.0884 59.3493L34.9978 64.4335L52.9152 59.3493L55.3825 32.5903H23.4449L23.8548 23.6748H46.0134L46.3449 28.783H55.264L53.3251 14.8359Z" fill="white"/>
<path d="M35.0049 14.8359H17.9028L15.4355 41.4773L15.4863 41.3116H35.004V32.6206H24.6905L25.1004 23.7051H35.0049V14.8359ZM24.6905 45.7212H15.8258L17.0875 59.3466L34.9969 64.4254V55.3585L25.2537 52.5446L24.6905 45.7212Z" fill="#EBEBEB"/>
</g>
<defs>
<clipPath id="clip0_2633_1305">
<rect width="70" height="80" fill="white"/>
</clipPath>
</defs>
</svg>
