<svg width="70" height="70" viewBox="0 0 70 70" fill="none" xmlns="http://www.w3.org/2000/svg">
<path d="M27.4546 61.329C25.6608 62.3673 25.3196 62.4957 23.6308 63.0907C23.2225 63.2307 22.6042 63.4786 23.8671 64.2019L32.3225 69.2711C33.1275 69.7465 34.0638 69.9944 34.9796 69.9944L34.9854 70.0003C35.9188 70.0003 36.8346 69.7494 37.6454 69.2769L62.9679 54.4719C64.61 53.4978 65.625 51.7069 65.625 49.7878V20.1894C65.625 18.2586 64.6129 16.4678 62.9679 15.5111L37.6454 0.688594C36.0529 -0.224323 33.9296 -0.224323 32.3254 0.688594L7.03208 15.4965C5.39 16.4561 4.375 18.2586 4.375 20.1748V49.7761C4.375 51.7069 5.38708 53.4978 7.03208 54.4544L13.6675 58.3307C16.8787 59.9407 18.0279 59.9407 19.4921 59.9407C24.2492 59.9407 26.9908 57.024 26.9908 51.9403V22.7065C26.9908 22.2894 26.6496 21.9715 26.25 21.9715H23.0446C22.6304 21.9715 22.3038 22.2894 22.3038 22.7065V51.9257C22.3038 54.189 19.9996 56.4261 16.2313 54.5244L9.2925 50.4703C9.05042 50.3478 8.89583 50.0678 8.89583 49.7878V20.1894C8.89583 19.9036 9.05042 19.6236 9.2925 19.4836L34.5858 4.67568H35.3646L60.6725 19.469C60.9175 19.6207 61.0692 19.8832 61.0692 20.1748V49.7878C61.0692 50.0648 60.9204 50.3419 60.6871 50.479L35.3646 65.2869H34.5858L28.0875 61.3873L27.4546 61.329Z" fill="#8CC03E"/>
<path d="M27.4546 61.3288C25.6608 62.3671 25.3196 62.4954 23.6308 63.0904C23.2225 63.2304 22.6042 63.4783 23.8671 64.2017L32.3225 69.2708C33.1275 69.7463 34.0638 69.9942 34.9796 69.9942L34.9854 70C34.9913 70 34.9942 70 35 70V65.2896H34.5858L28.0875 61.3871L27.4546 61.3288ZM34.9913 0C34.0608 0 33.1275 0.2275 32.3254 0.685417L7.03208 15.4963C5.39 16.4558 4.375 18.2583 4.375 20.1746V49.7758C4.375 51.7067 5.38708 53.4975 7.03208 54.4542L13.6675 58.3304C16.8787 59.9404 18.0279 59.9404 19.4921 59.9404C24.2492 59.9404 26.9908 57.0238 26.9908 51.94V22.7063C26.9908 22.2892 26.6496 21.9713 26.25 21.9713H23.0446C22.6304 21.9713 22.3038 22.2892 22.3038 22.7063V51.9254C22.3038 53.5908 21.0583 55.2417 18.9 55.2417C18.1242 55.2417 17.2288 55.0288 16.2313 54.5242L9.2925 50.47C9.05042 50.3475 8.89583 50.0675 8.89583 49.7875V20.1892C8.89583 19.9033 9.05042 19.6233 9.2925 19.4833L34.5858 4.67542H35V0H34.9913Z" fill="#7AA736"/>
<path d="M42.7986 45.1217C36.0932 45.1217 34.6261 43.4096 34.1361 40.0351C34.0807 39.6734 33.7774 39.4109 33.4099 39.4109H30.1345C29.7203 39.4109 29.4082 39.7405 29.4082 40.1459C29.4082 44.4684 31.727 49.6192 42.8161 49.6192C50.8195 49.6017 55.4307 46.3963 55.4307 40.8109L55.422 40.8138C55.422 35.2721 51.7207 33.8021 43.9449 32.7551C36.0757 31.7021 35.2824 31.1596 35.2824 29.2959C35.2824 27.7559 35.9561 25.6996 41.7836 25.6996C46.9782 25.6996 48.9003 26.8401 49.6936 30.3926C49.7607 30.728 50.067 30.9759 50.4082 30.9759H53.6982L54.2349 30.7396L54.4245 30.1709C53.9199 24.0459 49.9007 21.1992 41.7865 21.1992C34.5649 21.1992 30.257 24.2851 30.257 29.4651C30.257 35.0767 34.5474 36.6313 41.4715 37.3226C49.7665 38.1451 50.4082 39.3817 50.4082 41.0355C50.4082 43.8996 48.1332 45.1217 42.7986 45.1217Z" fill="#8CC03E"/>
<path d="M33.4099 39.4119H30.1345C29.7203 39.4119 29.4082 39.7415 29.4082 40.1469C29.4082 44.4169 31.6715 49.4977 42.4195 49.6173V45.1198C36.0378 45.0556 34.6174 43.3435 34.1361 40.0331C34.0807 39.6715 33.7774 39.4119 33.4099 39.4119ZM41.7865 21.2031C34.5649 21.2031 30.257 24.289 30.257 29.469C30.257 35.0806 34.5474 36.6352 41.4715 37.3265C41.7982 37.3585 42.1161 37.3906 42.4195 37.4256V32.546C35.9707 31.6215 35.2853 31.0323 35.2853 29.2998C35.2853 27.7598 35.959 25.7035 41.7865 25.7035C42.0053 25.7035 42.2153 25.7065 42.4224 25.7094V21.209C42.2124 21.2031 41.9995 21.2031 41.7865 21.2031Z" fill="#7AA736"/>
</svg>
