<svg width="70" height="70" viewBox="0 0 70 70" fill="none" xmlns="http://www.w3.org/2000/svg">
<g clip-path="url(#clip0_2824_5087)">
<path d="M27.4546 61.329C25.6608 62.3673 25.3196 62.4957 23.6308 63.0907C23.2225 63.2307 22.6042 63.4786 23.8671 64.2019L32.3225 69.2711C33.1275 69.7465 34.0638 69.9944 34.9796 69.9944L34.9854 70.0003C35.9188 70.0003 36.8346 69.7494 37.6454 69.2769L62.9679 54.4719C64.61 53.4978 65.625 51.7069 65.625 49.7878V20.1894C65.625 18.2586 64.6129 16.4678 62.9679 15.5111L37.6454 0.688594C36.0529 -0.224323 33.9296 -0.224323 32.3254 0.688594L7.03208 15.4965C5.39 16.4561 4.375 18.2586 4.375 20.1748V49.7761C4.375 51.7069 5.38708 53.4978 7.03208 54.4544L13.6675 58.3307C16.8787 59.9407 18.0279 59.9407 19.4921 59.9407C24.2492 59.9407 26.9908 57.024 26.9908 51.9403V22.7065C26.9908 22.2894 26.6496 21.9715 26.25 21.9715H23.0446C22.6304 21.9715 22.3038 22.2894 22.3038 22.7065V51.9257C22.3038 54.189 19.9996 56.4261 16.2313 54.5244L9.2925 50.4703C9.05042 50.3478 8.89583 50.0678 8.89583 49.7878V20.1894C8.89583 19.9036 9.05042 19.6236 9.2925 19.4836L34.5858 4.67568H35.3646L60.6725 19.469C60.9175 19.6207 61.0692 19.8832 61.0692 20.1748V49.7878C61.0692 50.0648 60.9204 50.3419 60.6871 50.479L35.3646 65.2869H34.5858L28.0875 61.3873L27.4546 61.329Z" fill="#8CC03E"/>
<path d="M27.4546 61.3288C25.6608 62.3671 25.3196 62.4954 23.6308 63.0904C23.2225 63.2304 22.6042 63.4783 23.8671 64.2017L32.3225 69.2708C33.1275 69.7463 34.0638 69.9942 34.9796 69.9942L34.9854 70C34.9913 70 34.9942 70 35 70V65.2896H34.5858L28.0875 61.3871L27.4546 61.3288ZM34.9913 0C34.0608 0 33.1275 0.2275 32.3254 0.685417L7.03208 15.4963C5.39 16.4558 4.375 18.2583 4.375 20.1746V49.7758C4.375 51.7067 5.38708 53.4975 7.03208 54.4542L13.6675 58.3304C16.8787 59.9404 18.0279 59.9404 19.4921 59.9404C24.2492 59.9404 26.9908 57.0238 26.9908 51.94V22.7063C26.9908 22.2892 26.6496 21.9713 26.25 21.9713H23.0446C22.6304 21.9713 22.3038 22.2892 22.3038 22.7063V51.9254C22.3038 53.5908 21.0583 55.2417 18.9 55.2417C18.1242 55.2417 17.2288 55.0288 16.2313 54.5242L9.2925 50.47C9.05042 50.3475 8.89583 50.0675 8.89583 49.7875V20.1892C8.89583 19.9033 9.05042 19.6233 9.2925 19.4833L34.5858 4.67542H35V0H34.9913Z" fill="#7AA736"/>
<path d="M42.7996 45.1217C36.0942 45.1217 34.6271 43.4096 34.1371 40.0351C34.0817 39.6734 33.7783 39.4109 33.4108 39.4109H30.1354C29.7213 39.4109 29.4092 39.7405 29.4092 40.1459C29.4092 44.4684 31.7279 49.6192 42.8171 49.6192C50.8204 49.6017 55.4317 46.3963 55.4317 40.8109L55.4229 40.8138C55.4229 35.2721 51.7217 33.8021 43.9458 32.7551C36.0767 31.7021 35.2833 31.1596 35.2833 29.2959C35.2833 27.7559 35.9571 25.6996 41.7846 25.6996C46.9792 25.6996 48.9013 26.8401 49.6946 30.3926C49.7617 30.728 50.0679 30.9759 50.4092 30.9759H53.6992L54.2358 30.7396L54.4254 30.1709C53.9208 24.0459 49.9017 21.1992 41.7875 21.1992C34.5658 21.1992 30.2579 24.2851 30.2579 29.4651C30.2579 35.0767 34.5483 36.6313 41.4725 37.3226C49.7675 38.1451 50.4092 39.3817 50.4092 41.0355C50.4092 43.8996 48.1342 45.1217 42.7996 45.1217Z" fill="#8CC03E"/>
<path d="M33.4108 39.4099H30.1354C29.7213 39.4099 29.4092 39.7395 29.4092 40.1449C29.4092 44.4149 31.6725 49.4958 42.4204 49.6153V45.1178C36.0388 45.0537 34.6183 43.3416 34.1371 40.0312C34.0817 39.6695 33.7783 39.4099 33.4108 39.4099ZM41.7875 21.2012C34.5658 21.2012 30.2579 24.287 30.2579 29.467C30.2579 35.0787 34.5483 36.6333 41.4725 37.3245C41.7992 37.3566 42.1171 37.3887 42.4204 37.4237V32.5441C35.9717 31.6195 35.2863 31.0303 35.2863 29.2978C35.2863 27.7578 35.96 25.7016 41.7875 25.7016C42.0063 25.7016 42.2163 25.7045 42.4233 25.7074V21.207C42.2133 21.2012 42.0004 21.2012 41.7875 21.2012Z" fill="#7AA736"/>
</g>
<defs>
<clipPath id="clip0_2824_5087">
<rect width="70" height="70" fill="white"/>
</clipPath>
</defs>
</svg>
