<svg width="70" height="70" viewBox="0 0 70 70" fill="none" xmlns="http://www.w3.org/2000/svg">
<g clip-path="url(#clip0_2824_5092)">
<path d="M34.7007 0.0195312C16.9749 0.0195312 18.0817 7.73737 18.0817 7.73737L18.1013 15.7333H35.0168V18.1339H11.3828C11.3828 18.1339 0.0400391 16.8423 0.0400391 34.7994C0.0400391 52.757 9.94028 52.1201 9.94028 52.1201H15.8487V43.7871C15.8487 43.7871 15.5302 33.8471 25.5909 33.8471H42.368C42.368 33.8471 51.7939 34 51.7939 24.7007V9.32487C51.7939 9.32487 53.2255 0.0195312 34.7007 0.0195312ZM25.3736 5.39663C25.7733 5.39627 26.1691 5.47505 26.5385 5.62846C26.9079 5.78188 27.2435 6.00692 27.5261 6.2907C27.8088 6.57448 28.0329 6.91144 28.1857 7.28229C28.3385 7.65313 28.417 8.0506 28.4166 8.45192C28.417 8.85325 28.3385 9.25071 28.1857 9.62156C28.0329 9.99241 27.8088 10.3294 27.5261 10.6131C27.2435 10.8969 26.9079 11.122 26.5385 11.2754C26.1691 11.4288 25.7733 11.5076 25.3736 11.5072C24.9738 11.5076 24.578 11.4288 24.2086 11.2754C23.8392 11.122 23.5036 10.8969 23.221 10.6131C22.9383 10.3294 22.7142 9.99241 22.5614 9.62156C22.4086 9.25071 22.3301 8.85325 22.3305 8.45192C22.3301 8.0506 22.4086 7.65313 22.5614 7.28229C22.7142 6.91144 22.9383 6.57448 23.221 6.2907C23.5036 6.00692 23.8392 5.78188 24.2086 5.62846C24.578 5.47505 24.9738 5.39627 25.3736 5.39663Z" fill="url(#paint0_linear_2824_5092)"/>
<path d="M35.204 69.7596C52.9299 69.7596 51.8231 62.0418 51.8231 62.0418L51.8034 54.0461H34.8877V51.6456H58.5217C58.5217 51.6456 69.8644 52.9371 69.8644 34.9795C69.8644 17.0222 59.9642 17.659 59.9642 17.659H54.0558V25.9918C54.0558 25.9918 54.3743 35.9318 44.3136 35.9318H27.5365C27.5365 35.9318 18.1106 35.7789 18.1106 45.0785V60.4546C18.1106 60.4546 16.6793 69.7596 35.2038 69.7596H35.204ZM44.5312 64.3831C44.1315 64.3834 43.7356 64.3047 43.3662 64.1512C42.9969 63.9978 42.6613 63.7728 42.3786 63.489C42.096 63.2052 41.8718 62.8683 41.719 62.4974C41.5662 62.1266 41.4878 61.7291 41.4881 61.3278C41.4877 60.9264 41.5662 60.5289 41.719 60.1581C41.8717 59.7872 42.0959 59.4502 42.3785 59.1664C42.6612 58.8826 42.9968 58.6575 43.3662 58.5041C43.7356 58.3507 44.1315 58.2719 44.5312 58.2722C44.9309 58.2719 45.3268 58.3506 45.6962 58.5041C46.0655 58.6575 46.4011 58.8825 46.6838 59.1663C46.9664 59.4501 47.1906 59.787 47.3434 60.1579C47.4962 60.5287 47.5746 60.9262 47.5743 61.3275C47.5746 61.7288 47.4962 62.1263 47.3434 62.4971C47.1906 62.868 46.9664 63.205 46.6838 63.4887C46.4011 63.7725 46.0655 63.9976 45.6962 64.151C45.3268 64.3044 44.9309 64.3834 44.5312 64.3831Z" fill="url(#paint1_linear_2824_5092)"/>
</g>
<defs>
<linearGradient id="paint0_linear_2824_5092" x1="671.051" y1="627.292" x2="4145.07" y2="4052.89" gradientUnits="userSpaceOnUse">
<stop stop-color="#387EB8"/>
<stop offset="1" stop-color="#366994"/>
</linearGradient>
<linearGradient id="paint1_linear_2824_5092" x1="1008.52" y1="1089.89" x2="4738.53" y2="4601.88" gradientUnits="userSpaceOnUse">
<stop stop-color="#FFE052"/>
<stop offset="1" stop-color="#FFC331"/>
</linearGradient>
<clipPath id="clip0_2824_5092">
<rect width="70" height="70" fill="white"/>
</clipPath>
</defs>
</svg>
