<svg width="70" height="70" viewBox="0 0 70 70" fill="none" xmlns="http://www.w3.org/2000/svg">
<g clip-path="url(#clip0_2697_5130)">
<path d="M34.7007 0.0195312C16.9749 0.0195312 18.0817 7.7065 18.0817 7.7065L18.1013 15.6704H35.0168V18.0614H11.3828C11.3828 18.0614 0.0400391 16.775 0.0400391 34.6603C0.0400391 52.546 9.94028 51.9117 9.94028 51.9117H15.8487V43.612C15.8487 43.612 15.5302 33.7118 25.5909 33.7118H42.368C42.368 33.7118 51.7939 33.8641 51.7939 24.602V9.28764C51.7939 9.28764 53.2255 0.0195312 34.7007 0.0195312ZM25.3736 5.37512C25.7733 5.37476 26.1691 5.45323 26.5385 5.60603C26.9079 5.75883 27.2435 5.98297 27.5261 6.26561C27.8088 6.54826 28.0329 6.88387 28.1857 7.25323C28.3385 7.6226 28.417 8.01847 28.4166 8.41819C28.417 8.81792 28.3385 9.21379 28.1857 9.58315C28.0329 9.95252 27.8088 10.2881 27.5261 10.5708C27.2435 10.8534 26.9079 11.0776 26.5385 11.2304C26.1691 11.3832 25.7733 11.4616 25.3736 11.4613C24.9738 11.4616 24.578 11.3832 24.2086 11.2304C23.8392 11.0776 23.5036 10.8534 23.221 10.5708C22.9383 10.2881 22.7142 9.95252 22.5614 9.58315C22.4086 9.21379 22.3301 8.81792 22.3305 8.41819C22.3301 8.01847 22.4086 7.6226 22.5614 7.25323C22.7142 6.88387 22.9383 6.54826 23.221 6.26561C23.5036 5.98297 23.8392 5.75883 24.2086 5.60603C24.578 5.45323 24.9738 5.37476 25.3736 5.37512Z" fill="url(#paint0_linear_2697_5130)"/>
<path d="M35.204 69.4809C52.9299 69.4809 51.8231 61.7939 51.8231 61.7939L51.8034 53.8303H34.8877V51.4393H58.5217C58.5217 51.4393 69.8644 52.7257 69.8644 34.8399C69.8644 16.9544 59.9642 17.5887 59.9642 17.5887H54.0558V25.8881C54.0558 25.8881 54.3743 35.7884 44.3136 35.7884H27.5365C27.5365 35.7884 18.1106 35.6361 18.1106 44.8985V60.2131C18.1106 60.2131 16.6793 69.4809 35.2038 69.4809H35.204ZM44.5312 64.1259C44.1315 64.1262 43.7356 64.0478 43.3662 63.895C42.9969 63.7422 42.6613 63.518 42.3786 63.2354C42.096 62.9527 41.8718 62.6171 41.719 62.2477C41.5662 61.8784 41.4878 61.4825 41.4881 61.0828C41.4877 60.683 41.5662 60.2871 41.719 59.9177C41.8717 59.5483 42.0959 59.2127 42.3785 58.93C42.6612 58.6474 42.9968 58.4232 43.3662 58.2704C43.7356 58.1176 44.1315 58.0391 44.5312 58.0394C44.9309 58.0391 45.3268 58.1175 45.6962 58.2704C46.0655 58.4232 46.4011 58.6473 46.6838 58.9299C46.9664 59.2126 47.1906 59.5482 47.3434 59.9176C47.4962 60.2869 47.5746 60.6828 47.5743 61.0825C47.5746 61.4822 47.4962 61.8781 47.3434 62.2475C47.1906 62.6168 46.9664 62.9524 46.6838 63.2351C46.4011 63.5177 46.0655 63.7419 45.6962 63.8947C45.3268 64.0475 44.9309 64.1262 44.5312 64.1259Z" fill="url(#paint1_linear_2697_5130)"/>
</g>
<defs>
<linearGradient id="paint0_linear_2697_5130" x1="671.051" y1="624.783" x2="4131.34" y2="4050.55" gradientUnits="userSpaceOnUse">
<stop stop-color="#387EB8"/>
<stop offset="1" stop-color="#366994"/>
</linearGradient>
<linearGradient id="paint1_linear_2697_5130" x1="1008.52" y1="1085.53" x2="4724.47" y2="4598.34" gradientUnits="userSpaceOnUse">
<stop stop-color="#FFE052"/>
<stop offset="1" stop-color="#FFC331"/>
</linearGradient>
<clipPath id="clip0_2697_5130">
<rect width="70" height="69.72" fill="white"/>
</clipPath>
</defs>
</svg>
