<svg width="70" height="70" viewBox="0 0 70 70" fill="none" xmlns="http://www.w3.org/2000/svg">
<path d="M35.0004 28.7344C31.5412 28.7344 28.7383 31.5373 28.7383 34.9965C28.7383 38.4556 31.5412 41.2585 35.0004 41.2585C38.4595 41.2585 41.2624 38.4556 41.2624 34.9965C41.2624 31.5373 38.4595 28.7344 35.0004 28.7344Z" fill="#53C1DE"/>
<path d="M35 50.0008C18.0338 50.0008 0 44.7421 0 35.0004C0 25.2588 18.0338 20 35 20C51.9663 20 70 25.2588 70 35.0004C70 44.7421 51.9663 50.0008 35 50.0008ZM35 24.375C17.4708 24.375 4.375 29.9838 4.375 35.0004C4.375 40.0171 17.4708 45.6258 35 45.6258C52.5292 45.6258 65.625 40.0171 65.625 35.0004C65.625 29.9838 52.5292 24.375 35 24.375Z" fill="black"/>
<path d="M22.6748 67.0784C21.1552 67.0784 19.7639 66.7051 18.571 65.9613C10.2935 60.8221 14.9777 42.1088 23.5848 27.1142C30.8414 14.4675 40.2564 5.10505 47.5685 3.26172C50.1148 2.61713 52.4364 2.88838 54.2856 4.04047C62.5631 9.17963 57.8789 27.893 49.2718 42.8876C42.0181 55.5342 32.6031 64.8938 25.2881 66.7401C24.3839 66.9676 23.5089 67.0784 22.6748 67.0784ZM50.1848 7.29255C49.7123 7.29255 49.196 7.36255 48.636 7.50547C43.5406 8.7888 34.9889 16.0221 27.3764 29.29C18.4193 44.9001 16.5585 59.5651 20.8752 62.2484C21.7035 62.7646 22.8264 62.8492 24.2148 62.4963C29.3131 61.213 37.8618 53.9767 45.4743 40.7117C54.4343 25.1017 56.2952 10.4367 51.9756 7.75338C51.4798 7.44713 50.8818 7.29255 50.1848 7.29255Z" fill="black"/>
<path d="M47.3256 67.0784C46.4915 67.0784 45.6165 66.9676 44.7123 66.7401C37.3973 64.8938 27.9823 55.5342 20.7286 42.8876C12.1215 27.8901 7.4373 9.17672 15.7177 4.04047C17.5611 2.88838 19.8856 2.61713 22.4319 3.26172C29.744 5.10505 39.159 14.4675 46.4156 27.1142C55.0227 42.1117 59.7069 60.8251 51.4294 65.9613C50.2365 66.7051 48.8481 67.0784 47.3256 67.0784ZM19.8156 7.29255C19.1186 7.29255 18.5206 7.44713 18.0248 7.75338C13.7023 10.4367 15.5631 25.1017 24.5231 40.7117C32.1356 53.9767 40.6873 61.2101 45.7827 62.4963C47.174 62.8492 48.2911 62.7646 49.1223 62.2484C53.4419 59.5651 51.5811 44.9001 42.6211 29.29C35.0086 16.0221 26.4569 8.79172 21.3615 7.50547C20.8044 7.36255 20.2881 7.29255 19.8156 7.29255Z" fill="black"/>
<path d="M35.0007 42.2923C30.9815 42.2923 27.709 39.0227 27.709 35.0007C27.709 30.9786 30.9815 27.709 35.0007 27.709C39.0198 27.709 42.2923 30.9786 42.2923 35.0007C42.2923 39.0227 39.0198 42.2923 35.0007 42.2923ZM35.0007 32.084C33.3936 32.084 32.084 33.3907 32.084 35.0007C32.084 36.6107 33.3936 37.9173 35.0007 37.9173C36.6077 37.9173 37.9173 36.6107 37.9173 35.0007C37.9173 33.3907 36.6077 32.084 35.0007 32.084Z" fill="black"/>
</svg>
