<svg width="70" height="70" viewBox="0 0 70 70" fill="none" xmlns="http://www.w3.org/2000/svg">
<path d="M35.0004 28.7344C31.5412 28.7344 28.7383 31.5373 28.7383 34.9965C28.7383 38.4556 31.5412 41.2585 35.0004 41.2585C38.4595 41.2585 41.2624 38.4556 41.2624 34.9965C41.2624 31.5373 38.4595 28.7344 35.0004 28.7344Z" fill="#53C1DE"/>
<path d="M35 50.0008C18.0338 50.0008 0 44.7421 0 35.0004C0 25.2588 18.0338 20 35 20C51.9663 20 70 25.2588 70 35.0004C70 44.7421 51.9663 50.0008 35 50.0008ZM35 24.375C17.4708 24.375 4.375 29.9838 4.375 35.0004C4.375 40.0171 17.4708 45.6258 35 45.6258C52.5292 45.6258 65.625 40.0171 65.625 35.0004C65.625 29.9838 52.5292 24.375 35 24.375Z" fill="black"/>
<path d="M22.6748 67.0764C21.1552 67.0764 19.7639 66.7031 18.571 65.9593C10.2935 60.8202 14.9777 42.1068 23.5848 27.1123C30.8414 14.4656 40.2564 5.1031 47.5685 3.25976C50.1148 2.61518 52.4364 2.88643 54.2856 4.03851C62.5631 9.17768 57.8789 27.891 49.2718 42.8856C42.0181 55.5323 32.6031 64.8919 25.2881 66.7381C24.3839 66.9656 23.5089 67.0764 22.6748 67.0764ZM50.1848 7.2906C49.7123 7.2906 49.196 7.3606 48.636 7.50351C43.5406 8.78685 34.9889 16.0202 27.3764 29.2881C18.4193 44.8981 16.5585 59.5631 20.8752 62.2464C21.7035 62.7627 22.8264 62.8473 24.2148 62.4944C29.3131 61.211 37.8618 53.9748 45.4743 40.7098C54.4343 25.0998 56.2952 10.4348 51.9756 7.75143C51.4798 7.44518 50.8818 7.2906 50.1848 7.2906Z" fill="black"/>
<path d="M47.3256 67.0764C46.4915 67.0764 45.6165 66.9656 44.7123 66.7381C37.3973 64.8919 27.9823 55.5323 20.7286 42.8856C12.1215 27.8881 7.4373 9.17476 15.7177 4.03851C17.5611 2.88643 19.8856 2.61518 22.4319 3.25976C29.744 5.1031 39.159 14.4656 46.4156 27.1123C55.0227 42.1098 59.7069 60.8231 51.4294 65.9593C50.2365 66.7031 48.8481 67.0764 47.3256 67.0764ZM19.8156 7.2906C19.1186 7.2906 18.5206 7.44518 18.0248 7.75143C13.7023 10.4348 15.5631 25.0998 24.5231 40.7098C32.1356 53.9748 40.6873 61.2081 45.7827 62.4944C47.174 62.8473 48.2911 62.7627 49.1223 62.2464C53.4419 59.5631 51.5811 44.8981 42.6211 29.2881C35.0086 16.0202 26.4569 8.78976 21.3615 7.50351C20.8044 7.3606 20.2881 7.2906 19.8156 7.2906Z" fill="black"/>
<path d="M35.0007 42.2904C30.9815 42.2904 27.709 39.0208 27.709 34.9987C27.709 30.9766 30.9815 27.707 35.0007 27.707C39.0198 27.707 42.2923 30.9766 42.2923 34.9987C42.2923 39.0208 39.0198 42.2904 35.0007 42.2904ZM35.0007 32.082C33.3936 32.082 32.084 33.3887 32.084 34.9987C32.084 36.6087 33.3936 37.9154 35.0007 37.9154C36.6077 37.9154 37.9173 36.6087 37.9173 34.9987C37.9173 33.3887 36.6077 32.082 35.0007 32.082Z" fill="black"/>
</svg>
