<svg width="70" height="70" viewBox="0 0 70 70" fill="none" xmlns="http://www.w3.org/2000/svg">
<g clip-path="url(#clip0_2824_5067)">
<path d="M0 35V70H70V0H0V35Z" fill="#1677C7"/>
<path d="M35 0H0V70H35V0Z" fill="#1368AD"/>
<path d="M42.4746 57.2431C42.7896 57.0623 43.965 56.3856 45.0762 55.741L47.0887 54.5743L47.5116 55.1985C48.1037 56.0968 49.3871 57.3306 50.1658 57.7448C52.4 58.9231 55.4654 58.7598 56.9762 57.4006C57.5391 56.9223 57.8921 56.2164 57.8921 55.4318L57.8891 55.2948V55.3006C57.8891 54.4898 57.7871 54.1339 57.3641 53.5243C56.8216 52.7456 55.7104 52.0952 52.5546 50.7214C48.9466 49.1668 47.3891 48.2043 45.9687 46.6702C45.1112 45.696 44.4491 44.5206 44.0641 43.2343L44.0466 43.1702C43.7812 42.1814 43.7141 39.6993 43.9241 38.7048C44.6679 35.2164 47.3016 32.7868 51.1021 32.0635C52.3358 31.8302 55.2029 31.9148 56.4133 32.2181V32.221C58.1925 32.6673 59.5458 33.4548 60.7912 34.7439C61.4358 35.4293 62.3925 36.6864 62.4683 36.9868C62.4916 37.0773 59.4466 39.116 57.6033 40.2623C57.5362 40.3031 57.2679 40.0173 56.9704 39.5739C56.0662 38.2614 55.1241 37.6956 53.6804 37.5935C51.5571 37.4477 50.1921 38.5589 50.2008 40.4168L50.1979 40.5248C50.1979 40.9623 50.3087 41.3793 50.5041 41.7381L50.4983 41.7264C50.9679 42.6918 51.8341 43.2723 54.5554 44.4477C59.5691 46.6031 61.7129 48.0235 63.0458 50.0477C64.5333 52.3023 64.8687 55.9043 63.8566 58.5818C62.7483 61.4927 59.9921 63.4702 56.1129 64.1206C54.9141 64.3335 52.0675 64.3014 50.7812 64.071C47.9696 63.5693 45.3037 62.1781 43.6587 60.3552C43.0141 59.6493 41.7571 57.7914 41.8358 57.6602C41.865 57.6077 42.1537 57.4268 42.4746 57.2431ZM15.3379 35.1873C15.3379 33.6327 15.3671 32.3318 15.4137 32.3027C15.4458 32.2531 20.9933 32.2298 27.7133 32.2414L39.9487 32.2735L39.9808 35.1318L40.0041 37.9989H30.8896V63.8873H24.4408V37.9989H15.3379V35.1873Z" fill="white"/>
<path d="M61.2703 48.0898H47.559C48.7024 48.9298 50.1869 49.694 52.5553 50.7148C55.714 52.0886 56.8224 52.7419 57.3649 53.5178C57.7878 54.1273 57.8899 54.4832 57.8899 55.294V55.2882L57.8928 55.4253C57.8928 56.2128 57.5399 56.9157 56.9769 57.394C56.1457 58.1407 54.8449 58.5257 53.4711 58.5257C52.3453 58.5257 51.1728 58.269 50.1665 57.7382C49.3878 57.3269 48.1015 56.0932 47.5124 55.1919L47.0894 54.5678L45.0769 55.7344C43.9657 56.379 42.7903 57.0557 42.4753 57.2365C42.1544 57.4203 41.8657 57.6011 41.8336 57.6478C41.7549 57.779 43.0119 59.6369 43.6565 60.3428C45.3015 62.1657 47.9674 63.5569 50.779 64.0586C51.4819 64.184 52.6486 64.2511 53.7569 64.2511C54.6815 64.2511 55.5653 64.2044 56.1107 64.1082C59.9899 63.4578 62.7461 61.4803 63.8544 58.5694C64.8665 55.8919 64.5311 52.2898 63.0436 50.0353C62.5799 49.3382 62.0169 48.7053 61.2703 48.0898Z" fill="#DEDEDE"/>
<path d="M30.8902 48.0898H24.4414V63.8894H30.8902V48.0898Z" fill="#DEDEDE"/>
</g>
<defs>
<clipPath id="clip0_2824_5067">
<rect width="70" height="70" fill="white"/>
</clipPath>
</defs>
</svg>
