<svg width="340" height="149" viewBox="0 0 340 149" fill="none" xmlns="http://www.w3.org/2000/svg">
<g clip-path="url(#clip0_919_8947)">
<path d="M87.0374 66.2323C81.4911 66.2323 76.5303 65.1561 72.1548 63.0037C67.7794 60.8514 64.359 57.8687 61.8941 54.0559C59.4908 50.1816 58.2891 45.7846 58.2891 40.8648V25.183C58.2891 20.2633 59.4598 15.897 61.8017 12.0842C64.2051 8.27135 67.5329 5.3195 71.7851 3.2286C76.0989 1.0762 80.9982 0 86.4828 0C91.9676 0 96.8668 0.83021 101.181 2.49063C105.494 4.08955 108.822 6.36494 111.164 9.31681C113.567 12.2687 114.769 15.6202 114.769 19.3716C114.769 21.8314 113.968 23.7686 112.366 25.183C110.763 26.536 108.576 27.2124 105.803 27.2124C104.2 27.2124 102.629 26.9972 101.088 26.5667C101.273 25.2752 101.365 23.7072 101.365 21.8622C101.365 18.9104 99.979 16.512 97.2057 14.6671C94.4325 12.7606 90.8584 11.8074 86.4828 11.8074C82.1691 11.8074 78.6563 13.0681 75.9448 15.5895C73.2332 18.0495 71.8775 21.2472 71.8775 25.183V40.8648C71.8775 44.8621 73.264 48.1214 76.0372 50.6428C78.872 53.1643 82.5388 54.4249 87.0374 54.4249C91.413 54.4249 94.9564 53.5025 97.6679 51.6576C100.441 49.8127 101.828 47.4143 101.828 44.4623C101.828 42.433 101.735 40.9571 101.55 40.0345C103.214 39.6656 104.724 39.4811 106.08 39.4811C108.853 39.4811 111.072 40.1884 112.735 41.6028C114.399 43.0172 115.231 44.9544 115.231 47.4143C115.231 51.0426 114.03 54.3019 111.626 57.1923C109.284 60.0212 105.957 62.235 101.643 63.8339C97.3907 65.4329 92.5222 66.2323 87.0374 66.2323ZM141.128 66.2323C137.061 66.2323 133.363 65.4943 130.036 64.0185C126.708 62.5425 124.089 60.513 122.178 57.9303C120.268 55.2858 119.313 52.3033 119.313 48.9824V36.7138C119.313 33.3315 120.237 30.2565 122.086 27.4892C123.935 24.6604 126.523 22.4464 129.851 20.8474C133.179 19.2486 136.938 18.4491 141.128 18.4491C145.319 18.4491 149.078 19.2486 152.406 20.8474C155.734 22.4464 158.322 24.6604 160.171 27.4892C162.019 30.2565 162.944 33.3315 162.944 36.7138V48.9824C162.944 52.3033 161.989 55.2858 160.078 57.9303C158.168 60.513 155.549 62.5425 152.221 64.0185C148.893 65.4943 145.196 66.2323 141.128 66.2323ZM141.128 55.3474C144.025 55.3474 146.274 54.7017 147.876 53.4102C149.479 52.1188 150.28 50.3354 150.28 48.06V37.3595C150.28 34.9611 149.448 33.024 147.784 31.548C146.182 30.0722 143.963 29.3342 141.128 29.3342C138.294 29.3342 136.044 30.0722 134.38 31.548C132.778 33.024 131.977 34.9611 131.977 37.3595V48.06C131.977 50.3354 132.778 52.1188 134.38 53.4102C135.982 54.7017 138.232 55.3474 141.128 55.3474ZM185.926 66.2323C182.659 66.2323 179.701 65.5252 177.051 64.1108C174.401 62.6348 172.306 60.6362 170.765 58.1147C169.225 55.5318 168.454 52.6415 168.454 49.4436V35.2378C168.454 32.04 169.255 29.1803 170.858 26.659C172.521 24.0761 174.802 22.0775 177.698 20.6631C180.594 19.1871 183.8 18.4491 187.311 18.4491C189.407 18.4491 191.656 18.8796 194.059 19.7405C196.525 20.6015 198.558 21.8007 200.161 23.3381L200.53 22.8769C200.222 22.385 199.544 21.77 198.497 21.032V8.3021C198.497 5.71923 199.544 3.68983 201.64 2.21389C203.797 0.737967 207.033 0 211.347 0V57.838C211.347 60.2364 210.392 62.235 208.481 63.8339C206.571 65.4329 203.642 66.2323 199.699 66.2323V61.251C200.438 60.3287 201.023 59.4984 201.454 58.7604L200.992 58.3915C199.02 61.0358 196.894 63.0037 194.615 64.2951C192.397 65.5866 189.499 66.2323 185.926 66.2323ZM189.9 55.3474C192.488 55.3474 194.584 54.7631 196.185 53.5948C197.849 52.3647 198.682 50.8273 198.682 48.9824V35.699C198.682 33.9156 197.849 32.4089 196.185 31.1791C194.584 29.949 192.488 29.3342 189.9 29.3342C187.065 29.3342 184.877 29.9183 183.337 31.0868C181.859 32.2553 181.119 33.9156 181.119 36.0681V48.5212C181.119 50.735 181.859 52.4263 183.337 53.5948C184.877 54.7631 187.065 55.3474 189.9 55.3474ZM242.251 66.2323C238.43 66.2323 234.888 65.4636 231.621 63.9262C228.417 62.3888 225.859 60.298 223.948 57.6535C222.038 55.0092 221.083 52.0572 221.083 48.7979V36.9904C221.083 33.5467 222.038 30.4104 223.948 27.5815C225.92 24.6911 228.539 22.4464 231.806 20.8474C235.071 19.2486 238.585 18.4491 242.344 18.4491C246.041 18.4491 249.43 19.2178 252.512 20.7553C255.655 22.2312 258.119 24.3529 259.907 27.1202C261.694 29.826 262.588 32.901 262.588 36.3447V41.326C262.588 42.802 262.034 44.0627 260.924 45.108C259.814 46.092 258.398 46.584 256.671 46.584H233.377V47.8755C233.377 50.3354 234.116 52.3647 235.597 53.9637C237.136 55.5011 239.385 56.2698 242.344 56.2698C245.241 56.2698 247.367 55.6549 248.722 54.4249C250.078 53.1334 250.756 51.5346 250.756 49.6281C251.989 49.5052 252.913 49.4436 253.528 49.4436C256.056 49.4436 257.997 49.9663 259.353 51.0119C260.708 52.0572 261.386 53.5948 261.386 55.624C261.386 57.2846 260.555 58.9449 258.891 60.6053C257.227 62.2658 254.915 63.6187 251.958 64.6642C249.062 65.7095 245.825 66.2323 242.251 66.2323ZM251.125 37.6361V36.3447C251.125 33.8849 250.294 31.9478 248.63 30.5333C247.027 29.0573 244.901 28.3193 242.251 28.3193C239.601 28.3193 237.444 29.0573 235.78 30.5333C234.179 31.9478 233.377 33.8849 233.377 36.3447V37.6361H251.125Z" fill="#252A38"/>
<path d="M1.79883 73.6318C1.79883 71.8485 2.44591 70.3725 3.74005 69.204C5.09582 68.0355 6.7289 67.4514 8.6393 67.4514H32.9507C39.8527 67.4514 45.1526 69.2347 48.8502 72.8015C52.6094 76.307 54.4889 81.319 54.4889 87.8376C54.4889 91.466 53.7494 94.5101 52.2705 96.9699C50.8531 99.4298 48.6345 101.367 45.6149 102.781V103.15C50.9763 105.549 53.6571 110.069 53.6571 116.711V123.075C53.6571 126.273 52.4862 128.702 50.1443 130.363C47.8642 132.023 44.5055 132.853 40.0684 132.853V117.172C40.0684 114.097 39.4523 111.852 38.2197 110.438C37.0489 108.962 35.2309 108.224 32.7658 108.224H15.2025V123.075C15.2025 126.273 14.0624 128.702 11.7822 130.363C9.50206 132.023 6.17427 132.853 1.79883 132.853V73.6318ZM32.2112 96.6932C35.046 96.6932 37.2029 95.9245 38.682 94.3872C40.1609 92.8496 40.9005 90.6358 40.9005 87.7453C40.9005 84.732 40.1918 82.5181 38.7745 81.1037C37.4186 79.6893 35.2309 78.982 32.2112 78.982H15.2025V96.6932H32.2112ZM76.7235 132.853C73.7038 132.853 70.869 132.269 68.2192 131.101C65.6309 129.871 63.5355 128.118 61.9333 125.843C60.331 123.506 59.5299 120.708 59.5299 117.448C59.5299 114.189 60.3927 111.391 62.1181 109.054C63.8436 106.656 66.1238 104.842 68.9585 103.612C71.855 102.382 74.9979 101.767 78.3873 101.767C81.2221 101.767 83.718 102.197 85.8749 103.058C88.0935 103.919 90.158 105.18 92.0683 106.84L92.5306 106.287C91.2365 105.118 90.2195 104.288 89.48 103.796V102.597C89.48 100.26 88.6172 98.4152 86.8918 97.0622C85.2278 95.6477 82.8552 94.9406 79.774 94.9406C77.0624 94.9406 74.659 95.4325 72.5638 96.4164C70.4684 97.4004 68.7738 98.8457 67.4796 100.752C66.0005 100.383 64.7373 99.7066 63.6896 98.7227C62.7036 97.6772 62.2105 96.5394 62.2105 95.3095C62.2105 93.403 63.0425 91.6813 64.7064 90.1437C66.3704 88.5449 68.6196 87.3149 71.4544 86.4539C74.3509 85.5315 77.5246 85.0703 80.9757 85.0703C87.6929 85.0703 92.8695 86.6077 96.5054 89.6825C100.141 92.7573 101.959 96.9392 101.959 102.228V124.644C101.959 127.534 101.004 129.625 99.0937 130.916C97.2449 132.208 94.2869 132.853 90.2195 132.853V129.256C91.144 128.395 91.8835 127.626 92.4382 126.95L91.9758 126.489C89.9423 128.579 87.8161 130.178 85.5977 131.285C83.379 132.331 80.421 132.853 76.7235 132.853ZM80.2361 123.813C83.1943 123.813 85.5052 123.26 87.1691 122.153C88.8329 121.046 89.6649 119.447 89.6649 117.356C89.6649 115.327 88.8021 113.728 87.0766 112.559C85.4127 111.391 83.1326 110.807 80.2361 110.807C77.6478 110.807 75.5833 111.391 74.0427 112.559C72.5638 113.728 71.8243 115.327 71.8243 117.356C71.8243 119.447 72.5638 121.046 74.0427 122.153C75.5833 123.26 77.6478 123.813 80.2361 123.813ZM111.66 74.9233C111.66 72.3404 112.708 70.3109 114.803 68.8351C116.96 67.3591 120.195 66.6211 124.509 66.6211V87.6531C123.462 88.3911 122.784 89.0061 122.476 89.498L122.845 89.9593C124.448 88.4218 126.573 87.2226 129.223 86.3616C131.935 85.5006 134.369 85.0703 136.526 85.0703C142.011 85.0703 146.386 86.6384 149.652 89.7748C152.918 92.8496 154.551 96.8469 154.551 101.767V116.065C154.551 119.263 153.719 122.153 152.056 124.736C150.453 127.257 148.296 129.256 145.585 130.732C142.935 132.146 140.1 132.853 137.081 132.853C133.691 132.853 130.795 132.208 128.391 130.916C126.05 129.563 123.924 127.595 122.013 125.013L121.551 125.382C121.859 125.935 122.445 126.735 123.307 127.78C123.307 129.379 122.414 130.64 120.627 131.562C118.84 132.423 115.851 132.853 111.66 132.853V74.9233ZM133.106 121.968C135.941 121.968 138.097 121.384 139.576 120.216C141.117 119.047 141.887 117.356 141.887 115.142V102.689C141.887 100.537 141.117 98.8764 139.576 97.7079C138.097 96.5394 135.941 95.9552 133.106 95.9552C130.517 95.9552 128.391 96.5703 126.727 97.8001C125.125 99.03 124.324 100.537 124.324 102.32V115.603C124.324 117.448 125.125 118.986 126.727 120.216C128.391 121.384 130.517 121.968 133.106 121.968ZM164.29 74.9233C164.29 72.3404 165.337 70.3109 167.433 68.8351C169.59 67.3591 172.825 66.6211 177.139 66.6211V87.6531C176.091 88.3911 175.413 89.0061 175.105 89.498L175.475 89.9593C177.077 88.4218 179.203 87.2226 181.853 86.3616C184.564 85.5006 186.998 85.0703 189.155 85.0703C194.64 85.0703 199.015 86.6384 202.282 89.7748C205.549 92.8496 207.18 96.8469 207.18 101.767V116.065C207.18 119.263 206.349 122.153 204.685 124.736C203.082 127.257 200.925 129.256 198.214 130.732C195.565 132.146 192.73 132.853 189.711 132.853C186.322 132.853 183.425 132.208 181.02 130.916C178.679 129.563 176.553 127.595 174.643 125.013L174.181 125.382C174.489 125.935 175.074 126.735 175.937 127.78C175.937 129.379 175.043 130.64 173.256 131.562C171.469 132.423 168.48 132.853 164.29 132.853V74.9233ZM185.735 121.968C188.57 121.968 190.727 121.384 192.206 120.216C193.748 119.047 194.518 117.356 194.518 115.142V102.689C194.518 100.537 193.748 98.8764 192.206 97.7079C190.727 96.5394 188.57 95.9552 185.735 95.9552C183.147 95.9552 181.02 96.5703 179.357 97.8001C177.755 99.03 176.954 100.537 176.954 102.32V115.603C176.954 117.448 177.755 118.986 179.357 120.216C181.02 121.384 183.147 121.968 185.735 121.968ZM225.145 81.5649C222.804 81.5649 220.831 80.8885 219.23 79.5354C217.688 78.121 216.918 76.307 216.918 74.093C216.918 71.8792 217.688 70.0957 219.23 68.7428C220.831 67.3284 222.804 66.6211 225.145 66.6211C227.487 66.6211 229.428 67.3284 230.97 68.7428C232.571 70.0957 233.373 71.8792 233.373 74.093C233.373 76.307 232.571 78.121 230.97 79.5354C229.428 80.8885 227.487 81.5649 225.145 81.5649ZM218.767 92.45C218.767 89.8055 219.814 87.9299 221.91 86.823C224.006 85.6545 227.179 85.0703 231.432 85.0703V125.474C231.432 128.118 230.383 130.025 228.287 131.193C226.193 132.3 223.018 132.853 218.767 132.853V92.45ZM262.599 132.853C257.36 132.853 253.509 131.347 251.044 128.333C248.578 125.32 247.345 121.446 247.345 116.711V95.2172H237.547C237.547 92.0809 238.133 89.7441 239.304 88.2065C240.475 86.6691 242.015 85.9004 243.926 85.9004H247.531V78.6131C247.531 75.9688 248.547 74.093 250.582 72.9861C252.615 71.8176 255.696 71.2334 259.825 71.2334V85.9004H272.12C272.12 89.2213 271.503 91.6197 270.271 93.0957C269.039 94.5101 267.004 95.2172 264.169 95.2172H260.01V116.249C260.01 118.279 260.411 119.755 261.212 120.677C262.012 121.538 263.399 121.968 265.371 121.968C267.528 121.968 269.748 121.353 272.027 120.124C272.705 120.739 273.229 121.507 273.599 122.43C274.029 123.352 274.245 124.275 274.245 125.197C274.245 126.427 273.815 127.626 272.952 128.795C272.088 129.963 270.764 130.947 268.976 131.746C267.251 132.484 265.124 132.853 262.599 132.853Z" fill="#252A38"/>
<mask id="mask0_919_8947" style="mask-type:luminance" maskUnits="userSpaceOnUse" x="277" y="78" width="63" height="71">
<path d="M340 149V78.9883H277.037V149H340Z" fill="white"/>
</mask>
<g mask="url(#mask0_919_8947)">
<path d="M294.593 112.347C294.336 112.091 294.131 111.507 294.368 110.312C294.598 109.158 295.203 107.671 296.174 105.939C298.11 102.486 301.395 98.2486 305.581 94.0709C309.767 89.8932 314.013 86.615 317.474 84.6835C319.21 83.7147 320.699 83.112 321.856 82.8824C323.054 82.6448 323.639 82.8498 323.894 83.1054C324.151 83.3612 324.356 83.945 324.119 85.1402C323.889 86.2942 323.284 87.7811 322.313 89.5135C320.377 92.9667 317.092 97.2035 312.906 101.381C308.72 105.559 304.475 108.837 301.013 110.769C299.277 111.738 297.788 112.34 296.631 112.57C295.433 112.808 294.848 112.603 294.593 112.347Z" stroke="#252A38" stroke-width="2"/>
<path d="M306.581 100.604C306.36 100.716 306.297 100.712 306.284 100.709C306.281 100.697 306.277 100.633 306.389 100.412C306.52 100.155 306.763 99.7858 307.115 99.3201C307.819 98.3949 308.895 97.1794 310.175 95.9015C311.456 94.6236 312.674 93.5509 313.601 92.8494C314.066 92.4963 314.437 92.2548 314.694 92.1238C314.916 92.0114 314.98 92.0161 314.993 92.0184C314.995 92.031 315 92.095 314.887 92.3157C314.755 92.5731 314.514 92.942 314.16 93.4077C313.457 94.3329 312.383 95.5483 311.102 96.8262C309.821 98.1041 308.603 99.1769 307.675 99.8784C307.209 100.232 306.84 100.473 306.581 100.604Z" fill="#252A38" stroke="#252A38" stroke-width="2"/>
<path d="M318.983 106.755C318.826 106.827 318.78 106.82 318.771 106.818C318.769 106.809 318.762 106.762 318.834 106.607C318.918 106.425 319.076 106.168 319.314 105.845C319.783 105.204 320.51 104.368 321.383 103.496C322.257 102.624 323.095 101.898 323.737 101.43C324.061 101.194 324.319 101.035 324.5 100.951C324.657 100.879 324.704 100.886 324.712 100.888C324.716 100.897 324.721 100.944 324.65 101.099C324.565 101.281 324.407 101.538 324.171 101.861C323.702 102.503 322.973 103.339 322.1 104.21C321.226 105.083 320.388 105.808 319.746 106.277C319.422 106.512 319.165 106.671 318.983 106.755Z" fill="#252A38" stroke="#252A38" stroke-width="2"/>
<path d="M303.917 121.649C303.66 121.394 303.455 120.81 303.692 119.615C303.922 118.461 304.527 116.974 305.498 115.242C307.434 111.788 310.719 107.551 314.905 103.374C319.091 99.1961 323.336 95.9177 326.798 93.9865C328.534 93.0174 330.023 92.4148 331.18 92.1852C332.378 91.9475 332.963 92.1525 333.218 92.4083C333.475 92.6639 333.68 93.2479 333.443 94.443C333.213 95.5969 332.608 97.084 331.637 98.8164C329.701 102.269 326.416 106.506 322.23 110.684C318.044 114.862 313.798 118.14 310.337 120.072C308.601 121.04 307.112 121.643 305.955 121.873C304.757 122.11 304.172 121.905 303.917 121.649Z" stroke="#252A38" stroke-width="2"/>
<path d="M318.263 128.37C311.33 135.289 299.495 135.182 290.597 126.303C281.7 117.424 280.806 106.399 287.739 99.4805C297.509 92.6174 306.507 92.6687 315.405 101.547C324.302 110.426 324.705 118.184 318.263 128.37Z" fill="white" stroke="#252A38" stroke-width="2"/>
<path d="M307.747 121.152C309.494 122.896 312.325 122.896 314.074 121.152C315.82 119.409 315.82 116.582 314.074 114.839C312.325 113.095 309.494 113.095 307.747 114.839C305.998 116.582 305.998 119.409 307.747 121.152Z" stroke="#252A38" stroke-width="0.5"/>
<path d="M309.078 119.824C310.089 120.834 311.73 120.834 312.741 119.824C313.752 118.815 313.752 117.178 312.741 116.169C311.73 115.16 310.089 115.16 309.078 116.169C308.067 117.178 308.067 118.815 309.078 119.824Z" fill="#252A38" stroke="#252A38" stroke-width="0.5"/>
<path d="M295.091 108.525C296.84 110.269 299.671 110.269 301.418 108.525C303.167 106.782 303.167 103.955 301.418 102.212C299.671 100.468 296.84 100.468 295.091 102.212C293.345 103.955 293.345 106.782 295.091 108.525Z" stroke="#252A38" stroke-width="0.5"/>
<path d="M296.424 107.197C297.435 108.207 299.076 108.207 300.087 107.197C301.098 106.188 301.098 104.552 300.087 103.542C299.076 102.533 297.435 102.533 296.424 103.542C295.413 104.552 295.413 106.188 296.424 107.197Z" fill="#252A38" stroke="#252A38" stroke-width="0.5"/>
<path d="M299.054 117.886L301.247 117.601C301.828 117.526 302.071 116.818 301.656 116.404L299.749 114.5C299.333 114.087 298.624 114.328 298.549 114.908L298.263 117.096C298.203 117.555 298.596 117.946 299.054 117.886Z" fill="#252A38" stroke="#252A38" stroke-width="0.5"/>
<path d="M289.351 105.341C287.446 102.174 285.465 99.2672 281.709 98.5176" stroke="#252A38" stroke-width="0.5" stroke-linecap="round"/>
<path d="M286.802 106.545C285.289 105.088 283.675 103.832 281.565 103.46C280.784 103.323 279.417 103.395 278.757 103.066" stroke="#252A38" stroke-width="0.5" stroke-linecap="round"/>
<path d="M311.739 127.416C312.893 128.628 314.745 130.421 315.225 132.098C315.502 133.071 315.851 134.106 316.162 135.042" stroke="#252A38" stroke-width="0.5" stroke-linecap="round"/>
<path d="M310.265 129.691C312.109 131.883 311.606 134.848 311.606 137.451" stroke="#252A38" stroke-width="0.5" stroke-linecap="round"/>
<path d="M298.786 116.995C298.722 118.359 296.754 119.471 295.559 118.776C294.856 118.366 294.402 117.579 294.055 116.885" stroke="#252A38" stroke-width="0.5" stroke-linecap="round"/>
<path d="M298.788 117.434C297.705 118.515 296.924 119.51 297.633 121.003C298.171 122.136 298.588 121.915 299.779 121.716" stroke="#252A38" stroke-width="0.5" stroke-linecap="round"/>
<path d="M289.509 103.604C286.921 103.604 284.794 102.805 283.13 101.206C281.468 99.607 280.635 97.5162 280.635 94.9333C280.635 92.4735 281.468 90.4132 283.13 88.7528C284.857 87.0309 286.982 86.1699 289.509 86.1699C291.974 86.1699 294.07 87.0309 295.795 88.7528C297.583 90.4132 298.475 92.4735 298.475 94.9333C298.475 97.4546 297.613 99.5455 295.888 101.206C294.161 102.805 292.037 103.604 289.509 103.604ZM283.315 147.329C285.658 145.238 287.413 143.024 288.585 140.687C289.817 138.412 290.434 136.505 290.434 134.968C289.88 135.337 289.108 135.521 288.122 135.521C286.026 135.521 284.24 134.783 282.761 133.307C281.344 131.77 280.635 129.802 280.635 127.404C280.635 124.882 281.468 122.822 283.13 121.223C284.794 119.624 286.921 118.825 289.509 118.825C292.283 118.825 294.471 119.717 296.072 121.5C297.736 123.222 298.569 125.282 298.569 127.68C298.569 131.739 297.86 135.398 296.442 138.658C295.086 141.978 293.084 144.746 290.434 146.96C290.002 147.329 289.385 147.605 288.585 147.79C287.845 148.036 287.075 148.159 286.275 148.159C284.857 148.159 283.871 147.882 283.315 147.329Z" fill="#252A38"/>
</g>
<path d="M30.8062 36.8327L31.0321 37.9122C31.1516 38.3775 31.3001 38.9263 31.4865 39.5656C31.6731 40.2048 31.933 40.8929 32.2214 41.649C33.6269 45.3676 35.3172 48.9719 37.2769 52.4305C38.3741 54.2999 39.649 56.059 41.084 57.6838C42.3689 59.1639 43.9033 60.4078 45.6183 61.3594C46.3296 61.7484 47.0806 62.0602 47.8587 62.2895C48.4674 62.4721 49.092 62.5975 49.7242 62.6645L50.4281 62.7056L50.9502 62.7058L51.3934 62.6963L51.2389 60.3442L50.8969 60.3541L50.4929 60.3685C50.3358 60.3491 50.1559 60.339 49.9451 60.3313C49.4524 60.2837 48.9643 60.1976 48.4854 60.0741C47.8518 59.9082 47.2391 59.6719 46.6584 59.3698C45.1387 58.5668 43.7589 57.5245 42.5718 56.283C41.156 54.809 39.8845 53.2034 38.7746 51.4877C36.6453 48.2124 34.7672 44.7809 33.1565 41.2221C32.4829 39.7716 31.8749 38.5805 31.4405 37.742L30.7378 36.4258L30.8062 36.8327Z" fill="#252A38"/>
<path d="M34.5165 19.8101C34.0509 18.589 33.1982 17.554 32.0881 16.8626C30.978 16.1712 29.6712 15.8612 28.3666 15.9798C27.062 16.0985 25.8312 16.6393 24.8614 17.5199C23.8914 18.4005 23.2357 19.5728 22.9937 20.8581C22.1247 25.2139 27.3639 30.2367 29.3848 33.7331C29.7687 34.4121 30.4559 35.7294 29.7207 36.227C28.9856 36.7246 28.0162 35.5992 27.5281 34.9901C25.0172 31.8254 22.2907 25.1394 17.9084 24.3214C16.6259 24.079 15.2984 24.2598 14.1261 24.836C12.9538 25.4125 12.0003 26.3533 11.4092 27.5168C10.8181 28.6802 10.6215 30.0031 10.8491 31.2859C11.0768 32.569 11.7163 33.7425 12.6712 34.6293C11.4508 35.1016 10.4168 35.9575 9.72578 37.0675C9.03472 38.1773 8.72413 39.4809 8.84097 40.7812C8.95783 42.0813 9.4958 43.3072 10.3735 44.2735C11.2511 45.2397 12.4207 45.8937 13.7054 46.1364C18.0671 46.995 23.1098 41.7547 26.6168 39.7301C27.2894 39.3381 28.6262 38.6482 29.1231 39.3811C29.6201 40.1139 28.4834 41.0921 27.8721 41.5806C24.6966 44.0937 17.9929 46.8295 17.1559 51.1985C16.9003 52.4847 17.0729 53.8183 17.6475 54.996C18.222 56.1734 19.1668 57.1304 20.3381 57.7209C21.5092 58.3113 22.8426 58.5029 24.1348 58.2664C25.427 58.0298 26.6071 57.3782 27.4952 56.4108C27.9642 57.6286 28.8182 58.6599 29.9276 59.3488C31.0372 60.0377 32.3419 60.3467 33.6447 60.2291C34.9475 60.1115 36.1775 59.5737 37.1485 58.6969C38.1194 57.8202 38.7785 56.6524 39.0263 55.3699C39.8953 51.0141 34.6561 45.9914 32.6353 42.4949C32.243 41.8088 31.5558 40.4915 32.2908 39.9938C33.0261 39.4962 33.9955 40.6216 34.4918 41.2379C37.0028 44.4026 39.7367 51.0803 44.1045 51.9149C45.3943 52.1675 46.7324 51.9914 47.9141 51.4135C49.096 50.8355 50.0565 49.8876 50.649 48.7146C51.2416 47.5418 51.4336 46.2082 51.1956 44.9178C50.9576 43.6275 50.3027 42.4513 49.3311 41.5689C50.5515 41.0966 51.5854 40.2407 52.2766 39.1307C52.9675 38.0207 53.2782 36.7171 53.1613 35.417C53.0443 34.1168 52.5065 32.8908 51.6287 31.9247C50.7512 30.9585 49.5816 30.3045 48.2969 30.0618C43.9433 29.2104 38.9007 34.4507 35.3938 36.4753C34.7128 36.86 33.3844 37.5571 32.8876 36.8243C32.3905 36.0915 33.519 35.1061 34.1384 34.6248C37.314 32.1116 44.0093 29.3687 44.8464 24.9998C45.0918 23.7175 44.9124 22.391 44.3355 21.2211C43.7586 20.0513 42.8154 19.1013 41.6486 18.5152C40.4818 17.929 39.1547 17.7383 37.8681 17.9718C36.5813 18.2055 35.4048 18.8507 34.5165 19.8101Z" fill="#252A38"/>
<path d="M35.0187 26.8768L34.6372 27.0581C34.1793 27.3021 33.7339 27.5689 33.3027 27.8573L32.828 28.1934L33.1496 26.3478L32.7619 28.1875C32.6995 28.0826 32.5937 27.9099 32.4414 27.6969C32.1456 27.2624 31.8245 26.8459 31.4797 26.4496L31.1943 26.1424C31.1076 26.0361 31.0125 25.937 30.9097 25.8462C30.711 25.6749 30.5239 25.5137 30.3602 25.3726C30.0445 25.1007 29.7928 24.9551 29.7928 24.9551C29.7928 24.9551 30.0092 25.1416 30.3247 25.4136C30.4884 25.5547 30.6698 25.7109 30.8489 25.9164C30.9484 26.002 31.0225 26.1169 31.1175 26.2192C31.2127 26.3216 31.2969 26.4248 31.3928 26.5381C31.716 26.9366 32.017 27.3527 32.2942 27.7843C32.5173 28.1399 32.6502 28.3871 32.6502 28.3871L32.3219 30.0638C32.2536 29.9539 32.1553 29.808 32.0264 29.6152C31.7873 29.2664 31.4424 28.8158 31.0646 28.3679L30.7793 28.0607C30.6741 27.9701 30.594 27.8502 30.4947 27.7645C30.2959 27.5933 30.1089 27.4321 29.9452 27.291C29.6296 27.0188 29.3778 26.8734 29.3778 26.8734C29.3778 26.8734 29.5942 27.0597 29.9099 27.3319C30.0734 27.473 30.2548 27.6292 30.4593 27.8055C30.5557 27.8995 30.6471 27.9986 30.7329 28.1026C30.8382 28.1932 30.913 28.3189 31.0082 28.4212C31.3525 28.8609 31.6815 29.3179 31.9044 29.6734C32.1275 30.029 32.2273 30.1966 32.253 30.2494L31.9073 31.9109C31.8448 31.806 31.7524 31.6653 31.6367 31.5043C31.341 31.0698 31.0198 30.6533 30.6748 30.257L30.3895 29.9498C30.3001 29.846 30.2051 29.7471 30.1051 29.6536C29.9063 29.4822 29.7192 29.321 29.5555 29.18C29.2146 28.9371 28.9881 28.7625 28.9881 28.7625C28.9881 28.7625 29.2044 28.9488 29.5201 29.221C29.6838 29.3619 29.8709 29.5231 30.0443 29.7236C30.1438 29.8092 30.2177 29.9241 30.3129 30.0266C30.408 30.129 30.498 30.2372 30.5881 30.3455C30.9114 30.744 31.2122 31.1599 31.4894 31.5917C31.65 31.8425 31.7574 32.0369 31.8132 32.1257L31.4622 33.7931C31.3998 33.6883 31.3199 33.5684 31.2166 33.4283C30.9198 32.9943 30.6005 32.576 30.26 32.1751L29.9745 31.8681C29.8692 31.7773 29.7894 31.6576 29.6901 31.5718C29.4913 31.4005 29.3042 31.2393 29.1405 31.0982C28.8248 30.8262 28.5731 30.6806 28.5731 30.6806C28.5731 30.6806 28.7895 30.8671 29.1051 31.1391C29.2688 31.2802 29.4558 31.4414 29.6293 31.6419C29.7269 31.7355 29.8167 31.8369 29.8978 31.945C30.0031 32.0356 30.0831 32.1555 30.1781 32.2579C30.5224 32.6973 30.8515 33.1544 31.0745 33.51C31.2219 33.7288 31.3167 33.9023 31.3732 34.0021L30.8797 36.3529C30.9166 36.6054 30.8815 36.8632 30.7782 37.0968C30.6752 37.3305 30.5082 37.5307 30.2967 37.6741C30.0851 37.8177 29.8374 37.899 29.5819 37.9087C29.3265 37.9183 29.0736 37.856 28.8523 37.7287L26.477 37.3248C26.3892 37.2492 26.2836 37.0765 26.1312 36.8634C25.8306 36.4448 25.5521 36.0107 25.297 35.563C25.2389 35.4414 25.17 35.3206 25.106 35.1941C25.0402 35.0765 24.9819 34.9546 24.9317 34.8295C24.8263 34.5857 24.7226 34.3636 24.653 34.1608L24.4508 33.4865L24.632 34.1733C24.6957 34.371 24.7944 34.599 24.8838 34.8496C24.9731 35.1 25 35.0926 25.0531 35.2199L25.2391 35.5946C25.478 36.0567 25.7464 36.5028 26.0427 36.9302C26.1359 37.0819 26.221 37.1961 26.2884 37.295L24.6118 37.0034C24.53 36.9329 24.4068 36.7449 24.236 36.506C23.9354 36.0874 23.6571 35.6533 23.402 35.2056L23.2051 34.8316C23.147 34.7101 23.0728 34.5952 23.0257 34.4729C22.9784 34.3505 22.8215 34.001 22.758 33.8033L22.5558 33.1291L22.7312 33.8109C22.8007 34.0136 22.8935 34.2365 22.9886 34.492C23.03 34.6094 23.0991 34.73 23.1579 34.8625L23.3439 35.2372C23.581 35.6974 23.8475 36.1417 24.1418 36.5677C24.2526 36.7345 24.3501 36.8695 24.4175 36.9686L22.7467 36.6819C22.7059 36.6467 22.5542 36.4446 22.3351 36.1435C22.0345 35.7249 21.7562 35.2908 21.5011 34.8429L21.3099 34.4742C21.2408 34.3555 21.1805 34.232 21.1298 34.1046C21.0303 33.8658 20.9265 33.6436 20.8571 33.4409L20.6547 32.7664L20.836 33.4533C20.8997 33.6511 20.9983 33.8791 21.0877 34.1295C21.1348 34.252 21.2039 34.3726 21.257 34.5001L21.443 34.8747C21.6819 35.3366 21.9505 35.7827 22.2468 36.2103C22.37 36.3981 22.474 36.5491 22.5524 36.6471L20.8483 36.3521C20.8483 36.3521 20.684 36.129 20.4399 35.7861C20.1395 35.3675 19.861 34.9332 19.6059 34.4855L19.4091 34.1118C19.3431 33.994 19.285 33.8723 19.2346 33.7472C19.1294 33.5032 19.0256 33.2811 18.9619 33.0835C18.834 32.677 18.7597 32.409 18.7597 32.409L18.9351 33.0908C18.9988 33.2887 19.0974 33.5165 19.1868 33.7671C19.2762 34.0175 19.303 34.0101 19.362 34.1425L19.548 34.5171C19.7867 34.9772 20.0513 35.4235 20.3408 35.8536C20.4881 36.0725 20.609 36.2276 20.6765 36.3266L19.0045 35.9472L20.8407 36.3254C20.7648 36.413 20.5682 36.4986 20.3545 36.6514C19.9182 36.9467 19.5003 37.268 19.1029 37.614L18.7888 37.8944C18.6978 37.9996 18.6068 38.1048 18.5208 38.2042C18.3488 38.403 18.1869 38.59 18.0502 38.7478L17.6257 39.321L18.0912 38.7832C18.2277 38.6254 18.3897 38.4383 18.5616 38.2394C18.6555 38.1419 18.7572 38.052 18.8657 37.9709L19.1797 37.6904C19.6208 37.3458 20.0794 37.0164 20.4359 36.793C20.7927 36.5697 21.0399 36.4256 21.0399 36.4256L22.7195 36.7605L22.2746 37.0506C21.9195 37.2959 21.4727 37.6353 21.0231 38.0134L20.7148 38.2988C20.6106 38.3884 20.5115 38.4834 20.4174 38.5834C20.2454 38.7823 20.0835 38.9693 19.947 39.1271L19.5224 39.7002L19.9587 39.1372L20.4642 38.6238C20.5586 38.5272 20.6581 38.4358 20.7623 38.35L21.0823 38.0746C21.5234 37.7301 21.982 37.4007 22.3385 37.1772C22.6952 36.9539 22.8685 36.848 22.9214 36.8223L24.58 37.1698C24.5041 37.2576 24.3388 37.319 24.177 37.435C23.7415 37.7314 23.3236 38.0527 22.9255 38.3976L22.6114 38.678C22.5204 38.7832 22.4 38.8632 22.314 38.9627C22.1421 39.1614 21.9802 39.3485 21.8436 39.5063L21.4191 40.0795L21.8845 39.5416C22.0212 39.3838 22.1831 39.1968 22.3551 38.9979C22.449 38.9004 22.5506 38.8105 22.6591 38.7291L22.9732 38.4487C23.4141 38.1042 23.8728 37.7748 24.2294 37.5515L24.7701 37.2214L26.4347 37.5741L26.0679 37.8091C25.713 38.0543 25.2661 38.3938 24.8164 38.7719L24.5082 39.0573C24.4131 39.1555 24.3236 39.2589 24.24 39.3671C24.068 39.5659 23.9061 39.7529 23.7696 39.9107L23.345 40.4839L23.8104 39.9461C23.9469 39.7881 24.1088 39.6011 24.2808 39.4023C24.3753 39.3058 24.4749 39.2144 24.5791 39.1286L24.8991 38.8532C25.34 38.5087 25.7986 38.1793 26.1553 37.956C26.316 37.8454 26.4824 37.7436 26.654 37.6508L29.0029 38.1443C29.4911 38.2094 29.9513 38.4082 30.3326 38.7187C30.4757 39.1882 30.4908 39.6874 30.3769 40.1653L29.9666 42.5263C29.8205 42.6525 29.666 42.7681 29.5037 42.8724C29.0865 43.1762 28.653 43.4568 28.2049 43.7127L27.83 43.9102C27.7082 43.9686 27.5871 44.0377 27.4644 44.0851L26.794 44.3644L26.1229 44.5619L26.8006 44.3804C27.0046 44.3215 27.2331 44.2226 27.4784 44.1278C27.6056 44.079 27.7298 44.0224 27.8499 43.958L28.2365 43.7707C28.6945 43.5268 29.14 43.26 29.5712 42.9715L29.9311 42.7205L29.6415 44.3998L29.1425 44.7758C28.7983 45.0202 28.3272 45.3286 27.8379 45.6111L27.468 45.8027C27.341 45.8668 27.2199 45.9359 27.0973 45.9833C26.9746 46.0307 26.6351 46.1872 26.4318 46.2569L25.7558 46.4603L26.4442 46.2779C26.6425 46.214 26.8711 46.1149 27.1163 46.0203C27.2442 45.9731 27.3685 45.9163 27.4878 45.8504L27.8694 45.669C28.3274 45.425 28.7728 45.1582 29.204 44.8697L29.6061 44.5938L29.3155 46.2621C29.2801 46.303 29.0773 46.4549 28.7753 46.6743C28.3574 46.974 27.9237 47.2509 27.4757 47.5036L27.1009 47.7009C26.9791 47.7593 26.8578 47.8284 26.7353 47.8758C26.4906 47.9815 26.2679 48.0854 26.0647 48.1553L25.3938 48.3527L26.0713 48.1711C26.2755 48.1122 26.504 48.0133 26.7493 47.9185C26.8765 47.8698 27.0006 47.8131 27.1208 47.7487L27.5024 47.5674C28.0034 47.2948 28.492 47.0015 28.842 46.7622C29.0304 46.6389 29.1819 46.5346 29.2803 46.4561L28.9813 48.158C28.7841 48.2831 28.5943 48.4195 28.4132 48.5666C27.9931 48.8676 27.5578 49.1464 27.1086 49.4018L26.7387 49.5934C26.6198 49.6627 26.4959 49.723 26.3681 49.7742C26.1287 49.874 25.906 49.9779 25.7027 50.0478L25.0267 50.251L25.7043 50.0695C25.9134 50.0047 26.1418 49.9058 26.3872 49.811C26.5158 49.7654 26.6401 49.7086 26.7587 49.6411L27.1402 49.4598C27.5983 49.2159 28.0437 48.9491 28.4749 48.6606L28.9552 48.3296L28.5825 49.9984L28.9761 48.1639C29.0639 48.2395 29.1383 48.4362 29.2909 48.6493C29.5864 49.0837 29.9076 49.5002 30.2526 49.8966L30.5437 50.2088C30.63 50.3154 30.7252 50.4145 30.8283 50.505C31.027 50.6762 31.2141 50.8375 31.3719 50.9735C31.7187 51.2214 31.9393 51.3911 31.9393 51.3911C31.9393 51.3911 31.7288 51.2098 31.4073 50.9326C31.2496 50.7965 31.0625 50.6353 30.8889 50.4348C30.7896 50.3492 30.6843 50.2585 30.6203 50.132C30.5564 50.0054 30.41 49.9506 30.3452 49.8131C30.0087 49.4062 29.6958 48.9798 29.4087 48.5366C29.1856 48.1811 29.0527 47.9339 29.0527 47.9339L29.3869 46.2623C29.3869 46.2623 29.5533 46.5181 29.6766 46.7058C29.9157 47.0548 30.2605 47.5052 30.6383 47.9531L30.9236 48.2603C31.0288 48.351 31.103 48.4658 31.2023 48.5515C31.407 48.7278 31.5941 48.889 31.7518 49.025C32.0733 49.3022 32.3192 49.4426 32.3192 49.4426C32.3192 49.4426 32.1087 49.2613 31.7873 48.9841C31.6295 48.848 31.4424 48.6868 31.2688 48.4863C31.1724 48.3924 31.081 48.2931 30.9952 48.1894C30.89 48.0987 30.8151 47.9729 30.7201 47.8706C30.3701 47.4259 30.0468 46.9739 29.7886 46.5883C29.5305 46.2025 29.4657 46.065 29.44 46.0122L29.7917 44.3558C29.8541 44.4606 29.9407 44.5963 30.0565 44.7574C30.3521 45.1918 30.6732 45.6083 31.0182 46.0046L31.3095 46.3168C31.3969 46.4188 31.4899 46.5161 31.5881 46.608C31.7927 46.7843 31.9798 46.9455 32.1375 47.0816C32.4592 47.3588 32.7049 47.4991 32.7049 47.4991C32.7049 47.4991 32.4946 47.3178 32.173 47.0406C32.0152 46.9046 31.8281 46.7434 31.6547 46.5428C31.5552 46.4572 31.4753 46.3373 31.3861 46.24C31.2969 46.1427 31.201 46.0294 31.1109 45.9212C30.7743 45.5142 30.4616 45.0879 30.1745 44.6446C30.0139 44.394 29.9065 44.1994 29.8507 44.1106L30.2017 42.4434C30.2893 42.5188 30.344 42.6679 30.4474 42.8082C30.7441 43.2422 31.0634 43.6605 31.4041 44.0612L31.6952 44.3734C31.8004 44.464 31.8997 44.5497 31.9992 44.6353C32.2037 44.8116 32.3908 44.9728 32.5488 45.1089C32.8702 45.386 33.1162 45.5264 33.1162 45.5264C33.1162 45.5264 32.9057 45.3451 32.584 45.0679C32.4263 44.932 32.2392 44.7706 32.0657 44.5701C31.969 44.4764 31.8776 44.3773 31.7921 44.2732C31.6869 44.1825 31.6121 44.0567 31.5169 43.9544C31.1668 43.5097 30.8378 43.0527 30.5856 42.6721C30.444 42.4581 30.3492 42.2847 30.2868 42.1798L30.7802 39.829C30.8513 39.3435 31.0533 38.886 31.3643 38.5055C31.8313 38.3539 32.3315 38.3358 32.8076 38.4532L35.183 38.8571C35.2707 38.9327 35.3763 39.1054 35.5289 39.3185C35.8293 39.7371 36.1078 40.1712 36.3629 40.6189L36.5599 40.9929C36.6257 41.1106 36.684 41.2323 36.7342 41.3575C36.8337 41.5962 36.9432 41.8235 37.0069 42.0211L37.2091 42.6956L37.0337 42.0136C36.9643 41.8109 36.8714 41.588 36.7763 41.3325C36.7349 41.2151 36.6658 41.0945 36.607 40.962L36.4208 40.5873C36.1839 40.1272 35.9175 39.6827 35.623 39.2567L35.3774 38.892L37.054 39.1837C37.1299 39.2492 37.2532 39.437 37.4298 39.6809C37.7303 40.0996 38.0087 40.5338 38.2638 40.9816C38.3219 41.1031 38.391 41.2237 38.4549 41.3503C38.5241 41.4689 38.5842 41.5925 38.6351 41.7199C38.7346 41.9589 38.8384 42.1809 38.9078 42.3836L39.11 43.058L38.9289 42.3712C38.8652 42.1734 38.7666 41.9456 38.6772 41.695C38.5878 41.4445 38.561 41.4519 38.5079 41.3244L38.3217 40.9498C38.0812 40.4881 37.8146 40.0402 37.5232 39.6084L37.2426 39.2135L38.919 39.505C38.96 39.5402 39.1117 39.7423 39.3248 40.0385C39.6263 40.4565 39.9048 40.8905 40.1588 41.339L40.3558 41.7129C40.4217 41.8305 40.4799 41.9522 40.5301 42.0773C40.6355 42.3213 40.7393 42.5434 40.8028 42.741L41.0052 43.4155L40.8298 42.7337C40.7604 42.531 40.6676 42.308 40.5782 42.0574C40.5308 41.9352 40.4619 41.8143 40.4029 41.682L40.2169 41.3074C39.98 40.8471 39.7134 40.4026 39.4191 39.9768C39.2959 39.789 39.1917 39.638 39.1135 39.5398L40.8176 39.8348C40.8176 39.8348 40.9817 40.0579 41.2258 40.401C41.5264 40.8196 41.8047 41.2537 42.0598 41.7014C42.1238 41.828 42.1929 41.9488 42.251 42.0703C42.3201 42.1888 42.3803 42.3125 42.4312 42.44C42.5307 42.6787 42.6344 42.9008 42.7038 43.1036L42.9062 43.7779L42.7248 43.0911C42.6613 42.8934 42.5626 42.6654 42.4732 42.4148C42.3838 42.1644 42.357 42.1719 42.3039 42.0445L42.1179 41.6698C41.8772 41.2079 41.6106 40.76 41.3193 40.3285C41.1777 40.1145 41.0569 39.9594 40.9836 39.8554L42.8319 40.1725L40.9955 39.7942L41.4877 39.4734C41.9216 39.1749 42.3393 38.8535 42.7392 38.5107L43.0474 38.2252C43.1426 38.127 43.2321 38.0236 43.3156 37.9154C43.4876 37.7167 43.6495 37.5296 43.786 37.3718L44.2106 36.7986L43.7452 37.3364L43.2395 37.8499C43.1453 37.9464 43.0456 38.0378 42.9414 38.1236L42.6214 38.399C42.2197 38.7212 41.8004 39.0209 41.3652 39.2964C41.0094 39.5307 40.7615 39.6639 40.7615 39.6639L39.0818 39.3287C39.0818 39.3287 39.3441 39.1672 39.5317 39.0329C39.968 38.7376 40.386 38.4161 40.7832 38.0703L41.0973 37.7899C41.1885 37.6845 41.3037 37.6104 41.3947 37.5052C41.5669 37.3065 41.7286 37.1194 41.8653 36.9614L42.2899 36.3884L41.8243 36.9262C41.6877 37.084 41.5258 37.2711 41.3245 37.4447C41.2306 37.5423 41.129 37.6323 41.0207 37.7134L40.7064 37.9938C40.2655 38.3383 39.807 38.6677 39.4502 38.8912L38.8675 39.2462L37.2087 38.8986L37.6117 38.6335C38.0451 38.334 38.4626 38.0127 38.8632 37.6709L39.1714 37.3854C39.2666 37.2873 39.3561 37.1837 39.4396 37.0756C39.6116 36.8769 39.7735 36.6896 39.9102 36.5318L40.3346 35.9588L39.8692 36.4967L39.3637 37.0101C39.2692 37.1067 39.1696 37.198 39.0654 37.2838L38.7456 37.5592C38.3045 37.9037 37.8459 38.2331 37.4892 38.4566C37.2436 38.6225 37.0486 38.7299 36.9484 38.7866L35.2898 38.439L35.6507 38.1988C36.0867 37.9032 36.5046 37.5818 36.9022 37.2363L37.2163 36.9559C37.3115 36.8577 37.401 36.7541 37.4845 36.646L37.9549 36.1023L38.3745 35.535L37.9141 36.0671C37.7776 36.2249 37.6157 36.4119 37.4435 36.6106C37.3575 36.7101 37.2424 36.7842 37.1395 36.8794L36.8196 37.1548C36.4197 37.4783 36.0024 37.7795 35.5692 38.0572L35.0705 38.3622L32.7216 37.8687C32.4675 37.908 32.2075 37.8746 31.9718 37.7727C31.7362 37.6705 31.5345 37.5038 31.3902 37.2917C31.2458 37.0797 31.1647 36.8311 31.156 36.5747C31.1474 36.3182 31.2118 36.0644 31.3417 35.8427L31.7572 33.4757L32.2151 33.1355C32.6344 32.8338 33.0699 32.5548 33.5197 32.3002L33.8946 32.103C34.0163 32.0446 34.1317 31.9705 34.2543 31.9231L34.9248 31.6436L35.6016 31.4511L34.9182 31.6276C34.7199 31.6915 34.4914 31.7906 34.2401 31.8803C34.1117 31.9225 33.9966 31.9969 33.8688 32.05L33.4821 32.2374C33.0242 32.4814 32.5788 32.748 32.1476 33.0364L31.7875 33.2876L32.083 31.6134L32.582 31.2371C33.0021 30.9363 33.4376 30.6575 33.8866 30.402L34.2565 30.2105C34.3835 30.1462 34.4988 30.0721 34.6213 30.0247L35.2868 29.7511L35.9687 29.5529L35.2801 29.7351C35.082 29.799 34.8534 29.8981 34.6023 29.9879C34.3511 30.0774 34.3635 30.0985 34.2308 30.1575L33.8492 30.339C33.3914 30.583 32.9458 30.8497 32.5146 31.1382L32.1183 31.4193L32.409 29.7509C32.5801 29.6062 32.7587 29.4707 32.9442 29.3447C33.363 29.042 33.7985 28.7632 34.2488 28.5095L34.6237 28.3121C34.7456 28.2537 34.8608 28.1796 34.9834 28.1322L35.6539 27.8527L36.3307 27.6604L35.6473 27.8369C35.449 27.9008 35.2206 27.9997 34.9694 28.0895C34.7183 28.1792 34.7257 28.206 34.5979 28.2593L34.2164 28.4408C33.7566 28.6865 33.3095 28.9553 32.8767 29.2457L32.4383 29.5518L32.7375 27.85C32.9381 27.7292 33.1296 27.5942 33.3113 27.4464C33.7312 27.1456 34.1667 26.8668 34.6159 26.6111L34.9858 26.4196C35.1126 26.3555 35.2279 26.2814 35.3506 26.234L36.016 25.9604L36.6978 25.762L36.0144 25.9385L35.3314 26.197C35.2018 26.4111 35.097 26.6391 35.0187 26.8768Z" fill="white"/>
</g>
<defs>
<clipPath id="clip0_919_8947">
<rect width="340" height="149" fill="white"/>
</clipPath>
</defs>
</svg>
