<svg width="163" height="71" viewBox="0 0 163 71" fill="none" xmlns="http://www.w3.org/2000/svg">
<path d="M42.9964 31.4859C40.3653 31.4859 38.0119 30.9743 35.9362 29.9511C33.8606 28.9279 32.238 27.51 31.0686 25.6974C29.9285 23.8556 29.3584 21.7653 29.3584 19.4265V11.9717C29.3584 9.63288 29.9139 7.5572 31.0248 5.74464C32.1649 3.93208 33.7436 2.52881 35.7608 1.53483C37.8073 0.51161 40.1314 0 42.7333 0C45.3352 0 47.6594 0.39467 49.7058 1.18401C51.7523 1.94412 53.331 3.0258 54.4419 4.42908C55.582 5.83235 56.1521 7.42564 56.1521 9.20897C56.1521 10.3784 55.7721 11.2993 55.012 11.9717C54.2519 12.6148 53.214 12.9364 51.8984 12.9364C51.1383 12.9364 50.3929 12.8341 49.662 12.6294C49.7497 12.0155 49.7935 11.27 49.7935 10.393C49.7935 8.98971 49.1358 7.84955 47.8202 6.97251C46.5046 6.06623 44.809 5.61309 42.7333 5.61309C40.6869 5.61309 39.0205 6.2124 37.7342 7.41103C36.4478 8.58042 35.8047 10.1006 35.8047 11.9717V19.4265C35.8047 21.3268 36.4625 22.8763 37.778 24.0749C39.1228 25.2735 40.8623 25.8728 42.9964 25.8728C45.0721 25.8728 46.7531 25.4343 48.0394 24.5573C49.355 23.6802 50.0128 22.54 50.0128 21.1368C50.0128 20.172 49.9689 19.4704 49.8812 19.0319C50.6706 18.8565 51.3868 18.7688 52.03 18.7688C53.3456 18.7688 54.398 19.105 55.1874 19.7774C55.9767 20.4498 56.3714 21.3707 56.3714 22.54C56.3714 24.2649 55.8013 25.8144 54.6611 27.1884C53.5502 28.5332 51.9715 29.5856 49.9251 30.3457C47.9079 31.1059 45.5983 31.4859 42.9964 31.4859ZM68.6567 31.4859C66.7272 31.4859 64.9731 31.1351 63.3944 30.4334C61.8158 29.7318 60.5733 28.7671 59.667 27.5392C58.7607 26.2821 58.3076 24.8642 58.3076 23.2855V17.4532C58.3076 15.8453 58.7461 14.3835 59.6231 13.068C60.5002 11.7232 61.728 10.6707 63.3067 9.9106C64.8854 9.1505 66.6687 8.77045 68.6567 8.77045C70.6447 8.77045 72.428 9.1505 74.0067 9.9106C75.5854 10.6707 76.8132 11.7232 77.6903 13.068C78.5673 14.3835 79.0058 15.8453 79.0058 17.4532V23.2855C79.0058 24.8642 78.5527 26.2821 77.6464 27.5392C76.7401 28.7671 75.4976 29.7318 73.919 30.4334C72.3403 31.1351 70.5862 31.4859 68.6567 31.4859ZM68.6567 26.3113C70.0307 26.3113 71.0978 26.0044 71.8579 25.3904C72.618 24.7765 72.9981 23.9287 72.9981 22.847V17.7602C72.9981 16.62 72.6034 15.6991 71.8141 14.9975C71.054 14.2958 70.0015 13.945 68.6567 13.945C67.3119 13.945 66.2448 14.2958 65.4555 14.9975C64.6954 15.6991 64.3153 16.62 64.3153 17.7602V22.847C64.3153 23.9287 64.6954 24.7765 65.4555 25.3904C66.2156 26.0044 67.2827 26.3113 68.6567 26.3113ZM89.908 31.4859C88.3585 31.4859 86.9553 31.1497 85.6982 30.4773C84.4411 29.7757 83.4471 28.8255 82.7162 27.6269C81.9853 26.399 81.6199 25.025 81.6199 23.5048V16.7516C81.6199 15.2313 82 13.8719 82.7601 12.6733C83.5494 11.4454 84.6311 10.4953 86.0051 9.8229C87.3792 9.12127 88.8994 8.77045 90.5658 8.77045C91.5597 8.77045 92.6268 8.97509 93.767 9.38438C94.9364 9.79367 95.9011 10.3637 96.6612 11.0946L96.8366 10.8754C96.6905 10.6415 96.3689 10.3491 95.8719 9.99831V3.9467C95.8719 2.71884 96.3689 1.75409 97.3629 1.05245C98.3861 0.350818 99.9209 0 101.967 0V27.4954C101.967 28.6355 101.514 29.5856 100.608 30.3457C99.7016 31.1059 98.313 31.4859 96.442 31.4859V29.1179C96.7928 28.6794 97.0705 28.2847 97.2752 27.9339L97.0559 27.7585C96.1204 29.0156 95.1118 29.9511 94.0301 30.565C92.9776 31.1789 91.6036 31.4859 89.908 31.4859ZM91.7936 26.3113C93.0215 26.3113 94.0155 26.0336 94.7756 25.4781C95.5649 24.8934 95.9596 24.1626 95.9596 23.2855V16.9708C95.9596 16.123 95.5649 15.4068 94.7756 14.8221C94.0155 14.2374 93.0215 13.945 91.7936 13.945C90.4488 13.945 89.411 14.2227 88.6801 14.7782C87.9785 15.3337 87.6277 16.123 87.6277 17.1462V23.0663C87.6277 24.1187 87.9785 24.9227 88.6801 25.4781C89.411 26.0336 90.4488 26.3113 91.7936 26.3113ZM116.629 31.4859C114.816 31.4859 113.135 31.1205 111.586 30.3896C110.065 29.6587 108.852 28.6647 107.946 27.4076C107.04 26.1506 106.586 24.7473 106.586 23.1978V17.5847C106.586 15.9476 107.04 14.4566 107.946 13.1118C108.881 11.7378 110.124 10.6707 111.673 9.9106C113.223 9.1505 114.889 8.77045 116.672 8.77045C118.427 8.77045 120.034 9.13588 121.496 9.86675C122.987 10.5684 124.157 11.577 125.004 12.8926C125.852 14.1789 126.276 15.6406 126.276 17.2778V19.6458C126.276 20.3474 126.013 20.9468 125.487 21.4437C124.961 21.9115 124.288 22.1454 123.47 22.1454H112.419V22.7593C112.419 23.9287 112.77 24.8935 113.471 25.6536C114.202 26.3844 115.269 26.7499 116.672 26.7499C118.046 26.7499 119.055 26.4575 119.698 25.8728C120.341 25.2589 120.663 24.4988 120.663 23.5925C121.248 23.534 121.686 23.5048 121.979 23.5048C123.177 23.5048 124.098 23.7533 124.741 24.2503C125.384 24.7473 125.706 25.4781 125.706 26.4429C125.706 27.2322 125.311 28.0216 124.522 28.8109C123.733 29.6003 122.636 30.2434 121.233 30.7404C119.859 31.2374 118.324 31.4859 116.629 31.4859ZM120.838 17.8917V17.2778C120.838 16.1084 120.444 15.1875 119.654 14.5151C118.894 13.8135 117.886 13.4626 116.629 13.4626C115.372 13.4626 114.348 13.8135 113.559 14.5151C112.799 15.1875 112.419 16.1084 112.419 17.2778V17.8917H120.838Z" fill="#252A38"/>
<path d="M2.56055 35.0046C2.56055 34.1568 2.86751 33.4552 3.48144 32.8997C4.12461 32.3443 4.89933 32.0665 5.80561 32.0665H17.3388C20.6131 32.0665 23.1272 32.9144 24.8813 34.61C26.6647 36.2764 27.5563 38.659 27.5563 41.7579C27.5563 43.4827 27.2055 44.9299 26.5039 46.0993C25.8315 47.2687 24.779 48.1895 23.3465 48.8619V49.0374C25.8899 50.1775 27.1617 52.3263 27.1617 55.4836V58.5094C27.1617 60.0296 26.6062 61.1844 25.4953 61.9738C24.4136 62.7631 22.8203 63.1578 20.7154 63.1578V55.7029C20.7154 54.2412 20.423 53.1741 19.8383 52.5017C19.2829 51.8 18.4204 51.4492 17.251 51.4492H8.91912V58.5094C8.91912 60.0296 8.37828 61.1844 7.29659 61.9738C6.2149 62.7631 4.63622 63.1578 2.56055 63.1578V35.0046ZM16.9879 45.9677C18.3327 45.9677 19.356 45.6023 20.0576 44.8714C20.7592 44.1405 21.11 43.0881 21.11 41.714C21.11 40.2815 20.7738 39.2291 20.1014 38.5567C19.4583 37.8843 18.4204 37.5481 16.9879 37.5481H8.91912V45.9677H16.9879ZM38.1042 63.1578C36.6717 63.1578 35.3269 62.88 34.0698 62.3246C32.8419 61.7399 31.8479 60.9067 31.0878 59.825C30.3277 58.7141 29.9477 57.3839 29.9477 55.8345C29.9477 54.285 30.357 52.9548 31.1755 51.8439C31.9941 50.7037 33.0758 49.8413 34.4206 49.2566C35.7946 48.6719 37.2856 48.3796 38.8935 48.3796C40.2383 48.3796 41.4223 48.5842 42.4456 48.9935C43.498 49.4028 44.4774 50.0021 45.3837 50.7914L45.6029 50.5283C44.989 49.9729 44.5066 49.5782 44.1558 49.3443V48.7742C44.1558 47.6633 43.7465 46.7863 42.9279 46.1431C42.1386 45.4707 41.0131 45.1345 39.5513 45.1345C38.265 45.1345 37.1248 45.3684 36.1308 45.8361C35.1369 46.3039 34.3329 46.9909 33.719 47.8972C33.0173 47.7218 32.418 47.4002 31.921 46.9325C31.4533 46.4355 31.2194 45.8946 31.2194 45.3099C31.2194 44.4036 31.6141 43.5851 32.4034 42.8542C33.1927 42.0941 34.2598 41.5094 35.6046 41.1001C36.9786 40.6616 38.4842 40.4423 40.1214 40.4423C43.308 40.4423 45.7637 41.1732 47.4886 42.6349C49.2134 44.0967 50.0758 46.0846 50.0758 48.5988V59.2549C50.0758 60.629 49.6227 61.6229 48.7164 62.2369C47.8394 62.8508 46.4361 63.1578 44.5066 63.1578V61.4475C44.9451 61.0382 45.296 60.6728 45.5591 60.3512L45.3398 60.132C44.3751 61.126 43.3665 61.8861 42.314 62.4123C41.2615 62.9093 39.8583 63.1578 38.1042 63.1578ZM39.7706 58.8603C41.1738 58.8603 42.2701 58.5971 43.0595 58.0709C43.8488 57.5447 44.2435 56.7846 44.2435 55.7906C44.2435 54.8259 43.8342 54.0657 43.0156 53.5103C42.2263 52.9548 41.1446 52.6771 39.7706 52.6771C38.5427 52.6771 37.5633 52.9548 36.8325 53.5103C36.1308 54.0657 35.78 54.8259 35.78 55.7906C35.78 56.7846 36.1308 57.5447 36.8325 58.0709C37.5633 58.5971 38.5427 58.8603 39.7706 58.8603ZM54.6779 35.6186C54.6779 34.3907 55.1749 33.426 56.1689 32.7243C57.1921 32.0227 58.7269 31.6719 60.7734 31.6719V41.6702C60.2764 42.021 59.9548 42.3133 59.8086 42.5472L59.984 42.7665C60.7441 42.0356 61.7525 41.4655 63.0096 41.0563C64.296 40.647 65.4507 40.4423 66.474 40.4423C69.0759 40.4423 71.1515 41.1878 72.701 42.6788C74.2504 44.1405 75.0252 46.0408 75.0252 48.3796V55.1767C75.0252 56.6969 74.6305 58.0709 73.8411 59.2988C73.081 60.4974 72.0578 61.4475 70.7715 62.1492C69.5144 62.8216 68.1696 63.1578 66.7371 63.1578C65.1292 63.1578 63.7551 62.8508 62.615 62.2369C61.504 61.5937 60.4956 60.6582 59.5893 59.4303L59.3701 59.6057C59.5163 59.8689 59.794 60.2489 60.2033 60.7459C60.2033 61.506 59.7794 62.1053 58.9316 62.5438C58.0838 62.9531 56.6659 63.1578 54.6779 63.1578V35.6186ZM64.8514 57.9832C66.1962 57.9832 67.2195 57.7055 67.9211 57.15C68.652 56.5946 69.0174 55.7906 69.0174 54.7381V48.8181C69.0174 47.7949 68.652 47.0055 67.9211 46.4501C67.2195 45.8946 66.1962 45.6169 64.8514 45.6169C63.6236 45.6169 62.615 45.9092 61.8256 46.4939C61.0655 47.0786 60.6857 47.7949 60.6857 48.6427V54.9574C60.6857 55.8345 61.0655 56.5653 61.8256 57.15C62.615 57.7055 63.6236 57.9832 64.8514 57.9832ZM79.6449 35.6186C79.6449 34.3907 80.1418 33.426 81.1358 32.7243C82.159 32.0227 83.6939 31.6719 85.7403 31.6719V41.6702C85.2433 42.021 84.9217 42.3133 84.7756 42.5472L84.951 42.7665C85.7111 42.0356 86.7197 41.4655 87.9768 41.0563C89.2631 40.647 90.4179 40.4423 91.4411 40.4423C94.043 40.4423 96.1187 41.1878 97.6681 42.6788C99.2176 44.1405 99.9923 46.0408 99.9923 48.3796V55.1767C99.9923 56.6969 99.5976 58.0709 98.8083 59.2988C98.0482 60.4974 97.025 61.4475 95.7386 62.1492C94.4815 62.8216 93.1367 63.1578 91.7042 63.1578C90.0963 63.1578 88.7223 62.8508 87.5821 62.2369C86.4712 61.5937 85.4626 60.6582 84.5563 59.4303L84.3371 59.6057C84.4832 59.8689 84.761 60.2489 85.1702 60.7459C85.1702 61.506 84.7463 62.1053 83.8985 62.5438C83.0507 62.9531 81.6328 63.1578 79.6449 63.1578V35.6186ZM89.8186 57.9832C91.1634 57.9832 92.1866 57.7055 92.8882 57.15C93.6191 56.5946 93.9845 55.7906 93.9845 54.7381V48.8181C93.9845 47.7949 93.6191 47.0055 92.8882 46.4501C92.1866 45.8946 91.1634 45.6169 89.8186 45.6169C88.5907 45.6169 87.5821 45.9092 86.7928 46.4939C86.0327 47.0786 85.6526 47.7949 85.6526 48.6427V54.9574C85.6526 55.8345 86.0327 56.5653 86.7928 57.15C87.5821 57.7055 88.5907 57.9832 89.8186 57.9832ZM108.514 38.7759C107.403 38.7759 106.468 38.4543 105.708 37.8112C104.977 37.1388 104.611 36.2764 104.611 35.2239C104.611 34.1714 104.977 33.3236 105.708 32.6805C106.468 32.0081 107.403 31.6719 108.514 31.6719C109.625 31.6719 110.546 32.0081 111.277 32.6805C112.037 33.3236 112.417 34.1714 112.417 35.2239C112.417 36.2764 112.037 37.1388 111.277 37.8112C110.546 38.4543 109.625 38.7759 108.514 38.7759ZM105.488 43.9505C105.488 42.6934 105.985 41.8017 106.979 41.2755C107.973 40.7201 109.479 40.4423 111.496 40.4423V59.6496C111.496 60.9067 110.999 61.813 110.005 62.3684C109.011 62.8947 107.506 63.1578 105.488 63.1578V43.9505ZM126.282 63.1578C123.797 63.1578 121.97 62.4415 120.8 61.009C119.631 59.5765 119.046 57.7347 119.046 55.4836V45.2661H114.398C114.398 43.7751 114.675 42.6642 115.231 41.9333C115.786 41.2024 116.517 40.837 117.424 40.837H119.134V37.3727C119.134 36.1156 119.616 35.2239 120.581 34.6977C121.546 34.1422 123.007 33.8645 124.966 33.8645V40.837H130.798C130.798 42.4157 130.506 43.5558 129.921 44.2575C129.337 44.9299 128.372 45.2661 127.027 45.2661H125.054V55.2644C125.054 56.2291 125.244 56.9308 125.624 57.3693C126.004 57.7786 126.662 57.9832 127.597 57.9832C128.621 57.9832 129.673 57.6909 130.755 57.1062C131.076 57.3985 131.325 57.764 131.5 58.2025C131.705 58.641 131.807 59.0795 131.807 59.518C131.807 60.1027 131.602 60.6728 131.193 61.2283C130.784 61.7837 130.155 62.2515 129.308 62.6315C128.489 62.9824 127.48 63.1578 126.282 63.1578Z" fill="#252A38"/>
<g clip-path="url(#clip0_987_6028)">
<path d="M141.459 53.4061C141.337 53.2845 141.24 53.007 141.353 52.4388C141.462 51.8902 141.748 51.1833 142.209 50.3598C143.127 48.7182 144.686 46.7041 146.672 44.718C148.658 42.732 150.672 41.1736 152.313 40.2554C153.137 39.7948 153.844 39.5083 154.392 39.3992C154.961 39.2862 155.238 39.3836 155.36 39.5052C155.481 39.6268 155.579 39.9043 155.466 40.4725C155.357 41.0211 155.07 41.728 154.609 42.5515C153.691 44.1931 152.133 46.2072 150.147 48.1933C148.161 50.1793 146.147 51.7377 144.505 52.6559C143.682 53.1165 142.975 53.403 142.426 53.5121C141.858 53.6252 141.58 53.5277 141.459 53.4061Z" fill="white" stroke="#252A38" stroke-width="2"/>
<path d="M147.147 47.8228C147.042 47.8762 147.011 47.874 147.005 47.8729C147.004 47.8669 147.002 47.8364 147.055 47.7316C147.118 47.6092 147.232 47.4338 147.4 47.2124C147.734 46.7726 148.244 46.1948 148.851 45.5873C149.459 44.9798 150.036 44.4699 150.476 44.1363C150.698 43.9685 150.873 43.8537 150.995 43.7914C151.1 43.738 151.131 43.7402 151.137 43.7413C151.138 43.7473 151.14 43.7778 151.087 43.8826C151.024 44.005 150.91 44.1804 150.742 44.4017C150.408 44.8416 149.898 45.4194 149.291 46.0269C148.683 46.6344 148.106 47.1443 147.666 47.4778C147.444 47.6457 147.269 47.7604 147.147 47.8228Z" fill="#252A38" stroke="#252A38" stroke-width="1.5"/>
<path d="M145.882 57.8299C145.76 57.7083 145.663 57.4308 145.776 56.8627C145.885 56.3141 146.171 55.6072 146.632 54.7836C147.55 53.1421 149.108 51.1279 151.094 49.1419C153.081 47.1558 155.095 45.5974 156.736 44.6793C157.56 44.2186 158.267 43.9321 158.815 43.823C159.383 43.71 159.661 43.8074 159.783 43.929C159.904 44.0506 160.002 44.3282 159.889 44.8963C159.779 45.4449 159.493 46.1518 159.032 46.9753C158.114 48.6169 156.556 50.6311 154.57 52.6171C152.584 54.6031 150.57 56.1616 148.928 57.0797C148.104 57.5404 147.397 57.8268 146.849 57.936C146.281 58.049 146.003 57.9515 145.882 57.8299Z" fill="white" stroke="#252A38" stroke-width="2"/>
<path d="M153.029 50.7501C152.956 50.7842 152.933 50.7812 152.929 50.7801C152.928 50.7757 152.925 50.7534 152.959 50.6795C152.999 50.5933 153.074 50.4709 153.186 50.3174C153.409 50.0125 153.754 49.6151 154.169 49.2006C154.583 48.7861 154.98 48.4412 155.285 48.2185C155.439 48.1063 155.561 48.0308 155.647 47.991C155.721 47.9569 155.744 47.9598 155.748 47.9609C155.749 47.9653 155.752 47.9876 155.718 48.0615C155.678 48.1477 155.603 48.2701 155.491 48.4236C155.268 48.7286 154.923 49.1259 154.508 49.5404C154.094 49.955 153.696 50.2998 153.392 50.5226C153.238 50.6347 153.116 50.7103 153.029 50.7501Z" fill="#252A38" stroke="#252A38" stroke-width="1.5"/>
<path d="M152.688 61.0235C149.399 64.3126 143.785 64.2617 139.564 60.0408C135.343 55.82 134.918 50.5789 138.207 47.2898C142.843 44.0271 147.111 44.0516 151.332 48.2724C155.553 52.4933 155.744 56.1812 152.688 61.0235Z" fill="white" stroke="#252A38" stroke-width="2"/>
<path d="M147.699 57.5918C148.527 58.4206 149.871 58.4206 150.7 57.5918C151.529 56.763 151.529 55.4193 150.7 54.5905C149.871 53.7617 148.527 53.7617 147.699 54.5905C146.87 55.4193 146.87 56.763 147.699 57.5918Z" stroke="#252A38" stroke-width="0.5"/>
<path d="M148.33 56.9599C148.81 57.4398 149.588 57.4398 150.068 56.9599C150.548 56.4801 150.548 55.7022 150.068 55.2223C149.588 54.7425 148.81 54.7425 148.33 55.2223C147.851 55.7021 147.851 56.4801 148.33 56.9599Z" fill="#252A38" stroke="#252A38" stroke-width="0.5"/>
<path d="M141.696 51.5899C142.524 52.4187 143.868 52.4187 144.697 51.5899C145.526 50.7611 145.526 49.4174 144.697 48.5886C143.868 47.7598 142.524 47.7598 141.696 48.5886C140.867 49.4173 140.867 50.7611 141.696 51.5899Z" stroke="#252A38" stroke-width="0.5"/>
<path d="M142.327 50.958C142.807 51.4378 143.585 51.4378 144.065 50.958C144.545 50.4782 144.545 49.7002 144.065 49.2204C143.585 48.7405 142.807 48.7405 142.327 49.2204C141.848 49.7002 141.848 50.4782 142.327 50.958Z" fill="#252A38" stroke="#252A38" stroke-width="0.5"/>
<path d="M143.575 56.0403L144.616 55.905C144.891 55.8691 145.006 55.5324 144.809 55.3358L143.904 54.4307C143.708 54.2341 143.371 54.3487 143.335 54.6245L143.2 55.6648C143.171 55.8829 143.357 56.0687 143.575 56.0403Z" fill="#252A38" stroke="#252A38" stroke-width="0.5"/>
<path d="M138.972 50.0766C138.068 48.5711 137.128 47.1894 135.347 46.8331" stroke="#252A38" stroke-width="0.5" stroke-linecap="round"/>
<path d="M137.762 50.6487C137.045 49.9564 136.279 49.3591 135.278 49.1825C134.907 49.117 134.259 49.1515 133.946 48.9952" stroke="#252A38" stroke-width="0.5" stroke-linecap="round"/>
<path d="M149.593 60.5703C150.141 61.1465 151.019 61.999 151.246 62.7963C151.378 63.2585 151.543 63.7506 151.691 64.1954" stroke="#252A38" stroke-width="0.5" stroke-linecap="round"/>
<path d="M148.894 61.6523C149.769 62.6941 149.53 64.1036 149.53 65.341" stroke="#252A38" stroke-width="0.5" stroke-linecap="round"/>
<path d="M143.448 55.6153C143.417 56.2638 142.483 56.7926 141.917 56.4621C141.583 56.2673 141.369 55.893 141.204 55.5631" stroke="#252A38" stroke-width="0.5" stroke-linecap="round"/>
<path d="M143.449 55.8242C142.935 56.3384 142.565 56.8114 142.901 57.5209C143.156 58.0596 143.354 57.9543 143.919 57.8602" stroke="#252A38" stroke-width="0.5" stroke-linecap="round"/>
<path d="M139.047 49.2509C137.819 49.2509 136.811 48.8709 136.021 48.1108C135.232 47.3507 134.837 46.3567 134.837 45.1289C134.837 43.9595 135.232 42.9801 136.021 42.1908C136.84 41.3722 137.849 40.9629 139.047 40.9629C140.217 40.9629 141.211 41.3722 142.029 42.1908C142.877 42.9801 143.301 43.9595 143.301 45.1289C143.301 46.3275 142.892 47.3214 142.073 48.1108C141.254 48.8709 140.246 49.2509 139.047 49.2509ZM136.109 70.0369C137.22 69.0429 138.053 67.9905 138.609 66.8795C139.193 65.7978 139.486 64.8916 139.486 64.1608C139.223 64.3362 138.857 64.4238 138.389 64.4238C137.395 64.4238 136.548 64.073 135.846 63.3713C135.174 62.6405 134.837 61.705 134.837 60.5648C134.837 59.3662 135.232 58.3868 136.021 57.6267C136.811 56.8666 137.819 56.4866 139.047 56.4866C140.363 56.4866 141.401 56.9105 142.161 57.7583C142.95 58.5769 143.345 59.5562 143.345 60.6964C143.345 62.6259 143.009 64.3653 142.336 65.9148C141.693 67.4935 140.743 68.8091 139.486 69.8615C139.281 70.0369 138.989 70.1684 138.609 70.2561C138.258 70.3731 137.892 70.4316 137.512 70.4316C136.84 70.4316 136.372 70.3 136.109 70.0369Z" fill="#252A38"/>
</g>
<path d="M14.614 14.9496L14.7213 15.4627C14.7779 15.684 14.8484 15.9448 14.9369 16.2487C15.0253 16.5526 15.1487 16.8798 15.2854 17.2392C15.9522 19.0069 16.754 20.7204 17.6838 22.3646C18.2042 23.2532 18.809 24.0895 19.4898 24.8619C20.0993 25.5655 20.8273 26.1568 21.6408 26.6092C21.9782 26.7942 22.3346 26.9424 22.7037 27.0514C22.9925 27.1381 23.2887 27.1978 23.5886 27.2296L23.9226 27.2492L24.1702 27.2493L24.3805 27.2447L24.3072 26.1267L24.145 26.1313L23.9533 26.1381C23.8787 26.1289 23.7934 26.1242 23.6934 26.1205C23.4597 26.0978 23.2282 26.0569 23.0009 25.9982C22.7004 25.9193 22.4097 25.807 22.1343 25.6634C21.4133 25.2816 20.7587 24.7862 20.1956 24.196C19.524 23.4953 18.9208 22.7319 18.3942 21.9164C17.3841 20.3594 16.4932 18.728 15.729 17.0362C15.4095 16.3467 15.1211 15.7805 14.915 15.3818L14.5816 14.7561L14.614 14.9496Z" fill="#252A38"/>
<path d="M16.3743 6.85623C16.1535 6.27575 15.749 5.78375 15.2224 5.45507C14.6957 5.12639 14.0758 4.97902 13.4569 5.03542C12.838 5.09184 12.2541 5.34893 11.794 5.76755C11.3339 6.18618 11.0228 6.74342 10.9081 7.35448C10.4957 9.42517 12.9812 11.8129 13.9399 13.4751C14.1221 13.7979 14.4481 14.4241 14.0993 14.6607C13.7505 14.8972 13.2907 14.3622 13.0592 14.0726C11.8679 12.5682 10.5745 9.38976 8.49557 9.00083C7.88719 8.88566 7.25744 8.97156 6.7013 9.24556C6.14517 9.51957 5.69281 9.96683 5.4124 10.5199C5.13199 11.073 5.03875 11.7019 5.14674 12.3118C5.25473 12.9217 5.5581 13.4795 6.0111 13.9011C5.43216 14.1257 4.94165 14.5325 4.61382 15.0602C4.28599 15.5878 4.13864 16.2076 4.19408 16.8256C4.24951 17.4437 4.50472 18.0265 4.92107 18.4858C5.33743 18.9451 5.89229 19.256 6.50171 19.3714C8.57091 19.7796 10.9631 17.2884 12.6268 16.3259C12.9459 16.1396 13.58 15.8117 13.8158 16.16C14.0515 16.5084 13.5123 16.9735 13.2223 17.2056C11.7158 18.4004 8.53568 19.7009 8.1386 21.7778C8.01736 22.3894 8.09925 23.0233 8.3718 23.5831C8.64434 24.1429 9.09259 24.5978 9.64821 24.8785C10.2038 25.1592 10.8364 25.2503 11.4493 25.1378C12.0623 25.0254 12.6222 24.7156 13.0435 24.2557C13.266 24.8346 13.6711 25.3249 14.1974 25.6524C14.7238 25.9799 15.3428 26.1268 15.9608 26.0709C16.5788 26.015 17.1623 25.7593 17.6229 25.3425C18.0835 24.9258 18.3962 24.3705 18.5137 23.7609C18.926 21.6902 16.4406 19.3024 15.4819 17.6403C15.2958 17.3141 14.9698 16.6879 15.3185 16.4513C15.6673 16.2147 16.1272 16.7498 16.3626 17.0427C17.5538 18.5472 18.8507 21.7217 20.9228 22.1185C21.5347 22.2385 22.1694 22.1548 22.7301 21.88C23.2907 21.6053 23.7464 21.1547 24.0275 20.5971C24.3086 20.0395 24.3997 19.4055 24.2868 18.7921C24.1738 18.1787 23.8632 17.6195 23.4023 17.2001C23.9812 16.9756 24.4717 16.5687 24.7995 16.041C25.1274 15.5134 25.2747 14.8936 25.2193 14.2756C25.1638 13.6575 24.9086 13.0747 24.4923 12.6154C24.0759 12.156 23.5211 11.8452 22.9116 11.7298C20.8464 11.325 18.4542 13.8162 16.7905 14.7787C16.4675 14.9616 15.8373 15.293 15.6016 14.9446C15.3658 14.5962 15.9011 14.1277 16.195 13.899C17.7015 12.7042 20.8777 11.4003 21.2748 9.32335C21.3911 8.71374 21.3061 8.08322 21.0324 7.52707C20.7587 6.97092 20.3113 6.51938 19.7578 6.2407C19.2042 5.96203 18.5747 5.87137 17.9643 5.98242C17.3538 6.09346 16.7958 6.40019 16.3743 6.85623Z" fill="#252A38"/>
<path d="M16.6124 10.2167L16.4314 10.303C16.2142 10.4189 16.0029 10.5457 15.7983 10.6829L15.5732 10.8426L15.7257 9.96522L15.5418 10.8398C15.5122 10.79 15.462 10.7078 15.3897 10.6066C15.2495 10.4001 15.0971 10.2021 14.9335 10.0136L14.7981 9.86765C14.757 9.8171 14.7119 9.76999 14.6631 9.7268C14.5689 9.64538 14.4801 9.56874 14.4025 9.50168C14.2527 9.37235 14.1333 9.3032 14.1333 9.3032C14.1333 9.3032 14.2359 9.3918 14.3857 9.52113C14.4633 9.58819 14.5493 9.66243 14.6343 9.76015C14.6815 9.80087 14.7166 9.85548 14.7618 9.90415C14.8069 9.95282 14.8468 10.0019 14.8923 10.0557C15.0456 10.2452 15.1884 10.4429 15.3199 10.6482C15.4257 10.8172 15.4888 10.9347 15.4888 10.9347L15.3331 11.7318C15.3007 11.6796 15.2541 11.6102 15.1929 11.5185C15.0795 11.3527 14.9158 11.1385 14.7366 10.9256L14.6013 10.7796C14.5513 10.7364 14.5134 10.6795 14.4663 10.6387C14.372 10.5573 14.2832 10.4807 14.2056 10.4136C14.0558 10.2843 13.9364 10.2151 13.9364 10.2151C13.9364 10.2151 14.039 10.3037 14.1888 10.4331C14.2664 10.5001 14.3524 10.5744 14.4495 10.6582C14.4952 10.7029 14.5386 10.75 14.5793 10.7994C14.6292 10.8425 14.6647 10.9023 14.7098 10.951C14.8731 11.1599 15.0292 11.3772 15.135 11.5462C15.2408 11.7152 15.2882 11.7949 15.3004 11.82L15.1363 12.6099C15.1067 12.56 15.0629 12.4931 15.008 12.4165C14.8677 12.21 14.7154 12.012 14.5517 11.8236L14.4164 11.6776C14.3739 11.6283 14.3289 11.5813 14.2814 11.5368C14.1871 11.4553 14.0984 11.3787 14.0207 11.3116C13.859 11.1962 13.7516 11.1131 13.7516 11.1131C13.7516 11.1131 13.8542 11.2018 14.0039 11.3311C14.0816 11.3981 14.1703 11.4748 14.2526 11.5701C14.2997 11.6108 14.3349 11.6654 14.38 11.7141C14.4251 11.7628 14.4678 11.8142 14.5106 11.8657C14.6639 12.0551 14.8066 12.2529 14.9382 12.4581C15.0144 12.5773 15.0652 12.6698 15.0917 12.712L14.9252 13.5046C14.8956 13.4548 14.8577 13.3978 14.8087 13.3312C14.6679 13.1249 14.5164 12.926 14.3549 12.7355L14.2195 12.5895C14.1696 12.5464 14.1317 12.4894 14.0845 12.4487C13.9902 12.3673 13.9015 12.2906 13.8238 12.2236C13.6741 12.0942 13.5547 12.0251 13.5547 12.0251C13.5547 12.0251 13.6573 12.1137 13.807 12.243C13.8847 12.3101 13.9734 12.3867 14.0557 12.482C14.102 12.5265 14.1446 12.5747 14.1831 12.626C14.2331 12.6691 14.271 12.7261 14.3161 12.7748C14.4794 12.9838 14.6355 13.201 14.7413 13.37C14.8112 13.4741 14.8562 13.5566 14.883 13.604L14.6489 14.7216C14.6664 14.8415 14.6497 14.9641 14.6008 15.0752C14.5519 15.1863 14.4727 15.2814 14.3723 15.3497C14.2719 15.4179 14.1544 15.4565 14.0332 15.4611C13.912 15.4657 13.7921 15.436 13.6871 15.3756L12.5603 15.1835C12.5187 15.1476 12.4685 15.0655 12.3962 14.9642C12.2536 14.7652 12.1216 14.5589 12.0006 14.346C11.973 14.2882 11.9403 14.2308 11.9099 14.1707C11.8787 14.1147 11.851 14.0568 11.8272 13.9973C11.7772 13.8814 11.728 13.7758 11.6951 13.6795L11.5991 13.3589L11.6851 13.6854C11.7153 13.7794 11.7621 13.8878 11.8045 14.0068C11.8469 14.1259 11.8596 14.1224 11.8848 14.1829L11.973 14.361C12.0864 14.5807 12.2137 14.7927 12.3543 14.996C12.3985 15.0681 12.4388 15.1223 12.4708 15.1694L11.6755 15.0308C11.6367 14.9972 11.5782 14.9079 11.4972 14.7943C11.3546 14.5953 11.2225 14.3889 11.1015 14.1761L11.0081 13.9983C10.9805 13.9406 10.9454 13.886 10.923 13.8278C10.9006 13.7697 10.8262 13.6035 10.796 13.5095L10.7001 13.1889L10.7833 13.5131C10.8162 13.6095 10.8603 13.7154 10.9054 13.8369C10.9251 13.8927 10.9578 13.9501 10.9858 14.013L11.074 14.1911C11.1865 14.4099 11.3129 14.6212 11.4525 14.8236C11.505 14.903 11.5513 14.9672 11.5833 15.0142L10.7907 14.878C10.7713 14.8612 10.6993 14.7651 10.5954 14.622C10.4528 14.423 10.3208 14.2166 10.1998 14.0037L10.1091 13.8284C10.0763 13.772 10.0477 13.7133 10.0236 13.6527C9.97641 13.5392 9.92719 13.4336 9.89423 13.3372L9.79829 13.0166L9.88426 13.3431C9.91444 13.4371 9.96126 13.5455 10.0037 13.6646C10.0261 13.7227 10.0588 13.7801 10.084 13.8407L10.1722 14.0188C10.2856 14.2384 10.4129 14.4505 10.5535 14.6537C10.6119 14.743 10.6613 14.8148 10.6985 14.8614L9.89004 14.7212C9.89004 14.7212 9.81217 14.6151 9.69639 14.4521C9.55381 14.253 9.42173 14.0467 9.30072 13.8338L9.20731 13.6561C9.17607 13.6002 9.14842 13.5423 9.12458 13.4828C9.07461 13.3668 9.0254 13.2613 8.99522 13.1673C8.93448 12.9741 8.89927 12.8467 8.89927 12.8467L8.98247 13.1708C9.01265 13.2648 9.05947 13.3732 9.10187 13.4923C9.14426 13.6114 9.15701 13.6078 9.18495 13.6708L9.27322 13.8489C9.38649 14.0676 9.51204 14.2797 9.64929 14.4842C9.7192 14.5882 9.77655 14.662 9.80855 14.709L9.01538 14.5286L9.88651 14.7084C9.85051 14.7501 9.75723 14.7909 9.65584 14.8634C9.44888 15.0038 9.25062 15.1566 9.06214 15.321L8.91312 15.4543C8.86992 15.5044 8.82672 15.5544 8.78592 15.6016C8.70432 15.6961 8.62752 15.785 8.56272 15.8601L8.36133 16.1325L8.58213 15.8768C8.64693 15.8018 8.72373 15.7129 8.80533 15.6184C8.84988 15.572 8.89811 15.5293 8.94955 15.4906L9.09857 15.3573C9.30779 15.1936 9.52533 15.037 9.69451 14.9308C9.86368 14.8246 9.98097 14.756 9.98097 14.756L10.7778 14.9154L10.5667 15.0533C10.3983 15.1698 10.1863 15.3312 9.97299 15.5109L9.82675 15.6466C9.77736 15.6892 9.73028 15.7343 9.68569 15.7819C9.60409 15.8764 9.52728 15.9653 9.46248 16.0404L9.26109 16.3128L9.46803 16.0452L9.70788 15.8011C9.75267 15.7552 9.79988 15.7117 9.84932 15.6709L10.0011 15.54C10.2103 15.3762 10.4279 15.2196 10.5971 15.1134C10.7662 15.0072 10.8484 14.9569 10.8735 14.9447L11.6604 15.1099C11.6244 15.1516 11.5459 15.1808 11.4692 15.2359C11.2626 15.3768 11.0644 15.5296 10.8755 15.6936L10.7265 15.8269C10.6833 15.8769 10.6262 15.9149 10.5854 15.9622C10.5038 16.0567 10.427 16.1456 10.3622 16.2206L10.1609 16.4931L10.3817 16.2374C10.4465 16.1624 10.5233 16.0734 10.6049 15.9789C10.6494 15.9325 10.6976 15.8898 10.7491 15.8512L10.8981 15.7179C11.1073 15.5541 11.3249 15.3975 11.494 15.2913L11.7506 15.1344L12.5402 15.3021L12.3662 15.4138C12.1978 15.5304 11.9858 15.6918 11.7725 15.8714L11.6263 16.0072C11.5812 16.0538 11.5387 16.103 11.4991 16.1544C11.4175 16.2489 11.3407 16.3379 11.2759 16.4129L11.0745 16.6853L11.2953 16.4296C11.3601 16.3546 11.4369 16.2657 11.5185 16.1712C11.5633 16.1253 11.6105 16.0819 11.6599 16.0411L11.8117 15.9101C12.021 15.7464 12.2385 15.5898 12.4077 15.4836C12.4839 15.431 12.5629 15.3826 12.6443 15.3386L13.7586 15.5731C13.9901 15.6041 14.2085 15.6986 14.3894 15.8462C14.4572 16.0694 14.4644 16.3067 14.4104 16.5339L14.2157 17.6563C14.1465 17.7163 14.0731 17.7712 13.9961 17.8209C13.7982 17.9652 13.5925 18.0986 13.38 18.2203L13.2021 18.3142C13.1443 18.3419 13.0869 18.3747 13.0287 18.3973L12.7106 18.5301L12.3923 18.624L12.7138 18.5377C12.8106 18.5097 12.919 18.4626 13.0354 18.4176C13.0958 18.3944 13.1546 18.3675 13.2116 18.3369L13.395 18.2478C13.6122 18.1318 13.8235 18.005 14.0281 17.8679L14.1989 17.7486L14.0615 18.5469L13.8247 18.7257C13.6615 18.8418 13.438 18.9885 13.2059 19.1228L13.0304 19.2138C12.9702 19.2443 12.9127 19.2772 12.8546 19.2997C12.7964 19.3222 12.6353 19.3966 12.5389 19.4298L12.2182 19.5264L12.5448 19.4397C12.6388 19.4093 12.7472 19.3623 12.8636 19.3172C12.9243 19.2948 12.9832 19.2678 13.0398 19.2365L13.2208 19.1503C13.4381 19.0343 13.6494 18.9075 13.854 18.7703L14.0447 18.6391L13.9069 19.4322C13.8901 19.4517 13.7939 19.5238 13.6506 19.6281C13.4524 19.7706 13.2466 19.9023 13.0341 20.0224L12.8562 20.1163C12.7984 20.144 12.741 20.1768 12.6828 20.1994C12.5668 20.2496 12.4611 20.299 12.3647 20.3322L12.0464 20.4261L12.3679 20.3398C12.4647 20.3118 12.5731 20.2647 12.6895 20.2197C12.7498 20.1965 12.8087 20.1696 12.8657 20.139L13.0467 20.0527C13.2844 19.9232 13.5162 19.7837 13.6822 19.67C13.7716 19.6113 13.8434 19.5618 13.8902 19.5245L13.7483 20.3335C13.6548 20.3929 13.5648 20.4578 13.4788 20.5278C13.2796 20.6708 13.073 20.8034 12.8599 20.9248L12.6845 21.0159C12.6281 21.0488 12.5693 21.0775 12.5086 21.1018C12.395 21.1492 12.2894 21.1987 12.193 21.2319L11.8723 21.3285L12.1937 21.2422C12.2929 21.2114 12.4013 21.1644 12.5177 21.1193C12.5787 21.0976 12.6377 21.0706 12.6939 21.0386L12.8749 20.9523C13.0922 20.8364 13.3035 20.7096 13.5081 20.5724L13.736 20.4151L13.5591 21.2084L13.7459 20.3363C13.7875 20.3722 13.8228 20.4658 13.8951 20.5671C14.0354 20.7736 14.1877 20.9716 14.3514 21.16L14.4895 21.3084C14.5305 21.3591 14.5756 21.4062 14.6245 21.4493C14.7188 21.5307 14.8075 21.6073 14.8824 21.672C15.0469 21.7898 15.1516 21.8705 15.1516 21.8705C15.1516 21.8705 15.0517 21.7843 14.8992 21.6525C14.8243 21.5879 14.7356 21.5112 14.6533 21.4159C14.6061 21.3752 14.5562 21.3321 14.5259 21.2719C14.4955 21.2117 14.4261 21.1857 14.3953 21.1203C14.2357 20.9268 14.0873 20.7242 13.9511 20.5135C13.8453 20.3445 13.7822 20.227 13.7822 20.227L13.9407 19.4323C13.9407 19.4323 14.0197 19.5539 14.0782 19.6432C14.1915 19.809 14.3552 20.0232 14.5344 20.2361L14.6697 20.3821C14.7197 20.4252 14.7548 20.4799 14.802 20.5206C14.899 20.6044 14.9878 20.681 15.0626 20.7457C15.2152 20.8774 15.3318 20.9442 15.3318 20.9442C15.3318 20.9442 15.232 20.858 15.0794 20.7262C15.0046 20.6616 14.9158 20.5849 14.8335 20.4896C14.7878 20.4449 14.7444 20.3978 14.7037 20.3484C14.6538 20.3053 14.6183 20.2455 14.5732 20.1968C14.4071 19.9855 14.2538 19.7706 14.1313 19.5872C14.0089 19.4039 13.9782 19.3385 13.966 19.3134L14.1328 18.526C14.1624 18.5758 14.2035 18.6403 14.2584 18.7169C14.3986 18.9234 14.551 19.1214 14.7146 19.3098L14.8527 19.4582C14.8943 19.5067 14.9384 19.553 14.985 19.5967C15.082 19.6805 15.1708 19.7571 15.2456 19.8218C15.3982 19.9535 15.5148 20.0203 15.5148 20.0203C15.5148 20.0203 15.415 19.9341 15.2624 19.8023C15.1876 19.7377 15.0988 19.661 15.0165 19.5657C14.9694 19.525 14.9315 19.468 14.8891 19.4217C14.8468 19.3755 14.8013 19.3216 14.7586 19.2702C14.5989 19.0767 14.4506 18.874 14.3143 18.6633C14.2381 18.5442 14.1872 18.4517 14.1608 18.4094L14.3273 17.6168C14.3689 17.6527 14.3948 17.7237 14.4438 17.7902C14.5846 17.9966 14.7361 18.1955 14.8976 18.3859L15.0358 18.5343C15.0857 18.5775 15.1328 18.6182 15.18 18.6589C15.277 18.7427 15.3658 18.8193 15.4407 18.884C15.5932 19.0157 15.7098 19.0825 15.7098 19.0825C15.7098 19.0825 15.61 18.9963 15.4574 18.8646C15.3826 18.7999 15.2938 18.7232 15.2115 18.6279C15.1656 18.5834 15.1223 18.5362 15.0817 18.4867C15.0318 18.4436 14.9963 18.3838 14.9512 18.3352C14.7851 18.1238 14.629 17.9065 14.5093 17.7255C14.4422 17.6239 14.3972 17.5414 14.3677 17.4916L14.6017 16.374C14.6354 16.1432 14.7312 15.9257 14.8788 15.7449C15.1004 15.6728 15.3376 15.6642 15.5635 15.72L16.6904 15.912C16.732 15.948 16.7821 16.0301 16.8544 16.1313C16.997 16.3304 17.1291 16.5367 17.2501 16.7496L17.3435 16.9273C17.3747 16.9833 17.4024 17.0411 17.4262 17.1006C17.4734 17.2142 17.5254 17.3221 17.5556 17.4161L17.6515 17.7367L17.5683 17.4126C17.5354 17.3162 17.4913 17.2102 17.4462 17.0887C17.4265 17.033 17.3938 16.9756 17.3658 16.9126L17.2776 16.7345C17.1652 16.5158 17.0387 16.3045 16.8991 16.102L16.7826 15.9286L17.5779 16.0672C17.614 16.0984 17.6724 16.1876 17.7562 16.3037C17.8988 16.5027 18.0309 16.7091 18.1519 16.9219C18.1794 16.9797 18.2122 17.0371 18.2425 17.0972C18.2753 17.1536 18.3039 17.2123 18.328 17.273C18.3752 17.3865 18.4244 17.4921 18.4574 17.5885L18.5533 17.909L18.4673 17.5825C18.4372 17.4885 18.3904 17.3802 18.348 17.2611C18.3056 17.142 18.2928 17.1455 18.2676 17.085L18.1794 16.9069C18.0652 16.6873 17.9387 16.4744 17.8005 16.2692L17.6674 16.0814L18.4627 16.22C18.4821 16.2368 18.5541 16.3329 18.6552 16.4736C18.7982 16.6723 18.9303 16.8787 19.0509 17.0918L19.1443 17.2696C19.1756 17.3255 19.2032 17.3834 19.227 17.4429C19.277 17.5588 19.3262 17.6644 19.3564 17.7584L19.4523 18.079L19.3692 17.7548C19.3362 17.6585 19.2921 17.5525 19.2498 17.4334C19.2274 17.3752 19.1946 17.3179 19.1667 17.2549L19.0784 17.0768C18.966 16.858 18.8395 16.6467 18.6999 16.4443C18.6415 16.355 18.5921 16.2832 18.5549 16.2366L19.3634 16.3768C19.3634 16.3768 19.4412 16.4829 19.557 16.6459C19.6996 16.8449 19.8317 17.0513 19.9527 17.2642C19.983 17.3243 20.0158 17.3817 20.0433 17.4395C20.0761 17.4959 20.1047 17.5546 20.1288 17.6152C20.176 17.7288 20.2252 17.8343 20.2582 17.9307L20.3541 18.2513L20.2682 17.9248C20.238 17.8308 20.1912 17.7224 20.1488 17.6033C20.1064 17.4842 20.0936 17.4878 20.0685 17.4272L19.9802 17.2491C19.866 17.0296 19.7396 16.8167 19.6013 16.6114C19.5342 16.5098 19.4769 16.436 19.4421 16.3866L20.3189 16.5373L19.4478 16.3575L19.6812 16.205C19.8871 16.0631 20.0853 15.9103 20.2749 15.7473L20.4212 15.6116C20.4663 15.5649 20.5088 15.5158 20.5484 15.4643C20.63 15.3699 20.7068 15.2809 20.7716 15.2059L20.973 14.9334L20.7522 15.1891L20.5123 15.4332C20.4675 15.4791 20.4203 15.5225 20.3709 15.5633L20.2191 15.6943C20.0285 15.8474 19.8296 15.9898 19.6232 16.1208C19.4544 16.2322 19.3367 16.2955 19.3367 16.2955L18.5399 16.1362C18.5399 16.1362 18.6643 16.0594 18.7534 15.9956C18.9603 15.8552 19.1586 15.7023 19.3471 15.5379L19.4961 15.4046C19.5393 15.3546 19.594 15.3193 19.6372 15.2693C19.7188 15.1748 19.7956 15.0859 19.8604 15.0109L20.0618 14.7384L19.8409 14.9941C19.7761 15.0691 19.6994 15.1581 19.6039 15.2406C19.5593 15.287 19.5111 15.3297 19.4597 15.3683L19.3107 15.5016C19.1014 15.6654 18.8839 15.822 18.7147 15.9282L18.4382 16.097L17.6514 15.9317L17.8425 15.8057C18.0481 15.6633 18.2462 15.5106 18.4362 15.3481L18.5824 15.2124C18.6276 15.1657 18.67 15.1165 18.7097 15.0651C18.7913 14.9706 18.8681 14.8817 18.9329 14.8066L19.1342 14.5342L18.9134 14.7899L18.6736 15.0339C18.6288 15.0798 18.5816 15.1233 18.5322 15.1641L18.3804 15.295C18.1712 15.4588 17.9536 15.6154 17.7844 15.7216C17.6679 15.8005 17.5754 15.8515 17.5279 15.8785L16.741 15.7132L16.9122 15.5991C17.1191 15.4585 17.3174 15.3057 17.5059 15.1415L17.655 15.0081C17.7001 14.9615 17.7425 14.9123 17.7822 14.8609L18.0054 14.6024L18.2044 14.3327L17.986 14.5856C17.9212 14.6607 17.8444 14.7496 17.7628 14.8441C17.722 14.8913 17.6673 14.9266 17.6185 14.9718L17.4667 15.1027C17.277 15.2565 17.079 15.3997 16.8736 15.5317L16.637 15.6767L15.5227 15.4422C15.4021 15.4608 15.2788 15.445 15.167 15.3964C15.0552 15.3479 14.9596 15.2686 14.8911 15.1679C14.8226 15.0671 14.7841 14.9489 14.78 14.827C14.7759 14.7051 14.8065 14.5844 14.8681 14.479L15.0652 13.3538L15.2824 13.192C15.4813 13.0486 15.6879 12.916 15.9012 12.795L16.0791 12.7011C16.1369 12.6734 16.1916 12.6382 16.2498 12.6156L16.5678 12.4828L16.8889 12.3913L16.5647 12.4752C16.4707 12.5056 16.3622 12.5527 16.2431 12.5953C16.1821 12.6154 16.1275 12.6507 16.0669 12.676L15.8835 12.7651C15.6662 12.881 15.4549 13.0078 15.2503 13.145L15.0795 13.2643L15.2198 12.4684L15.4565 12.2896C15.6558 12.1465 15.8623 12.014 16.0754 11.8925L16.2509 11.8015C16.3111 11.771 16.3657 11.7357 16.4239 11.7132L16.7396 11.5831L17.0631 11.4889L16.7365 11.5755C16.6424 11.6059 16.534 11.653 16.4149 11.6957C16.2957 11.7383 16.3016 11.7483 16.2386 11.7764L16.0576 11.8626C15.8404 11.9786 15.6291 12.1054 15.4245 12.2426L15.2365 12.3762L15.3743 11.5831C15.4555 11.5143 15.5403 11.4498 15.6283 11.3899C15.8269 11.246 16.0336 11.1135 16.2471 10.9929L16.425 10.899C16.4828 10.8713 16.5375 10.8361 16.5957 10.8136L16.9138 10.6807L17.2348 10.5892L16.9106 10.6731C16.8166 10.7035 16.7081 10.7506 16.589 10.7932C16.4699 10.8359 16.4734 10.8486 16.4128 10.8739L16.2318 10.9602C16.0137 11.0771 15.8016 11.2048 15.5963 11.3429L15.3883 11.4884L15.5302 10.6794C15.6253 10.6219 15.7163 10.5578 15.8024 10.4875C16.0017 10.3445 16.2083 10.2119 16.4213 10.0904L16.5968 9.99939C16.657 9.96891 16.7117 9.93365 16.7698 9.91112L17.0855 9.78104L17.409 9.6868L17.0848 9.77069L16.7608 9.89358C16.6993 9.99538 16.6496 10.1038 16.6124 10.2167Z" fill="white"/>
<defs>
<clipPath id="clip0_987_6028">
<rect width="33.2827" height="29.8691" fill="white" transform="translate(163 37.5488) rotate(90)"/>
</clipPath>
</defs>
</svg>
